%TF.GenerationSoftware,KiCad,Pcbnew,(7.0.0)*%
%TF.CreationDate,2023-03-11T20:41:09+01:00*%
%TF.ProjectId,StripController,53747269-7043-46f6-9e74-726f6c6c6572,rev?*%
%TF.SameCoordinates,Original*%
%TF.FileFunction,Copper,L1,Top*%
%TF.FilePolarity,Positive*%
%FSLAX46Y46*%
G04 Gerber Fmt 4.6, Leading zero omitted, Abs format (unit mm)*
G04 Created by KiCad (PCBNEW (7.0.0)) date 2023-03-11 20:41:09*
%MOMM*%
%LPD*%
G01*
G04 APERTURE LIST*
G04 Aperture macros list*
%AMRoundRect*
0 Rectangle with rounded corners*
0 $1 Rounding radius*
0 $2 $3 $4 $5 $6 $7 $8 $9 X,Y pos of 4 corners*
0 Add a 4 corners polygon primitive as box body*
4,1,4,$2,$3,$4,$5,$6,$7,$8,$9,$2,$3,0*
0 Add four circle primitives for the rounded corners*
1,1,$1+$1,$2,$3*
1,1,$1+$1,$4,$5*
1,1,$1+$1,$6,$7*
1,1,$1+$1,$8,$9*
0 Add four rect primitives between the rounded corners*
20,1,$1+$1,$2,$3,$4,$5,0*
20,1,$1+$1,$4,$5,$6,$7,0*
20,1,$1+$1,$6,$7,$8,$9,0*
20,1,$1+$1,$8,$9,$2,$3,0*%
%AMFreePoly0*
4,1,61,-0.141464,1.608536,-0.140000,1.605000,-0.140000,1.230000,0.990000,1.230000,0.993536,1.228536,0.995000,1.225000,0.995000,1.180000,1.290000,1.180000,1.293536,1.178536,1.295000,1.175000,1.295000,0.775000,1.293536,0.771464,1.290000,0.770000,0.995000,0.770000,0.995000,0.530000,1.290000,0.530000,1.293536,0.528536,1.295000,0.525000,1.295000,0.125000,1.293536,0.121464,
1.290000,0.120000,0.995000,0.120000,0.995000,-0.120000,1.290000,-0.120000,1.293536,-0.121464,1.295000,-0.125000,1.295000,-0.525000,1.293536,-0.528536,1.290000,-0.530000,0.995000,-0.530000,0.995000,-0.770000,1.290000,-0.770000,1.293536,-0.771464,1.295000,-0.775000,1.295000,-1.175000,1.293536,-1.178536,1.290000,-1.180000,0.995000,-1.180000,0.995000,-1.225000,0.993536,-1.228536,
0.990000,-1.230000,-0.140000,-1.230000,-0.140000,-1.605000,-0.141464,-1.608536,-0.145000,-1.610000,-0.575000,-1.610000,-0.578536,-1.608536,-0.580000,-1.605000,-0.580000,-1.230000,-0.990000,-1.230000,-0.993536,-1.228536,-0.995000,-1.225000,-0.995000,1.225000,-0.993536,1.228536,-0.990000,1.230000,-0.580000,1.230000,-0.580000,1.605000,-0.578536,1.608536,-0.575000,1.610000,-0.145000,1.610000,
-0.141464,1.608536,-0.141464,1.608536,$1*%
G04 Aperture macros list end*
%TA.AperFunction,SMDPad,CuDef*%
%ADD10RoundRect,0.135000X-0.135000X-0.185000X0.135000X-0.185000X0.135000X0.185000X-0.135000X0.185000X0*%
%TD*%
%TA.AperFunction,SMDPad,CuDef*%
%ADD11RoundRect,0.135000X0.185000X-0.135000X0.185000X0.135000X-0.185000X0.135000X-0.185000X-0.135000X0*%
%TD*%
%TA.AperFunction,SMDPad,CuDef*%
%ADD12RoundRect,0.150000X0.150000X-0.512500X0.150000X0.512500X-0.150000X0.512500X-0.150000X-0.512500X0*%
%TD*%
%TA.AperFunction,SMDPad,CuDef*%
%ADD13RoundRect,0.135000X-0.185000X0.135000X-0.185000X-0.135000X0.185000X-0.135000X0.185000X0.135000X0*%
%TD*%
%TA.AperFunction,SMDPad,CuDef*%
%ADD14RoundRect,0.140000X0.170000X-0.140000X0.170000X0.140000X-0.170000X0.140000X-0.170000X-0.140000X0*%
%TD*%
%TA.AperFunction,ConnectorPad*%
%ADD15C,0.787400*%
%TD*%
%TA.AperFunction,SMDPad,CuDef*%
%ADD16RoundRect,0.135000X0.135000X0.185000X-0.135000X0.185000X-0.135000X-0.185000X0.135000X-0.185000X0*%
%TD*%
%TA.AperFunction,SMDPad,CuDef*%
%ADD17R,1.220000X0.650000*%
%TD*%
%TA.AperFunction,SMDPad,CuDef*%
%ADD18R,0.500000X0.350000*%
%TD*%
%TA.AperFunction,SMDPad,CuDef*%
%ADD19FreePoly0,0.000000*%
%TD*%
%TA.AperFunction,SMDPad,CuDef*%
%ADD20RoundRect,0.112500X0.112500X-0.187500X0.112500X0.187500X-0.112500X0.187500X-0.112500X-0.187500X0*%
%TD*%
%TA.AperFunction,SMDPad,CuDef*%
%ADD21R,3.500000X2.350000*%
%TD*%
%TA.AperFunction,SMDPad,CuDef*%
%ADD22RoundRect,0.140000X-0.170000X0.140000X-0.170000X-0.140000X0.170000X-0.140000X0.170000X0.140000X0*%
%TD*%
%TA.AperFunction,SMDPad,CuDef*%
%ADD23RoundRect,0.218750X-0.256250X0.218750X-0.256250X-0.218750X0.256250X-0.218750X0.256250X0.218750X0*%
%TD*%
%TA.AperFunction,SMDPad,CuDef*%
%ADD24RoundRect,0.250000X-0.550000X1.250000X-0.550000X-1.250000X0.550000X-1.250000X0.550000X1.250000X0*%
%TD*%
%TA.AperFunction,SMDPad,CuDef*%
%ADD25RoundRect,0.147500X0.147500X0.172500X-0.147500X0.172500X-0.147500X-0.172500X0.147500X-0.172500X0*%
%TD*%
%TA.AperFunction,SMDPad,CuDef*%
%ADD26RoundRect,0.150000X-0.825000X-0.150000X0.825000X-0.150000X0.825000X0.150000X-0.825000X0.150000X0*%
%TD*%
%TA.AperFunction,ComponentPad*%
%ADD27RoundRect,0.575000X0.575000X-0.575000X0.575000X0.575000X-0.575000X0.575000X-0.575000X-0.575000X0*%
%TD*%
%TA.AperFunction,SMDPad,CuDef*%
%ADD28RoundRect,0.140000X0.140000X0.170000X-0.140000X0.170000X-0.140000X-0.170000X0.140000X-0.170000X0*%
%TD*%
%TA.AperFunction,ComponentPad*%
%ADD29RoundRect,0.250000X0.625000X-0.350000X0.625000X0.350000X-0.625000X0.350000X-0.625000X-0.350000X0*%
%TD*%
%TA.AperFunction,ComponentPad*%
%ADD30O,1.750000X1.200000*%
%TD*%
%TA.AperFunction,ComponentPad*%
%ADD31R,2.600000X2.600000*%
%TD*%
%TA.AperFunction,ComponentPad*%
%ADD32C,2.600000*%
%TD*%
%TA.AperFunction,SMDPad,CuDef*%
%ADD33RoundRect,0.250000X-1.250000X-0.550000X1.250000X-0.550000X1.250000X0.550000X-1.250000X0.550000X0*%
%TD*%
%TA.AperFunction,SMDPad,CuDef*%
%ADD34R,1.400000X1.200000*%
%TD*%
%TA.AperFunction,ComponentPad*%
%ADD35RoundRect,0.575000X-0.575000X0.575000X-0.575000X-0.575000X0.575000X-0.575000X0.575000X0.575000X0*%
%TD*%
%TA.AperFunction,SMDPad,CuDef*%
%ADD36RoundRect,0.050000X0.050000X-0.375000X0.050000X0.375000X-0.050000X0.375000X-0.050000X-0.375000X0*%
%TD*%
%TA.AperFunction,SMDPad,CuDef*%
%ADD37RoundRect,0.050000X0.375000X-0.050000X0.375000X0.050000X-0.375000X0.050000X-0.375000X-0.050000X0*%
%TD*%
%TA.AperFunction,ComponentPad*%
%ADD38C,0.500000*%
%TD*%
%TA.AperFunction,SMDPad,CuDef*%
%ADD39R,1.650000X1.650000*%
%TD*%
%TA.AperFunction,SMDPad,CuDef*%
%ADD40RoundRect,0.250000X1.250000X0.550000X-1.250000X0.550000X-1.250000X-0.550000X1.250000X-0.550000X0*%
%TD*%
%TA.AperFunction,ViaPad*%
%ADD41C,0.400000*%
%TD*%
%TA.AperFunction,ViaPad*%
%ADD42C,0.800000*%
%TD*%
%TA.AperFunction,Conductor*%
%ADD43C,0.152400*%
%TD*%
%TA.AperFunction,Conductor*%
%ADD44C,0.250000*%
%TD*%
%TA.AperFunction,Conductor*%
%ADD45C,0.254000*%
%TD*%
%TA.AperFunction,Conductor*%
%ADD46C,0.127000*%
%TD*%
%TA.AperFunction,Conductor*%
%ADD47C,0.203200*%
%TD*%
%TA.AperFunction,Conductor*%
%ADD48C,0.500000*%
%TD*%
%TA.AperFunction,Conductor*%
%ADD49C,0.508000*%
%TD*%
G04 APERTURE END LIST*
D10*
%TO.P,R24,1*%
%TO.N,WW*%
X21046600Y49788800D03*
%TO.P,R24,2*%
%TO.N,Net-(Q5-G)*%
X22066600Y49788800D03*
%TD*%
D11*
%TO.P,R18,1*%
%TO.N,Voltage*%
X22098000Y33297400D03*
%TO.P,R18,2*%
%TO.N,GND*%
X22098000Y34317400D03*
%TD*%
D12*
%TO.P,IC1,6,SW*%
%TO.N,Net-(IC1-SW)*%
X12766000Y21203500D03*
%TO.P,IC1,5,IN*%
%TO.N,Net-(D1-K)*%
X13716000Y21203500D03*
%TO.P,IC1,4,EN*%
X14666000Y21203500D03*
%TO.P,IC1,3,FB*%
%TO.N,Net-(IC1-FB)*%
X14666000Y18928500D03*
%TO.P,IC1,2,GND*%
%TO.N,GND*%
X13716000Y18928500D03*
%TO.P,IC1,1,CB*%
%TO.N,Net-(IC1-CB)*%
X12766000Y18928500D03*
%TD*%
D13*
%TO.P,R11,1*%
%TO.N,+5V*%
X21429600Y57336600D03*
%TO.P,R11,2*%
%TO.N,Net-(D2-A)*%
X21429600Y56316600D03*
%TD*%
D14*
%TO.P,C10,1*%
%TO.N,Net-(IC2-PA1{slash}OSCI)*%
X9644000Y41130000D03*
%TO.P,C10,2*%
%TO.N,GND*%
X9644000Y42090000D03*
%TD*%
D15*
%TO.P,J5,1,Pin_1*%
%TO.N,+5V*%
X15240000Y56515000D03*
%TO.P,J5,2,Pin_2*%
%TO.N,SWD*%
X15240000Y55245000D03*
%TO.P,J5,3,Pin_3*%
%TO.N,NRST*%
X13970000Y56515000D03*
%TO.P,J5,4,Pin_4*%
%TO.N,SCK*%
X13970000Y55245000D03*
%TO.P,J5,5,Pin_5*%
%TO.N,GND*%
X12700000Y56515000D03*
%TO.P,J5,6,Pin_6*%
%TO.N,unconnected-(J5-Pin_6-Pad6)*%
X12700000Y55245000D03*
%TD*%
D10*
%TO.P,R14,1*%
%TO.N,Net-(U2-DE)*%
X2080800Y14046200D03*
%TO.P,R14,2*%
%TO.N,+5V*%
X3100800Y14046200D03*
%TD*%
D11*
%TO.P,R10,1*%
%TO.N,GND*%
X23114000Y48766000D03*
%TO.P,R10,2*%
%TO.N,Net-(Q5-G)*%
X23114000Y49786000D03*
%TD*%
D16*
%TO.P,TH1,1*%
%TO.N,Temp*%
X3700000Y48877800D03*
%TO.P,TH1,2*%
%TO.N,GND*%
X2680000Y48877800D03*
%TD*%
D17*
%TO.P,Q6,1,G*%
%TO.N,Net-(D1-A)*%
X18799999Y24999999D03*
%TO.P,Q6,2,S*%
%TO.N,Net-(D1-K)*%
X18799999Y23099999D03*
%TO.P,Q6,3,D*%
%TO.N,Net-(Q6-D)*%
X21419999Y24049999D03*
%TD*%
D18*
%TO.P,Q1,1,S*%
%TO.N,GND*%
X24507999Y46694999D03*
%TO.P,Q1,2,S*%
X24507999Y46044999D03*
%TO.P,Q1,3,S*%
X24507999Y45394999D03*
%TO.P,Q1,4,G*%
%TO.N,Net-(Q1-G)*%
X24507999Y44744999D03*
D19*
%TO.P,Q1,5,D*%
%TO.N,W_OUT*%
X26268000Y45720000D03*
%TD*%
D11*
%TO.P,R2,1*%
%TO.N,GND*%
X23114000Y43686000D03*
%TO.P,R2,2*%
%TO.N,Net-(Q1-G)*%
X23114000Y44706000D03*
%TD*%
D20*
%TO.P,D1,1,K*%
%TO.N,Net-(D1-K)*%
X16756000Y23770600D03*
%TO.P,D1,2,A*%
%TO.N,Net-(D1-A)*%
X16756000Y25870600D03*
%TD*%
D14*
%TO.P,C4,1*%
%TO.N,Net-(IC1-CB)*%
X11176000Y19586000D03*
%TO.P,C4,2*%
%TO.N,Net-(IC1-SW)*%
X11176000Y20546000D03*
%TD*%
D21*
%TO.P,L1,1,1*%
%TO.N,Net-(IC1-SW)*%
X9905999Y23390999D03*
%TO.P,L1,2,2*%
%TO.N,+5V*%
X9905999Y29440999D03*
%TD*%
D18*
%TO.P,Q2,1,S*%
%TO.N,GND*%
X24507999Y31200999D03*
%TO.P,Q2,2,S*%
X24507999Y30550999D03*
%TO.P,Q2,3,S*%
X24507999Y29900999D03*
%TO.P,Q2,4,G*%
%TO.N,Net-(Q2-G)*%
X24507999Y29250999D03*
D19*
%TO.P,Q2,5,D*%
%TO.N,R_OUT*%
X26268000Y30226000D03*
%TD*%
D22*
%TO.P,C8,1*%
%TO.N,+5V*%
X15798800Y45511600D03*
%TO.P,C8,2*%
%TO.N,GND*%
X15798800Y44551600D03*
%TD*%
D23*
%TO.P,D2,1,K*%
%TO.N,GND*%
X23487000Y57053300D03*
%TO.P,D2,2,A*%
%TO.N,Net-(D2-A)*%
X23487000Y55478300D03*
%TD*%
D18*
%TO.P,Q5,1,S*%
%TO.N,GND*%
X24507999Y51774999D03*
%TO.P,Q5,2,S*%
X24507999Y51124999D03*
%TO.P,Q5,3,S*%
X24507999Y50474999D03*
%TO.P,Q5,4,G*%
%TO.N,Net-(Q5-G)*%
X24507999Y49824999D03*
D19*
%TO.P,Q5,5,D*%
%TO.N,WW_OUT*%
X26268000Y50800000D03*
%TD*%
D10*
%TO.P,R19,1*%
%TO.N,+5V*%
X2680000Y50147800D03*
%TO.P,R19,2*%
%TO.N,Temp*%
X3700000Y50147800D03*
%TD*%
D13*
%TO.P,R21,1*%
%TO.N,G*%
X22115400Y36481200D03*
%TO.P,R21,2*%
%TO.N,Net-(Q3-G)*%
X22115400Y35461200D03*
%TD*%
D24*
%TO.P,C3,1*%
%TO.N,Net-(D1-K)*%
X18796000Y20234000D03*
%TO.P,C3,2*%
%TO.N,GND*%
X18796000Y15834000D03*
%TD*%
D25*
%TO.P,F2,1*%
%TO.N,Net-(J4-Pin_1)*%
X21590000Y14224000D03*
%TO.P,F2,2*%
%TO.N,Net-(Q6-D)*%
X20620000Y14224000D03*
%TD*%
D13*
%TO.P,R20,1*%
%TO.N,R*%
X21023200Y30112600D03*
%TO.P,R20,2*%
%TO.N,Net-(Q2-G)*%
X21023200Y29092600D03*
%TD*%
D26*
%TO.P,U2,1,RO*%
%TO.N,U2_RO*%
X2630400Y12573000D03*
%TO.P,U2,2,~{RE}*%
%TO.N,U2_RE*%
X2630400Y11303000D03*
%TO.P,U2,3,DE*%
%TO.N,U2_DE*%
X2630400Y10033000D03*
%TO.P,U2,4,DI*%
%TO.N,U2_DI*%
X2630400Y8763000D03*
%TO.P,U2,5,GND*%
%TO.N,GND*%
X7580400Y8763000D03*
%TO.P,U2,6,A*%
%TO.N,RA*%
X7580400Y10033000D03*
%TO.P,U2,7,B*%
%TO.N,RB*%
X7580400Y11303000D03*
%TO.P,U2,8,VCC*%
%TO.N,+5V*%
X7580400Y12573000D03*
%TD*%
D27*
%TO.P,J10,1,Pin_1*%
%TO.N,VCC*%
X25176100Y20150800D03*
X25176100Y25300800D03*
%TD*%
D28*
%TO.P,C13,1*%
%TO.N,Temp*%
X3670000Y47607800D03*
%TO.P,C13,2*%
%TO.N,GND*%
X2710000Y47607800D03*
%TD*%
D14*
%TO.P,C1,1*%
%TO.N,Net-(D1-K)*%
X16256000Y21618000D03*
%TO.P,C1,2*%
%TO.N,GND*%
X16256000Y22578000D03*
%TD*%
D11*
%TO.P,R6,1*%
%TO.N,GND*%
X23114000Y33272000D03*
%TO.P,R6,2*%
%TO.N,Net-(Q3-G)*%
X23114000Y34292000D03*
%TD*%
D29*
%TO.P,J6,1,Pin_1*%
%TO.N,TA*%
X11642000Y6794000D03*
D30*
%TO.P,J6,2,Pin_2*%
%TO.N,TB*%
X11641999Y8793999D03*
%TO.P,J6,3,Pin_3*%
%TO.N,GND*%
X11641999Y10793999D03*
%TD*%
D11*
%TO.P,R5,1*%
%TO.N,GND*%
X14224000Y26414000D03*
%TO.P,R5,2*%
%TO.N,Net-(IC1-FB)*%
X14224000Y27434000D03*
%TD*%
D28*
%TO.P,C2,1*%
%TO.N,+5V*%
X7592000Y14071600D03*
%TO.P,C2,2*%
%TO.N,GND*%
X6632000Y14071600D03*
%TD*%
D10*
%TO.P,R3,1*%
%TO.N,Net-(D1-A)*%
X18354200Y26420800D03*
%TO.P,R3,2*%
%TO.N,GND*%
X19374200Y26420800D03*
%TD*%
D13*
%TO.P,R8,1*%
%TO.N,GND*%
X22098000Y30133200D03*
%TO.P,R8,2*%
%TO.N,Net-(Q2-G)*%
X22098000Y29113200D03*
%TD*%
D26*
%TO.P,U4,1,RO*%
%TO.N,U2_RO*%
X2630400Y19685000D03*
%TO.P,U4,2,~{RE}*%
%TO.N,Net-(U4-DE)*%
X2630400Y18415000D03*
%TO.P,U4,3,DE*%
X2630400Y17145000D03*
%TO.P,U4,4,DI*%
%TO.N,unconnected-(U4-DI-Pad4)*%
X2630400Y15875000D03*
%TO.P,U4,5,GND*%
%TO.N,GND*%
X7580400Y15875000D03*
%TO.P,U4,6,A*%
%TO.N,TA*%
X7580400Y17145000D03*
%TO.P,U4,7,B*%
%TO.N,TB*%
X7580400Y18415000D03*
%TO.P,U4,8,VCC*%
%TO.N,+5V*%
X7580400Y19685000D03*
%TD*%
D28*
%TO.P,C5,1*%
%TO.N,+5V*%
X7617400Y21132800D03*
%TO.P,C5,2*%
%TO.N,GND*%
X6657400Y21132800D03*
%TD*%
D13*
%TO.P,R12,1*%
%TO.N,+5V*%
X20193800Y57336600D03*
%TO.P,R12,2*%
%TO.N,Net-(D3-A)*%
X20193800Y56316600D03*
%TD*%
%TO.P,R22,1*%
%TO.N,B*%
X22013800Y40648800D03*
%TO.P,R22,2*%
%TO.N,Net-(Q4-G)*%
X22013800Y39628800D03*
%TD*%
%TO.P,R23,1*%
%TO.N,W*%
X22039200Y45726800D03*
%TO.P,R23,2*%
%TO.N,Net-(Q1-G)*%
X22039200Y44706800D03*
%TD*%
D18*
%TO.P,Q4,1,S*%
%TO.N,GND*%
X24507999Y41614999D03*
%TO.P,Q4,2,S*%
X24507999Y40964999D03*
%TO.P,Q4,3,S*%
X24507999Y40314999D03*
%TO.P,Q4,4,G*%
%TO.N,Net-(Q4-G)*%
X24507999Y39664999D03*
D19*
%TO.P,Q4,5,D*%
%TO.N,B_OUT*%
X26268000Y40640000D03*
%TD*%
D23*
%TO.P,D3,1,K*%
%TO.N,StateLed1*%
X25738800Y57047100D03*
%TO.P,D3,2,A*%
%TO.N,Net-(D3-A)*%
X25738800Y55472100D03*
%TD*%
D22*
%TO.P,C11,1*%
%TO.N,Net-(IC2-PA2{slash}OSCO)*%
X15232000Y42090000D03*
%TO.P,C11,2*%
%TO.N,GND*%
X15232000Y41130000D03*
%TD*%
D31*
%TO.P,J2,1,Pin_1*%
%TO.N,VCC*%
X34289999Y23955999D03*
D32*
%TO.P,J2,2,Pin_2*%
%TO.N,R_OUT*%
X34290000Y28956000D03*
%TO.P,J2,3,Pin_3*%
%TO.N,G_OUT*%
X34290000Y33956000D03*
%TO.P,J2,4,Pin_4*%
%TO.N,B_OUT*%
X34290000Y38956000D03*
%TO.P,J2,5,Pin_5*%
%TO.N,W_OUT*%
X34290000Y43956000D03*
%TO.P,J2,6,Pin_6*%
%TO.N,WW_OUT*%
X34290000Y48956000D03*
%TD*%
D23*
%TO.P,D4,1,K*%
%TO.N,StateLed0*%
X28008200Y57053300D03*
%TO.P,D4,2,A*%
%TO.N,Net-(D4-A)*%
X28008200Y55478300D03*
%TD*%
D11*
%TO.P,R4,1*%
%TO.N,Net-(IC1-FB)*%
X14224000Y28700000D03*
%TO.P,R4,2*%
%TO.N,+5V*%
X14224000Y29720000D03*
%TD*%
D31*
%TO.P,J4,1,Pin_1*%
%TO.N,Net-(J4-Pin_1)*%
X34289999Y11175999D03*
D32*
%TO.P,J4,2,Pin_2*%
%TO.N,GND*%
X34290000Y16176000D03*
%TD*%
D33*
%TO.P,C9,1*%
%TO.N,+5V*%
X12024000Y33784000D03*
%TO.P,C9,2*%
%TO.N,GND*%
X16424000Y33784000D03*
%TD*%
D20*
%TO.P,D5,1,K*%
%TO.N,Voltage*%
X20540600Y33498800D03*
%TO.P,D5,2,A*%
%TO.N,GND*%
X20540600Y35598800D03*
%TD*%
D22*
%TO.P,C6,1*%
%TO.N,+5V*%
X15392400Y29718000D03*
%TO.P,C6,2*%
%TO.N,GND*%
X15392400Y28758000D03*
%TD*%
D18*
%TO.P,Q3,1,S*%
%TO.N,GND*%
X24507999Y36280999D03*
%TO.P,Q3,2,S*%
X24507999Y35630999D03*
%TO.P,Q3,3,S*%
X24507999Y34980999D03*
%TO.P,Q3,4,G*%
%TO.N,Net-(Q3-G)*%
X24507999Y34330999D03*
D19*
%TO.P,Q3,5,D*%
%TO.N,G_OUT*%
X26268000Y35306000D03*
%TD*%
D34*
%TO.P,Y2,1,1*%
%TO.N,Net-(IC2-PA1{slash}OSCI)*%
X11337999Y40847999D03*
%TO.P,Y2,2,2*%
%TO.N,GND*%
X13537999Y40847999D03*
%TO.P,Y2,3,3*%
%TO.N,Net-(IC2-PA2{slash}OSCO)*%
X13537999Y42547999D03*
%TO.P,Y2,4,4*%
%TO.N,GND*%
X11337999Y42547999D03*
%TD*%
D16*
%TO.P,R15,1*%
%TO.N,GND*%
X2999200Y21132800D03*
%TO.P,R15,2*%
%TO.N,Net-(U4-DE)*%
X1979200Y21132800D03*
%TD*%
D11*
%TO.P,R9,1*%
%TO.N,GND*%
X23114000Y38606000D03*
%TO.P,R9,2*%
%TO.N,Net-(Q4-G)*%
X23114000Y39626000D03*
%TD*%
D35*
%TO.P,J9,1,Pin_1*%
%TO.N,Net-(J4-Pin_1)*%
X25176100Y9850000D03*
X25176100Y4700000D03*
%TD*%
D36*
%TO.P,IC2,1,PD7/NRST*%
%TO.N,NRST*%
X12056000Y45108000D03*
%TO.P,IC2,2,PA1/OSCI*%
%TO.N,Net-(IC2-PA1{slash}OSCI)*%
X12456000Y45108000D03*
%TO.P,IC2,3,PA2/OSCO*%
%TO.N,Net-(IC2-PA2{slash}OSCO)*%
X12856000Y45108000D03*
%TO.P,IC2,4,Vss*%
%TO.N,GND*%
X13256000Y45108000D03*
%TO.P,IC2,5,PD0*%
%TO.N,unconnected-(IC2-PD0-Pad5)*%
X13656000Y45108000D03*
D37*
%TO.P,IC2,6,VDD*%
%TO.N,+5V*%
X14306000Y45758000D03*
%TO.P,IC2,7,PC0*%
%TO.N,R*%
X14306000Y46158000D03*
%TO.P,IC2,8,PC1*%
%TO.N,StateLed0*%
X14306000Y46558000D03*
%TO.P,IC2,9,PC2*%
%TO.N,StateLed1*%
X14306000Y46958000D03*
%TO.P,IC2,10,PC3*%
%TO.N,Voltage*%
X14306000Y47358000D03*
D36*
%TO.P,IC2,11,PC4*%
%TO.N,U2_DE*%
X13656000Y48008000D03*
%TO.P,IC2,12,PC5*%
%TO.N,U2_RE*%
X13256000Y48008000D03*
%TO.P,IC2,13,PC6*%
%TO.N,G*%
X12856000Y48008000D03*
%TO.P,IC2,14,PC7*%
%TO.N,B*%
X12456000Y48008000D03*
%TO.P,IC2,15,PD1*%
%TO.N,SWD*%
X12056000Y48008000D03*
D37*
%TO.P,IC2,16,PD2*%
%TO.N,Temp*%
X11406000Y47358000D03*
%TO.P,IC2,17,PD3*%
%TO.N,W*%
X11406000Y46958000D03*
%TO.P,IC2,18,PD4*%
%TO.N,WW*%
X11406000Y46558000D03*
%TO.P,IC2,19,PD5*%
%TO.N,U2_DI*%
X11406000Y46158000D03*
%TO.P,IC2,20,PD6*%
%TO.N,U2_RO*%
X11406000Y45758000D03*
D38*
%TO.P,IC2,21,Vss_Pad*%
%TO.N,GND*%
X12281000Y45983000D03*
X13431000Y45983000D03*
D39*
X12855999Y46557999D03*
D38*
X12281000Y47133000D03*
X13431000Y47133000D03*
%TD*%
D11*
%TO.P,R14,1*%
%TO.N,VCC*%
X21031200Y31290000D03*
%TO.P,R14,2*%
%TO.N,Voltage*%
X21031200Y32310000D03*
%TD*%
D40*
%TO.P,C7,1*%
%TO.N,+5V*%
X7788000Y33782000D03*
%TO.P,C7,2*%
%TO.N,GND*%
X3388000Y33782000D03*
%TD*%
D22*
%TO.P,C12,1*%
%TO.N,Voltage*%
X22090000Y32311000D03*
%TO.P,C12,2*%
%TO.N,GND*%
X22090000Y31351000D03*
%TD*%
D13*
%TO.P,R13,1*%
%TO.N,+5V*%
X18991200Y57336600D03*
%TO.P,R13,2*%
%TO.N,Net-(D4-A)*%
X18991200Y56316600D03*
%TD*%
D29*
%TO.P,J1,1,Pin_1*%
%TO.N,RA*%
X18288000Y6858000D03*
D30*
%TO.P,J1,2,Pin_2*%
%TO.N,RB*%
X18287999Y8857999D03*
%TO.P,J1,3,Pin_3*%
%TO.N,GND*%
X18287999Y10857999D03*
%TD*%
D41*
%TO.N,VCC*%
X21031200Y30810200D03*
%TO.N,GND*%
X23114000Y46228000D03*
X1270000Y33528000D03*
X23114000Y50800000D03*
X12700000Y57600000D03*
D42*
X17272000Y16764000D03*
D41*
X23622000Y35306000D03*
X23487000Y57732800D03*
X15798800Y43990200D03*
X2119000Y48858400D03*
X23622000Y50800000D03*
X23622000Y46736000D03*
X23622000Y35814000D03*
X23114000Y35306000D03*
X7645400Y8128000D03*
X23114000Y40640000D03*
X23876000Y30226000D03*
X23114000Y41656000D03*
X13581000Y39832000D03*
X23368000Y30734000D03*
X23114000Y48260000D03*
X1270000Y34036000D03*
X23368000Y30226000D03*
X23876000Y30734000D03*
X23114000Y51816000D03*
X23114000Y43180000D03*
X22098000Y34785400D03*
X23114000Y46736000D03*
X762000Y33528000D03*
X13716000Y18034000D03*
X6121400Y14046200D03*
X19956400Y26420800D03*
X20540600Y36149000D03*
X23622000Y41656000D03*
X22098000Y30734000D03*
X23114000Y38100000D03*
X2119000Y47607800D03*
X23114000Y35814000D03*
X23368000Y31242000D03*
X19050000Y33528000D03*
D42*
X17272000Y15748000D03*
D41*
X23114000Y32766000D03*
X762000Y34036000D03*
X13454000Y44272200D03*
X18542000Y34036000D03*
X23622000Y46228000D03*
X23114000Y41148000D03*
X23114000Y36322000D03*
X15240000Y40622000D03*
X23622000Y51816000D03*
X19050000Y34036000D03*
X8813800Y15875000D03*
X9644000Y42598000D03*
X6121400Y21132800D03*
X23622000Y40640000D03*
X15392400Y28219400D03*
X13716000Y17526000D03*
X23114000Y51308000D03*
X2997200Y21844000D03*
X23114000Y45720000D03*
X23622000Y51308000D03*
X23622000Y41148000D03*
X14224000Y25908000D03*
X23622000Y36322000D03*
X15748000Y22606000D03*
X23622000Y45720000D03*
X18542000Y33528000D03*
D42*
X17272000Y14732000D03*
D41*
X11295000Y43388000D03*
X23876000Y31242000D03*
D42*
%TO.N,+5V*%
X18180400Y58147400D03*
D41*
%TO.N,Net-(IC1-FB)*%
X14666000Y18034000D03*
X14224000Y28067000D03*
%TO.N,U2_RO*%
X9504900Y45395100D03*
X4013200Y19710400D03*
X4013200Y12573000D03*
%TO.N,U2_DI*%
X9646055Y43653945D03*
X4064000Y8763000D03*
%TO.N,StateLed0*%
X27999400Y57732800D03*
X17264000Y45928000D03*
%TO.N,StateLed1*%
X25747600Y57758200D03*
X17272000Y46710600D03*
%TO.N,NRST*%
X13970000Y57630000D03*
X11700000Y44400000D03*
%TO.N,SWD*%
X11600000Y49500000D03*
X15240000Y53827400D03*
%TO.N,U2_RE*%
X4064000Y11328400D03*
X13411200Y48914063D03*
%TO.N,U2_DE*%
X14147800Y48920400D03*
X4064000Y10033000D03*
%TO.N,Temp*%
X9128700Y48895000D03*
X10972800Y48895000D03*
%TD*%
D43*
%TO.N,Voltage*%
X19902400Y44788200D02*
X19902400Y43896000D01*
%TO.N,Net-(Q2-G)*%
X24471800Y29214800D02*
X24508000Y29251000D01*
X22177200Y29214800D02*
X24471800Y29214800D01*
%TO.N,R*%
X20894200Y30207400D02*
X20960551Y30207400D01*
X19550000Y31551600D02*
X20894200Y30207400D01*
X16050996Y46158000D02*
X19550000Y42658996D01*
X14306000Y46158000D02*
X16050996Y46158000D01*
X19550000Y42658996D02*
X19550000Y31551600D01*
%TO.N,VCC*%
X21031200Y30810200D02*
X21031200Y31290800D01*
D44*
%TO.N,GND*%
X6479600Y14046200D02*
X6657400Y14224000D01*
X8813800Y15875000D02*
X7580400Y15875000D01*
X7645400Y8128000D02*
X7645400Y8698000D01*
X19956400Y26420800D02*
X19374200Y26420800D01*
X12700000Y56515000D02*
X12700000Y57600000D01*
X20540600Y36149000D02*
X20540600Y35598800D01*
D45*
X2999200Y21791200D02*
X2997200Y21793200D01*
D44*
X23114000Y48766000D02*
X23114000Y48260000D01*
D43*
X13581000Y39832000D02*
X13581000Y40805000D01*
X13581000Y40805000D02*
X13538000Y40848000D01*
D44*
X7645400Y8698000D02*
X7580400Y8763000D01*
D46*
X13256000Y44470200D02*
X13256000Y45108000D01*
D44*
X15748000Y22606000D02*
X16228000Y22606000D01*
D45*
X2119000Y47607800D02*
X2710000Y47607800D01*
X2999200Y21132800D02*
X2999200Y21791200D01*
D44*
X15240000Y41122000D02*
X15232000Y41130000D01*
X22098000Y30734000D02*
X22098000Y30228000D01*
D43*
X15798800Y43990200D02*
X15798800Y44551600D01*
D47*
X6121400Y21132800D02*
X6657400Y21132800D01*
D44*
X23114000Y38606000D02*
X23114000Y38100000D01*
X13716000Y18928500D02*
X13716000Y18034000D01*
D43*
X15392400Y28219400D02*
X15392400Y28758000D01*
X11295000Y42591000D02*
X11338000Y42548000D01*
D44*
X23114000Y33272000D02*
X23114000Y32766000D01*
X9644000Y42598000D02*
X9644000Y42062000D01*
X16228000Y22606000D02*
X16256000Y22578000D01*
X23114000Y43686000D02*
X23114000Y43180000D01*
X23487000Y56750800D02*
X23487000Y57732800D01*
D45*
X2119000Y48858400D02*
X2710000Y48858400D01*
D44*
X15240000Y40622000D02*
X15240000Y41122000D01*
D43*
X11295000Y43388000D02*
X11295000Y42591000D01*
D48*
X13716000Y17526000D02*
X13716000Y18928500D01*
D44*
X17358000Y15834000D02*
X17272000Y15748000D01*
X6121400Y14046200D02*
X6479600Y14046200D01*
X22098000Y34785400D02*
X22098000Y34317400D01*
X22098000Y31346200D02*
X22098000Y30734000D01*
X14224000Y25908000D02*
X14224000Y26414000D01*
D46*
X13454000Y44272200D02*
X13256000Y44470200D01*
D44*
%TO.N,+5V*%
X7617400Y21132800D02*
X7617400Y19722000D01*
D45*
X5867400Y21769800D02*
X5596400Y21769800D01*
X5918200Y30937200D02*
X7442200Y32461200D01*
D49*
X1100000Y50900000D02*
X2100000Y51900000D01*
X1100000Y43000000D02*
X1100000Y49800000D01*
D45*
X6096000Y14960600D02*
X5588000Y14960600D01*
D49*
X1100000Y50100000D02*
X1100000Y50500000D01*
D45*
X5588000Y15265400D02*
X5283200Y14960600D01*
X3100800Y14046200D02*
X3987800Y14046200D01*
D44*
X7580400Y12573000D02*
X7580400Y14187000D01*
D43*
X16500000Y37800000D02*
X12484000Y33784000D01*
D49*
X18180400Y58147400D02*
X17527800Y58800000D01*
D44*
X7617400Y19722000D02*
X7580400Y19685000D01*
D49*
X9130200Y58800000D02*
X15200000Y58800000D01*
D44*
X1452200Y50147800D02*
X1100000Y50500000D01*
D45*
X7592000Y14071600D02*
X7592000Y14556800D01*
D43*
X14306000Y45758000D02*
X15400000Y45758000D01*
D49*
X18180400Y58147400D02*
X18991200Y57336600D01*
D44*
X1500000Y50147800D02*
X1452200Y50147800D01*
D49*
X8145400Y57815200D02*
X9130200Y58800000D01*
D44*
X15240000Y58760000D02*
X15200000Y58800000D01*
D43*
X15552400Y45758000D02*
X15798800Y45511600D01*
X12484000Y33784000D02*
X12024000Y33784000D01*
D49*
X7788000Y36312000D02*
X1100000Y43000000D01*
X1100000Y49800000D02*
X1100000Y50100000D01*
D43*
X15400000Y45758000D02*
X15552400Y45758000D01*
D44*
X1500000Y50147800D02*
X1447800Y50147800D01*
D49*
X8145400Y53945400D02*
X8145400Y57815200D01*
D45*
X5594400Y15265400D02*
X5594400Y14967000D01*
D43*
X15798800Y45511600D02*
X16500000Y44810400D01*
D44*
X14224000Y29720000D02*
X14224000Y30480000D01*
D45*
X5594400Y21767800D02*
X5594400Y22021800D01*
X5588000Y14960600D02*
X5283200Y14960600D01*
D43*
X15400000Y45758000D02*
X15646400Y45511600D01*
D45*
X5596400Y21769800D02*
X5594400Y21767800D01*
X4902200Y14960600D02*
X5283200Y14960600D01*
D44*
X15390400Y29720000D02*
X15392400Y29718000D01*
X9906000Y29441000D02*
X10391000Y29441000D01*
D45*
X6299200Y14960600D02*
X6096000Y14960600D01*
X5588000Y30607000D02*
X5918200Y30937200D01*
X5594400Y21513800D02*
X5594400Y15265400D01*
X5594400Y22021800D02*
X5594400Y30613400D01*
D44*
X1147800Y50147800D02*
X1100000Y50100000D01*
D49*
X2100000Y51900000D02*
X6100000Y51900000D01*
D45*
X5846400Y21769800D02*
X5594400Y22021800D01*
X5850400Y21769800D02*
X5846400Y21769800D01*
X3987800Y14046200D02*
X4902200Y14960600D01*
X5594400Y30613400D02*
X5918200Y30937200D01*
D49*
X6100000Y51900000D02*
X8145400Y53945400D01*
D45*
X7188200Y14960600D02*
X6299200Y14960600D01*
X5594400Y21513800D02*
X5594400Y21767800D01*
X5892800Y14960600D02*
X6096000Y14960600D01*
X5867400Y21769800D02*
X5850400Y21769800D01*
D44*
X2680000Y50147800D02*
X1500000Y50147800D01*
D49*
X1100000Y50500000D02*
X1100000Y50900000D01*
X18991200Y57336600D02*
X21429600Y57336600D01*
D45*
X7592000Y14556800D02*
X7188200Y14960600D01*
D43*
X16500000Y44810400D02*
X16500000Y37800000D01*
D44*
X14224000Y29720000D02*
X15390400Y29720000D01*
D45*
X7617400Y21132800D02*
X7617400Y21143238D01*
X5594400Y15265400D02*
X5588000Y15265400D01*
D49*
X7788000Y33782000D02*
X7788000Y36312000D01*
D44*
X15240000Y56515000D02*
X15240000Y58760000D01*
D49*
X17527800Y58800000D02*
X15200000Y58800000D01*
D45*
X5594400Y14967000D02*
X5588000Y14960600D01*
D44*
X14224000Y30480000D02*
X12446000Y32258000D01*
D43*
X15646400Y45511600D02*
X15798800Y45511600D01*
D45*
X5850400Y21769800D02*
X5594400Y21513800D01*
X6990838Y21769800D02*
X5867400Y21769800D01*
X7617400Y21143238D02*
X6990838Y21769800D01*
X5588000Y15265400D02*
X5892800Y14960600D01*
D44*
X1500000Y50147800D02*
X1147800Y50147800D01*
X1447800Y50147800D02*
X1100000Y49800000D01*
%TO.N,Net-(IC1-CB)*%
X11176000Y19558000D02*
X11805500Y18928500D01*
X11805500Y18928500D02*
X12766000Y18928500D01*
X11176000Y19586000D02*
X11176000Y19558000D01*
%TO.N,Net-(IC1-FB)*%
X14224000Y28700000D02*
X14224000Y27434000D01*
X14666000Y18034000D02*
X14666000Y18928500D01*
%TO.N,RA*%
X8890000Y10033000D02*
X9463200Y9459800D01*
X18034000Y6858000D02*
X18288000Y6858000D01*
X10592431Y5419000D02*
X16595000Y5419000D01*
X7047000Y10033000D02*
X8890000Y10033000D01*
X9463200Y9459800D02*
X9463200Y6548231D01*
X16595000Y5419000D02*
X18034000Y6858000D01*
X9463200Y6548231D02*
X10592431Y5419000D01*
%TO.N,RB*%
X9913200Y10610000D02*
X9913200Y6734627D01*
X14936800Y5869000D02*
X17925800Y8858000D01*
X17925800Y8858000D02*
X18288000Y8858000D01*
X10778827Y5869000D02*
X14936800Y5869000D01*
X7047000Y11303000D02*
X9220200Y11303000D01*
X9220200Y11303000D02*
X9913200Y10610000D01*
X9913200Y6734627D02*
X10778827Y5869000D01*
%TO.N,TA*%
X7580400Y17145000D02*
X8737600Y17145000D01*
X10363200Y15519400D02*
X10363200Y14534663D01*
X10363200Y14534663D02*
X10363200Y8072800D01*
X8737600Y17145000D02*
X10363200Y15519400D01*
X10363200Y8072800D02*
X11642000Y6794000D01*
%TO.N,TB*%
X13030200Y14427200D02*
X13030200Y9728200D01*
X9042400Y18415000D02*
X13030200Y14427200D01*
X12096000Y8794000D02*
X11642000Y8794000D01*
X13030200Y9728200D02*
X12096000Y8794000D01*
X7580400Y18415000D02*
X8788400Y18415000D01*
X8255000Y18415000D02*
X9042400Y18415000D01*
D43*
%TO.N,W*%
X10309200Y49145800D02*
X11301800Y50138400D01*
X11301800Y50138400D02*
X17574800Y50138400D01*
X21986400Y45726800D02*
X22039200Y45726800D01*
X11406000Y46958000D02*
X10852400Y46958000D01*
X17574800Y50138400D02*
X21986400Y45726800D01*
X10852400Y46958000D02*
X10309200Y47501200D01*
X10309200Y47501200D02*
X10309200Y49145800D01*
%TO.N,R*%
X20960551Y30112600D02*
X21023200Y30112600D01*
%TO.N,G*%
X17187400Y49433600D02*
X20779400Y45841600D01*
X12856000Y49142968D02*
X13146632Y49433600D01*
X13146632Y49433600D02*
X17187400Y49433600D01*
X20779400Y45841600D02*
X20779400Y37764400D01*
X22062600Y36481200D02*
X22115400Y36481200D01*
X12856000Y48008000D02*
X12856000Y49142968D01*
X20779400Y37764400D02*
X22062600Y36481200D01*
%TO.N,B*%
X12456000Y49241336D02*
X13000663Y49786000D01*
X21131800Y41530800D02*
X22013800Y40648800D01*
X17333368Y49786000D02*
X21131800Y45987568D01*
X13000663Y49786000D02*
X17333368Y49786000D01*
X21131800Y45987568D02*
X21131800Y41530800D01*
X12456000Y48008000D02*
X12456000Y49241336D01*
%TO.N,WW*%
X10744400Y46558000D02*
X9956800Y47345600D01*
X11406000Y46558000D02*
X10744400Y46558000D01*
X20344600Y50490800D02*
X21046600Y49788800D01*
X11155832Y50490800D02*
X19727800Y50490800D01*
X9956800Y47345600D02*
X9956800Y49291768D01*
X19727800Y50490800D02*
X20344600Y50490800D01*
X9956800Y49291768D02*
X11155832Y50490800D01*
%TO.N,U2_RO*%
X9867800Y45758000D02*
X11406000Y45758000D01*
D45*
X3987800Y19685000D02*
X4013200Y19710400D01*
D43*
X9504900Y45395100D02*
X9867800Y45758000D01*
D45*
X2630400Y19685000D02*
X3987800Y19685000D01*
X2630400Y12573000D02*
X4013200Y12573000D01*
%TO.N,U2_DI*%
X2630400Y8763000D02*
X4064000Y8763000D01*
D43*
X9594351Y46158000D02*
X11406000Y46158000D01*
X9028700Y44271300D02*
X9028700Y45592349D01*
X9028700Y45592349D02*
X9594351Y46158000D01*
X9646055Y43653945D02*
X9028700Y44271300D01*
D44*
%TO.N,Net-(D2-A)*%
X22318700Y55478300D02*
X23487000Y55478300D01*
X21480400Y56316600D02*
X22318700Y55478300D01*
X21429600Y56316600D02*
X21480400Y56316600D01*
D43*
%TO.N,StateLed0*%
X27999400Y57732800D02*
X28008200Y57724000D01*
X16634000Y46558000D02*
X14306000Y46558000D01*
X17264000Y45928000D02*
X16634000Y46558000D01*
X28008200Y57724000D02*
X28008200Y56750800D01*
D44*
%TO.N,Net-(D3-A)*%
X21912200Y54640200D02*
X24884000Y54640200D01*
X24884000Y54640200D02*
X25715900Y55472100D01*
X20235800Y56316600D02*
X21912200Y54640200D01*
X25715900Y55472100D02*
X25738800Y55472100D01*
X20193800Y56316600D02*
X20235800Y56316600D01*
D43*
%TO.N,StateLed1*%
X14306000Y46958000D02*
X17024600Y46958000D01*
X17024600Y46958000D02*
X17272000Y46710600D01*
X25747600Y57758200D02*
X25747600Y56753400D01*
D44*
%TO.N,Net-(D4-A)*%
X18991200Y56316600D02*
X19067400Y56316600D01*
X21193800Y54190200D02*
X26720100Y54190200D01*
X19067400Y56316600D02*
X21193800Y54190200D01*
X26720100Y54190200D02*
X28008200Y55478300D01*
D43*
%TO.N,NRST*%
X12056000Y44756000D02*
X11700000Y44400000D01*
X12056000Y45108000D02*
X12056000Y44756000D01*
X13970000Y57630000D02*
X13970000Y56515000D01*
%TO.N,SWD*%
X11600000Y49500000D02*
X12056000Y49044000D01*
D44*
X15240000Y53827400D02*
X15240000Y55245000D01*
D43*
X12056000Y49044000D02*
X12056000Y48008000D01*
D44*
%TO.N,Net-(J4-Pin_1)*%
X22860000Y12954000D02*
X23622000Y12954000D01*
X22860000Y12446000D02*
X22860000Y12954000D01*
X21590000Y14224000D02*
X22860000Y12954000D01*
X23114000Y12700000D02*
X23368000Y12446000D01*
%TO.N,Net-(IC2-PA1{slash}OSCI)*%
X9644000Y41102000D02*
X11254000Y41102000D01*
D43*
X12456000Y45108000D02*
X12456000Y41796000D01*
D44*
X11254000Y41102000D02*
X11508000Y40848000D01*
D43*
X12456000Y41796000D02*
X11508000Y40848000D01*
D44*
%TO.N,Net-(IC2-PA2{slash}OSCO)*%
X15232000Y42090000D02*
X14166000Y42090000D01*
D43*
X12856000Y43230000D02*
X13538000Y42548000D01*
D44*
X14166000Y42090000D02*
X13708000Y42548000D01*
D43*
X13538000Y42548000D02*
X13708000Y42548000D01*
X12856000Y45108000D02*
X12856000Y43230000D01*
D44*
%TO.N,Net-(U4-DE)*%
X2630400Y18415000D02*
X2630400Y17805400D01*
X2630400Y17805400D02*
X1600200Y17805400D01*
X1219200Y18186400D02*
X1219200Y20372800D01*
X1600200Y17805400D02*
X1219200Y18186400D01*
X1219200Y20372800D02*
X1979200Y21132800D01*
X2630400Y17805400D02*
X2630400Y17145000D01*
D45*
%TO.N,U2_RE*%
X2630400Y11303000D02*
X4064000Y11303000D01*
D43*
X13256000Y48758863D02*
X13411200Y48914063D01*
X13256000Y48008000D02*
X13256000Y48758863D01*
%TO.N,U2_DE*%
X13656000Y48428600D02*
X14147800Y48920400D01*
X13656000Y48008000D02*
X13656000Y48428600D01*
D45*
X2630400Y10033000D02*
X4064000Y10033000D01*
D48*
%TO.N,Net-(Q6-D)*%
X20620000Y14224000D02*
X20620000Y23759000D01*
X20620000Y23759000D02*
X20925000Y24064000D01*
D43*
%TO.N,Voltage*%
X19902400Y43896000D02*
X19902400Y38260400D01*
D44*
X22040001Y32364200D02*
X22098000Y32306200D01*
D43*
X14319000Y47371000D02*
X17319600Y47371000D01*
X22054000Y33253400D02*
X22098000Y33297400D01*
X14306000Y47358000D02*
X14319000Y47371000D01*
X20540600Y33498800D02*
X20786000Y33253400D01*
X21031200Y32310800D02*
X22042600Y32310800D01*
X19902400Y38260400D02*
X19902400Y34137000D01*
X19902400Y34137000D02*
X20540600Y33498800D01*
D44*
X22098000Y32306200D02*
X22105610Y32306200D01*
D43*
X19626200Y45064400D02*
X19902400Y44788200D01*
X20786000Y33253400D02*
X22054000Y33253400D01*
X22098000Y33297400D02*
X22098000Y32255400D01*
X17319600Y47371000D02*
X19626200Y45064400D01*
D45*
%TO.N,Temp*%
X3700000Y49477800D02*
X3700000Y48293600D01*
D43*
X10661600Y47647168D02*
X10950768Y47358000D01*
D45*
X3700000Y47637800D02*
X3670000Y47607800D01*
D43*
X9128700Y48895000D02*
X3717200Y48895000D01*
X10661600Y48583800D02*
X10661600Y47647168D01*
X3700000Y48522200D02*
X3700000Y48877800D01*
X10972800Y48895000D02*
X10661600Y48583800D01*
D45*
X3700000Y48293600D02*
X3700000Y48065000D01*
D43*
X3725000Y48902800D02*
X3700000Y48877800D01*
X3717200Y48895000D02*
X3700000Y48877800D01*
D45*
X3700000Y50147800D02*
X3700000Y49477800D01*
X3700000Y48065000D02*
X3700000Y47637800D01*
D43*
X10950768Y47358000D02*
X11406000Y47358000D01*
D44*
%TO.N,Net-(Q1-G)*%
X22039200Y44706800D02*
X23113200Y44706800D01*
X23157000Y44745000D02*
X23114000Y44702000D01*
X24508000Y44745000D02*
X23157000Y44745000D01*
X23113200Y44706800D02*
X23114000Y44706000D01*
D43*
%TO.N,Net-(Q2-G)*%
X21959951Y29113200D02*
X22049200Y29113200D01*
X22098000Y29113200D02*
X22141000Y29156200D01*
D44*
X22098000Y29113200D02*
X22049200Y29113200D01*
D43*
X22098000Y29113200D02*
X21973000Y29113200D01*
D44*
X21023200Y29092600D02*
X22077400Y29092600D01*
X24465000Y29208000D02*
X24508000Y29251000D01*
X22077400Y29092600D02*
X22098000Y29113200D01*
D43*
%TO.N,Net-(Q3-G)*%
X23114000Y34292000D02*
X23032600Y34292000D01*
D44*
X23157000Y34331000D02*
X23114000Y34288000D01*
D43*
X22648800Y34929800D02*
X22646800Y34929800D01*
D44*
X24508000Y34331000D02*
X23157000Y34331000D01*
D43*
X23032600Y34292000D02*
X22648800Y34675800D01*
X22646800Y34929800D02*
X22115400Y35461200D01*
X22648800Y34675800D02*
X22648800Y34929800D01*
D44*
%TO.N,Net-(Q4-G)*%
X23157000Y39665000D02*
X23114000Y39622000D01*
X24508000Y39665000D02*
X23157000Y39665000D01*
X22013800Y39628800D02*
X23111200Y39628800D01*
X23111200Y39628800D02*
X23114000Y39626000D01*
%TO.N,Net-(Q5-G)*%
X22066600Y49788800D02*
X24471800Y49788800D01*
X24465000Y49782000D02*
X24508000Y49825000D01*
X24471800Y49788800D02*
X24508000Y49825000D01*
%TD*%
%TA.AperFunction,Conductor*%
%TO.N,WW_OUT*%
G36*
X27973760Y52859668D02*
G01*
X32779010Y51089312D01*
X36791648Y51089312D01*
X36839101Y51079873D01*
X36879329Y51052993D01*
X37060691Y50871631D01*
X37087571Y50831403D01*
X37097010Y50783950D01*
X37097010Y47076674D01*
X37087571Y47029221D01*
X37060691Y46988993D01*
X36879329Y46807631D01*
X36839101Y46780751D01*
X36791648Y46771312D01*
X32801126Y46771312D01*
X32758259Y46778957D01*
X32188161Y46988993D01*
X31950170Y47076674D01*
X27963304Y48545520D01*
X27963301Y48545521D01*
X27953010Y48549312D01*
X27942038Y48549312D01*
X25718372Y48549312D01*
X25670919Y48558751D01*
X25630691Y48585631D01*
X25195329Y49020993D01*
X25168449Y49061221D01*
X25159010Y49108674D01*
X25159010Y52561950D01*
X25168449Y52609403D01*
X25195329Y52649631D01*
X25376691Y52830993D01*
X25416919Y52857873D01*
X25464372Y52867312D01*
X27930894Y52867312D01*
X27973760Y52859668D01*
G37*
%TD.AperFunction*%
%TD*%
%TA.AperFunction,Conductor*%
%TO.N,GND*%
G36*
X24634091Y52314561D02*
G01*
X24674319Y52287681D01*
X24855681Y52106319D01*
X24882561Y52066091D01*
X24892000Y52018638D01*
X24892000Y50374500D01*
X24875387Y50312500D01*
X24830000Y50267113D01*
X24768000Y50250500D01*
X24233326Y50250500D01*
X24227351Y50249312D01*
X24227346Y50249311D01*
X24172240Y50238350D01*
X24172235Y50238349D01*
X24160260Y50235966D01*
X24150105Y50229181D01*
X24150103Y50229180D01*
X24084278Y50185197D01*
X24051383Y50169639D01*
X24015388Y50164300D01*
X23652240Y50164300D01*
X23604787Y50173739D01*
X23564559Y50200619D01*
X23533368Y50231810D01*
X23533368Y50231811D01*
X23526102Y50239076D01*
X23505166Y50249311D01*
X23419171Y50291352D01*
X23419169Y50291353D01*
X23410518Y50295582D01*
X23400987Y50296971D01*
X23400986Y50296971D01*
X23340019Y50305854D01*
X23340012Y50305855D01*
X23335582Y50306500D01*
X22896862Y50306500D01*
X22849409Y50315939D01*
X22809181Y50342819D01*
X22642319Y50509681D01*
X22615439Y50549909D01*
X22606000Y50597362D01*
X22606000Y52018638D01*
X22615439Y52066091D01*
X22642319Y52106319D01*
X22823681Y52287681D01*
X22863909Y52314561D01*
X22911362Y52324000D01*
X24586638Y52324000D01*
X24634091Y52314561D01*
G37*
%TD.AperFunction*%
%TD*%
%TA.AperFunction,Conductor*%
%TO.N,GND*%
G36*
X24634091Y36820561D02*
G01*
X24674319Y36793681D01*
X24855681Y36612319D01*
X24882561Y36572091D01*
X24892000Y36524638D01*
X24892000Y34880500D01*
X24875387Y34818500D01*
X24830000Y34773113D01*
X24768000Y34756500D01*
X24233326Y34756500D01*
X24227351Y34755312D01*
X24227346Y34755311D01*
X24172238Y34744349D01*
X24172236Y34744349D01*
X24160260Y34741966D01*
X24138451Y34727395D01*
X24105560Y34711839D01*
X24069566Y34706500D01*
X23616040Y34706500D01*
X23568587Y34715939D01*
X23542717Y34733225D01*
X23541729Y34731840D01*
X23533368Y34737810D01*
X23526102Y34745076D01*
X23505166Y34755311D01*
X23419171Y34797352D01*
X23419169Y34797353D01*
X23410518Y34801582D01*
X23400987Y34802971D01*
X23400986Y34802971D01*
X23340019Y34811854D01*
X23340012Y34811855D01*
X23335582Y34812500D01*
X23331100Y34812500D01*
X23099808Y34812500D01*
X23034711Y34830962D01*
X22988997Y34880850D01*
X22978217Y34937183D01*
X22977278Y34937100D01*
X22976473Y34946298D01*
X22976280Y34947308D01*
X22977278Y34958714D01*
X22976853Y34960299D01*
X22977820Y34965350D01*
X22975500Y34965350D01*
X22975500Y34976559D01*
X22975500Y34987406D01*
X22969283Y35004485D01*
X22963690Y35025358D01*
X22960534Y35043262D01*
X22951442Y35059010D01*
X22949000Y35064245D01*
X22947459Y35070000D01*
X22944040Y35074883D01*
X22942311Y35078590D01*
X22936095Y35095670D01*
X22924414Y35109591D01*
X22912017Y35127296D01*
X22908353Y35133642D01*
X22908351Y35133644D01*
X22902928Y35143038D01*
X22894620Y35150010D01*
X22894617Y35150013D01*
X22889001Y35154725D01*
X22873720Y35170006D01*
X22862038Y35183928D01*
X22852642Y35189353D01*
X22844334Y35196324D01*
X22844626Y35196674D01*
X22833123Y35205501D01*
X22722219Y35316405D01*
X22695339Y35356633D01*
X22685900Y35404086D01*
X22685900Y35628300D01*
X22685900Y35632782D01*
X22674982Y35707718D01*
X22618599Y35823049D01*
X22606000Y35877509D01*
X22606000Y36064891D01*
X22618600Y36119352D01*
X22674982Y36234682D01*
X22685900Y36309618D01*
X22685900Y36604539D01*
X22695339Y36651992D01*
X22722214Y36692215D01*
X22823684Y36793685D01*
X22863910Y36820561D01*
X22911362Y36830000D01*
X24586638Y36830000D01*
X24634091Y36820561D01*
G37*
%TD.AperFunction*%
%TD*%
%TA.AperFunction,Conductor*%
%TO.N,Net-(IC1-SW)*%
G36*
X11426091Y24628561D02*
G01*
X11466319Y24601681D01*
X11647681Y24420319D01*
X11674561Y24380091D01*
X11684000Y24332638D01*
X11684000Y22860000D01*
X12192000Y22352000D01*
X12902638Y22352000D01*
X12950091Y22342561D01*
X12990319Y22315681D01*
X13171681Y22134319D01*
X13198561Y22094091D01*
X13208000Y22046638D01*
X13208000Y21925332D01*
X13194484Y21869036D01*
X13184785Y21850003D01*
X13184782Y21849996D01*
X13180354Y21841304D01*
X13178827Y21831670D01*
X13178826Y21831663D01*
X13166263Y21752340D01*
X13166262Y21752333D01*
X13165500Y21747519D01*
X13165500Y21742642D01*
X13165500Y21742641D01*
X13165500Y20664353D01*
X13165500Y20664341D01*
X13165501Y20659482D01*
X13180354Y20565696D01*
X13184781Y20557007D01*
X13184783Y20557002D01*
X13194484Y20537964D01*
X13208000Y20481668D01*
X13208000Y20371362D01*
X13198561Y20323909D01*
X13171681Y20283681D01*
X12990319Y20102319D01*
X12950091Y20075439D01*
X12902638Y20066000D01*
X11568632Y20066000D01*
X11512337Y20079516D01*
X11476876Y20097585D01*
X11476868Y20097588D01*
X11468175Y20102017D01*
X11458537Y20103544D01*
X11458533Y20103545D01*
X11381555Y20115737D01*
X11381549Y20115738D01*
X11376735Y20116500D01*
X11371856Y20116500D01*
X10980135Y20116500D01*
X10980122Y20116500D01*
X10975266Y20116499D01*
X10970462Y20115739D01*
X10970459Y20115738D01*
X10893461Y20103544D01*
X10893455Y20103543D01*
X10883825Y20102017D01*
X10875133Y20097589D01*
X10875126Y20097586D01*
X10839663Y20079516D01*
X10783368Y20066000D01*
X10211362Y20066000D01*
X10163909Y20075439D01*
X10123681Y20102319D01*
X8164319Y22061681D01*
X8137439Y22101909D01*
X8128000Y22149362D01*
X8128000Y24332638D01*
X8137439Y24380091D01*
X8164319Y24420319D01*
X8345681Y24601681D01*
X8385909Y24628561D01*
X8433362Y24638000D01*
X11378638Y24638000D01*
X11426091Y24628561D01*
G37*
%TD.AperFunction*%
%TD*%
%TA.AperFunction,Conductor*%
%TO.N,GND*%
G36*
X19020691Y34793361D02*
G01*
X19060919Y34766481D01*
X19186981Y34640419D01*
X19213861Y34600191D01*
X19223300Y34552738D01*
X19223300Y33020862D01*
X19213861Y32973409D01*
X19186981Y32933181D01*
X19060919Y32807119D01*
X19020691Y32780239D01*
X18973238Y32770800D01*
X18482335Y32770800D01*
X18425879Y32784397D01*
X18381805Y32822207D01*
X18359778Y32875937D01*
X18364629Y32933804D01*
X18411375Y33074875D01*
X18414194Y33088042D01*
X18423680Y33180891D01*
X18424000Y33187168D01*
X18424000Y33517674D01*
X18420549Y33530550D01*
X18407674Y33534000D01*
X16298000Y33534000D01*
X16236000Y33550613D01*
X16190613Y33596000D01*
X16174000Y33658000D01*
X16174000Y33910000D01*
X16190613Y33972000D01*
X16236000Y34017387D01*
X16298000Y34034000D01*
X18407673Y34034000D01*
X18420548Y34037451D01*
X18423999Y34050326D01*
X18423999Y34380829D01*
X18423678Y34387112D01*
X18414194Y34479960D01*
X18411376Y34493123D01*
X18362774Y34639796D01*
X18357923Y34697663D01*
X18379950Y34751393D01*
X18424025Y34789203D01*
X18480480Y34802800D01*
X18973238Y34802800D01*
X19020691Y34793361D01*
G37*
%TD.AperFunction*%
%TD*%
%TA.AperFunction,Conductor*%
%TO.N,VCC*%
G36*
X25665128Y28193404D02*
G01*
X25674296Y28192500D01*
X27872314Y28192500D01*
X27915180Y28184856D01*
X32669472Y26433274D01*
X32712943Y26421489D01*
X32729883Y26418468D01*
X32774740Y26414500D01*
X32777485Y26414500D01*
X36780138Y26414500D01*
X36827591Y26405061D01*
X36867819Y26378181D01*
X37047681Y26198319D01*
X37074561Y26158091D01*
X37084000Y26110638D01*
X37084000Y21637804D01*
X37075700Y21593200D01*
X37051910Y21554567D01*
X35001889Y19290909D01*
X34318916Y18536763D01*
X34277277Y18506648D01*
X34227005Y18496000D01*
X26478038Y18496000D01*
X26417578Y18511738D01*
X26372465Y18554959D01*
X26354152Y18614689D01*
X26367286Y18675768D01*
X26408535Y18722690D01*
X26433756Y18739761D01*
X26442837Y18747259D01*
X26579641Y18884063D01*
X26587139Y18893144D01*
X26695581Y19053366D01*
X26701225Y19063702D01*
X26777385Y19241553D01*
X26780969Y19252765D01*
X26822333Y19442908D01*
X26823638Y19452381D01*
X26825991Y19491892D01*
X26826100Y19495539D01*
X26826100Y19884474D01*
X26822649Y19897350D01*
X26809774Y19900800D01*
X23542426Y19900800D01*
X23529550Y19897350D01*
X23526100Y19884474D01*
X23526100Y19495539D01*
X23526208Y19491892D01*
X23528561Y19452381D01*
X23529866Y19442908D01*
X23537568Y19407506D01*
X23534849Y19344455D01*
X23501449Y19290909D01*
X23446019Y19260737D01*
X23382918Y19261754D01*
X23328490Y19293698D01*
X22642088Y19983722D01*
X22615377Y20023870D01*
X22606000Y20071172D01*
X22606000Y20417126D01*
X23526100Y20417126D01*
X23529550Y20404251D01*
X23542426Y20400800D01*
X24909774Y20400800D01*
X24922649Y20404251D01*
X24926100Y20417126D01*
X25426100Y20417126D01*
X25429550Y20404251D01*
X25442426Y20400800D01*
X26809774Y20400800D01*
X26822649Y20404251D01*
X26826100Y20417126D01*
X26826100Y20806061D01*
X26825991Y20809709D01*
X26823638Y20849220D01*
X26822333Y20858693D01*
X26780969Y21048836D01*
X26777385Y21060048D01*
X26701225Y21237899D01*
X26695581Y21248235D01*
X26587139Y21408457D01*
X26579641Y21417538D01*
X26442837Y21554342D01*
X26433756Y21561840D01*
X26273534Y21670282D01*
X26263198Y21675926D01*
X26085347Y21752086D01*
X26074135Y21755670D01*
X25883992Y21797034D01*
X25874519Y21798339D01*
X25835008Y21800692D01*
X25831361Y21800800D01*
X25442426Y21800800D01*
X25429550Y21797350D01*
X25426100Y21784474D01*
X25426100Y20417126D01*
X24926100Y20417126D01*
X24926100Y21784474D01*
X24922649Y21797350D01*
X24909774Y21800800D01*
X24520839Y21800800D01*
X24517191Y21800692D01*
X24477680Y21798339D01*
X24468207Y21797034D01*
X24278064Y21755670D01*
X24266852Y21752086D01*
X24089001Y21675926D01*
X24078665Y21670282D01*
X23918443Y21561840D01*
X23909362Y21554342D01*
X23772558Y21417538D01*
X23765060Y21408457D01*
X23656618Y21248235D01*
X23650974Y21237899D01*
X23574814Y21060048D01*
X23571230Y21048836D01*
X23529866Y20858693D01*
X23528561Y20849220D01*
X23526208Y20809709D01*
X23526100Y20806061D01*
X23526100Y20417126D01*
X22606000Y20417126D01*
X22606000Y22611482D01*
X32490000Y22611482D01*
X32490353Y22604886D01*
X32495573Y22556333D01*
X32499111Y22541359D01*
X32543547Y22422223D01*
X32551962Y22406811D01*
X32627498Y22305908D01*
X32639907Y22293499D01*
X32740810Y22217963D01*
X32756222Y22209548D01*
X32875358Y22165112D01*
X32890332Y22161574D01*
X32938885Y22156354D01*
X32945482Y22156000D01*
X34023674Y22156000D01*
X34036549Y22159451D01*
X34040000Y22172326D01*
X34540000Y22172326D01*
X34543450Y22159451D01*
X34556326Y22156000D01*
X35634518Y22156000D01*
X35641114Y22156354D01*
X35689667Y22161574D01*
X35704641Y22165112D01*
X35823777Y22209548D01*
X35839189Y22217963D01*
X35940092Y22293499D01*
X35952501Y22305908D01*
X36028037Y22406811D01*
X36036452Y22422223D01*
X36080888Y22541359D01*
X36084426Y22556333D01*
X36089646Y22604886D01*
X36090000Y22611482D01*
X36090000Y23689674D01*
X36086549Y23702550D01*
X36073674Y23706000D01*
X34556326Y23706000D01*
X34543450Y23702550D01*
X34540000Y23689674D01*
X34540000Y22172326D01*
X34040000Y22172326D01*
X34040000Y23689674D01*
X34036549Y23702550D01*
X34023674Y23706000D01*
X32506326Y23706000D01*
X32493450Y23702550D01*
X32490000Y23689674D01*
X32490000Y22611482D01*
X22606000Y22611482D01*
X22606000Y24645539D01*
X23526100Y24645539D01*
X23526208Y24641892D01*
X23528561Y24602381D01*
X23529866Y24592908D01*
X23571230Y24402765D01*
X23574814Y24391553D01*
X23650974Y24213702D01*
X23656618Y24203366D01*
X23765060Y24043144D01*
X23772558Y24034063D01*
X23909362Y23897259D01*
X23918443Y23889761D01*
X24078665Y23781319D01*
X24089001Y23775675D01*
X24266852Y23699515D01*
X24278064Y23695931D01*
X24468207Y23654567D01*
X24477680Y23653262D01*
X24517191Y23650909D01*
X24520839Y23650800D01*
X24909774Y23650800D01*
X24922649Y23654251D01*
X24926100Y23667126D01*
X25426100Y23667126D01*
X25429550Y23654251D01*
X25442426Y23650800D01*
X25831361Y23650800D01*
X25835008Y23650909D01*
X25874519Y23653262D01*
X25883992Y23654567D01*
X26074135Y23695931D01*
X26085347Y23699515D01*
X26263198Y23775675D01*
X26273534Y23781319D01*
X26433756Y23889761D01*
X26442837Y23897259D01*
X26579641Y24034063D01*
X26587139Y24043144D01*
X26695581Y24203366D01*
X26701225Y24213702D01*
X26704918Y24222326D01*
X32490000Y24222326D01*
X32493450Y24209451D01*
X32506326Y24206000D01*
X34023674Y24206000D01*
X34036549Y24209451D01*
X34040000Y24222326D01*
X34540000Y24222326D01*
X34543450Y24209451D01*
X34556326Y24206000D01*
X36073674Y24206000D01*
X36086549Y24209451D01*
X36090000Y24222326D01*
X36090000Y25300518D01*
X36089646Y25307115D01*
X36084426Y25355668D01*
X36080888Y25370642D01*
X36036452Y25489778D01*
X36028037Y25505190D01*
X35952501Y25606093D01*
X35940092Y25618502D01*
X35839189Y25694038D01*
X35823777Y25702453D01*
X35704641Y25746889D01*
X35689667Y25750427D01*
X35641114Y25755647D01*
X35634518Y25756000D01*
X34556326Y25756000D01*
X34543450Y25752550D01*
X34540000Y25739674D01*
X34540000Y24222326D01*
X34040000Y24222326D01*
X34040000Y25739674D01*
X34036549Y25752550D01*
X34023674Y25756000D01*
X32945482Y25756000D01*
X32938885Y25755647D01*
X32890332Y25750427D01*
X32875358Y25746889D01*
X32756222Y25702453D01*
X32740810Y25694038D01*
X32639907Y25618502D01*
X32627498Y25606093D01*
X32551962Y25505190D01*
X32543547Y25489778D01*
X32499111Y25370642D01*
X32495573Y25355668D01*
X32490353Y25307115D01*
X32490000Y25300518D01*
X32490000Y24222326D01*
X26704918Y24222326D01*
X26777385Y24391553D01*
X26780969Y24402765D01*
X26822333Y24592908D01*
X26823638Y24602381D01*
X26825991Y24641892D01*
X26826100Y24645539D01*
X26826100Y25034474D01*
X26822649Y25047350D01*
X26809774Y25050800D01*
X25442426Y25050800D01*
X25429550Y25047350D01*
X25426100Y25034474D01*
X25426100Y23667126D01*
X24926100Y23667126D01*
X24926100Y25034474D01*
X24922649Y25047350D01*
X24909774Y25050800D01*
X23542426Y25050800D01*
X23529550Y25047350D01*
X23526100Y25034474D01*
X23526100Y24645539D01*
X22606000Y24645539D01*
X22606000Y25567126D01*
X23526100Y25567126D01*
X23529550Y25554251D01*
X23542426Y25550800D01*
X24909774Y25550800D01*
X24922649Y25554251D01*
X24926100Y25567126D01*
X25426100Y25567126D01*
X25429550Y25554251D01*
X25442426Y25550800D01*
X26809774Y25550800D01*
X26822649Y25554251D01*
X26826100Y25567126D01*
X26826100Y25956061D01*
X26825991Y25959709D01*
X26823638Y25999220D01*
X26822333Y26008693D01*
X26780969Y26198836D01*
X26777385Y26210048D01*
X26701225Y26387899D01*
X26695581Y26398235D01*
X26587139Y26558457D01*
X26579641Y26567538D01*
X26442837Y26704342D01*
X26433756Y26711840D01*
X26273534Y26820282D01*
X26263198Y26825926D01*
X26085347Y26902086D01*
X26074135Y26905670D01*
X25883992Y26947034D01*
X25874519Y26948339D01*
X25835008Y26950692D01*
X25831361Y26950800D01*
X25442426Y26950800D01*
X25429550Y26947350D01*
X25426100Y26934474D01*
X25426100Y25567126D01*
X24926100Y25567126D01*
X24926100Y26934474D01*
X24922649Y26947350D01*
X24909774Y26950800D01*
X24520839Y26950800D01*
X24517191Y26950692D01*
X24477680Y26948339D01*
X24468207Y26947034D01*
X24278064Y26905670D01*
X24266852Y26902086D01*
X24089001Y26825926D01*
X24078665Y26820282D01*
X23918443Y26711840D01*
X23909362Y26704342D01*
X23772558Y26567538D01*
X23765060Y26558457D01*
X23656618Y26398235D01*
X23650974Y26387899D01*
X23574814Y26210048D01*
X23571230Y26198836D01*
X23529866Y26008693D01*
X23528561Y25999220D01*
X23526208Y25959709D01*
X23526100Y25956061D01*
X23526100Y25567126D01*
X22606000Y25567126D01*
X22606000Y27634638D01*
X22615439Y27682091D01*
X22642319Y27722319D01*
X23077681Y28157681D01*
X23117909Y28184561D01*
X23165362Y28194000D01*
X25652973Y28194000D01*
X25665128Y28193404D01*
G37*
%TD.AperFunction*%
%TD*%
%TA.AperFunction,Conductor*%
%TO.N,+5V*%
G36*
X13204091Y35042561D02*
G01*
X13244319Y35015681D01*
X13679681Y34580319D01*
X13706561Y34540091D01*
X13716000Y34492638D01*
X13716000Y33071362D01*
X13706561Y33023909D01*
X13679681Y32983681D01*
X11692638Y30996639D01*
X11692635Y30996636D01*
X11684000Y30988000D01*
X11684000Y30975789D01*
X11684000Y28499362D01*
X11674561Y28451909D01*
X11647681Y28411681D01*
X11466319Y28230319D01*
X11426091Y28203439D01*
X11378638Y28194000D01*
X8433362Y28194000D01*
X8385909Y28203439D01*
X8345681Y28230319D01*
X8164319Y28411681D01*
X8137439Y28451909D01*
X8128000Y28499362D01*
X8128000Y30975789D01*
X8128000Y30988000D01*
X7366000Y31750000D01*
X6132319Y32983681D01*
X6105439Y33023909D01*
X6096000Y33071362D01*
X6096000Y34492638D01*
X6105439Y34540091D01*
X6132319Y34580319D01*
X6567681Y35015681D01*
X6607909Y35042561D01*
X6655362Y35052000D01*
X13156638Y35052000D01*
X13204091Y35042561D01*
G37*
%TD.AperFunction*%
%TD*%
%TA.AperFunction,Conductor*%
%TO.N,W_OUT*%
G36*
X27973760Y47779668D02*
G01*
X32779010Y46009312D01*
X36791648Y46009312D01*
X36839101Y45999873D01*
X36879329Y45972993D01*
X37060691Y45791631D01*
X37087571Y45751403D01*
X37097010Y45703950D01*
X37097010Y41996674D01*
X37087571Y41949221D01*
X37060691Y41908993D01*
X36879329Y41727631D01*
X36839101Y41700751D01*
X36791648Y41691312D01*
X32801126Y41691312D01*
X32758259Y41698957D01*
X32188161Y41908993D01*
X31950170Y41996674D01*
X27963304Y43465520D01*
X27963301Y43465521D01*
X27953010Y43469312D01*
X27942038Y43469312D01*
X25718372Y43469312D01*
X25670919Y43478751D01*
X25630691Y43505631D01*
X25195329Y43940993D01*
X25168449Y43981221D01*
X25159010Y44028674D01*
X25159010Y47481950D01*
X25168449Y47529403D01*
X25195329Y47569631D01*
X25376691Y47750993D01*
X25416919Y47777873D01*
X25464372Y47787312D01*
X27930894Y47787312D01*
X27973760Y47779668D01*
G37*
%TD.AperFunction*%
%TD*%
%TA.AperFunction,Conductor*%
%TO.N,GND*%
G36*
X1387047Y34784403D02*
G01*
X1431122Y34746593D01*
X1453149Y34692863D01*
X1448298Y34634996D01*
X1400624Y34491126D01*
X1397805Y34477959D01*
X1388319Y34385110D01*
X1388000Y34378832D01*
X1388000Y34048326D01*
X1391450Y34035451D01*
X1404326Y34032000D01*
X3514000Y34032000D01*
X3576000Y34015387D01*
X3621387Y33970000D01*
X3638000Y33908000D01*
X3638000Y33656000D01*
X3621387Y33594000D01*
X3576000Y33548613D01*
X3514000Y33532000D01*
X1404327Y33532000D01*
X1391451Y33528550D01*
X1388001Y33515674D01*
X1388001Y33185171D01*
X1388321Y33178889D01*
X1397805Y33086041D01*
X1400623Y33072878D01*
X1448298Y32929004D01*
X1453149Y32871137D01*
X1431122Y32817407D01*
X1387047Y32779597D01*
X1330592Y32766000D01*
X813362Y32766000D01*
X765909Y32775439D01*
X725681Y32802319D01*
X544319Y32983681D01*
X517439Y33023909D01*
X508000Y33071362D01*
X508000Y34492638D01*
X517439Y34540091D01*
X544319Y34580319D01*
X725681Y34761681D01*
X765909Y34788561D01*
X813362Y34798000D01*
X1330592Y34798000D01*
X1387047Y34784403D01*
G37*
%TD.AperFunction*%
%TD*%
%TA.AperFunction,Conductor*%
%TO.N,B_OUT*%
G36*
X27973760Y42699668D02*
G01*
X32779010Y40929312D01*
X36791648Y40929312D01*
X36839101Y40919873D01*
X36879329Y40892993D01*
X37060691Y40711631D01*
X37087571Y40671403D01*
X37097010Y40623950D01*
X37097010Y36916674D01*
X37087571Y36869221D01*
X37060691Y36828993D01*
X36879329Y36647631D01*
X36839101Y36620751D01*
X36791648Y36611312D01*
X32801126Y36611312D01*
X32758259Y36618957D01*
X32188161Y36828993D01*
X31950170Y36916674D01*
X27963304Y38385520D01*
X27963301Y38385521D01*
X27953010Y38389312D01*
X27942038Y38389312D01*
X25718372Y38389312D01*
X25670919Y38398751D01*
X25630691Y38425631D01*
X25195329Y38860993D01*
X25168449Y38901221D01*
X25159010Y38948674D01*
X25159010Y42401950D01*
X25168449Y42449403D01*
X25195329Y42489631D01*
X25376691Y42670993D01*
X25416919Y42697873D01*
X25464372Y42707312D01*
X27930894Y42707312D01*
X27973760Y42699668D01*
G37*
%TD.AperFunction*%
%TD*%
%TA.AperFunction,Conductor*%
%TO.N,GND*%
G36*
X24888091Y31740561D02*
G01*
X24928319Y31713681D01*
X24999150Y31642850D01*
X25030130Y31591165D01*
X25033086Y31530978D01*
X25019562Y31462990D01*
X25019562Y31462985D01*
X25017180Y31451010D01*
X25017592Y31448938D01*
X25017592Y31441582D01*
X25017592Y29777925D01*
X25002950Y29719472D01*
X24962483Y29674823D01*
X24905747Y29654522D01*
X24855791Y29661932D01*
X24855740Y29661966D01*
X24843762Y29664349D01*
X24843759Y29664350D01*
X24788653Y29675311D01*
X24788649Y29675312D01*
X24782674Y29676500D01*
X24233326Y29676500D01*
X24227351Y29675312D01*
X24227346Y29675311D01*
X24172240Y29664350D01*
X24172235Y29664349D01*
X24160260Y29661966D01*
X24150105Y29655181D01*
X24150103Y29655180D01*
X24087551Y29613385D01*
X24087548Y29613383D01*
X24077399Y29606601D01*
X24070616Y29596450D01*
X24061977Y29587810D01*
X24061519Y29588268D01*
X24026072Y29556141D01*
X23967620Y29541500D01*
X23849862Y29541500D01*
X23802409Y29550939D01*
X23762181Y29577819D01*
X23630638Y29709362D01*
X23630638Y29709363D01*
X23622000Y29718000D01*
X23609789Y29718000D01*
X23165362Y29718000D01*
X23117909Y29727439D01*
X23077681Y29754319D01*
X22896319Y29935681D01*
X22869439Y29975909D01*
X22860000Y30023362D01*
X22860000Y31444638D01*
X22869439Y31492091D01*
X22896319Y31532319D01*
X23077681Y31713681D01*
X23117909Y31740561D01*
X23165362Y31750000D01*
X24840638Y31750000D01*
X24888091Y31740561D01*
G37*
%TD.AperFunction*%
%TD*%
%TA.AperFunction,Conductor*%
%TO.N,Net-(J4-Pin_1)*%
G36*
X36514000Y13445387D02*
G01*
X36559387Y13400000D01*
X36576000Y13338000D01*
X36576000Y7998000D01*
X36559387Y7936000D01*
X36514000Y7890613D01*
X36452000Y7874000D01*
X34798000Y7874000D01*
X34789358Y7865298D01*
X34789354Y7865294D01*
X29492371Y2530630D01*
X29452036Y2503523D01*
X29404380Y2494000D01*
X23666458Y2494000D01*
X23618146Y2503799D01*
X23577469Y2531646D01*
X22109171Y4044739D01*
X23526100Y4044739D01*
X23526208Y4041092D01*
X23528561Y4001581D01*
X23529866Y3992108D01*
X23571230Y3801965D01*
X23574814Y3790753D01*
X23650974Y3612902D01*
X23656618Y3602566D01*
X23765060Y3442344D01*
X23772558Y3433263D01*
X23909362Y3296459D01*
X23918443Y3288961D01*
X24078665Y3180519D01*
X24089001Y3174875D01*
X24266852Y3098715D01*
X24278064Y3095131D01*
X24468207Y3053767D01*
X24477680Y3052462D01*
X24517191Y3050109D01*
X24520839Y3050000D01*
X24909774Y3050000D01*
X24922649Y3053451D01*
X24926100Y3066326D01*
X25426100Y3066326D01*
X25429550Y3053451D01*
X25442426Y3050000D01*
X25831361Y3050000D01*
X25835008Y3050109D01*
X25874519Y3052462D01*
X25883992Y3053767D01*
X26074135Y3095131D01*
X26085347Y3098715D01*
X26263198Y3174875D01*
X26273534Y3180519D01*
X26433756Y3288961D01*
X26442837Y3296459D01*
X26579641Y3433263D01*
X26587139Y3442344D01*
X26695581Y3602566D01*
X26701225Y3612902D01*
X26777385Y3790753D01*
X26780969Y3801965D01*
X26822333Y3992108D01*
X26823638Y4001581D01*
X26825991Y4041092D01*
X26826100Y4044739D01*
X26826100Y4433674D01*
X26822649Y4446550D01*
X26809774Y4450000D01*
X25442426Y4450000D01*
X25429550Y4446550D01*
X25426100Y4433674D01*
X25426100Y3066326D01*
X24926100Y3066326D01*
X24926100Y4433674D01*
X24922649Y4446550D01*
X24909774Y4450000D01*
X23542426Y4450000D01*
X23529550Y4446550D01*
X23526100Y4433674D01*
X23526100Y4044739D01*
X22109171Y4044739D01*
X21879011Y4281921D01*
X21853086Y4321684D01*
X21844000Y4368275D01*
X21844000Y4966326D01*
X23526100Y4966326D01*
X23529550Y4953451D01*
X23542426Y4950000D01*
X24909774Y4950000D01*
X24922649Y4953451D01*
X24926100Y4966326D01*
X25426100Y4966326D01*
X25429550Y4953451D01*
X25442426Y4950000D01*
X26809774Y4950000D01*
X26822649Y4953451D01*
X26826100Y4966326D01*
X26826100Y5355261D01*
X26825991Y5358909D01*
X26823638Y5398420D01*
X26822333Y5407893D01*
X26780969Y5598036D01*
X26777385Y5609248D01*
X26701225Y5787099D01*
X26695581Y5797435D01*
X26587139Y5957657D01*
X26579641Y5966738D01*
X26442837Y6103542D01*
X26433756Y6111040D01*
X26273534Y6219482D01*
X26263198Y6225126D01*
X26085347Y6301286D01*
X26074135Y6304870D01*
X25883992Y6346234D01*
X25874519Y6347539D01*
X25835008Y6349892D01*
X25831361Y6350000D01*
X25442426Y6350000D01*
X25429550Y6346550D01*
X25426100Y6333674D01*
X25426100Y4966326D01*
X24926100Y4966326D01*
X24926100Y6333674D01*
X24922649Y6346550D01*
X24909774Y6350000D01*
X24520839Y6350000D01*
X24517191Y6349892D01*
X24477680Y6347539D01*
X24468207Y6346234D01*
X24278064Y6304870D01*
X24266852Y6301286D01*
X24089001Y6225126D01*
X24078665Y6219482D01*
X23918443Y6111040D01*
X23909362Y6103542D01*
X23772558Y5966738D01*
X23765060Y5957657D01*
X23656618Y5797435D01*
X23650974Y5787099D01*
X23574814Y5609248D01*
X23571230Y5598036D01*
X23529866Y5407893D01*
X23528561Y5398420D01*
X23526208Y5358909D01*
X23526100Y5355261D01*
X23526100Y4966326D01*
X21844000Y4966326D01*
X21844000Y9194739D01*
X23526100Y9194739D01*
X23526208Y9191092D01*
X23528561Y9151581D01*
X23529866Y9142108D01*
X23571230Y8951965D01*
X23574814Y8940753D01*
X23650974Y8762902D01*
X23656618Y8752566D01*
X23765060Y8592344D01*
X23772558Y8583263D01*
X23909362Y8446459D01*
X23918443Y8438961D01*
X24078665Y8330519D01*
X24089001Y8324875D01*
X24266852Y8248715D01*
X24278064Y8245131D01*
X24468207Y8203767D01*
X24477680Y8202462D01*
X24517191Y8200109D01*
X24520839Y8200000D01*
X24909774Y8200000D01*
X24922649Y8203451D01*
X24926100Y8216326D01*
X25426100Y8216326D01*
X25429550Y8203451D01*
X25442426Y8200000D01*
X25831361Y8200000D01*
X25835008Y8200109D01*
X25874519Y8202462D01*
X25883992Y8203767D01*
X26074135Y8245131D01*
X26085347Y8248715D01*
X26263198Y8324875D01*
X26273534Y8330519D01*
X26433756Y8438961D01*
X26442837Y8446459D01*
X26579641Y8583263D01*
X26587139Y8592344D01*
X26695581Y8752566D01*
X26701225Y8762902D01*
X26777385Y8940753D01*
X26780969Y8951965D01*
X26822333Y9142108D01*
X26823638Y9151581D01*
X26825991Y9191092D01*
X26826100Y9194739D01*
X26826100Y9583674D01*
X26822649Y9596550D01*
X26809774Y9600000D01*
X25442426Y9600000D01*
X25429550Y9596550D01*
X25426100Y9583674D01*
X25426100Y8216326D01*
X24926100Y8216326D01*
X24926100Y9583674D01*
X24922649Y9596550D01*
X24909774Y9600000D01*
X23542426Y9600000D01*
X23529550Y9596550D01*
X23526100Y9583674D01*
X23526100Y9194739D01*
X21844000Y9194739D01*
X21844000Y9831482D01*
X32490000Y9831482D01*
X32490353Y9824886D01*
X32495573Y9776333D01*
X32499111Y9761359D01*
X32543547Y9642223D01*
X32551962Y9626811D01*
X32627498Y9525908D01*
X32639907Y9513499D01*
X32740810Y9437963D01*
X32756222Y9429548D01*
X32875358Y9385112D01*
X32890332Y9381574D01*
X32938885Y9376354D01*
X32945482Y9376000D01*
X34023674Y9376000D01*
X34036549Y9379451D01*
X34040000Y9392326D01*
X34540000Y9392326D01*
X34543450Y9379451D01*
X34556326Y9376000D01*
X35634518Y9376000D01*
X35641114Y9376354D01*
X35689667Y9381574D01*
X35704641Y9385112D01*
X35823777Y9429548D01*
X35839189Y9437963D01*
X35940092Y9513499D01*
X35952501Y9525908D01*
X36028037Y9626811D01*
X36036452Y9642223D01*
X36080888Y9761359D01*
X36084426Y9776333D01*
X36089646Y9824886D01*
X36090000Y9831482D01*
X36090000Y10909674D01*
X36086549Y10922550D01*
X36073674Y10926000D01*
X34556326Y10926000D01*
X34543450Y10922550D01*
X34540000Y10909674D01*
X34540000Y9392326D01*
X34040000Y9392326D01*
X34040000Y10909674D01*
X34036549Y10922550D01*
X34023674Y10926000D01*
X32506326Y10926000D01*
X32493450Y10922550D01*
X32490000Y10909674D01*
X32490000Y9831482D01*
X21844000Y9831482D01*
X21844000Y10116326D01*
X23526100Y10116326D01*
X23529550Y10103451D01*
X23542426Y10100000D01*
X24909774Y10100000D01*
X24922649Y10103451D01*
X24926100Y10116326D01*
X25426100Y10116326D01*
X25429550Y10103451D01*
X25442426Y10100000D01*
X26809774Y10100000D01*
X26822649Y10103451D01*
X26826100Y10116326D01*
X26826100Y10505261D01*
X26825991Y10508909D01*
X26823638Y10548420D01*
X26822333Y10557893D01*
X26780969Y10748036D01*
X26777385Y10759248D01*
X26701225Y10937099D01*
X26695581Y10947435D01*
X26587139Y11107657D01*
X26579641Y11116738D01*
X26442837Y11253542D01*
X26433756Y11261040D01*
X26273534Y11369482D01*
X26263198Y11375126D01*
X26106271Y11442326D01*
X32490000Y11442326D01*
X32493450Y11429451D01*
X32506326Y11426000D01*
X34023674Y11426000D01*
X34036549Y11429451D01*
X34040000Y11442326D01*
X34540000Y11442326D01*
X34543450Y11429451D01*
X34556326Y11426000D01*
X36073674Y11426000D01*
X36086549Y11429451D01*
X36090000Y11442326D01*
X36090000Y12520518D01*
X36089646Y12527115D01*
X36084426Y12575668D01*
X36080888Y12590642D01*
X36036452Y12709778D01*
X36028037Y12725190D01*
X35952501Y12826093D01*
X35940092Y12838502D01*
X35839189Y12914038D01*
X35823777Y12922453D01*
X35704641Y12966889D01*
X35689667Y12970427D01*
X35641114Y12975647D01*
X35634518Y12976000D01*
X34556326Y12976000D01*
X34543450Y12972550D01*
X34540000Y12959674D01*
X34540000Y11442326D01*
X34040000Y11442326D01*
X34040000Y12959674D01*
X34036549Y12972550D01*
X34023674Y12976000D01*
X32945482Y12976000D01*
X32938885Y12975647D01*
X32890332Y12970427D01*
X32875358Y12966889D01*
X32756222Y12922453D01*
X32740810Y12914038D01*
X32639907Y12838502D01*
X32627498Y12826093D01*
X32551962Y12725190D01*
X32543547Y12709778D01*
X32499111Y12590642D01*
X32495573Y12575668D01*
X32490353Y12527115D01*
X32490000Y12520518D01*
X32490000Y11442326D01*
X26106271Y11442326D01*
X26085347Y11451286D01*
X26074135Y11454870D01*
X25883992Y11496234D01*
X25874519Y11497539D01*
X25835008Y11499892D01*
X25831361Y11500000D01*
X25442426Y11500000D01*
X25429550Y11496550D01*
X25426100Y11483674D01*
X25426100Y10116326D01*
X24926100Y10116326D01*
X24926100Y11483674D01*
X24922649Y11496550D01*
X24909774Y11500000D01*
X24520839Y11500000D01*
X24517191Y11499892D01*
X24477680Y11497539D01*
X24468207Y11496234D01*
X24278064Y11454870D01*
X24266852Y11451286D01*
X24089001Y11375126D01*
X24078665Y11369482D01*
X23918443Y11261040D01*
X23909362Y11253542D01*
X23772558Y11116738D01*
X23765060Y11107657D01*
X23656618Y10947435D01*
X23650974Y10937099D01*
X23574814Y10759248D01*
X23571230Y10748036D01*
X23529866Y10557893D01*
X23528561Y10548420D01*
X23526208Y10508909D01*
X23526100Y10505261D01*
X23526100Y10116326D01*
X21844000Y10116326D01*
X21844000Y11632638D01*
X21853439Y11680091D01*
X21880319Y11720319D01*
X23585681Y13425681D01*
X23625909Y13452561D01*
X23673362Y13462000D01*
X36452000Y13462000D01*
X36514000Y13445387D01*
G37*
%TD.AperFunction*%
%TD*%
%TA.AperFunction,Conductor*%
%TO.N,G_OUT*%
G36*
X27973760Y37619668D02*
G01*
X32779010Y35849312D01*
X36791648Y35849312D01*
X36839101Y35839873D01*
X36879329Y35812993D01*
X37060691Y35631631D01*
X37087571Y35591403D01*
X37097010Y35543950D01*
X37097010Y31836674D01*
X37087571Y31789221D01*
X37060691Y31748993D01*
X36879329Y31567631D01*
X36839101Y31540751D01*
X36791648Y31531312D01*
X32801126Y31531312D01*
X32758259Y31538957D01*
X32188161Y31748993D01*
X31950170Y31836674D01*
X27963304Y33305520D01*
X27963301Y33305521D01*
X27953010Y33309312D01*
X27942038Y33309312D01*
X25718372Y33309312D01*
X25670919Y33318751D01*
X25630691Y33345631D01*
X25195329Y33780993D01*
X25168449Y33821221D01*
X25159010Y33868674D01*
X25159010Y37321950D01*
X25168449Y37369403D01*
X25195329Y37409631D01*
X25376691Y37590993D01*
X25416919Y37617873D01*
X25464372Y37627312D01*
X27930894Y37627312D01*
X27973760Y37619668D01*
G37*
%TD.AperFunction*%
%TD*%
%TA.AperFunction,Conductor*%
%TO.N,GND*%
G36*
X24634091Y42154561D02*
G01*
X24674319Y42127681D01*
X24855681Y41946319D01*
X24882561Y41906091D01*
X24892000Y41858638D01*
X24892000Y40214500D01*
X24875387Y40152500D01*
X24830000Y40107113D01*
X24768000Y40090500D01*
X24233326Y40090500D01*
X24227351Y40089312D01*
X24227346Y40089311D01*
X24172238Y40078349D01*
X24172236Y40078349D01*
X24160260Y40075966D01*
X24138451Y40061395D01*
X24105560Y40045839D01*
X24069566Y40040500D01*
X23616040Y40040500D01*
X23568587Y40049939D01*
X23542717Y40067225D01*
X23541729Y40065840D01*
X23533368Y40071810D01*
X23526102Y40079076D01*
X23505166Y40089311D01*
X23419171Y40131352D01*
X23419169Y40131353D01*
X23410518Y40135582D01*
X23400987Y40136971D01*
X23400986Y40136971D01*
X23340019Y40145854D01*
X23340012Y40145855D01*
X23335582Y40146500D01*
X22896862Y40146500D01*
X22849409Y40155939D01*
X22809181Y40182819D01*
X22642319Y40349681D01*
X22615439Y40389909D01*
X22606000Y40437362D01*
X22606000Y41858638D01*
X22615439Y41906091D01*
X22642319Y41946319D01*
X22823681Y42127681D01*
X22863909Y42154561D01*
X22911362Y42164000D01*
X24586638Y42164000D01*
X24634091Y42154561D01*
G37*
%TD.AperFunction*%
%TD*%
%TA.AperFunction,Conductor*%
%TO.N,Net-(D1-K)*%
G36*
X17236720Y24133164D02*
G01*
X18998767Y24130090D01*
X19046101Y24120610D01*
X19086229Y24093771D01*
X19775681Y23404319D01*
X19802561Y23364091D01*
X19812000Y23316638D01*
X19812000Y18847362D01*
X19802561Y18799909D01*
X19775681Y18759681D01*
X19340319Y18324319D01*
X19300091Y18297439D01*
X19252638Y18288000D01*
X17831362Y18288000D01*
X17783909Y18297439D01*
X17743681Y18324319D01*
X15756638Y20311362D01*
X15748000Y20320000D01*
X15735789Y20320000D01*
X13767362Y20320000D01*
X13719909Y20329439D01*
X13679681Y20356319D01*
X13498319Y20537681D01*
X13471439Y20577909D01*
X13462000Y20625362D01*
X13462000Y21792638D01*
X13471439Y21840091D01*
X13498319Y21880319D01*
X13679681Y22061681D01*
X13719909Y22088561D01*
X13767362Y22098000D01*
X15863368Y22098000D01*
X15919663Y22084484D01*
X15955123Y22066416D01*
X15955127Y22066415D01*
X15963825Y22061983D01*
X16055265Y22047500D01*
X16456734Y22047501D01*
X16548175Y22061983D01*
X16562518Y22069292D01*
X16592337Y22084484D01*
X16648632Y22098000D01*
X16747592Y22098000D01*
X16764000Y22098000D01*
X16763131Y22208764D01*
X16776642Y22266026D01*
X16802017Y22315825D01*
X16816500Y22407265D01*
X16816499Y22748734D01*
X16802017Y22840175D01*
X16770779Y22901483D01*
X16757269Y22956798D01*
X16756000Y23118800D01*
X16739756Y23118800D01*
X16422800Y23118800D01*
X16360800Y23135413D01*
X16315413Y23180800D01*
X16298800Y23242800D01*
X16298800Y24010583D01*
X16315449Y24072645D01*
X16360925Y24118042D01*
X16423016Y24134583D01*
X17236720Y24133164D01*
G37*
%TD.AperFunction*%
%TD*%
%TA.AperFunction,Conductor*%
%TO.N,GND*%
G36*
X24634091Y47234561D02*
G01*
X24674319Y47207681D01*
X24855681Y47026319D01*
X24882561Y46986091D01*
X24892000Y46938638D01*
X24892000Y45294500D01*
X24875387Y45232500D01*
X24830000Y45187113D01*
X24768000Y45170500D01*
X24233326Y45170500D01*
X24227351Y45169312D01*
X24227346Y45169311D01*
X24172238Y45158349D01*
X24172236Y45158349D01*
X24160260Y45155966D01*
X24138451Y45141395D01*
X24105560Y45125839D01*
X24069566Y45120500D01*
X23616040Y45120500D01*
X23568587Y45129939D01*
X23542717Y45147225D01*
X23541729Y45145840D01*
X23533368Y45151810D01*
X23526102Y45159076D01*
X23505166Y45169311D01*
X23419171Y45211352D01*
X23419169Y45211353D01*
X23410518Y45215582D01*
X23400987Y45216971D01*
X23400986Y45216971D01*
X23340019Y45225854D01*
X23340012Y45225855D01*
X23335582Y45226500D01*
X22896862Y45226500D01*
X22849409Y45235939D01*
X22809181Y45262819D01*
X22642319Y45429681D01*
X22615439Y45469909D01*
X22606000Y45517362D01*
X22606000Y45520840D01*
X22607296Y45538718D01*
X22607332Y45538969D01*
X22609700Y45555218D01*
X22609700Y45898382D01*
X22607296Y45914882D01*
X22606000Y45932760D01*
X22606000Y46938638D01*
X22615439Y46986091D01*
X22642319Y47026319D01*
X22823681Y47207681D01*
X22863909Y47234561D01*
X22911362Y47244000D01*
X24586638Y47244000D01*
X24634091Y47234561D01*
G37*
%TD.AperFunction*%
%TD*%
%TA.AperFunction,Conductor*%
%TO.N,R_OUT*%
G36*
X27948199Y32762980D02*
G01*
X32766000Y30988000D01*
X36809704Y30988000D01*
X36844352Y30973648D01*
X37069648Y30748352D01*
X37084000Y30713704D01*
X37084000Y26944296D01*
X37069648Y26909648D01*
X36844352Y26684352D01*
X36809704Y26670000D01*
X32774740Y26670000D01*
X32757800Y26673021D01*
X32727044Y26684352D01*
X32021482Y26944296D01*
X27944067Y28446502D01*
X27944065Y28446503D01*
X27940000Y28448000D01*
X27935664Y28448000D01*
X25674296Y28448000D01*
X25639648Y28462352D01*
X25160352Y28941648D01*
X25146000Y28976296D01*
X25146000Y29477944D01*
X25158693Y29510850D01*
X25192264Y29547890D01*
X25228281Y29599030D01*
X25250793Y29657389D01*
X25265435Y29715842D01*
X25273092Y29777925D01*
X25273092Y31423090D01*
X25274033Y31432649D01*
X25276418Y31444638D01*
X25283677Y31481134D01*
X25288278Y31543511D01*
X25285322Y31603698D01*
X25274628Y31665333D01*
X25249277Y31722522D01*
X25218297Y31774207D01*
X25179816Y31823516D01*
X25160352Y31842980D01*
X25146000Y31877628D01*
X25146000Y32491704D01*
X25160352Y32526352D01*
X25385648Y32751648D01*
X25420296Y32766000D01*
X27931260Y32766000D01*
X27948199Y32762980D01*
G37*
%TD.AperFunction*%
%TD*%
%TA.AperFunction,Conductor*%
%TO.N,Net-(D1-A)*%
G36*
X17845141Y26786296D02*
G01*
X17881672Y26744639D01*
X17890101Y26689878D01*
X17884623Y26648269D01*
X17884200Y26641814D01*
X17884200Y26533833D01*
X17886954Y26523555D01*
X17897233Y26520800D01*
X18355200Y26520800D01*
X18404700Y26507537D01*
X18440937Y26471300D01*
X18454200Y26421800D01*
X18454200Y25913834D01*
X18456954Y25903556D01*
X18467233Y25900801D01*
X18525212Y25900801D01*
X18531670Y25901225D01*
X18569731Y25906235D01*
X18584103Y25910424D01*
X18596768Y25916329D01*
X18629979Y25925228D01*
X18664231Y25922232D01*
X18686400Y25916292D01*
X18686400Y25912800D01*
X19120191Y25912800D01*
X19145876Y25909134D01*
X19151027Y25906732D01*
X19199884Y25900300D01*
X19203125Y25900300D01*
X19376810Y25900300D01*
X19425789Y25887335D01*
X19461940Y25851836D01*
X19475794Y25803100D01*
X19479018Y25625800D01*
X19466364Y25575543D01*
X19430053Y25538565D01*
X19380034Y25525000D01*
X18913033Y25525000D01*
X18902754Y25522246D01*
X18900000Y25511967D01*
X18900000Y24999000D01*
X18886737Y24949500D01*
X18850500Y24913263D01*
X18801000Y24900000D01*
X18003033Y24900000D01*
X17992754Y24897246D01*
X17990000Y24886967D01*
X17990000Y24660160D01*
X17990948Y24650534D01*
X17994214Y24634116D01*
X17988582Y24576916D01*
X17952119Y24532485D01*
X17897117Y24515800D01*
X17820200Y24515800D01*
X17770700Y24529063D01*
X17734463Y24565300D01*
X17721200Y24614800D01*
X17721200Y25113033D01*
X17990000Y25113033D01*
X17992754Y25102755D01*
X18003033Y25100000D01*
X18686967Y25100000D01*
X18697245Y25102755D01*
X18700000Y25113033D01*
X18700000Y25511967D01*
X18697245Y25522246D01*
X18686967Y25525000D01*
X18175160Y25525000D01*
X18165538Y25524053D01*
X18121526Y25515299D01*
X18103857Y25507980D01*
X18053917Y25474611D01*
X18040389Y25461083D01*
X18007020Y25411143D01*
X17999701Y25393474D01*
X17990947Y25349462D01*
X17990000Y25339840D01*
X17990000Y25113033D01*
X17721200Y25113033D01*
X17721200Y25366367D01*
X17721200Y25379400D01*
X17708167Y25379400D01*
X17227087Y25379400D01*
X17179469Y25391604D01*
X17143591Y25425208D01*
X17128299Y25471925D01*
X17137363Y25520240D01*
X17171806Y25594104D01*
X17175997Y25608483D01*
X17180576Y25643266D01*
X17181000Y25649720D01*
X17181000Y25757567D01*
X17178245Y25767846D01*
X17167967Y25770600D01*
X16755000Y25770600D01*
X16705500Y25783863D01*
X16669263Y25820100D01*
X16656000Y25869600D01*
X16656000Y25983633D01*
X16856000Y25983633D01*
X16858754Y25973355D01*
X16869033Y25970600D01*
X17167966Y25970600D01*
X17178244Y25973355D01*
X17180999Y25983633D01*
X17180999Y26091477D01*
X17180575Y26097940D01*
X17175998Y26132714D01*
X17171805Y26147099D01*
X17147236Y26199788D01*
X17884201Y26199788D01*
X17884624Y26193330D01*
X17889634Y26155269D01*
X17893824Y26140894D01*
X17936890Y26048538D01*
X17946674Y26034565D01*
X18017964Y25963275D01*
X18031937Y25953491D01*
X18124290Y25910426D01*
X18138670Y25906234D01*
X18176731Y25901224D01*
X18183186Y25900800D01*
X18241167Y25900800D01*
X18251445Y25903555D01*
X18254200Y25913833D01*
X18254200Y26307767D01*
X18251445Y26318046D01*
X18241167Y26320800D01*
X17897234Y26320800D01*
X17886955Y26318046D01*
X17884201Y26307767D01*
X17884201Y26199788D01*
X17147236Y26199788D01*
X17132094Y26232259D01*
X17122310Y26246232D01*
X17056631Y26311911D01*
X17042658Y26321695D01*
X16957496Y26361407D01*
X16943117Y26365598D01*
X16908334Y26370177D01*
X16901880Y26370600D01*
X16869033Y26370600D01*
X16858754Y26367846D01*
X16856000Y26357567D01*
X16856000Y25983633D01*
X16656000Y25983633D01*
X16656000Y26357566D01*
X16653245Y26367845D01*
X16642967Y26370599D01*
X16610123Y26370599D01*
X16603660Y26370176D01*
X16568886Y26365599D01*
X16554501Y26361406D01*
X16541238Y26355221D01*
X16492924Y26346158D01*
X16446207Y26361451D01*
X16412604Y26397328D01*
X16400400Y26444946D01*
X16400400Y26702800D01*
X16413663Y26752300D01*
X16449900Y26788537D01*
X16499400Y26801800D01*
X17791948Y26801800D01*
X17845141Y26786296D01*
G37*
%TD.AperFunction*%
%TD*%
%TA.AperFunction,Conductor*%
%TO.N,GND*%
G36*
X17898966Y17668032D02*
G01*
X17943854Y17626240D01*
X17963223Y17568046D01*
X17952333Y17507689D01*
X17913850Y17459933D01*
X17895907Y17446502D01*
X17883498Y17434093D01*
X17807962Y17333190D01*
X17799547Y17317778D01*
X17755111Y17198642D01*
X17751573Y17183668D01*
X17746353Y17135115D01*
X17746000Y17128518D01*
X17746000Y16100326D01*
X17749450Y16087451D01*
X17762326Y16084000D01*
X18922000Y16084000D01*
X18984000Y16067387D01*
X19029387Y16022000D01*
X19046000Y15960000D01*
X19046000Y15708000D01*
X19029387Y15646000D01*
X18984000Y15600613D01*
X18922000Y15584000D01*
X17762326Y15584000D01*
X17749450Y15580550D01*
X17746000Y15567674D01*
X17746000Y14539482D01*
X17746353Y14532886D01*
X17751573Y14484333D01*
X17755111Y14469359D01*
X17799547Y14350223D01*
X17807962Y14334811D01*
X17852953Y14274711D01*
X17877192Y14211453D01*
X17864570Y14144896D01*
X17818853Y14094905D01*
X17753686Y14076400D01*
X16778400Y14076400D01*
X16716400Y14093013D01*
X16671013Y14138400D01*
X16654400Y14200400D01*
X16654400Y17559200D01*
X16671013Y17621200D01*
X16716400Y17666587D01*
X16778400Y17683200D01*
X17839539Y17683200D01*
X17898966Y17668032D01*
G37*
%TD.AperFunction*%
%TD*%
M02*
