%TF.GenerationSoftware,KiCad,Pcbnew,(7.0.0)*%
%TF.CreationDate,2023-03-11T20:41:09+01:00*%
%TF.ProjectId,StripController,53747269-7043-46f6-9e74-726f6c6c6572,rev?*%
%TF.SameCoordinates,Original*%
%TF.FileFunction,Legend,Bot*%
%TF.FilePolarity,Positive*%
%FSLAX46Y46*%
G04 Gerber Fmt 4.6, Leading zero omitted, Abs format (unit mm)*
G04 Created by KiCad (PCBNEW (7.0.0)) date 2023-03-11 20:41:09*
%MOMM*%
%LPD*%
G01*
G04 APERTURE LIST*
G04 Aperture macros list*
%AMRoundRect*
0 Rectangle with rounded corners*
0 $1 Rounding radius*
0 $2 $3 $4 $5 $6 $7 $8 $9 X,Y pos of 4 corners*
0 Add a 4 corners polygon primitive as box body*
4,1,4,$2,$3,$4,$5,$6,$7,$8,$9,$2,$3,0*
0 Add four circle primitives for the rounded corners*
1,1,$1+$1,$2,$3*
1,1,$1+$1,$4,$5*
1,1,$1+$1,$6,$7*
1,1,$1+$1,$8,$9*
0 Add four rect primitives between the rounded corners*
20,1,$1+$1,$2,$3,$4,$5,0*
20,1,$1+$1,$4,$5,$6,$7,0*
20,1,$1+$1,$6,$7,$8,$9,0*
20,1,$1+$1,$8,$9,$2,$3,0*%
G04 Aperture macros list end*
%ADD10C,0.150000*%
%ADD11C,0.100000*%
%ADD12C,0.120000*%
%ADD13C,0.990600*%
%ADD14C,3.200000*%
%ADD15RoundRect,0.575000X0.575000X-0.575000X0.575000X0.575000X-0.575000X0.575000X-0.575000X-0.575000X0*%
%ADD16RoundRect,0.250000X0.625000X-0.350000X0.625000X0.350000X-0.625000X0.350000X-0.625000X-0.350000X0*%
%ADD17O,1.750000X1.200000*%
%ADD18R,2.600000X2.600000*%
%ADD19C,2.600000*%
%ADD20RoundRect,0.575000X-0.575000X0.575000X-0.575000X-0.575000X0.575000X-0.575000X0.575000X0.575000X0*%
%ADD21RoundRect,0.135000X0.135000X0.185000X-0.135000X0.185000X-0.135000X-0.185000X0.135000X-0.185000X0*%
%ADD22R,1.500000X1.500000*%
%ADD23RoundRect,0.140000X-0.170000X0.140000X-0.170000X-0.140000X0.170000X-0.140000X0.170000X0.140000X0*%
%ADD24RoundRect,0.135000X-0.135000X-0.185000X0.135000X-0.185000X0.135000X0.185000X-0.135000X0.185000X0*%
G04 APERTURE END LIST*
D10*
X38182380Y28690477D02*
X37706190Y29023810D01*
X38182380Y29261905D02*
X37182380Y29261905D01*
X37182380Y29261905D02*
X37182380Y28880953D01*
X37182380Y28880953D02*
X37230000Y28785715D01*
X37230000Y28785715D02*
X37277619Y28738096D01*
X37277619Y28738096D02*
X37372857Y28690477D01*
X37372857Y28690477D02*
X37515714Y28690477D01*
X37515714Y28690477D02*
X37610952Y28738096D01*
X37610952Y28738096D02*
X37658571Y28785715D01*
X37658571Y28785715D02*
X37706190Y28880953D01*
X37706190Y28880953D02*
X37706190Y29261905D01*
X37182380Y25423810D02*
X38182380Y25090477D01*
X38182380Y25090477D02*
X37182380Y24757144D01*
X38182380Y24280953D02*
X38134761Y24376191D01*
X38134761Y24376191D02*
X38087142Y24423810D01*
X38087142Y24423810D02*
X37991904Y24471429D01*
X37991904Y24471429D02*
X37706190Y24471429D01*
X37706190Y24471429D02*
X37610952Y24423810D01*
X37610952Y24423810D02*
X37563333Y24376191D01*
X37563333Y24376191D02*
X37515714Y24280953D01*
X37515714Y24280953D02*
X37515714Y24138096D01*
X37515714Y24138096D02*
X37563333Y24042858D01*
X37563333Y24042858D02*
X37610952Y23995239D01*
X37610952Y23995239D02*
X37706190Y23947620D01*
X37706190Y23947620D02*
X37991904Y23947620D01*
X37991904Y23947620D02*
X38087142Y23995239D01*
X38087142Y23995239D02*
X38134761Y24042858D01*
X38134761Y24042858D02*
X38182380Y24138096D01*
X38182380Y24138096D02*
X38182380Y24280953D01*
X37515714Y23090477D02*
X38182380Y23090477D01*
X37515714Y23519048D02*
X38039523Y23519048D01*
X38039523Y23519048D02*
X38134761Y23471429D01*
X38134761Y23471429D02*
X38182380Y23376191D01*
X38182380Y23376191D02*
X38182380Y23233334D01*
X38182380Y23233334D02*
X38134761Y23138096D01*
X38134761Y23138096D02*
X38087142Y23090477D01*
X37515714Y22757143D02*
X37515714Y22376191D01*
X37182380Y22614286D02*
X38039523Y22614286D01*
X38039523Y22614286D02*
X38134761Y22566667D01*
X38134761Y22566667D02*
X38182380Y22471429D01*
X38182380Y22471429D02*
X38182380Y22376191D01*
X37182380Y44328571D02*
X38182380Y44090476D01*
X38182380Y44090476D02*
X37468095Y43900000D01*
X37468095Y43900000D02*
X38182380Y43709524D01*
X38182380Y43709524D02*
X37182380Y43471428D01*
X37230000Y33638096D02*
X37182380Y33733334D01*
X37182380Y33733334D02*
X37182380Y33876191D01*
X37182380Y33876191D02*
X37230000Y34019048D01*
X37230000Y34019048D02*
X37325238Y34114286D01*
X37325238Y34114286D02*
X37420476Y34161905D01*
X37420476Y34161905D02*
X37610952Y34209524D01*
X37610952Y34209524D02*
X37753809Y34209524D01*
X37753809Y34209524D02*
X37944285Y34161905D01*
X37944285Y34161905D02*
X38039523Y34114286D01*
X38039523Y34114286D02*
X38134761Y34019048D01*
X38134761Y34019048D02*
X38182380Y33876191D01*
X38182380Y33876191D02*
X38182380Y33780953D01*
X38182380Y33780953D02*
X38134761Y33638096D01*
X38134761Y33638096D02*
X38087142Y33590477D01*
X38087142Y33590477D02*
X37753809Y33590477D01*
X37753809Y33590477D02*
X37753809Y33780953D01*
X37658571Y38928572D02*
X37706190Y38785715D01*
X37706190Y38785715D02*
X37753809Y38738096D01*
X37753809Y38738096D02*
X37849047Y38690477D01*
X37849047Y38690477D02*
X37991904Y38690477D01*
X37991904Y38690477D02*
X38087142Y38738096D01*
X38087142Y38738096D02*
X38134761Y38785715D01*
X38134761Y38785715D02*
X38182380Y38880953D01*
X38182380Y38880953D02*
X38182380Y39261905D01*
X38182380Y39261905D02*
X37182380Y39261905D01*
X37182380Y39261905D02*
X37182380Y38928572D01*
X37182380Y38928572D02*
X37230000Y38833334D01*
X37230000Y38833334D02*
X37277619Y38785715D01*
X37277619Y38785715D02*
X37372857Y38738096D01*
X37372857Y38738096D02*
X37468095Y38738096D01*
X37468095Y38738096D02*
X37563333Y38785715D01*
X37563333Y38785715D02*
X37610952Y38833334D01*
X37610952Y38833334D02*
X37658571Y38928572D01*
X37658571Y38928572D02*
X37658571Y39261905D01*
X37230000Y16961905D02*
X37182380Y17057143D01*
X37182380Y17057143D02*
X37182380Y17200000D01*
X37182380Y17200000D02*
X37230000Y17342857D01*
X37230000Y17342857D02*
X37325238Y17438095D01*
X37325238Y17438095D02*
X37420476Y17485714D01*
X37420476Y17485714D02*
X37610952Y17533333D01*
X37610952Y17533333D02*
X37753809Y17533333D01*
X37753809Y17533333D02*
X37944285Y17485714D01*
X37944285Y17485714D02*
X38039523Y17438095D01*
X38039523Y17438095D02*
X38134761Y17342857D01*
X38134761Y17342857D02*
X38182380Y17200000D01*
X38182380Y17200000D02*
X38182380Y17104762D01*
X38182380Y17104762D02*
X38134761Y16961905D01*
X38134761Y16961905D02*
X38087142Y16914286D01*
X38087142Y16914286D02*
X37753809Y16914286D01*
X37753809Y16914286D02*
X37753809Y17104762D01*
X38182380Y16485714D02*
X37182380Y16485714D01*
X37182380Y16485714D02*
X38182380Y15914286D01*
X38182380Y15914286D02*
X37182380Y15914286D01*
X38182380Y15438095D02*
X37182380Y15438095D01*
X37182380Y15438095D02*
X37182380Y15200000D01*
X37182380Y15200000D02*
X37230000Y15057143D01*
X37230000Y15057143D02*
X37325238Y14961905D01*
X37325238Y14961905D02*
X37420476Y14914286D01*
X37420476Y14914286D02*
X37610952Y14866667D01*
X37610952Y14866667D02*
X37753809Y14866667D01*
X37753809Y14866667D02*
X37944285Y14914286D01*
X37944285Y14914286D02*
X38039523Y14961905D01*
X38039523Y14961905D02*
X38134761Y15057143D01*
X38134761Y15057143D02*
X38182380Y15200000D01*
X38182380Y15200000D02*
X38182380Y15438095D01*
X37082380Y12123809D02*
X38082380Y11790476D01*
X38082380Y11790476D02*
X37082380Y11457143D01*
X38082380Y11123809D02*
X37415714Y11123809D01*
X37082380Y11123809D02*
X37130000Y11171428D01*
X37130000Y11171428D02*
X37177619Y11123809D01*
X37177619Y11123809D02*
X37130000Y11076190D01*
X37130000Y11076190D02*
X37082380Y11123809D01*
X37082380Y11123809D02*
X37177619Y11123809D01*
X37415714Y10647619D02*
X38082380Y10647619D01*
X37510952Y10647619D02*
X37463333Y10600000D01*
X37463333Y10600000D02*
X37415714Y10504762D01*
X37415714Y10504762D02*
X37415714Y10361905D01*
X37415714Y10361905D02*
X37463333Y10266667D01*
X37463333Y10266667D02*
X37558571Y10219048D01*
X37558571Y10219048D02*
X38082380Y10219048D01*
X37182380Y49900000D02*
X38182380Y49661905D01*
X38182380Y49661905D02*
X37468095Y49471429D01*
X37468095Y49471429D02*
X38182380Y49280953D01*
X38182380Y49280953D02*
X37182380Y49042857D01*
X37182380Y48757143D02*
X38182380Y48519048D01*
X38182380Y48519048D02*
X37468095Y48328572D01*
X37468095Y48328572D02*
X38182380Y48138096D01*
X38182380Y48138096D02*
X37182380Y47900000D01*
D11*
%TO.C,R17*%
X15457142Y7453048D02*
X15590475Y7643524D01*
X15685713Y7453048D02*
X15685713Y7853048D01*
X15685713Y7853048D02*
X15533332Y7853048D01*
X15533332Y7853048D02*
X15495237Y7834000D01*
X15495237Y7834000D02*
X15476190Y7814953D01*
X15476190Y7814953D02*
X15457142Y7776858D01*
X15457142Y7776858D02*
X15457142Y7719715D01*
X15457142Y7719715D02*
X15476190Y7681620D01*
X15476190Y7681620D02*
X15495237Y7662572D01*
X15495237Y7662572D02*
X15533332Y7643524D01*
X15533332Y7643524D02*
X15685713Y7643524D01*
X15076190Y7453048D02*
X15304761Y7453048D01*
X15190475Y7453048D02*
X15190475Y7853048D01*
X15190475Y7853048D02*
X15228571Y7795905D01*
X15228571Y7795905D02*
X15266666Y7757810D01*
X15266666Y7757810D02*
X15304761Y7738762D01*
X14942857Y7853048D02*
X14676190Y7853048D01*
X14676190Y7853048D02*
X14847619Y7453048D01*
%TO.C,J3*%
X15814285Y50336143D02*
X15728571Y50307572D01*
X15728571Y50307572D02*
X15585713Y50307572D01*
X15585713Y50307572D02*
X15528571Y50336143D01*
X15528571Y50336143D02*
X15499999Y50364715D01*
X15499999Y50364715D02*
X15471428Y50421858D01*
X15471428Y50421858D02*
X15471428Y50479000D01*
X15471428Y50479000D02*
X15499999Y50536143D01*
X15499999Y50536143D02*
X15528571Y50564715D01*
X15528571Y50564715D02*
X15585713Y50593286D01*
X15585713Y50593286D02*
X15699999Y50621858D01*
X15699999Y50621858D02*
X15757142Y50650429D01*
X15757142Y50650429D02*
X15785713Y50679000D01*
X15785713Y50679000D02*
X15814285Y50736143D01*
X15814285Y50736143D02*
X15814285Y50793286D01*
X15814285Y50793286D02*
X15785713Y50850429D01*
X15785713Y50850429D02*
X15757142Y50879000D01*
X15757142Y50879000D02*
X15699999Y50907572D01*
X15699999Y50907572D02*
X15557142Y50907572D01*
X15557142Y50907572D02*
X15471428Y50879000D01*
X15271427Y50907572D02*
X15128570Y50307572D01*
X15128570Y50307572D02*
X15014284Y50736143D01*
X15014284Y50736143D02*
X14899999Y50307572D01*
X14899999Y50307572D02*
X14757142Y50907572D01*
X14528570Y50307572D02*
X14528570Y50907572D01*
X14528570Y50907572D02*
X14385713Y50907572D01*
X14385713Y50907572D02*
X14299999Y50879000D01*
X14299999Y50879000D02*
X14242856Y50821858D01*
X14242856Y50821858D02*
X14214285Y50764715D01*
X14214285Y50764715D02*
X14185713Y50650429D01*
X14185713Y50650429D02*
X14185713Y50564715D01*
X14185713Y50564715D02*
X14214285Y50450429D01*
X14214285Y50450429D02*
X14242856Y50393286D01*
X14242856Y50393286D02*
X14299999Y50336143D01*
X14299999Y50336143D02*
X14385713Y50307572D01*
X14385713Y50307572D02*
X14528570Y50307572D01*
%TO.C,R7*%
X9666666Y8853048D02*
X9799999Y9043524D01*
X9895237Y8853048D02*
X9895237Y9253048D01*
X9895237Y9253048D02*
X9742856Y9253048D01*
X9742856Y9253048D02*
X9704761Y9234000D01*
X9704761Y9234000D02*
X9685714Y9214953D01*
X9685714Y9214953D02*
X9666666Y9176858D01*
X9666666Y9176858D02*
X9666666Y9119715D01*
X9666666Y9119715D02*
X9685714Y9081620D01*
X9685714Y9081620D02*
X9704761Y9062572D01*
X9704761Y9062572D02*
X9742856Y9043524D01*
X9742856Y9043524D02*
X9895237Y9043524D01*
X9533333Y9253048D02*
X9266666Y9253048D01*
X9266666Y9253048D02*
X9438095Y8853048D01*
%TO.C,R1*%
X20066666Y8953048D02*
X20199999Y9143524D01*
X20295237Y8953048D02*
X20295237Y9353048D01*
X20295237Y9353048D02*
X20142856Y9353048D01*
X20142856Y9353048D02*
X20104761Y9334000D01*
X20104761Y9334000D02*
X20085714Y9314953D01*
X20085714Y9314953D02*
X20066666Y9276858D01*
X20066666Y9276858D02*
X20066666Y9219715D01*
X20066666Y9219715D02*
X20085714Y9181620D01*
X20085714Y9181620D02*
X20104761Y9162572D01*
X20104761Y9162572D02*
X20142856Y9143524D01*
X20142856Y9143524D02*
X20295237Y9143524D01*
X19685714Y8953048D02*
X19914285Y8953048D01*
X19799999Y8953048D02*
X19799999Y9353048D01*
X19799999Y9353048D02*
X19838095Y9295905D01*
X19838095Y9295905D02*
X19876190Y9257810D01*
X19876190Y9257810D02*
X19914285Y9238762D01*
%TO.C,J8*%
X12457142Y50879000D02*
X12514285Y50907572D01*
X12514285Y50907572D02*
X12599999Y50907572D01*
X12599999Y50907572D02*
X12685713Y50879000D01*
X12685713Y50879000D02*
X12742856Y50821858D01*
X12742856Y50821858D02*
X12771427Y50764715D01*
X12771427Y50764715D02*
X12799999Y50650429D01*
X12799999Y50650429D02*
X12799999Y50564715D01*
X12799999Y50564715D02*
X12771427Y50450429D01*
X12771427Y50450429D02*
X12742856Y50393286D01*
X12742856Y50393286D02*
X12685713Y50336143D01*
X12685713Y50336143D02*
X12599999Y50307572D01*
X12599999Y50307572D02*
X12542856Y50307572D01*
X12542856Y50307572D02*
X12457142Y50336143D01*
X12457142Y50336143D02*
X12428570Y50364715D01*
X12428570Y50364715D02*
X12428570Y50564715D01*
X12428570Y50564715D02*
X12542856Y50564715D01*
X12171427Y50307572D02*
X12171427Y50907572D01*
X12171427Y50907572D02*
X11828570Y50307572D01*
X11828570Y50307572D02*
X11828570Y50907572D01*
X11542856Y50307572D02*
X11542856Y50907572D01*
X11542856Y50907572D02*
X11399999Y50907572D01*
X11399999Y50907572D02*
X11314285Y50879000D01*
X11314285Y50879000D02*
X11257142Y50821858D01*
X11257142Y50821858D02*
X11228571Y50764715D01*
X11228571Y50764715D02*
X11199999Y50650429D01*
X11199999Y50650429D02*
X11199999Y50564715D01*
X11199999Y50564715D02*
X11228571Y50450429D01*
X11228571Y50450429D02*
X11257142Y50393286D01*
X11257142Y50393286D02*
X11314285Y50336143D01*
X11314285Y50336143D02*
X11399999Y50307572D01*
X11399999Y50307572D02*
X11542856Y50307572D01*
%TO.C,J7*%
X18771428Y50536143D02*
X18314286Y50536143D01*
X18542857Y50307572D02*
X18542857Y50764715D01*
X17742857Y50907572D02*
X18028571Y50907572D01*
X18028571Y50907572D02*
X18057143Y50621858D01*
X18057143Y50621858D02*
X18028571Y50650429D01*
X18028571Y50650429D02*
X17971429Y50679000D01*
X17971429Y50679000D02*
X17828571Y50679000D01*
X17828571Y50679000D02*
X17771429Y50650429D01*
X17771429Y50650429D02*
X17742857Y50621858D01*
X17742857Y50621858D02*
X17714286Y50564715D01*
X17714286Y50564715D02*
X17714286Y50421858D01*
X17714286Y50421858D02*
X17742857Y50364715D01*
X17742857Y50364715D02*
X17771429Y50336143D01*
X17771429Y50336143D02*
X17828571Y50307572D01*
X17828571Y50307572D02*
X17971429Y50307572D01*
X17971429Y50307572D02*
X18028571Y50336143D01*
X18028571Y50336143D02*
X18057143Y50364715D01*
X17542857Y50907572D02*
X17342857Y50307572D01*
X17342857Y50307572D02*
X17142857Y50907572D01*
%TO.C,R16*%
X15457142Y9453048D02*
X15590475Y9643524D01*
X15685713Y9453048D02*
X15685713Y9853048D01*
X15685713Y9853048D02*
X15533332Y9853048D01*
X15533332Y9853048D02*
X15495237Y9834000D01*
X15495237Y9834000D02*
X15476190Y9814953D01*
X15476190Y9814953D02*
X15457142Y9776858D01*
X15457142Y9776858D02*
X15457142Y9719715D01*
X15457142Y9719715D02*
X15476190Y9681620D01*
X15476190Y9681620D02*
X15495237Y9662572D01*
X15495237Y9662572D02*
X15533332Y9643524D01*
X15533332Y9643524D02*
X15685713Y9643524D01*
X15076190Y9453048D02*
X15304761Y9453048D01*
X15190475Y9453048D02*
X15190475Y9853048D01*
X15190475Y9853048D02*
X15228571Y9795905D01*
X15228571Y9795905D02*
X15266666Y9757810D01*
X15266666Y9757810D02*
X15304761Y9738762D01*
X14733333Y9853048D02*
X14809523Y9853048D01*
X14809523Y9853048D02*
X14847619Y9834000D01*
X14847619Y9834000D02*
X14866666Y9814953D01*
X14866666Y9814953D02*
X14904761Y9757810D01*
X14904761Y9757810D02*
X14923809Y9681620D01*
X14923809Y9681620D02*
X14923809Y9529239D01*
X14923809Y9529239D02*
X14904761Y9491143D01*
X14904761Y9491143D02*
X14885714Y9472096D01*
X14885714Y9472096D02*
X14847619Y9453048D01*
X14847619Y9453048D02*
X14771428Y9453048D01*
X14771428Y9453048D02*
X14733333Y9472096D01*
X14733333Y9472096D02*
X14714285Y9491143D01*
X14714285Y9491143D02*
X14695238Y9529239D01*
X14695238Y9529239D02*
X14695238Y9624477D01*
X14695238Y9624477D02*
X14714285Y9662572D01*
X14714285Y9662572D02*
X14733333Y9681620D01*
X14733333Y9681620D02*
X14771428Y9700667D01*
X14771428Y9700667D02*
X14847619Y9700667D01*
X14847619Y9700667D02*
X14885714Y9681620D01*
X14885714Y9681620D02*
X14904761Y9662572D01*
X14904761Y9662572D02*
X14923809Y9624477D01*
%TO.C,G\u002A\u002A\u002A*%
G36*
X5082455Y47499239D02*
G01*
X5090311Y47499163D01*
X5194524Y47497547D01*
X5279563Y47495485D01*
X5348000Y47492923D01*
X5402407Y47489806D01*
X5445355Y47486079D01*
X5479416Y47481690D01*
X5507161Y47476583D01*
X5531164Y47470704D01*
X5553994Y47464000D01*
X5700438Y47405497D01*
X5857727Y47306236D01*
X5990470Y47178310D01*
X6096103Y47024280D01*
X6172062Y46846707D01*
X6172106Y46846569D01*
X6174152Y46839261D01*
X6176117Y46829939D01*
X6178004Y46817836D01*
X6179814Y46802187D01*
X6181548Y46782223D01*
X6183209Y46757180D01*
X6184798Y46726290D01*
X6186317Y46688787D01*
X6187766Y46643904D01*
X6189149Y46590875D01*
X6190467Y46528933D01*
X6191721Y46457311D01*
X6192913Y46375244D01*
X6194044Y46281964D01*
X6195117Y46176704D01*
X6196133Y46058700D01*
X6197093Y45927183D01*
X6198000Y45781387D01*
X6198854Y45620546D01*
X6199658Y45443893D01*
X6200413Y45250662D01*
X6201121Y45040086D01*
X6201784Y44811399D01*
X6202403Y44563833D01*
X6202980Y44296623D01*
X6203516Y44009002D01*
X6204013Y43700204D01*
X6204473Y43369461D01*
X6204898Y43016007D01*
X6205289Y42639076D01*
X6205648Y42237901D01*
X6205976Y41811716D01*
X6206275Y41359754D01*
X6206547Y40881248D01*
X6206793Y40375433D01*
X6207015Y39841540D01*
X6207216Y39278805D01*
X6207395Y38686460D01*
X6207556Y38063739D01*
X6207699Y37409875D01*
X6207827Y36724101D01*
X6207940Y36005652D01*
X6208042Y35253761D01*
X6208133Y34467660D01*
X6208214Y33646584D01*
X6208289Y32789766D01*
X6208357Y31896439D01*
X6208422Y30965837D01*
X6208484Y29997193D01*
X6208519Y29429479D01*
X6208577Y28483818D01*
X6208628Y27575751D01*
X6208673Y26704507D01*
X6208708Y25869318D01*
X6208732Y25069417D01*
X6208744Y24304034D01*
X6208742Y23572400D01*
X6208724Y22873748D01*
X6208689Y22207309D01*
X6208634Y21572314D01*
X6208558Y20967994D01*
X6208459Y20393581D01*
X6208336Y19848307D01*
X6208187Y19331403D01*
X6208010Y18842099D01*
X6207804Y18379629D01*
X6207566Y17943223D01*
X6207295Y17532113D01*
X6206990Y17145529D01*
X6206648Y16782704D01*
X6206268Y16442869D01*
X6205848Y16125256D01*
X6205387Y15829095D01*
X6204883Y15553619D01*
X6204333Y15298058D01*
X6203737Y15061644D01*
X6203093Y14843609D01*
X6202399Y14643184D01*
X6201653Y14459601D01*
X6200853Y14292090D01*
X6199999Y14139884D01*
X6199087Y14002214D01*
X6198117Y13878311D01*
X6197086Y13767406D01*
X6195994Y13668732D01*
X6194838Y13581519D01*
X6193616Y13504999D01*
X6192327Y13438404D01*
X6190970Y13380964D01*
X6189542Y13331912D01*
X6188042Y13290478D01*
X6186467Y13255895D01*
X6184817Y13227394D01*
X6183090Y13204205D01*
X6181284Y13185561D01*
X6179396Y13170693D01*
X6177427Y13158832D01*
X6175373Y13149210D01*
X6173233Y13141059D01*
X6171006Y13133609D01*
X6167142Y13121562D01*
X6122831Y13014541D01*
X6062320Y12903994D01*
X5993922Y12803700D01*
X5925952Y12727438D01*
X5822572Y12647418D01*
X5689574Y12571245D01*
X5552594Y12516188D01*
X5539640Y12512289D01*
X5516500Y12506128D01*
X5490526Y12500753D01*
X5459148Y12496112D01*
X5419796Y12492150D01*
X5369902Y12488814D01*
X5306896Y12486050D01*
X5228208Y12483804D01*
X5131268Y12482024D01*
X5013507Y12480655D01*
X4872355Y12479643D01*
X4705243Y12478936D01*
X4509601Y12478479D01*
X4282859Y12478219D01*
X4022449Y12478102D01*
X3725800Y12478075D01*
X3551513Y12478083D01*
X3275909Y12478155D01*
X3035074Y12478347D01*
X2826437Y12478713D01*
X2647431Y12479306D01*
X2495484Y12480181D01*
X2368028Y12481391D01*
X2262492Y12482989D01*
X2176308Y12485029D01*
X2106905Y12487564D01*
X2051714Y12490649D01*
X2008166Y12494337D01*
X1973690Y12498681D01*
X1945718Y12503735D01*
X1921679Y12509552D01*
X1899005Y12516188D01*
X1772920Y12566002D01*
X1638950Y12640883D01*
X1525647Y12727438D01*
X1517724Y12734927D01*
X1449260Y12814829D01*
X1381375Y12917096D01*
X1322382Y13027949D01*
X1280593Y13133609D01*
X1279320Y13137791D01*
X1277142Y13145549D01*
X1275051Y13154449D01*
X1273044Y13165258D01*
X1271121Y13178745D01*
X1269278Y13195680D01*
X1267516Y13216830D01*
X1265831Y13242965D01*
X1264222Y13274853D01*
X1262688Y13313264D01*
X1261226Y13358965D01*
X1259835Y13412725D01*
X1258513Y13475314D01*
X1257258Y13547499D01*
X1256069Y13630050D01*
X1254943Y13723735D01*
X1253880Y13829324D01*
X1252877Y13947584D01*
X1251932Y14079284D01*
X1251044Y14225194D01*
X1250211Y14386082D01*
X1249431Y14562716D01*
X1249390Y14573721D01*
X2755593Y14573721D01*
X2755593Y14418488D01*
X2755593Y14263255D01*
X2901124Y14263255D01*
X3046655Y14263255D01*
X3046655Y14418488D01*
X3046655Y14573721D01*
X3842224Y14573721D01*
X3842224Y14418488D01*
X3842224Y14263255D01*
X3987755Y14263255D01*
X4133286Y14263255D01*
X4133286Y14418488D01*
X4133286Y14573721D01*
X4210903Y14573721D01*
X4210903Y14418488D01*
X4210903Y14263255D01*
X4356434Y14263255D01*
X4501965Y14263255D01*
X4501965Y14418488D01*
X4501965Y14573721D01*
X4356434Y14573721D01*
X4210903Y14573721D01*
X4133286Y14573721D01*
X3987755Y14573721D01*
X3842224Y14573721D01*
X3046655Y14573721D01*
X2901124Y14573721D01*
X2755593Y14573721D01*
X1249390Y14573721D01*
X1248703Y14755866D01*
X1248164Y14922995D01*
X2386915Y14922995D01*
X2386915Y14777464D01*
X2386915Y14631933D01*
X2532446Y14631933D01*
X2677977Y14631933D01*
X2677977Y14777464D01*
X2677977Y14922995D01*
X3473546Y14922995D01*
X3473546Y14777464D01*
X3473546Y14631933D01*
X3619077Y14631933D01*
X3764608Y14631933D01*
X3764608Y14777464D01*
X3764608Y14922995D01*
X4579581Y14922995D01*
X4579581Y14777464D01*
X4579581Y14631933D01*
X4725112Y14631933D01*
X4870643Y14631933D01*
X4870643Y14777464D01*
X4870643Y14922995D01*
X4725112Y14922995D01*
X4579581Y14922995D01*
X3764608Y14922995D01*
X3619077Y14922995D01*
X3473546Y14922995D01*
X2677977Y14922995D01*
X2532446Y14922995D01*
X2386915Y14922995D01*
X1248164Y14922995D01*
X1248024Y14966300D01*
X1247393Y15194786D01*
X1247164Y15291674D01*
X2386915Y15291674D01*
X2386915Y15146143D01*
X2386915Y15000612D01*
X2532446Y15000612D01*
X2677977Y15000612D01*
X2677977Y15146143D01*
X2677977Y15291674D01*
X3473546Y15291674D01*
X3473546Y15146143D01*
X3473546Y15000612D01*
X3619077Y15000612D01*
X3764608Y15000612D01*
X3764608Y15146143D01*
X3764608Y15291674D01*
X4579581Y15291674D01*
X4579581Y15146143D01*
X4579581Y15000612D01*
X4725112Y15000612D01*
X4870643Y15000612D01*
X4870643Y15146143D01*
X4870643Y15291674D01*
X4725112Y15291674D01*
X4579581Y15291674D01*
X3764608Y15291674D01*
X3619077Y15291674D01*
X3473546Y15291674D01*
X2677977Y15291674D01*
X2532446Y15291674D01*
X2386915Y15291674D01*
X1247164Y15291674D01*
X1246809Y15442095D01*
X1246367Y15660352D01*
X2386915Y15660352D01*
X2386915Y15505119D01*
X2386915Y15349886D01*
X2532446Y15349886D01*
X2677977Y15349886D01*
X2677977Y15505119D01*
X2677977Y15660352D01*
X3473546Y15660352D01*
X3473546Y15505119D01*
X3473546Y15349886D01*
X3619077Y15349886D01*
X3764608Y15349886D01*
X3764608Y15505119D01*
X3764608Y15660352D01*
X4579581Y15660352D01*
X4579581Y15505119D01*
X4579581Y15349886D01*
X4725112Y15349886D01*
X4870643Y15349886D01*
X4870643Y15505119D01*
X4870643Y15660352D01*
X4725112Y15660352D01*
X4579581Y15660352D01*
X3764608Y15660352D01*
X3619077Y15660352D01*
X3473546Y15660352D01*
X2677977Y15660352D01*
X2532446Y15660352D01*
X2386915Y15660352D01*
X1246367Y15660352D01*
X1246269Y15708993D01*
X1245771Y15996250D01*
X1245723Y16029030D01*
X2755593Y16029030D01*
X2755593Y15873797D01*
X2755593Y15718564D01*
X2901124Y15718564D01*
X3046655Y15718564D01*
X3046655Y15873797D01*
X3046655Y16029030D01*
X3124272Y16029030D01*
X3124272Y15873797D01*
X3124272Y15718564D01*
X3269803Y15718564D01*
X3415334Y15718564D01*
X3415334Y15873797D01*
X3415334Y16029030D01*
X4210903Y16029030D01*
X4210903Y15873797D01*
X4210903Y15718564D01*
X4356434Y15718564D01*
X4501965Y15718564D01*
X4501965Y15873797D01*
X4501965Y16029030D01*
X4356434Y16029030D01*
X4210903Y16029030D01*
X3415334Y16029030D01*
X3269803Y16029030D01*
X3124272Y16029030D01*
X3046655Y16029030D01*
X2901124Y16029030D01*
X2755593Y16029030D01*
X1245723Y16029030D01*
X1245315Y16304635D01*
X1244898Y16634917D01*
X1244840Y16688771D01*
X2755593Y16688771D01*
X2755593Y16533538D01*
X2755593Y16378305D01*
X2901124Y16378305D01*
X3046655Y16378305D01*
X3046655Y16533538D01*
X3046655Y16688771D01*
X3124272Y16688771D01*
X3124272Y16533538D01*
X3124272Y16378305D01*
X3269803Y16378305D01*
X3415334Y16378305D01*
X3415334Y16533538D01*
X3415334Y16688771D01*
X3842224Y16688771D01*
X3842224Y16533538D01*
X3842224Y16378305D01*
X3987755Y16378305D01*
X4133286Y16378305D01*
X4133286Y16533538D01*
X4133286Y16688771D01*
X4210903Y16688771D01*
X4210903Y16533538D01*
X4210903Y16378305D01*
X4356434Y16378305D01*
X4501965Y16378305D01*
X4501965Y16533538D01*
X4501965Y16688771D01*
X4356434Y16688771D01*
X4210903Y16688771D01*
X4133286Y16688771D01*
X3987755Y16688771D01*
X3842224Y16688771D01*
X3415334Y16688771D01*
X3269803Y16688771D01*
X3124272Y16688771D01*
X3046655Y16688771D01*
X2901124Y16688771D01*
X2755593Y16688771D01*
X1244840Y16688771D01*
X1244518Y16987863D01*
X1244472Y17038045D01*
X2386915Y17038045D01*
X2386915Y16892514D01*
X2386915Y16746983D01*
X2532446Y16746983D01*
X2677977Y16746983D01*
X2677977Y16892514D01*
X2677977Y17038045D01*
X3473546Y17038045D01*
X3473546Y16892514D01*
X3473546Y16746983D01*
X3619077Y16746983D01*
X3764608Y16746983D01*
X3764608Y16892514D01*
X3764608Y17038045D01*
X4579581Y17038045D01*
X4579581Y16892514D01*
X4579581Y16746983D01*
X4725112Y16746983D01*
X4870643Y16746983D01*
X4870643Y16892514D01*
X4870643Y17038045D01*
X4725112Y17038045D01*
X4579581Y17038045D01*
X3764608Y17038045D01*
X3619077Y17038045D01*
X3473546Y17038045D01*
X2677977Y17038045D01*
X2532446Y17038045D01*
X2386915Y17038045D01*
X1244472Y17038045D01*
X1244174Y17364243D01*
X1244141Y17406723D01*
X2386915Y17406723D01*
X2386915Y17261192D01*
X2386915Y17115661D01*
X2532446Y17115661D01*
X2677977Y17115661D01*
X2677977Y17261192D01*
X2677977Y17406723D01*
X3473546Y17406723D01*
X3473546Y17261192D01*
X3473546Y17115661D01*
X3619077Y17115661D01*
X3764608Y17115661D01*
X3764608Y17261192D01*
X3764608Y17406723D01*
X4579581Y17406723D01*
X4579581Y17261192D01*
X4579581Y17115661D01*
X4725112Y17115661D01*
X4870643Y17115661D01*
X4870643Y17261192D01*
X4870643Y17406723D01*
X4725112Y17406723D01*
X4579581Y17406723D01*
X3764608Y17406723D01*
X3619077Y17406723D01*
X3473546Y17406723D01*
X2677977Y17406723D01*
X2532446Y17406723D01*
X2386915Y17406723D01*
X1244141Y17406723D01*
X1243863Y17764826D01*
X1243856Y17775402D01*
X2386915Y17775402D01*
X2386915Y17620169D01*
X2386915Y17464936D01*
X2532446Y17464936D01*
X2677977Y17464936D01*
X2677977Y17620169D01*
X2677977Y17775402D01*
X3473546Y17775402D01*
X3473546Y17620169D01*
X3473546Y17464936D01*
X3619077Y17464936D01*
X3764608Y17464936D01*
X3764608Y17620169D01*
X3764608Y17775402D01*
X4579581Y17775402D01*
X4579581Y17620169D01*
X4579581Y17464936D01*
X4725112Y17464936D01*
X4870643Y17464936D01*
X4870643Y17620169D01*
X4870643Y17775402D01*
X4725112Y17775402D01*
X4579581Y17775402D01*
X3764608Y17775402D01*
X3619077Y17775402D01*
X3473546Y17775402D01*
X2677977Y17775402D01*
X2532446Y17775402D01*
X2386915Y17775402D01*
X1243856Y17775402D01*
X1243615Y18144080D01*
X2386915Y18144080D01*
X2386915Y17988847D01*
X2386915Y17833614D01*
X2532446Y17833614D01*
X2677977Y17833614D01*
X2677977Y17988847D01*
X2677977Y18144080D01*
X2755593Y18144080D01*
X2755593Y17988847D01*
X2755593Y17833614D01*
X2901124Y17833614D01*
X3046655Y17833614D01*
X3046655Y17988847D01*
X3046655Y18144080D01*
X3124272Y18144080D01*
X3124272Y17988847D01*
X3124272Y17833614D01*
X3269803Y17833614D01*
X3415334Y17833614D01*
X3415334Y17988847D01*
X3415334Y18144080D01*
X3473546Y18144080D01*
X3473546Y17988847D01*
X3473546Y17833614D01*
X3619077Y17833614D01*
X3764608Y17833614D01*
X3764608Y17988847D01*
X3764608Y18144080D01*
X3842224Y18144080D01*
X3842224Y17988847D01*
X3842224Y17833614D01*
X3987755Y17833614D01*
X4133286Y17833614D01*
X4133286Y17988847D01*
X4133286Y18144080D01*
X4210903Y18144080D01*
X4210903Y17988847D01*
X4210903Y17833614D01*
X4356434Y17833614D01*
X4501965Y17833614D01*
X4501965Y17988847D01*
X4501965Y18144080D01*
X4579581Y18144080D01*
X4579581Y17988847D01*
X4579581Y17833614D01*
X4725112Y17833614D01*
X4870643Y17833614D01*
X4870643Y17988847D01*
X4870643Y18144080D01*
X4725112Y18144080D01*
X4579581Y18144080D01*
X4501965Y18144080D01*
X4356434Y18144080D01*
X4210903Y18144080D01*
X4133286Y18144080D01*
X3987755Y18144080D01*
X3842224Y18144080D01*
X3764608Y18144080D01*
X3619077Y18144080D01*
X3473546Y18144080D01*
X3415334Y18144080D01*
X3269803Y18144080D01*
X3124272Y18144080D01*
X3046655Y18144080D01*
X2901124Y18144080D01*
X2755593Y18144080D01*
X2677977Y18144080D01*
X2532446Y18144080D01*
X2386915Y18144080D01*
X1243615Y18144080D01*
X1243585Y18190381D01*
X1243337Y18641675D01*
X1243263Y18803820D01*
X2755593Y18803820D01*
X2755593Y18648587D01*
X2755593Y18493354D01*
X2901124Y18493354D01*
X3046655Y18493354D01*
X3046655Y18648587D01*
X3046655Y18803820D01*
X3124272Y18803820D01*
X3124272Y18648587D01*
X3124272Y18493354D01*
X3269803Y18493354D01*
X3415334Y18493354D01*
X3415334Y18648587D01*
X3415334Y18803820D01*
X3473546Y18803820D01*
X3473546Y18648587D01*
X3473546Y18493354D01*
X3619077Y18493354D01*
X3764608Y18493354D01*
X3764608Y18648587D01*
X3764608Y18803820D01*
X3842224Y18803820D01*
X3842224Y18648587D01*
X3842224Y18493354D01*
X3987755Y18493354D01*
X4133286Y18493354D01*
X4133286Y18648587D01*
X4133286Y18803820D01*
X4210903Y18803820D01*
X4210903Y18648587D01*
X4210903Y18493354D01*
X4356434Y18493354D01*
X4501965Y18493354D01*
X4501965Y18648587D01*
X4501965Y18803820D01*
X4579581Y18803820D01*
X4579581Y18648587D01*
X4579581Y18493354D01*
X4725112Y18493354D01*
X4870643Y18493354D01*
X4870643Y18648587D01*
X4870643Y18803820D01*
X4725112Y18803820D01*
X4579581Y18803820D01*
X4501965Y18803820D01*
X4356434Y18803820D01*
X4210903Y18803820D01*
X4133286Y18803820D01*
X3987755Y18803820D01*
X3842224Y18803820D01*
X3764608Y18803820D01*
X3619077Y18803820D01*
X3473546Y18803820D01*
X3415334Y18803820D01*
X3269803Y18803820D01*
X3124272Y18803820D01*
X3046655Y18803820D01*
X2901124Y18803820D01*
X2755593Y18803820D01*
X1243263Y18803820D01*
X1243118Y19119478D01*
X1243105Y19153094D01*
X2386915Y19153094D01*
X2386915Y19007564D01*
X2386915Y18862033D01*
X2532446Y18862033D01*
X2677977Y18862033D01*
X2677977Y19007564D01*
X2677977Y19153094D01*
X3473546Y19153094D01*
X3473546Y19007564D01*
X3473546Y18862033D01*
X3619077Y18862033D01*
X3764608Y18862033D01*
X3764608Y19007564D01*
X3764608Y19153094D01*
X3619077Y19153094D01*
X3473546Y19153094D01*
X2677977Y19153094D01*
X2532446Y19153094D01*
X2386915Y19153094D01*
X1243105Y19153094D01*
X1242965Y19521773D01*
X2386915Y19521773D01*
X2386915Y19376242D01*
X2386915Y19230711D01*
X2532446Y19230711D01*
X2677977Y19230711D01*
X2677977Y19376242D01*
X2677977Y19521773D01*
X3473546Y19521773D01*
X3473546Y19376242D01*
X3473546Y19230711D01*
X3619077Y19230711D01*
X3764608Y19230711D01*
X3764608Y19376242D01*
X3764608Y19521773D01*
X3619077Y19521773D01*
X3473546Y19521773D01*
X2677977Y19521773D01*
X2532446Y19521773D01*
X2386915Y19521773D01*
X1242965Y19521773D01*
X1242926Y19624558D01*
X1242843Y19890451D01*
X2386915Y19890451D01*
X2386915Y19735218D01*
X2386915Y19579985D01*
X2532446Y19579985D01*
X2677977Y19579985D01*
X2677977Y19735218D01*
X2677977Y19890451D01*
X3473546Y19890451D01*
X3473546Y19735218D01*
X3473546Y19579985D01*
X3619077Y19579985D01*
X3764608Y19579985D01*
X3764608Y19735218D01*
X3764608Y19890451D01*
X3619077Y19890451D01*
X3473546Y19890451D01*
X2677977Y19890451D01*
X2532446Y19890451D01*
X2386915Y19890451D01*
X1242843Y19890451D01*
X1242759Y20157685D01*
X1242733Y20259130D01*
X2755593Y20259130D01*
X2755593Y20103897D01*
X2755593Y19948664D01*
X2901124Y19948664D01*
X3046655Y19948664D01*
X3046655Y20103897D01*
X3046655Y20259130D01*
X3124272Y20259130D01*
X3124272Y20103897D01*
X3124272Y19948664D01*
X3269803Y19948664D01*
X3415334Y19948664D01*
X3415334Y20103897D01*
X3415334Y20259130D01*
X3473546Y20259130D01*
X3473546Y20103897D01*
X3473546Y19948664D01*
X3619077Y19948664D01*
X3764608Y19948664D01*
X3764608Y20103897D01*
X3764608Y20259130D01*
X3842224Y20259130D01*
X3842224Y20103897D01*
X3842224Y19948664D01*
X3987755Y19948664D01*
X4133286Y19948664D01*
X4133286Y20103897D01*
X4133286Y20259130D01*
X4210903Y20259130D01*
X4210903Y20103897D01*
X4210903Y19948664D01*
X4356434Y19948664D01*
X4501965Y19948664D01*
X4501965Y20103897D01*
X4501965Y20259130D01*
X4579581Y20259130D01*
X4579581Y20103897D01*
X4579581Y19948664D01*
X4725112Y19948664D01*
X4870643Y19948664D01*
X4870643Y20103897D01*
X4870643Y20259130D01*
X4725112Y20259130D01*
X4579581Y20259130D01*
X4501965Y20259130D01*
X4356434Y20259130D01*
X4210903Y20259130D01*
X4133286Y20259130D01*
X3987755Y20259130D01*
X3842224Y20259130D01*
X3764608Y20259130D01*
X3619077Y20259130D01*
X3473546Y20259130D01*
X3415334Y20259130D01*
X3269803Y20259130D01*
X3124272Y20259130D01*
X3046655Y20259130D01*
X2901124Y20259130D01*
X2755593Y20259130D01*
X1242733Y20259130D01*
X1242615Y20719626D01*
X1242574Y20918870D01*
X4579581Y20918870D01*
X4579581Y20763637D01*
X4579581Y20608404D01*
X4725112Y20608404D01*
X4870643Y20608404D01*
X4870643Y20763637D01*
X4870643Y20918870D01*
X4725112Y20918870D01*
X4579581Y20918870D01*
X1242574Y20918870D01*
X1242502Y21268144D01*
X4579581Y21268144D01*
X4579581Y21122613D01*
X4579581Y20977082D01*
X4725112Y20977082D01*
X4870643Y20977082D01*
X4870643Y21122613D01*
X4870643Y21268144D01*
X4725112Y21268144D01*
X4579581Y21268144D01*
X1242502Y21268144D01*
X1242493Y21311151D01*
X1242439Y21636822D01*
X4579581Y21636822D01*
X4579581Y21491292D01*
X4579581Y21345761D01*
X4725112Y21345761D01*
X4870643Y21345761D01*
X4870643Y21491292D01*
X4870643Y21636822D01*
X4725112Y21636822D01*
X4579581Y21636822D01*
X1242439Y21636822D01*
X1242390Y21933028D01*
X1242381Y22005501D01*
X4579581Y22005501D01*
X4579581Y21850268D01*
X4579581Y21695035D01*
X4725112Y21695035D01*
X4870643Y21695035D01*
X4870643Y21850268D01*
X4870643Y22005501D01*
X4725112Y22005501D01*
X4579581Y22005501D01*
X1242381Y22005501D01*
X1242333Y22374179D01*
X2386915Y22374179D01*
X2386915Y22218946D01*
X2386915Y22063713D01*
X2532446Y22063713D01*
X2677977Y22063713D01*
X2677977Y22218946D01*
X2677977Y22374179D01*
X2755593Y22374179D01*
X2755593Y22218946D01*
X2755593Y22063713D01*
X2901124Y22063713D01*
X3046655Y22063713D01*
X3046655Y22218946D01*
X3046655Y22374179D01*
X3124272Y22374179D01*
X3124272Y22218946D01*
X3124272Y22063713D01*
X3269803Y22063713D01*
X3415334Y22063713D01*
X3415334Y22218946D01*
X3415334Y22374179D01*
X3473546Y22374179D01*
X3473546Y22218946D01*
X3473546Y22063713D01*
X3619077Y22063713D01*
X3764608Y22063713D01*
X3764608Y22218946D01*
X3764608Y22374179D01*
X3842224Y22374179D01*
X3842224Y22218946D01*
X3842224Y22063713D01*
X3987755Y22063713D01*
X4133286Y22063713D01*
X4133286Y22218946D01*
X4133286Y22374179D01*
X4210903Y22374179D01*
X4210903Y22218946D01*
X4210903Y22063713D01*
X4356434Y22063713D01*
X4501965Y22063713D01*
X4501965Y22218946D01*
X4501965Y22374179D01*
X4579581Y22374179D01*
X4579581Y22218946D01*
X4579581Y22063713D01*
X4725112Y22063713D01*
X4870643Y22063713D01*
X4870643Y22218946D01*
X4870643Y22374179D01*
X4725112Y22374179D01*
X4579581Y22374179D01*
X4501965Y22374179D01*
X4356434Y22374179D01*
X4210903Y22374179D01*
X4133286Y22374179D01*
X3987755Y22374179D01*
X3842224Y22374179D01*
X3764608Y22374179D01*
X3619077Y22374179D01*
X3473546Y22374179D01*
X3415334Y22374179D01*
X3269803Y22374179D01*
X3124272Y22374179D01*
X3046655Y22374179D01*
X2901124Y22374179D01*
X2755593Y22374179D01*
X2677977Y22374179D01*
X2532446Y22374179D01*
X2386915Y22374179D01*
X1242333Y22374179D01*
X1242306Y22586027D01*
X1242262Y23033920D01*
X2386915Y23033920D01*
X2386915Y22878687D01*
X2386915Y22723454D01*
X2532446Y22723454D01*
X2677977Y22723454D01*
X2677977Y22878687D01*
X2677977Y23033920D01*
X2755593Y23033920D01*
X2755593Y22878687D01*
X2755593Y22723454D01*
X2901124Y22723454D01*
X3046655Y22723454D01*
X3046655Y22878687D01*
X3046655Y23033920D01*
X3124272Y23033920D01*
X3124272Y22878687D01*
X3124272Y22723454D01*
X3269803Y22723454D01*
X3415334Y22723454D01*
X3415334Y22878687D01*
X3415334Y23033920D01*
X3473546Y23033920D01*
X3473546Y22878687D01*
X3473546Y22723454D01*
X3619077Y22723454D01*
X3764608Y22723454D01*
X3764608Y22878687D01*
X3764608Y23033920D01*
X3842224Y23033920D01*
X3842224Y22878687D01*
X3842224Y22723454D01*
X3987755Y22723454D01*
X4133286Y22723454D01*
X4133286Y22878687D01*
X4133286Y23033920D01*
X4210903Y23033920D01*
X4210903Y22878687D01*
X4210903Y22723454D01*
X4356434Y22723454D01*
X4501965Y22723454D01*
X4501965Y22878687D01*
X4501965Y23033920D01*
X4356434Y23033920D01*
X4210903Y23033920D01*
X4133286Y23033920D01*
X3987755Y23033920D01*
X3842224Y23033920D01*
X3764608Y23033920D01*
X3619077Y23033920D01*
X3473546Y23033920D01*
X3415334Y23033920D01*
X3269803Y23033920D01*
X3124272Y23033920D01*
X3046655Y23033920D01*
X2901124Y23033920D01*
X2755593Y23033920D01*
X2677977Y23033920D01*
X2532446Y23033920D01*
X2386915Y23033920D01*
X1242262Y23033920D01*
X1242238Y23270915D01*
X1242230Y23383194D01*
X4579581Y23383194D01*
X4579581Y23237663D01*
X4579581Y23092132D01*
X4725112Y23092132D01*
X4870643Y23092132D01*
X4870643Y23237663D01*
X4870643Y23383194D01*
X4725112Y23383194D01*
X4579581Y23383194D01*
X1242230Y23383194D01*
X1242202Y23751872D01*
X3124272Y23751872D01*
X3124272Y23606341D01*
X3124272Y23460810D01*
X3269803Y23460810D01*
X3415334Y23460810D01*
X3415334Y23606341D01*
X3415334Y23751872D01*
X3473546Y23751872D01*
X3473546Y23606341D01*
X3473546Y23460810D01*
X3619077Y23460810D01*
X3764608Y23460810D01*
X3764608Y23606341D01*
X3764608Y23751872D01*
X3842224Y23751872D01*
X3842224Y23606341D01*
X3842224Y23460810D01*
X3987755Y23460810D01*
X4133286Y23460810D01*
X4133286Y23606341D01*
X4133286Y23751872D01*
X4210903Y23751872D01*
X4210903Y23606341D01*
X4210903Y23460810D01*
X4356434Y23460810D01*
X4501965Y23460810D01*
X4501965Y23606341D01*
X4501965Y23751872D01*
X4356434Y23751872D01*
X4210903Y23751872D01*
X4133286Y23751872D01*
X3987755Y23751872D01*
X3842224Y23751872D01*
X3764608Y23751872D01*
X3619077Y23751872D01*
X3473546Y23751872D01*
X3415334Y23751872D01*
X3269803Y23751872D01*
X3124272Y23751872D01*
X1242202Y23751872D01*
X1242185Y23988462D01*
X1242178Y24120551D01*
X4579581Y24120551D01*
X4579581Y23965318D01*
X4579581Y23810085D01*
X4725112Y23810085D01*
X4870643Y23810085D01*
X4870643Y23965318D01*
X4870643Y24120551D01*
X4725112Y24120551D01*
X4579581Y24120551D01*
X1242178Y24120551D01*
X1242158Y24489229D01*
X2386915Y24489229D01*
X2386915Y24333996D01*
X2386915Y24178763D01*
X2532446Y24178763D01*
X2677977Y24178763D01*
X2677977Y24333996D01*
X2677977Y24489229D01*
X2755593Y24489229D01*
X2755593Y24333996D01*
X2755593Y24178763D01*
X2901124Y24178763D01*
X3046655Y24178763D01*
X3046655Y24333996D01*
X3046655Y24489229D01*
X3124272Y24489229D01*
X3124272Y24333996D01*
X3124272Y24178763D01*
X3269803Y24178763D01*
X3415334Y24178763D01*
X3415334Y24333996D01*
X3415334Y24489229D01*
X3473546Y24489229D01*
X3473546Y24333996D01*
X3473546Y24178763D01*
X3619077Y24178763D01*
X3764608Y24178763D01*
X3764608Y24333996D01*
X3764608Y24489229D01*
X3842224Y24489229D01*
X3842224Y24333996D01*
X3842224Y24178763D01*
X3987755Y24178763D01*
X4133286Y24178763D01*
X4133286Y24333996D01*
X4133286Y24489229D01*
X4210903Y24489229D01*
X4210903Y24333996D01*
X4210903Y24178763D01*
X4356434Y24178763D01*
X4501965Y24178763D01*
X4501965Y24333996D01*
X4501965Y24489229D01*
X4356434Y24489229D01*
X4210903Y24489229D01*
X4133286Y24489229D01*
X3987755Y24489229D01*
X3842224Y24489229D01*
X3764608Y24489229D01*
X3619077Y24489229D01*
X3473546Y24489229D01*
X3415334Y24489229D01*
X3269803Y24489229D01*
X3124272Y24489229D01*
X3046655Y24489229D01*
X2901124Y24489229D01*
X2755593Y24489229D01*
X2677977Y24489229D01*
X2532446Y24489229D01*
X2386915Y24489229D01*
X1242158Y24489229D01*
X1242144Y24739436D01*
X1242129Y25148969D01*
X2755593Y25148969D01*
X2755593Y24993736D01*
X2755593Y24838503D01*
X2901124Y24838503D01*
X3046655Y24838503D01*
X3046655Y24993736D01*
X3046655Y25148969D01*
X3124272Y25148969D01*
X3124272Y24993736D01*
X3124272Y24838503D01*
X3269803Y24838503D01*
X3415334Y24838503D01*
X3415334Y24993736D01*
X3415334Y25148969D01*
X3473546Y25148969D01*
X3473546Y24993736D01*
X3473546Y24838503D01*
X3619077Y24838503D01*
X3764608Y24838503D01*
X3764608Y24993736D01*
X3764608Y25148969D01*
X3842224Y25148969D01*
X3842224Y24993736D01*
X3842224Y24838503D01*
X3987755Y24838503D01*
X4133286Y24838503D01*
X4133286Y24993736D01*
X4133286Y25148969D01*
X4210903Y25148969D01*
X4210903Y24993736D01*
X4210903Y24838503D01*
X4356434Y24838503D01*
X4501965Y24838503D01*
X4501965Y24993736D01*
X4501965Y25148969D01*
X4356434Y25148969D01*
X4210903Y25148969D01*
X4133286Y25148969D01*
X3987755Y25148969D01*
X3842224Y25148969D01*
X3764608Y25148969D01*
X3619077Y25148969D01*
X3473546Y25148969D01*
X3415334Y25148969D01*
X3269803Y25148969D01*
X3124272Y25148969D01*
X3046655Y25148969D01*
X2901124Y25148969D01*
X2755593Y25148969D01*
X1242129Y25148969D01*
X1242116Y25498243D01*
X2386915Y25498243D01*
X2386915Y25352712D01*
X2386915Y25207182D01*
X2532446Y25207182D01*
X2677977Y25207182D01*
X2677977Y25352712D01*
X2677977Y25498243D01*
X4579581Y25498243D01*
X4579581Y25352712D01*
X4579581Y25207182D01*
X4725112Y25207182D01*
X4870643Y25207182D01*
X4870643Y25352712D01*
X4870643Y25498243D01*
X4725112Y25498243D01*
X4579581Y25498243D01*
X2677977Y25498243D01*
X2532446Y25498243D01*
X2386915Y25498243D01*
X1242116Y25498243D01*
X1242115Y25524605D01*
X1242106Y25866922D01*
X2386915Y25866922D01*
X2386915Y25721391D01*
X2386915Y25575860D01*
X2532446Y25575860D01*
X2677977Y25575860D01*
X2677977Y25721391D01*
X2677977Y25866922D01*
X4579581Y25866922D01*
X4579581Y25721391D01*
X4579581Y25575860D01*
X4725112Y25575860D01*
X4870643Y25575860D01*
X4870643Y25721391D01*
X4870643Y25866922D01*
X4725112Y25866922D01*
X4579581Y25866922D01*
X2677977Y25866922D01*
X2532446Y25866922D01*
X2386915Y25866922D01*
X1242106Y25866922D01*
X1242097Y26235600D01*
X2386915Y26235600D01*
X2386915Y26080367D01*
X2386915Y25925134D01*
X2532446Y25925134D01*
X2677977Y25925134D01*
X2677977Y26080367D01*
X2677977Y26235600D01*
X4579581Y26235600D01*
X4579581Y26080367D01*
X4579581Y25925134D01*
X4725112Y25925134D01*
X4870643Y25925134D01*
X4870643Y26080367D01*
X4870643Y26235600D01*
X4725112Y26235600D01*
X4579581Y26235600D01*
X2677977Y26235600D01*
X2532446Y26235600D01*
X2386915Y26235600D01*
X1242097Y26235600D01*
X1242094Y26344740D01*
X1242090Y26604279D01*
X2755593Y26604279D01*
X2755593Y26449046D01*
X2755593Y26293813D01*
X2901124Y26293813D01*
X3046655Y26293813D01*
X3046655Y26449046D01*
X3046655Y26604279D01*
X3124272Y26604279D01*
X3124272Y26449046D01*
X3124272Y26293813D01*
X3269803Y26293813D01*
X3415334Y26293813D01*
X3415334Y26449046D01*
X3415334Y26604279D01*
X3473546Y26604279D01*
X3473546Y26449046D01*
X3473546Y26293813D01*
X3619077Y26293813D01*
X3764608Y26293813D01*
X3764608Y26449046D01*
X3764608Y26604279D01*
X3842224Y26604279D01*
X3842224Y26449046D01*
X3842224Y26293813D01*
X3987755Y26293813D01*
X4133286Y26293813D01*
X4133286Y26449046D01*
X4133286Y26604279D01*
X4210903Y26604279D01*
X4210903Y26449046D01*
X4210903Y26293813D01*
X4356434Y26293813D01*
X4501965Y26293813D01*
X4501965Y26449046D01*
X4501965Y26604279D01*
X4356434Y26604279D01*
X4210903Y26604279D01*
X4133286Y26604279D01*
X3987755Y26604279D01*
X3842224Y26604279D01*
X3764608Y26604279D01*
X3619077Y26604279D01*
X3473546Y26604279D01*
X3415334Y26604279D01*
X3269803Y26604279D01*
X3124272Y26604279D01*
X3046655Y26604279D01*
X2901124Y26604279D01*
X2755593Y26604279D01*
X1242090Y26604279D01*
X1242082Y27200608D01*
X1242082Y27264019D01*
X2755593Y27264019D01*
X2755593Y27108786D01*
X2755593Y26953553D01*
X2901124Y26953553D01*
X3046655Y26953553D01*
X3046655Y27108786D01*
X3046655Y27264019D01*
X3124272Y27264019D01*
X3124272Y27108786D01*
X3124272Y26953553D01*
X3269803Y26953553D01*
X3415334Y26953553D01*
X3415334Y27108786D01*
X3415334Y27264019D01*
X3842224Y27264019D01*
X3842224Y27108786D01*
X3842224Y26953553D01*
X3987755Y26953553D01*
X4133286Y26953553D01*
X4133286Y27108786D01*
X4133286Y27264019D01*
X4210903Y27264019D01*
X4210903Y27108786D01*
X4210903Y26953553D01*
X4356434Y26953553D01*
X4501965Y26953553D01*
X4501965Y27108786D01*
X4501965Y27264019D01*
X4356434Y27264019D01*
X4210903Y27264019D01*
X4133286Y27264019D01*
X3987755Y27264019D01*
X3842224Y27264019D01*
X3415334Y27264019D01*
X3269803Y27264019D01*
X3124272Y27264019D01*
X3046655Y27264019D01*
X2901124Y27264019D01*
X2755593Y27264019D01*
X1242082Y27264019D01*
X1242079Y27613293D01*
X2386915Y27613293D01*
X2386915Y27467762D01*
X2386915Y27322231D01*
X2532446Y27322231D01*
X2677977Y27322231D01*
X2677977Y27467762D01*
X2677977Y27613293D01*
X3473546Y27613293D01*
X3473546Y27467762D01*
X3473546Y27322231D01*
X3619077Y27322231D01*
X3764608Y27322231D01*
X3764608Y27467762D01*
X3764608Y27613293D01*
X4579581Y27613293D01*
X4579581Y27467762D01*
X4579581Y27322231D01*
X4725112Y27322231D01*
X4870643Y27322231D01*
X4870643Y27467762D01*
X4870643Y27613293D01*
X4725112Y27613293D01*
X4579581Y27613293D01*
X3764608Y27613293D01*
X3619077Y27613293D01*
X3473546Y27613293D01*
X2677977Y27613293D01*
X2532446Y27613293D01*
X2386915Y27613293D01*
X1242079Y27613293D01*
X1242076Y27981971D01*
X2386915Y27981971D01*
X2386915Y27836441D01*
X2386915Y27690910D01*
X2532446Y27690910D01*
X2677977Y27690910D01*
X2677977Y27836441D01*
X2677977Y27981971D01*
X3473546Y27981971D01*
X3473546Y27836441D01*
X3473546Y27690910D01*
X3619077Y27690910D01*
X3764608Y27690910D01*
X3764608Y27836441D01*
X3764608Y27981971D01*
X4579581Y27981971D01*
X4579581Y27836441D01*
X4579581Y27690910D01*
X4725112Y27690910D01*
X4870643Y27690910D01*
X4870643Y27836441D01*
X4870643Y27981971D01*
X4725112Y27981971D01*
X4579581Y27981971D01*
X3764608Y27981971D01*
X3619077Y27981971D01*
X3473546Y27981971D01*
X2677977Y27981971D01*
X2532446Y27981971D01*
X2386915Y27981971D01*
X1242076Y27981971D01*
X1242075Y28092977D01*
X1242074Y28350650D01*
X2386915Y28350650D01*
X2386915Y28195417D01*
X2386915Y28040184D01*
X2532446Y28040184D01*
X2677977Y28040184D01*
X2677977Y28195417D01*
X2677977Y28350650D01*
X3473546Y28350650D01*
X3473546Y28195417D01*
X3473546Y28040184D01*
X3619077Y28040184D01*
X3764608Y28040184D01*
X3764608Y28195417D01*
X3764608Y28350650D01*
X4579581Y28350650D01*
X4579581Y28195417D01*
X4579581Y28040184D01*
X4725112Y28040184D01*
X4870643Y28040184D01*
X4870643Y28195417D01*
X4870643Y28350650D01*
X4725112Y28350650D01*
X4579581Y28350650D01*
X3764608Y28350650D01*
X3619077Y28350650D01*
X3473546Y28350650D01*
X2677977Y28350650D01*
X2532446Y28350650D01*
X2386915Y28350650D01*
X1242074Y28350650D01*
X1242073Y28719328D01*
X2386915Y28719328D01*
X2386915Y28564095D01*
X2386915Y28408862D01*
X2532446Y28408862D01*
X2677977Y28408862D01*
X2677977Y28564095D01*
X2677977Y28719328D01*
X2755593Y28719328D01*
X2755593Y28564095D01*
X2755593Y28408862D01*
X2901124Y28408862D01*
X3046655Y28408862D01*
X3046655Y28564095D01*
X3046655Y28719328D01*
X3124272Y28719328D01*
X3124272Y28564095D01*
X3124272Y28408862D01*
X3269803Y28408862D01*
X3415334Y28408862D01*
X3415334Y28564095D01*
X3415334Y28719328D01*
X3473546Y28719328D01*
X3473546Y28564095D01*
X3473546Y28408862D01*
X3619077Y28408862D01*
X3764608Y28408862D01*
X3764608Y28564095D01*
X3764608Y28719328D01*
X3842224Y28719328D01*
X3842224Y28564095D01*
X3842224Y28408862D01*
X3987755Y28408862D01*
X4133286Y28408862D01*
X4133286Y28564095D01*
X4133286Y28719328D01*
X4210903Y28719328D01*
X4210903Y28564095D01*
X4210903Y28408862D01*
X4356434Y28408862D01*
X4501965Y28408862D01*
X4501965Y28564095D01*
X4501965Y28719328D01*
X4579581Y28719328D01*
X4579581Y28564095D01*
X4579581Y28408862D01*
X4725112Y28408862D01*
X4870643Y28408862D01*
X4870643Y28564095D01*
X4870643Y28719328D01*
X4725112Y28719328D01*
X4579581Y28719328D01*
X4501965Y28719328D01*
X4356434Y28719328D01*
X4210903Y28719328D01*
X4133286Y28719328D01*
X3987755Y28719328D01*
X3842224Y28719328D01*
X3764608Y28719328D01*
X3619077Y28719328D01*
X3473546Y28719328D01*
X3415334Y28719328D01*
X3269803Y28719328D01*
X3124272Y28719328D01*
X3046655Y28719328D01*
X2901124Y28719328D01*
X2755593Y28719328D01*
X2677977Y28719328D01*
X2532446Y28719328D01*
X2386915Y28719328D01*
X1242073Y28719328D01*
X1242072Y29022618D01*
X1242072Y29379068D01*
X2386915Y29379068D01*
X2386915Y29223835D01*
X2386915Y29068602D01*
X2532446Y29068602D01*
X2677977Y29068602D01*
X2677977Y29223835D01*
X2677977Y29379068D01*
X2755593Y29379068D01*
X2755593Y29223835D01*
X2755593Y29068602D01*
X2901124Y29068602D01*
X3046655Y29068602D01*
X3046655Y29223835D01*
X3046655Y29379068D01*
X3124272Y29379068D01*
X3124272Y29223835D01*
X3124272Y29068602D01*
X3269803Y29068602D01*
X3415334Y29068602D01*
X3415334Y29223835D01*
X3415334Y29379068D01*
X3473546Y29379068D01*
X3473546Y29223835D01*
X3473546Y29068602D01*
X3619077Y29068602D01*
X3764608Y29068602D01*
X3764608Y29223835D01*
X3764608Y29379068D01*
X3842224Y29379068D01*
X3842224Y29223835D01*
X3842224Y29068602D01*
X3987755Y29068602D01*
X4133286Y29068602D01*
X4133286Y29223835D01*
X4133286Y29379068D01*
X4210903Y29379068D01*
X4210903Y29223835D01*
X4210903Y29068602D01*
X4356434Y29068602D01*
X4501965Y29068602D01*
X4501965Y29223835D01*
X4501965Y29379068D01*
X4579581Y29379068D01*
X4579581Y29223835D01*
X4579581Y29068602D01*
X4725112Y29068602D01*
X4870643Y29068602D01*
X4870643Y29223835D01*
X4870643Y29379068D01*
X4725112Y29379068D01*
X4579581Y29379068D01*
X4501965Y29379068D01*
X4356434Y29379068D01*
X4210903Y29379068D01*
X4133286Y29379068D01*
X3987755Y29379068D01*
X3842224Y29379068D01*
X3764608Y29379068D01*
X3619077Y29379068D01*
X3473546Y29379068D01*
X3415334Y29379068D01*
X3269803Y29379068D01*
X3124272Y29379068D01*
X3046655Y29379068D01*
X2901124Y29379068D01*
X2755593Y29379068D01*
X2677977Y29379068D01*
X2532446Y29379068D01*
X2386915Y29379068D01*
X1242072Y29379068D01*
X1242072Y29728343D01*
X3842224Y29728343D01*
X3842224Y29582812D01*
X3842224Y29437281D01*
X3987755Y29437281D01*
X4133286Y29437281D01*
X4133286Y29582812D01*
X4133286Y29728343D01*
X3987755Y29728343D01*
X3842224Y29728343D01*
X1242072Y29728343D01*
X1242072Y29990298D01*
X1242072Y30097021D01*
X3473546Y30097021D01*
X3473546Y29951490D01*
X3473546Y29805959D01*
X3619077Y29805959D01*
X3764608Y29805959D01*
X3764608Y29951490D01*
X3764608Y30097021D01*
X3619077Y30097021D01*
X3473546Y30097021D01*
X1242072Y30097021D01*
X1242072Y30363563D01*
X1242072Y30465699D01*
X3124272Y30465699D01*
X3124272Y30310466D01*
X3124272Y30155233D01*
X3269803Y30155233D01*
X3415334Y30155233D01*
X3415334Y30310466D01*
X3415334Y30465699D01*
X3269803Y30465699D01*
X3124272Y30465699D01*
X1242072Y30465699D01*
X1242072Y30834378D01*
X2386915Y30834378D01*
X2386915Y30679145D01*
X2386915Y30523912D01*
X2532446Y30523912D01*
X2677977Y30523912D01*
X2677977Y30679145D01*
X2677977Y30834378D01*
X2755593Y30834378D01*
X2755593Y30679145D01*
X2755593Y30523912D01*
X2901124Y30523912D01*
X3046655Y30523912D01*
X3046655Y30679145D01*
X3046655Y30834378D01*
X3124272Y30834378D01*
X3124272Y30679145D01*
X3124272Y30523912D01*
X3269803Y30523912D01*
X3415334Y30523912D01*
X3415334Y30679145D01*
X3415334Y30834378D01*
X3473546Y30834378D01*
X3473546Y30679145D01*
X3473546Y30523912D01*
X3619077Y30523912D01*
X3764608Y30523912D01*
X3764608Y30679145D01*
X3764608Y30834378D01*
X3842224Y30834378D01*
X3842224Y30679145D01*
X3842224Y30523912D01*
X3987755Y30523912D01*
X4133286Y30523912D01*
X4133286Y30679145D01*
X4133286Y30834378D01*
X4210903Y30834378D01*
X4210903Y30679145D01*
X4210903Y30523912D01*
X4356434Y30523912D01*
X4501965Y30523912D01*
X4501965Y30679145D01*
X4501965Y30834378D01*
X4579581Y30834378D01*
X4579581Y30679145D01*
X4579581Y30523912D01*
X4725112Y30523912D01*
X4870643Y30523912D01*
X4870643Y30679145D01*
X4870643Y30834378D01*
X4725112Y30834378D01*
X4579581Y30834378D01*
X4501965Y30834378D01*
X4356434Y30834378D01*
X4210903Y30834378D01*
X4133286Y30834378D01*
X3987755Y30834378D01*
X3842224Y30834378D01*
X3764608Y30834378D01*
X3619077Y30834378D01*
X3473546Y30834378D01*
X3415334Y30834378D01*
X3269803Y30834378D01*
X3124272Y30834378D01*
X3046655Y30834378D01*
X2901124Y30834378D01*
X2755593Y30834378D01*
X2677977Y30834378D01*
X2532446Y30834378D01*
X2386915Y30834378D01*
X1242072Y30834378D01*
X1242073Y31316699D01*
X1242074Y31494118D01*
X4579581Y31494118D01*
X4579581Y31338885D01*
X4579581Y31183652D01*
X4725112Y31183652D01*
X4870643Y31183652D01*
X4870643Y31338885D01*
X4870643Y31494118D01*
X4725112Y31494118D01*
X4579581Y31494118D01*
X1242074Y31494118D01*
X1242076Y31843392D01*
X2386915Y31843392D01*
X2386915Y31697861D01*
X2386915Y31552331D01*
X2532446Y31552331D01*
X2677977Y31552331D01*
X2677977Y31697861D01*
X2677977Y31843392D01*
X4579581Y31843392D01*
X4579581Y31697861D01*
X4579581Y31552331D01*
X4725112Y31552331D01*
X4870643Y31552331D01*
X4870643Y31697861D01*
X4870643Y31843392D01*
X4725112Y31843392D01*
X4579581Y31843392D01*
X2677977Y31843392D01*
X2532446Y31843392D01*
X2386915Y31843392D01*
X1242076Y31843392D01*
X1242078Y32212071D01*
X2386915Y32212071D01*
X2386915Y32066540D01*
X2386915Y31921009D01*
X2532446Y31921009D01*
X2677977Y31921009D01*
X2677977Y32066540D01*
X2677977Y32212071D01*
X2755593Y32212071D01*
X2755593Y32066540D01*
X2755593Y31921009D01*
X2901124Y31921009D01*
X3046655Y31921009D01*
X3046655Y32066540D01*
X3046655Y32212071D01*
X3124272Y32212071D01*
X3124272Y32066540D01*
X3124272Y31921009D01*
X3269803Y31921009D01*
X3415334Y31921009D01*
X3415334Y32066540D01*
X3415334Y32212071D01*
X3473546Y32212071D01*
X3473546Y32066540D01*
X3473546Y31921009D01*
X3619077Y31921009D01*
X3764608Y31921009D01*
X3764608Y32066540D01*
X3764608Y32212071D01*
X3842224Y32212071D01*
X3842224Y32066540D01*
X3842224Y31921009D01*
X3987755Y31921009D01*
X4133286Y31921009D01*
X4133286Y32066540D01*
X4133286Y32212071D01*
X4210903Y32212071D01*
X4210903Y32066540D01*
X4210903Y31921009D01*
X4356434Y31921009D01*
X4501965Y31921009D01*
X4501965Y32066540D01*
X4501965Y32212071D01*
X4579581Y32212071D01*
X4579581Y32066540D01*
X4579581Y31921009D01*
X4725112Y31921009D01*
X4870643Y31921009D01*
X4870643Y32066540D01*
X4870643Y32212071D01*
X4725112Y32212071D01*
X4579581Y32212071D01*
X4501965Y32212071D01*
X4356434Y32212071D01*
X4210903Y32212071D01*
X4133286Y32212071D01*
X3987755Y32212071D01*
X3842224Y32212071D01*
X3764608Y32212071D01*
X3619077Y32212071D01*
X3473546Y32212071D01*
X3415334Y32212071D01*
X3269803Y32212071D01*
X3124272Y32212071D01*
X3046655Y32212071D01*
X2901124Y32212071D01*
X2755593Y32212071D01*
X2677977Y32212071D01*
X2532446Y32212071D01*
X2386915Y32212071D01*
X1242078Y32212071D01*
X1242078Y32232089D01*
X1242082Y32580749D01*
X2386915Y32580749D01*
X2386915Y32425516D01*
X2386915Y32270283D01*
X2532446Y32270283D01*
X2677977Y32270283D01*
X2677977Y32425516D01*
X2677977Y32580749D01*
X4579581Y32580749D01*
X4579581Y32425516D01*
X4579581Y32270283D01*
X4725112Y32270283D01*
X4870643Y32270283D01*
X4870643Y32425516D01*
X4870643Y32580749D01*
X4725112Y32580749D01*
X4579581Y32580749D01*
X2677977Y32580749D01*
X2532446Y32580749D01*
X2386915Y32580749D01*
X1242082Y32580749D01*
X1242086Y32949428D01*
X4579581Y32949428D01*
X4579581Y32794195D01*
X4579581Y32638962D01*
X4725112Y32638962D01*
X4870643Y32638962D01*
X4870643Y32794195D01*
X4870643Y32949428D01*
X4725112Y32949428D01*
X4579581Y32949428D01*
X1242086Y32949428D01*
X1242088Y33110500D01*
X1242097Y33609168D01*
X2755593Y33609168D01*
X2755593Y33453935D01*
X2755593Y33298702D01*
X2901124Y33298702D01*
X3046655Y33298702D01*
X3046655Y33453935D01*
X3046655Y33609168D01*
X3124272Y33609168D01*
X3124272Y33453935D01*
X3124272Y33298702D01*
X3269803Y33298702D01*
X3415334Y33298702D01*
X3415334Y33453935D01*
X3415334Y33609168D01*
X3473546Y33609168D01*
X3473546Y33453935D01*
X3473546Y33298702D01*
X3619077Y33298702D01*
X3764608Y33298702D01*
X3764608Y33453935D01*
X3764608Y33609168D01*
X3842224Y33609168D01*
X3842224Y33453935D01*
X3842224Y33298702D01*
X3987755Y33298702D01*
X4133286Y33298702D01*
X4133286Y33453935D01*
X4133286Y33609168D01*
X4210903Y33609168D01*
X4210903Y33453935D01*
X4210903Y33298702D01*
X4356434Y33298702D01*
X4501965Y33298702D01*
X4501965Y33453935D01*
X4501965Y33609168D01*
X4579581Y33609168D01*
X4579581Y33453935D01*
X4579581Y33298702D01*
X4725112Y33298702D01*
X4870643Y33298702D01*
X4870643Y33453935D01*
X4870643Y33609168D01*
X4725112Y33609168D01*
X4579581Y33609168D01*
X4501965Y33609168D01*
X4356434Y33609168D01*
X4210903Y33609168D01*
X4133286Y33609168D01*
X3987755Y33609168D01*
X3842224Y33609168D01*
X3764608Y33609168D01*
X3619077Y33609168D01*
X3473546Y33609168D01*
X3415334Y33609168D01*
X3269803Y33609168D01*
X3124272Y33609168D01*
X3046655Y33609168D01*
X2901124Y33609168D01*
X2755593Y33609168D01*
X1242097Y33609168D01*
X1242104Y33952702D01*
X1242104Y33958442D01*
X2386915Y33958442D01*
X2386915Y33812911D01*
X2386915Y33667380D01*
X2532446Y33667380D01*
X2677977Y33667380D01*
X2677977Y33812911D01*
X2677977Y33958442D01*
X3473546Y33958442D01*
X3473546Y33812911D01*
X3473546Y33667380D01*
X3619077Y33667380D01*
X3764608Y33667380D01*
X3764608Y33812911D01*
X3764608Y33958442D01*
X3619077Y33958442D01*
X3473546Y33958442D01*
X2677977Y33958442D01*
X2532446Y33958442D01*
X2386915Y33958442D01*
X1242104Y33958442D01*
X1242116Y34327120D01*
X2386915Y34327120D01*
X2386915Y34181589D01*
X2386915Y34036059D01*
X2532446Y34036059D01*
X2677977Y34036059D01*
X2677977Y34181589D01*
X2677977Y34327120D01*
X3473546Y34327120D01*
X3473546Y34181589D01*
X3473546Y34036059D01*
X3619077Y34036059D01*
X3764608Y34036059D01*
X3764608Y34181589D01*
X3764608Y34327120D01*
X3619077Y34327120D01*
X3473546Y34327120D01*
X2677977Y34327120D01*
X2532446Y34327120D01*
X2386915Y34327120D01*
X1242116Y34327120D01*
X1242127Y34695799D01*
X2386915Y34695799D01*
X2386915Y34540566D01*
X2386915Y34385333D01*
X2532446Y34385333D01*
X2677977Y34385333D01*
X2677977Y34540566D01*
X2677977Y34695799D01*
X3473546Y34695799D01*
X3473546Y34540566D01*
X3473546Y34385333D01*
X3619077Y34385333D01*
X3764608Y34385333D01*
X3764608Y34540566D01*
X3764608Y34695799D01*
X3619077Y34695799D01*
X3473546Y34695799D01*
X2677977Y34695799D01*
X2532446Y34695799D01*
X2386915Y34695799D01*
X1242127Y34695799D01*
X1242129Y34759463D01*
X1242143Y35064477D01*
X2755593Y35064477D01*
X2755593Y34909244D01*
X2755593Y34754011D01*
X2901124Y34754011D01*
X3046655Y34754011D01*
X3046655Y34909244D01*
X3046655Y35064477D01*
X3124272Y35064477D01*
X3124272Y34909244D01*
X3124272Y34754011D01*
X3269803Y34754011D01*
X3415334Y34754011D01*
X3415334Y34909244D01*
X3415334Y35064477D01*
X3473546Y35064477D01*
X3473546Y34909244D01*
X3473546Y34754011D01*
X3619077Y34754011D01*
X3764608Y34754011D01*
X3764608Y34909244D01*
X3764608Y35064477D01*
X3842224Y35064477D01*
X3842224Y34909244D01*
X3842224Y34754011D01*
X3987755Y34754011D01*
X4133286Y34754011D01*
X4133286Y34909244D01*
X4133286Y35064477D01*
X4210903Y35064477D01*
X4210903Y34909244D01*
X4210903Y34754011D01*
X4356434Y34754011D01*
X4501965Y34754011D01*
X4501965Y34909244D01*
X4501965Y35064477D01*
X4579581Y35064477D01*
X4579581Y34909244D01*
X4579581Y34754011D01*
X4725112Y34754011D01*
X4870643Y34754011D01*
X4870643Y34909244D01*
X4870643Y35064477D01*
X4725112Y35064477D01*
X4579581Y35064477D01*
X4501965Y35064477D01*
X4356434Y35064477D01*
X4210903Y35064477D01*
X4133286Y35064477D01*
X3987755Y35064477D01*
X3842224Y35064477D01*
X3764608Y35064477D01*
X3619077Y35064477D01*
X3473546Y35064477D01*
X3415334Y35064477D01*
X3269803Y35064477D01*
X3124272Y35064477D01*
X3046655Y35064477D01*
X2901124Y35064477D01*
X2755593Y35064477D01*
X1242143Y35064477D01*
X1242164Y35531551D01*
X1242176Y35724217D01*
X2755593Y35724217D01*
X2755593Y35568984D01*
X2755593Y35413751D01*
X2901124Y35413751D01*
X3046655Y35413751D01*
X3046655Y35568984D01*
X3046655Y35724217D01*
X3124272Y35724217D01*
X3124272Y35568984D01*
X3124272Y35413751D01*
X3269803Y35413751D01*
X3415334Y35413751D01*
X3415334Y35568984D01*
X3415334Y35724217D01*
X4579581Y35724217D01*
X4579581Y35568984D01*
X4579581Y35413751D01*
X4725112Y35413751D01*
X4870643Y35413751D01*
X4870643Y35568984D01*
X4870643Y35724217D01*
X4725112Y35724217D01*
X4579581Y35724217D01*
X3415334Y35724217D01*
X3269803Y35724217D01*
X3124272Y35724217D01*
X3046655Y35724217D01*
X2901124Y35724217D01*
X2755593Y35724217D01*
X1242176Y35724217D01*
X1242199Y36073492D01*
X2386915Y36073492D01*
X2386915Y35927961D01*
X2386915Y35782430D01*
X2532446Y35782430D01*
X2677977Y35782430D01*
X2677977Y35927961D01*
X2677977Y36073492D01*
X3473546Y36073492D01*
X3473546Y35927961D01*
X3473546Y35782430D01*
X3619077Y35782430D01*
X3764608Y35782430D01*
X3764608Y35927961D01*
X3764608Y36073492D01*
X4210903Y36073492D01*
X4210903Y35927961D01*
X4210903Y35782430D01*
X4356434Y35782430D01*
X4501965Y35782430D01*
X4501965Y35927961D01*
X4501965Y36073492D01*
X4356434Y36073492D01*
X4210903Y36073492D01*
X3764608Y36073492D01*
X3619077Y36073492D01*
X3473546Y36073492D01*
X2677977Y36073492D01*
X2532446Y36073492D01*
X2386915Y36073492D01*
X1242199Y36073492D01*
X1242211Y36269736D01*
X1242226Y36442170D01*
X2386915Y36442170D01*
X2386915Y36296639D01*
X2386915Y36151108D01*
X2532446Y36151108D01*
X2677977Y36151108D01*
X2677977Y36296639D01*
X2677977Y36442170D01*
X3473546Y36442170D01*
X3473546Y36296639D01*
X3473546Y36151108D01*
X3619077Y36151108D01*
X3764608Y36151108D01*
X3764608Y36296639D01*
X3764608Y36442170D01*
X3842224Y36442170D01*
X3842224Y36296639D01*
X3842224Y36151108D01*
X3987755Y36151108D01*
X4133286Y36151108D01*
X4133286Y36296639D01*
X4133286Y36442170D01*
X3987755Y36442170D01*
X3842224Y36442170D01*
X3764608Y36442170D01*
X3619077Y36442170D01*
X3473546Y36442170D01*
X2677977Y36442170D01*
X2532446Y36442170D01*
X2386915Y36442170D01*
X1242226Y36442170D01*
X1242258Y36810848D01*
X2386915Y36810848D01*
X2386915Y36655615D01*
X2386915Y36500382D01*
X2532446Y36500382D01*
X2677977Y36500382D01*
X2677977Y36655615D01*
X2677977Y36810848D01*
X3473546Y36810848D01*
X3473546Y36655615D01*
X3473546Y36500382D01*
X3619077Y36500382D01*
X3764608Y36500382D01*
X3764608Y36655615D01*
X3764608Y36810848D01*
X3619077Y36810848D01*
X3473546Y36810848D01*
X2677977Y36810848D01*
X2532446Y36810848D01*
X2386915Y36810848D01*
X1242258Y36810848D01*
X1242272Y36974786D01*
X1242295Y37179527D01*
X2386915Y37179527D01*
X2386915Y37024294D01*
X2386915Y36869061D01*
X2532446Y36869061D01*
X2677977Y36869061D01*
X2677977Y37024294D01*
X2677977Y37179527D01*
X2755593Y37179527D01*
X2755593Y37024294D01*
X2755593Y36869061D01*
X2901124Y36869061D01*
X3046655Y36869061D01*
X3046655Y37024294D01*
X3046655Y37179527D01*
X3124272Y37179527D01*
X3124272Y37024294D01*
X3124272Y36869061D01*
X3269803Y36869061D01*
X3415334Y36869061D01*
X3415334Y37024294D01*
X3415334Y37179527D01*
X3473546Y37179527D01*
X3473546Y37024294D01*
X3473546Y36869061D01*
X3619077Y36869061D01*
X3764608Y36869061D01*
X3764608Y37024294D01*
X3764608Y37179527D01*
X3842224Y37179527D01*
X3842224Y37024294D01*
X3842224Y36869061D01*
X3987755Y36869061D01*
X4133286Y36869061D01*
X4133286Y37024294D01*
X4133286Y37179527D01*
X4210903Y37179527D01*
X4210903Y37024294D01*
X4210903Y36869061D01*
X4356434Y36869061D01*
X4501965Y36869061D01*
X4501965Y37024294D01*
X4501965Y37179527D01*
X4579581Y37179527D01*
X4579581Y37024294D01*
X4579581Y36869061D01*
X4725112Y36869061D01*
X4870643Y36869061D01*
X4870643Y37024294D01*
X4870643Y37179527D01*
X4725112Y37179527D01*
X4579581Y37179527D01*
X4501965Y37179527D01*
X4356434Y37179527D01*
X4210903Y37179527D01*
X4133286Y37179527D01*
X3987755Y37179527D01*
X3842224Y37179527D01*
X3764608Y37179527D01*
X3619077Y37179527D01*
X3473546Y37179527D01*
X3415334Y37179527D01*
X3269803Y37179527D01*
X3124272Y37179527D01*
X3046655Y37179527D01*
X2901124Y37179527D01*
X2755593Y37179527D01*
X2677977Y37179527D01*
X2532446Y37179527D01*
X2386915Y37179527D01*
X1242295Y37179527D01*
X1242348Y37647470D01*
X1242441Y38288556D01*
X1242553Y38898812D01*
X1242686Y39479008D01*
X1242841Y40029913D01*
X1243020Y40552293D01*
X1243225Y41046920D01*
X1243458Y41514560D01*
X1243720Y41955982D01*
X1243767Y42022910D01*
X2187919Y42022910D01*
X2194200Y41931184D01*
X2233068Y41847880D01*
X2300030Y41780388D01*
X2386915Y41737901D01*
X2390593Y41736102D01*
X2400392Y41733236D01*
X2450100Y41723724D01*
X2494215Y41730187D01*
X2552023Y41754866D01*
X2555212Y41756438D01*
X2624087Y41802851D01*
X2669139Y41857593D01*
X2700789Y41918797D01*
X2737716Y41858075D01*
X2737723Y41858064D01*
X2781638Y41804338D01*
X2835364Y41760427D01*
X2896085Y41723500D01*
X2835732Y41692290D01*
X2792510Y41658073D01*
X2746164Y41599041D01*
X2711203Y41532816D01*
X2697381Y41474738D01*
X2708248Y41421001D01*
X2742254Y41350958D01*
X2790175Y41286760D01*
X2842502Y41243555D01*
X2909326Y41207568D01*
X2855069Y41184755D01*
X2794406Y41145209D01*
X2737576Y41074866D01*
X2705592Y40991313D01*
X2704120Y40982129D01*
X2710846Y40899880D01*
X2747822Y40821332D01*
X2755593Y40812711D01*
X2807727Y40754871D01*
X2883245Y40708880D01*
X2967057Y40691746D01*
X2996760Y40694041D01*
X3074532Y40718259D01*
X3124272Y40750502D01*
X3142406Y40762257D01*
X3185994Y40817756D01*
X3189135Y40824503D01*
X3212198Y40859961D01*
X3233029Y40857553D01*
X3256825Y40817241D01*
X3260862Y40809572D01*
X3297165Y40766388D01*
X3347271Y40727998D01*
X3415361Y40687824D01*
X3352284Y40645834D01*
X3334947Y40633495D01*
X3267581Y40561999D01*
X3233325Y40480164D01*
X3231323Y40394778D01*
X3260721Y40312626D01*
X3320665Y40240493D01*
X3410300Y40185165D01*
X3473546Y40158054D01*
X3496400Y40148258D01*
X3584722Y40192303D01*
X3584822Y40192354D01*
X3658645Y40241902D01*
X3707672Y40300919D01*
X3742301Y40365488D01*
X3774063Y40304069D01*
X3778125Y40296807D01*
X3820315Y40245055D01*
X3873856Y40202509D01*
X3941889Y40162369D01*
X3883297Y40133992D01*
X3842304Y40108895D01*
X3790523Y40050666D01*
X3750721Y39962886D01*
X3743538Y39914094D01*
X3759827Y39839481D01*
X3801168Y39766647D01*
X3842224Y39723529D01*
X3860727Y39704096D01*
X3931669Y39660329D01*
X4007159Y39643851D01*
X4036658Y39646756D01*
X4112766Y39675681D01*
X4182771Y39728211D01*
X4210903Y39765731D01*
X4232972Y39795165D01*
X4264744Y39858388D01*
X4301866Y39786854D01*
X4302837Y39785002D01*
X4361189Y39710804D01*
X4437020Y39665691D01*
X4522121Y39649807D01*
X4579581Y39658803D01*
X4608282Y39663296D01*
X4687295Y39706303D01*
X4750951Y39778971D01*
X4784639Y39834367D01*
X4816804Y39778322D01*
X4855358Y39729537D01*
X4906428Y39687334D01*
X4963888Y39652391D01*
X4888761Y39589318D01*
X4829635Y39525477D01*
X4790723Y39449772D01*
X4783822Y39425006D01*
X4778287Y39381599D01*
X4787986Y39339221D01*
X4815414Y39280796D01*
X4847297Y39226997D01*
X4890825Y39183428D01*
X4954149Y39150526D01*
X5003858Y39130878D01*
X5043153Y39122500D01*
X5081447Y39129138D01*
X5137121Y39150820D01*
X5155766Y39158993D01*
X5224222Y39203006D01*
X5272630Y39265984D01*
X5287862Y39290884D01*
X5308528Y39315310D01*
X5316619Y39309776D01*
X5323800Y39285293D01*
X5356194Y39239422D01*
X5405079Y39191630D01*
X5459815Y39151823D01*
X5509765Y39129908D01*
X5594427Y39126872D01*
X5675383Y39154553D01*
X5742580Y39207190D01*
X5791281Y39277788D01*
X5816749Y39359356D01*
X5814247Y39444899D01*
X5779038Y39527426D01*
X5769866Y39540243D01*
X5728447Y39586285D01*
X5689991Y39614495D01*
X5686920Y39615871D01*
X5652810Y39636878D01*
X5655472Y39656135D01*
X5695363Y39679149D01*
X5718419Y39692014D01*
X5774045Y39749168D01*
X5809038Y39826383D01*
X5821357Y39912912D01*
X5808960Y39998008D01*
X5769804Y40070923D01*
X5761395Y40080450D01*
X5713396Y40123945D01*
X5667933Y40151535D01*
X5617702Y40170776D01*
X5680383Y40197278D01*
X5725997Y40223562D01*
X5781826Y40285935D01*
X5812733Y40364030D01*
X5818626Y40449014D01*
X5799410Y40532054D01*
X5754991Y40604318D01*
X5685275Y40656972D01*
X5621735Y40687746D01*
X5683640Y40719758D01*
X5717428Y40740713D01*
X5778770Y40806352D01*
X5812360Y40886792D01*
X5818391Y40973532D01*
X5797054Y41058071D01*
X5748543Y41131906D01*
X5673051Y41186537D01*
X5653577Y41194804D01*
X5561594Y41210625D01*
X5472046Y41192215D01*
X5393500Y41142648D01*
X5334524Y41065000D01*
X5303599Y41004493D01*
X5272227Y41070281D01*
X5260326Y41092497D01*
X5200353Y41160432D01*
X5124256Y41199691D01*
X5039999Y41210279D01*
X4955544Y41192199D01*
X4878854Y41145456D01*
X4817893Y41070054D01*
X4802188Y41043792D01*
X4781370Y41018838D01*
X4773942Y41028335D01*
X4766601Y41052967D01*
X4735675Y41098466D01*
X4690963Y41145154D01*
X4643864Y41181631D01*
X4605777Y41196500D01*
X4596282Y41198362D01*
X4603433Y41212593D01*
X4645476Y41240159D01*
X4663624Y41251342D01*
X4736456Y41319114D01*
X4777660Y41400088D01*
X4787468Y41486842D01*
X4766114Y41571951D01*
X4713829Y41647991D01*
X4630846Y41707540D01*
X4569991Y41729939D01*
X4491990Y41731023D01*
X4461499Y41722552D01*
X4388791Y41684123D01*
X4325485Y41628812D01*
X4286050Y41568066D01*
X4267517Y41519322D01*
X4234359Y41585363D01*
X4232990Y41588027D01*
X4191948Y41645256D01*
X4140759Y41691749D01*
X4080318Y41732095D01*
X4134244Y41763044D01*
X4202321Y41820011D01*
X4246636Y41897015D01*
X4263146Y41983063D01*
X4251660Y42069330D01*
X4211984Y42146988D01*
X4143926Y42207213D01*
X4075047Y42247853D01*
X4138124Y42289737D01*
X4159631Y42307080D01*
X4206854Y42361081D01*
X4245493Y42424197D01*
X4289786Y42516772D01*
X4244805Y42606970D01*
X4196587Y42680156D01*
X4137889Y42727690D01*
X4129848Y42731744D01*
X4091390Y42754242D01*
X4075514Y42769172D01*
X4076082Y42771018D01*
X4096787Y42787736D01*
X4138137Y42810265D01*
X4149897Y42816953D01*
X4196298Y42858529D01*
X4241200Y42916742D01*
X4275106Y42977838D01*
X4288519Y43028060D01*
X4287595Y43039069D01*
X4269346Y43093560D01*
X4234576Y43156586D01*
X4192312Y43213530D01*
X4151583Y43249775D01*
X4146479Y43252718D01*
X4109762Y43276715D01*
X4094723Y43291826D01*
X4095125Y43293187D01*
X4114383Y43310235D01*
X4153619Y43335046D01*
X4163774Y43341429D01*
X4217283Y43397428D01*
X4254904Y43474569D01*
X4269115Y43558313D01*
X4268447Y43572958D01*
X4245948Y43652354D01*
X4198624Y43726077D01*
X4136174Y43778091D01*
X4074146Y43811357D01*
X4143404Y43852220D01*
X4153488Y43858639D01*
X4204404Y43904132D01*
X4238628Y43954839D01*
X4264594Y44016594D01*
X4296903Y43954116D01*
X4331075Y43904686D01*
X4403547Y43848733D01*
X4491174Y43820096D01*
X4584213Y43821344D01*
X4672918Y43855043D01*
X4734336Y43912521D01*
X4777136Y43993646D01*
X4793026Y44083903D01*
X4788555Y44117999D01*
X4758109Y44189164D01*
X4706973Y44255207D01*
X4644739Y44302017D01*
X4584545Y44332299D01*
X4654828Y44369931D01*
X4660693Y44373232D01*
X4717304Y44419218D01*
X4759039Y44475478D01*
X4767460Y44491592D01*
X4785707Y44519803D01*
X4792996Y44519812D01*
X4799316Y44497412D01*
X4830739Y44452407D01*
X4879423Y44404291D01*
X4935117Y44362683D01*
X4987571Y44337206D01*
X5007657Y44331553D01*
X5052091Y44325312D01*
X5095214Y44334375D01*
X5154230Y44361221D01*
X5154874Y44361546D01*
X5230911Y44412227D01*
X5279261Y44470717D01*
X5312155Y44533870D01*
X5336612Y44474826D01*
X5339207Y44469138D01*
X5378872Y44418641D01*
X5440021Y44370485D01*
X5508025Y44334432D01*
X5568254Y44320245D01*
X5612727Y44328396D01*
X5680754Y44359598D01*
X5744750Y44405318D01*
X5789236Y44456046D01*
X5801871Y44482475D01*
X5819229Y44564896D01*
X5814880Y44653180D01*
X5788850Y44728412D01*
X5787012Y44731418D01*
X5745169Y44779168D01*
X5691814Y44818295D01*
X5627371Y44852999D01*
X5694950Y44887669D01*
X5715451Y44899699D01*
X5776500Y44960917D01*
X5812147Y45040494D01*
X5820991Y45128628D01*
X5801629Y45215517D01*
X5752662Y45291358D01*
X5740862Y45303108D01*
X5700930Y45335611D01*
X5672284Y45348664D01*
X5668027Y45348763D01*
X5647921Y45358131D01*
X5660433Y45379864D01*
X5703478Y45409869D01*
X5750604Y45444820D01*
X5788770Y45487486D01*
X5825733Y45575378D01*
X5827923Y45668777D01*
X5793791Y45758445D01*
X5724310Y45839065D01*
X5646999Y45905241D01*
X5695458Y45927320D01*
X5696103Y45927616D01*
X5758310Y45976004D01*
X5799855Y46048006D01*
X5818435Y46133129D01*
X5811744Y46220878D01*
X5777477Y46300758D01*
X5769677Y46311697D01*
X5702270Y46372884D01*
X5620803Y46404445D01*
X5533816Y46407288D01*
X5449846Y46382322D01*
X5377433Y46330457D01*
X5325115Y46252601D01*
X5320654Y46242858D01*
X5305003Y46218503D01*
X5298293Y46225211D01*
X5283282Y46268655D01*
X5243178Y46320292D01*
X5188732Y46366789D01*
X5130699Y46397113D01*
X5082455Y46408148D01*
X4989000Y46403024D01*
X4904819Y46365617D01*
X4837645Y46300213D01*
X4795213Y46211100D01*
X4792763Y46201993D01*
X4784333Y46151555D01*
X4791729Y46106289D01*
X4817526Y46047284D01*
X4819457Y46043456D01*
X4866510Y45974272D01*
X4920314Y45931218D01*
X4979687Y45902542D01*
X4920775Y45862841D01*
X4867782Y45817761D01*
X4822084Y45764112D01*
X4782304Y45705082D01*
X4752624Y45763234D01*
X4729418Y45796273D01*
X4668054Y45847119D01*
X4592691Y45883381D01*
X4518966Y45896162D01*
X4489766Y45892560D01*
X4415147Y45863693D01*
X4348188Y45814550D01*
X4304461Y45755355D01*
X4299282Y45744256D01*
X4275525Y45707424D01*
X4257104Y45698943D01*
X4249615Y45722193D01*
X4237715Y45758080D01*
X4199634Y45806010D01*
X4145611Y45850326D01*
X4086269Y45880716D01*
X4074114Y45884624D01*
X3985692Y45895233D01*
X3905448Y45869658D01*
X3828844Y45806592D01*
X3816968Y45793215D01*
X3765111Y45707801D01*
X3751804Y45619610D01*
X3777160Y45529252D01*
X3782491Y45519116D01*
X3824646Y45460610D01*
X3873559Y45415684D01*
X3934001Y45375469D01*
X3877837Y45343236D01*
X3829197Y45304080D01*
X3788290Y45252339D01*
X3784431Y45245668D01*
X3760250Y45208739D01*
X3745204Y45193676D01*
X3743821Y45194089D01*
X3726748Y45213409D01*
X3701915Y45252693D01*
X3699131Y45257328D01*
X3650611Y45308434D01*
X3580206Y45350690D01*
X3563930Y45357769D01*
X3511251Y45376293D01*
X3470146Y45378015D01*
X3422533Y45364521D01*
X3395458Y45352668D01*
X3320768Y45298463D01*
X3261816Y45225211D01*
X3229860Y45145699D01*
X3226920Y45108120D01*
X3245160Y45025474D01*
X3291897Y44950114D01*
X3360988Y44893843D01*
X3429774Y44856211D01*
X3369579Y44825928D01*
X3367352Y44824781D01*
X3313995Y44785677D01*
X3269018Y44735174D01*
X3228652Y44674701D01*
X3166330Y44748933D01*
X3114958Y44798494D01*
X3030918Y44842032D01*
X2942757Y44849856D01*
X2856570Y44821828D01*
X2778452Y44757808D01*
X2765950Y44742559D01*
X2728749Y44684638D01*
X2707340Y44631883D01*
X2707087Y44569076D01*
X2732939Y44491221D01*
X2780220Y44419488D01*
X2842209Y44367078D01*
X2909739Y44328485D01*
X2842709Y44292387D01*
X2786934Y44248208D01*
X2733971Y44170131D01*
X2728672Y44159057D01*
X2706996Y44104434D01*
X2703135Y44060659D01*
X2714828Y44008659D01*
X2750964Y43937568D01*
X2812520Y43870270D01*
X2887646Y43807198D01*
X2831145Y43772837D01*
X2782868Y43733668D01*
X2740206Y43681849D01*
X2705769Y43625222D01*
X2673604Y43681267D01*
X2660700Y43700796D01*
X2602075Y43758162D01*
X2529296Y43799648D01*
X2457762Y43815665D01*
X2455114Y43815657D01*
X2363477Y43798764D01*
X2289901Y43754487D01*
X2236236Y43690074D01*
X2204329Y43612771D01*
X2196029Y43529827D01*
X2213184Y43448488D01*
X2257642Y43376001D01*
X2331252Y43319614D01*
X2393730Y43287306D01*
X2332492Y43261557D01*
X2291655Y43238971D01*
X2234146Y43178478D01*
X2202129Y43101839D01*
X2195651Y43017668D01*
X2214761Y42934577D01*
X2259507Y42861178D01*
X2329938Y42806084D01*
X2391316Y42774345D01*
X2322405Y42733686D01*
X2317948Y42731003D01*
X2246314Y42667565D01*
X2203795Y42588690D01*
X2190358Y42502635D01*
X2205968Y42417656D01*
X2250595Y42342009D01*
X2324203Y42283952D01*
X2344327Y42272745D01*
X2372632Y42253048D01*
X2373037Y42244861D01*
X2352240Y42238701D01*
X2307537Y42207744D01*
X2259622Y42160197D01*
X2218684Y42106744D01*
X2194909Y42058068D01*
X2187919Y42022910D01*
X1243767Y42022910D01*
X1244013Y42371956D01*
X1244339Y42763250D01*
X1244699Y43130632D01*
X1245096Y43474872D01*
X1245530Y43796736D01*
X1246004Y44096996D01*
X1246520Y44376418D01*
X1247079Y44635772D01*
X1247683Y44875825D01*
X1248334Y45097348D01*
X1249033Y45301108D01*
X1249782Y45487874D01*
X1250583Y45658415D01*
X1251438Y45813499D01*
X1252348Y45953895D01*
X1253316Y46080372D01*
X1254342Y46193697D01*
X1255429Y46294641D01*
X1256578Y46383971D01*
X1257791Y46462456D01*
X1259070Y46530864D01*
X1260416Y46589965D01*
X1261832Y46640526D01*
X1263319Y46683318D01*
X1264879Y46719107D01*
X1266513Y46748663D01*
X1268223Y46772754D01*
X1270012Y46792150D01*
X1271880Y46807618D01*
X1273829Y46819927D01*
X1275862Y46829846D01*
X1277979Y46838144D01*
X1280184Y46845588D01*
X1329998Y46971673D01*
X1404879Y47105643D01*
X1491434Y47218946D01*
X1498923Y47226869D01*
X1578825Y47295333D01*
X1681092Y47363218D01*
X1791945Y47422211D01*
X1897605Y47464000D01*
X1912096Y47468354D01*
X1935372Y47474528D01*
X1961452Y47479910D01*
X1992908Y47484556D01*
X2032311Y47488518D01*
X2082234Y47491851D01*
X2145248Y47494610D01*
X2223924Y47496849D01*
X2320835Y47498621D01*
X2438552Y47499981D01*
X2579647Y47500983D01*
X2746691Y47501681D01*
X2942257Y47502130D01*
X3168916Y47502384D01*
X3429239Y47502496D01*
X3725800Y47502521D01*
X3918365Y47502513D01*
X4191627Y47502438D01*
X4430285Y47502243D01*
X4636911Y47501871D01*
X4814076Y47501270D01*
X4964352Y47500386D01*
X5082455Y47499239D01*
G37*
G36*
X5342781Y44988335D02*
G01*
X5378553Y44937109D01*
X5443058Y44888762D01*
X5511390Y44856177D01*
X5444717Y44818073D01*
X5439044Y44814680D01*
X5384875Y44769810D01*
X5344067Y44716878D01*
X5310090Y44653787D01*
X5277537Y44715014D01*
X5273027Y44722812D01*
X5229961Y44773930D01*
X5175647Y44815651D01*
X5106310Y44855060D01*
X5175862Y44893268D01*
X5184352Y44898242D01*
X5238610Y44942442D01*
X5278125Y44993399D01*
X5310837Y45055323D01*
X5342781Y44988335D01*
G37*
G36*
X5316865Y40872650D02*
G01*
X5318573Y40862990D01*
X5340852Y40823250D01*
X5380508Y40776546D01*
X5426794Y40734469D01*
X5468964Y40708608D01*
X5517708Y40690076D01*
X5451667Y40656917D01*
X5448781Y40655432D01*
X5391900Y40614763D01*
X5346067Y40564485D01*
X5306509Y40505212D01*
X5267963Y40564485D01*
X5267710Y40564872D01*
X5221880Y40615869D01*
X5165958Y40655507D01*
X5102499Y40687254D01*
X5170734Y40727514D01*
X5177578Y40731746D01*
X5233819Y40778098D01*
X5277881Y40831595D01*
X5287054Y40845994D01*
X5308330Y40872880D01*
X5316865Y40872650D01*
G37*
G36*
X5340941Y46024910D02*
G01*
X5381431Y45975709D01*
X5433451Y45934503D01*
X5490942Y45901681D01*
X5447599Y45868155D01*
X5414939Y45845179D01*
X5392759Y45834198D01*
X5389786Y45832800D01*
X5370823Y45809567D01*
X5345253Y45766904D01*
X5309246Y45700041D01*
X5281620Y45757081D01*
X5277803Y45764260D01*
X5238635Y45813440D01*
X5187190Y45855408D01*
X5120386Y45896696D01*
X5180988Y45933551D01*
X5182075Y45934217D01*
X5233784Y45976591D01*
X5273756Y46026450D01*
X5305922Y46082495D01*
X5340941Y46024910D01*
G37*
G36*
X5340941Y45500999D02*
G01*
X5381478Y45451805D01*
X5433645Y45410592D01*
X5441266Y45406152D01*
X5481167Y45376631D01*
X5489507Y45356260D01*
X5464479Y45348664D01*
X5441488Y45338398D01*
X5402947Y45305967D01*
X5362228Y45262428D01*
X5329890Y45219250D01*
X5316492Y45187904D01*
X5314697Y45184096D01*
X5300039Y45196876D01*
X5275536Y45234175D01*
X5269672Y45243711D01*
X5225586Y45298082D01*
X5177272Y45338142D01*
X5119518Y45372257D01*
X5180555Y45409376D01*
X5182076Y45410312D01*
X5233872Y45452817D01*
X5273756Y45502539D01*
X5305922Y45558584D01*
X5340941Y45500999D01*
G37*
G36*
X5341770Y40300396D02*
G01*
X5380925Y40251756D01*
X5432666Y40210848D01*
X5439769Y40206783D01*
X5476445Y40184862D01*
X5491452Y40174196D01*
X5489940Y40172541D01*
X5467272Y40156658D01*
X5426026Y40130416D01*
X5419053Y40125890D01*
X5368413Y40081647D01*
X5332851Y40032864D01*
X5305226Y39975825D01*
X5270288Y40040701D01*
X5268618Y40043713D01*
X5225296Y40098154D01*
X5171322Y40140059D01*
X5107294Y40174540D01*
X5168070Y40205108D01*
X5170192Y40206200D01*
X5223997Y40245494D01*
X5269191Y40296118D01*
X5309536Y40356559D01*
X5341770Y40300396D01*
G37*
G36*
X5316865Y39819412D02*
G01*
X5323612Y39798530D01*
X5352815Y39756829D01*
X5394759Y39712573D01*
X5438007Y39677369D01*
X5471126Y39662823D01*
X5477052Y39662334D01*
X5481490Y39651402D01*
X5452767Y39624447D01*
X5451382Y39623367D01*
X5414567Y39597162D01*
X5392759Y39586070D01*
X5389801Y39584684D01*
X5370851Y39561485D01*
X5345293Y39518849D01*
X5309325Y39452061D01*
X5275483Y39507709D01*
X5274178Y39509819D01*
X5233106Y39561046D01*
X5182660Y39606964D01*
X5123679Y39650571D01*
X5181677Y39685842D01*
X5184544Y39687632D01*
X5235518Y39730922D01*
X5278234Y39784353D01*
X5287442Y39798634D01*
X5308444Y39823161D01*
X5316865Y39819412D01*
G37*
G36*
X4814755Y44992312D02*
G01*
X4857615Y44951220D01*
X4899606Y44911537D01*
X4946369Y44876561D01*
X4978890Y44862801D01*
X4989391Y44861919D01*
X4991167Y44853873D01*
X4957000Y44836267D01*
X4942494Y44828929D01*
X4893070Y44793300D01*
X4844617Y44746506D01*
X4807545Y44699485D01*
X4792267Y44663179D01*
X4791644Y44660046D01*
X4781815Y44668442D01*
X4764041Y44703612D01*
X4758959Y44713857D01*
X4718718Y44765887D01*
X4665898Y44808510D01*
X4653204Y44816073D01*
X4618127Y44840022D01*
X4612177Y44855233D01*
X4631061Y44869184D01*
X4676848Y44899929D01*
X4723544Y44941607D01*
X4759336Y44982885D01*
X4773622Y45013062D01*
X4784490Y45014382D01*
X4814755Y44992312D01*
G37*
G36*
X4788491Y40866107D02*
G01*
X4812679Y40831595D01*
X4817575Y40824041D01*
X4864740Y40770502D01*
X4921087Y40726770D01*
X4990584Y40685766D01*
X4931707Y40661010D01*
X4923320Y40657038D01*
X4872640Y40619714D01*
X4829097Y40569539D01*
X4785364Y40502823D01*
X4753372Y40562475D01*
X4713518Y40612826D01*
X4660623Y40652050D01*
X4647644Y40658735D01*
X4609091Y40685028D01*
X4601088Y40703869D01*
X4626081Y40711078D01*
X4649207Y40721399D01*
X4687777Y40753897D01*
X4728423Y40797471D01*
X4760583Y40840619D01*
X4773695Y40871837D01*
X4774823Y40875602D01*
X4788491Y40866107D01*
G37*
G36*
X4821091Y40296230D02*
G01*
X4822700Y40293854D01*
X4868671Y40243764D01*
X4922154Y40206570D01*
X4933557Y40200775D01*
X4967570Y40175346D01*
X4970073Y40156028D01*
X4939422Y40148358D01*
X4916306Y40137717D01*
X4878118Y40105011D01*
X4837839Y40061416D01*
X4805955Y40018442D01*
X4792954Y39987599D01*
X4791889Y39983863D01*
X4778377Y39993011D01*
X4754323Y40027260D01*
X4752540Y40030124D01*
X4708190Y40084001D01*
X4656369Y40126621D01*
X4596973Y40162742D01*
X4663300Y40201876D01*
X4670714Y40206506D01*
X4720992Y40250081D01*
X4755250Y40298896D01*
X4780873Y40356783D01*
X4821091Y40296230D01*
G37*
G36*
X4834599Y45483755D02*
G01*
X4850538Y45463343D01*
X4892501Y45420455D01*
X4927783Y45397514D01*
X4931091Y45396401D01*
X4960681Y45377661D01*
X4966470Y45357858D01*
X4944470Y45348664D01*
X4936401Y45347134D01*
X4901003Y45325875D01*
X4860169Y45289189D01*
X4826458Y45249419D01*
X4812431Y45218906D01*
X4812298Y45214015D01*
X4802731Y45194476D01*
X4780820Y45207612D01*
X4750502Y45251361D01*
X4711518Y45301242D01*
X4660095Y45344065D01*
X4602511Y45379084D01*
X4659534Y45411811D01*
X4707652Y45449846D01*
X4748926Y45500938D01*
X4781296Y45557339D01*
X4834599Y45483755D01*
G37*
G36*
X4288519Y45535013D02*
G01*
X4298841Y45511887D01*
X4331338Y45473317D01*
X4374913Y45432671D01*
X4418061Y45400511D01*
X4449278Y45387399D01*
X4453014Y45386334D01*
X4443866Y45372822D01*
X4409618Y45348768D01*
X4406500Y45346824D01*
X4353010Y45302939D01*
X4311106Y45252212D01*
X4275835Y45194213D01*
X4232228Y45253194D01*
X4230560Y45255422D01*
X4183855Y45305936D01*
X4132973Y45346017D01*
X4077325Y45379859D01*
X4143754Y45415634D01*
X4150594Y45419532D01*
X4200899Y45460246D01*
X4234684Y45506759D01*
X4239373Y45516843D01*
X4263026Y45553283D01*
X4281233Y45560298D01*
X4288519Y45535013D01*
G37*
G36*
X4307129Y44976414D02*
G01*
X4308125Y44974590D01*
X4349632Y44922452D01*
X4401518Y44883780D01*
X4408942Y44880093D01*
X4446986Y44859999D01*
X4462716Y44849506D01*
X4462405Y44848840D01*
X4443460Y44836149D01*
X4404086Y44814606D01*
X4352100Y44775964D01*
X4309160Y44725100D01*
X4273305Y44666141D01*
X4238615Y44724866D01*
X4237609Y44726540D01*
X4194581Y44777232D01*
X4140552Y44817719D01*
X4077177Y44851849D01*
X4137256Y44880946D01*
X4141845Y44883296D01*
X4193298Y44922792D01*
X4235416Y44974584D01*
X4273496Y45039126D01*
X4307129Y44976414D01*
G37*
G36*
X4310687Y44456194D02*
G01*
X4311353Y44455108D01*
X4353727Y44403399D01*
X4403586Y44363426D01*
X4459631Y44331261D01*
X4402046Y44296242D01*
X4352853Y44255705D01*
X4311639Y44203538D01*
X4308279Y44197719D01*
X4284196Y44160903D01*
X4269115Y44145853D01*
X4267969Y44146147D01*
X4251173Y44164784D01*
X4226591Y44203538D01*
X4226404Y44203866D01*
X4185582Y44255190D01*
X4133670Y44297771D01*
X4073572Y44334319D01*
X4132363Y44358671D01*
X4140168Y44362307D01*
X4190263Y44399450D01*
X4232494Y44449910D01*
X4273832Y44516797D01*
X4310687Y44456194D01*
G37*
G36*
X4304785Y41342673D02*
G01*
X4311426Y41332101D01*
X4355949Y41278203D01*
X4404046Y41239099D01*
X4461728Y41205993D01*
X4397454Y41173018D01*
X4394416Y41171410D01*
X4341958Y41130400D01*
X4303713Y41079202D01*
X4274247Y41018361D01*
X4229952Y41090031D01*
X4220716Y41103783D01*
X4175518Y41153565D01*
X4128608Y41185690D01*
X4071558Y41209677D01*
X4142110Y41251304D01*
X4153730Y41258742D01*
X4204424Y41303869D01*
X4237935Y41353036D01*
X4263207Y41413142D01*
X4304785Y41342673D01*
G37*
G36*
X4283284Y40852270D02*
G01*
X4311876Y40807969D01*
X4311879Y40807963D01*
X4349740Y40760323D01*
X4394343Y40727361D01*
X4415281Y40717234D01*
X4439386Y40697799D01*
X4429712Y40677505D01*
X4385411Y40648913D01*
X4385404Y40648909D01*
X4337764Y40611049D01*
X4304802Y40566445D01*
X4294675Y40545508D01*
X4275240Y40521403D01*
X4254947Y40531077D01*
X4226355Y40575378D01*
X4226351Y40575384D01*
X4188490Y40623024D01*
X4143887Y40655986D01*
X4122949Y40666113D01*
X4098844Y40685548D01*
X4108518Y40705842D01*
X4152819Y40734434D01*
X4152826Y40734438D01*
X4200466Y40772298D01*
X4233428Y40816902D01*
X4243555Y40837839D01*
X4262990Y40861944D01*
X4283284Y40852270D01*
G37*
G36*
X4286095Y40324744D02*
G01*
X4317802Y40278588D01*
X4321813Y40272417D01*
X4360794Y40226333D01*
X4400270Y40197118D01*
X4404161Y40195381D01*
X4437872Y40174533D01*
X4434871Y40155316D01*
X4394683Y40132230D01*
X4386715Y40128012D01*
X4343575Y40091561D01*
X4305174Y40041332D01*
X4264734Y39972793D01*
X4231468Y40034821D01*
X4231224Y40035274D01*
X4189524Y40088629D01*
X4136174Y40130115D01*
X4074146Y40163381D01*
X4142685Y40203821D01*
X4153415Y40210572D01*
X4202234Y40251400D01*
X4233583Y40293330D01*
X4246499Y40319355D01*
X4264861Y40337889D01*
X4286095Y40324744D01*
G37*
G36*
X3753460Y45035607D02*
G01*
X3764608Y45011102D01*
X3774930Y44987976D01*
X3807427Y44949406D01*
X3851001Y44908760D01*
X3894149Y44876599D01*
X3925367Y44863488D01*
X3929102Y44862423D01*
X3919955Y44848911D01*
X3885706Y44824857D01*
X3883084Y44823226D01*
X3828840Y44778439D01*
X3785539Y44725577D01*
X3748612Y44664856D01*
X3717450Y44725117D01*
X3711866Y44734731D01*
X3668805Y44783898D01*
X3613874Y44823612D01*
X3593750Y44834819D01*
X3565445Y44854516D01*
X3565040Y44862703D01*
X3590373Y44872668D01*
X3632472Y44902888D01*
X3676698Y44943070D01*
X3711619Y44982660D01*
X3725800Y45011102D01*
X3727655Y45022631D01*
X3745204Y45038198D01*
X3753460Y45035607D01*
G37*
G36*
X3786775Y44456194D02*
G01*
X3787536Y44454956D01*
X3829633Y44403472D01*
X3878815Y44363920D01*
X3934001Y44332248D01*
X3873559Y44291902D01*
X3871361Y44290409D01*
X3820898Y44244525D01*
X3782836Y44191362D01*
X3752553Y44131167D01*
X3714921Y44201451D01*
X3709490Y44210886D01*
X3666212Y44264332D01*
X3616668Y44302036D01*
X3556048Y44332338D01*
X3611022Y44356672D01*
X3619345Y44360866D01*
X3666818Y44398310D01*
X3707959Y44448902D01*
X3749921Y44516797D01*
X3786775Y44456194D01*
G37*
G36*
X3788716Y43942233D02*
G01*
X3792116Y43935957D01*
X3833431Y43882571D01*
X3882521Y43844074D01*
X3941655Y43813495D01*
X3877387Y43770570D01*
X3871230Y43766283D01*
X3820199Y43719395D01*
X3782918Y43667619D01*
X3752719Y43607592D01*
X3711284Y43679588D01*
X3703489Y43692091D01*
X3659220Y43744297D01*
X3611557Y43779814D01*
X3553266Y43808045D01*
X3618143Y43842984D01*
X3622048Y43845169D01*
X3676359Y43889021D01*
X3718533Y43943867D01*
X3754046Y44009811D01*
X3788716Y43942233D01*
G37*
G36*
X3786793Y43422070D02*
G01*
X3791107Y43414220D01*
X3832344Y43362663D01*
X3880553Y43327737D01*
X3893699Y43321570D01*
X3930391Y43297642D01*
X3937505Y43279571D01*
X3912149Y43272422D01*
X3888792Y43262786D01*
X3849698Y43229676D01*
X3809166Y43184054D01*
X3777322Y43137591D01*
X3764289Y43101961D01*
X3761504Y43095035D01*
X3745727Y43107261D01*
X3720337Y43146295D01*
X3709663Y43163417D01*
X3662696Y43218350D01*
X3611995Y43256369D01*
X3547286Y43288825D01*
X3608801Y43320636D01*
X3616873Y43325191D01*
X3668485Y43367661D01*
X3711021Y43421435D01*
X3751725Y43490424D01*
X3786793Y43422070D01*
G37*
G36*
X3782836Y42915916D02*
G01*
X3784418Y42912861D01*
X3824060Y42860139D01*
X3875434Y42816526D01*
X3886314Y42809587D01*
X3923072Y42783411D01*
X3938078Y42767915D01*
X3937561Y42766360D01*
X3917034Y42750751D01*
X3875762Y42729107D01*
X3824339Y42691804D01*
X3784012Y42637357D01*
X3780061Y42629039D01*
X3758907Y42590417D01*
X3745204Y42574714D01*
X3743658Y42575268D01*
X3728050Y42595987D01*
X3706395Y42637357D01*
X3669093Y42688780D01*
X3614646Y42729107D01*
X3606325Y42733059D01*
X3567711Y42754212D01*
X3552023Y42767915D01*
X3552629Y42769553D01*
X3573435Y42785624D01*
X3614666Y42808118D01*
X3622051Y42812044D01*
X3673741Y42853720D01*
X3714921Y42907508D01*
X3752553Y42976397D01*
X3782836Y42915916D01*
G37*
G36*
X3757727Y42423429D02*
G01*
X3788290Y42379136D01*
X3828043Y42328960D01*
X3880336Y42287089D01*
X3887462Y42283013D01*
X3924123Y42261210D01*
X3939122Y42250771D01*
X3937144Y42248884D01*
X3913091Y42233058D01*
X3870451Y42207247D01*
X3860842Y42201146D01*
X3809977Y42155741D01*
X3775690Y42104903D01*
X3749724Y42043148D01*
X3717154Y42106132D01*
X3712841Y42113832D01*
X3669981Y42166551D01*
X3615991Y42209587D01*
X3605465Y42215847D01*
X3570093Y42239811D01*
X3564093Y42254982D01*
X3583238Y42269032D01*
X3629228Y42299955D01*
X3675802Y42341525D01*
X3711531Y42382626D01*
X3725800Y42412569D01*
X3725959Y42417938D01*
X3735679Y42437043D01*
X3757727Y42423429D01*
G37*
G36*
X3781371Y41871072D02*
G01*
X3781820Y41870182D01*
X3821845Y41814353D01*
X3873132Y41768704D01*
X3933146Y41729794D01*
X3877806Y41696014D01*
X3828113Y41654684D01*
X3786193Y41602589D01*
X3749921Y41542944D01*
X3707959Y41610839D01*
X3701447Y41620713D01*
X3657238Y41670390D01*
X3610117Y41703470D01*
X3554236Y41728205D01*
X3611670Y41763133D01*
X3618443Y41767534D01*
X3667742Y41811786D01*
X3709363Y41866296D01*
X3749623Y41934531D01*
X3781371Y41871072D01*
G37*
G36*
X3775082Y41355784D02*
G01*
X3775191Y41355527D01*
X3811449Y41300943D01*
X3860771Y41258763D01*
X3867583Y41254822D01*
X3904530Y41230625D01*
X3919595Y41215585D01*
X3919267Y41214366D01*
X3900417Y41197484D01*
X3861499Y41172824D01*
X3861493Y41172821D01*
X3813853Y41134960D01*
X3780891Y41090357D01*
X3777522Y41083126D01*
X3754351Y41047419D01*
X3733548Y41049565D01*
X3709906Y41089503D01*
X3709830Y41089669D01*
X3677337Y41134139D01*
X3630405Y41172951D01*
X3573028Y41207844D01*
X3640853Y41261962D01*
X3655744Y41274667D01*
X3700698Y41322958D01*
X3728447Y41367704D01*
X3748217Y41419328D01*
X3775082Y41355784D01*
G37*
G36*
X3757543Y40851947D02*
G01*
X3787964Y40807969D01*
X3787968Y40807963D01*
X3825829Y40760323D01*
X3870432Y40727361D01*
X3877984Y40723839D01*
X3913460Y40700708D01*
X3911047Y40679894D01*
X3870771Y40656141D01*
X3862240Y40651578D01*
X3819181Y40614848D01*
X3780756Y40564386D01*
X3739811Y40494989D01*
X3710475Y40555560D01*
X3706344Y40563273D01*
X3665121Y40612915D01*
X3611300Y40652323D01*
X3601854Y40657252D01*
X3565327Y40678804D01*
X3559459Y40691782D01*
X3580269Y40702640D01*
X3583910Y40704047D01*
X3628708Y40730362D01*
X3674969Y40769224D01*
X3711172Y40809695D01*
X3725800Y40840835D01*
X3725943Y40845929D01*
X3735575Y40865285D01*
X3757543Y40851947D01*
G37*
G36*
X3268836Y42896271D02*
G01*
X3270279Y42894137D01*
X3316724Y42844000D01*
X3371438Y42806723D01*
X3379911Y42802740D01*
X3418440Y42783545D01*
X3434318Y42773676D01*
X3433405Y42772528D01*
X3411463Y42759676D01*
X3369328Y42738697D01*
X3364353Y42736199D01*
X3310143Y42694857D01*
X3268188Y42641309D01*
X3232457Y42574960D01*
X3195620Y42639417D01*
X3193416Y42643164D01*
X3150837Y42696826D01*
X3101030Y42737989D01*
X3043277Y42772105D01*
X3104313Y42809223D01*
X3105986Y42810253D01*
X3157556Y42852480D01*
X3197022Y42901527D01*
X3228694Y42956712D01*
X3268836Y42896271D01*
G37*
G36*
X3239839Y42431253D02*
G01*
X3247445Y42406547D01*
X3278635Y42361012D01*
X3323475Y42314355D01*
X3370574Y42277929D01*
X3408542Y42263088D01*
X3418036Y42261227D01*
X3410885Y42246995D01*
X3368843Y42219429D01*
X3353402Y42209751D01*
X3298868Y42163862D01*
X3260693Y42114862D01*
X3228140Y42053634D01*
X3194433Y42116224D01*
X3193880Y42117241D01*
X3152883Y42171138D01*
X3102002Y42213504D01*
X3043277Y42248193D01*
X3102292Y42284082D01*
X3112011Y42290609D01*
X3160487Y42336876D01*
X3200144Y42393561D01*
X3212918Y42416420D01*
X3232606Y42441575D01*
X3239839Y42431253D01*
G37*
G36*
X3262600Y44456628D02*
G01*
X3263537Y44455106D01*
X3306042Y44403311D01*
X3355763Y44363426D01*
X3411808Y44331261D01*
X3355181Y44296824D01*
X3304692Y44255143D01*
X3262282Y44202742D01*
X3226009Y44143097D01*
X3184671Y44209984D01*
X3179005Y44218584D01*
X3133730Y44268260D01*
X3083815Y44301523D01*
X3024298Y44326176D01*
X3090774Y44364167D01*
X3096601Y44367637D01*
X3150598Y44410707D01*
X3191366Y44459911D01*
X3225482Y44517664D01*
X3262600Y44456628D01*
G37*
G36*
X3252934Y43952091D02*
G01*
X3257560Y43942563D01*
X3295911Y43893198D01*
X3347545Y43851900D01*
X3417346Y43810717D01*
X3357950Y43774597D01*
X3306176Y43732739D01*
X3264117Y43681849D01*
X3229680Y43625222D01*
X3197515Y43681267D01*
X3158433Y43730513D01*
X3107233Y43772654D01*
X3049117Y43807997D01*
X3117046Y43862199D01*
X3132217Y43875015D01*
X3177727Y43921785D01*
X3206549Y43963750D01*
X3228123Y44011099D01*
X3252934Y43952091D01*
G37*
G36*
X3236303Y43466052D02*
G01*
X3260578Y43431371D01*
X3263432Y43426838D01*
X3307405Y43374165D01*
X3357403Y43334351D01*
X3363223Y43330990D01*
X3400038Y43306908D01*
X3415088Y43291826D01*
X3414795Y43290681D01*
X3396157Y43273884D01*
X3357403Y43249302D01*
X3355938Y43248456D01*
X3304922Y43207327D01*
X3262435Y43155172D01*
X3258019Y43147939D01*
X3235115Y43114244D01*
X3222463Y43110707D01*
X3212384Y43134094D01*
X3202309Y43153324D01*
X3167490Y43196566D01*
X3119643Y43242777D01*
X3088388Y43271467D01*
X3064916Y43300639D01*
X3070259Y43311230D01*
X3093363Y43320612D01*
X3133118Y43352470D01*
X3174900Y43395976D01*
X3207914Y43439644D01*
X3221365Y43471990D01*
X3222535Y43475772D01*
X3236303Y43466052D01*
G37*
G36*
X3258924Y41868093D02*
G01*
X3259603Y41866756D01*
X3298596Y41813229D01*
X3349220Y41768704D01*
X3409234Y41729794D01*
X3353894Y41696014D01*
X3305931Y41656705D01*
X3263794Y41605076D01*
X3229033Y41547917D01*
X3174831Y41615846D01*
X3161888Y41631180D01*
X3115657Y41676373D01*
X3074621Y41704738D01*
X3028613Y41725701D01*
X3090995Y41758659D01*
X3097695Y41762462D01*
X3149561Y41805604D01*
X3191010Y41860095D01*
X3228642Y41928574D01*
X3258924Y41868093D01*
G37*
G36*
X3233664Y41375840D02*
G01*
X3264378Y41331314D01*
X3303649Y41281250D01*
X3354056Y41240342D01*
X3410350Y41208034D01*
X3351278Y41176353D01*
X3350126Y41175727D01*
X3299151Y41135073D01*
X3258790Y41082366D01*
X3225375Y41020059D01*
X3184404Y41086351D01*
X3180001Y41093123D01*
X3133504Y41145496D01*
X3080491Y41183672D01*
X3068447Y41189851D01*
X3040594Y41207734D01*
X3041129Y41215143D01*
X3066412Y41224875D01*
X3108477Y41254909D01*
X3152725Y41295002D01*
X3187686Y41334594D01*
X3201888Y41363126D01*
X3202061Y41368956D01*
X3211723Y41388983D01*
X3233664Y41375840D01*
G37*
G36*
X2716712Y43471990D02*
G01*
X2725578Y43447359D01*
X2755555Y43405031D01*
X2796452Y43360576D01*
X2837471Y43325481D01*
X2867819Y43311230D01*
X2874720Y43306164D01*
X2860021Y43282424D01*
X2818435Y43242777D01*
X2788615Y43215254D01*
X2747309Y43169287D01*
X2725694Y43134094D01*
X2724166Y43129364D01*
X2714188Y43109517D01*
X2700574Y43117041D01*
X2675642Y43155172D01*
X2674684Y43156727D01*
X2631574Y43208895D01*
X2580674Y43249302D01*
X2574855Y43252662D01*
X2538039Y43276745D01*
X2522989Y43291826D01*
X2523283Y43292972D01*
X2541920Y43309769D01*
X2580674Y43334351D01*
X2584770Y43336782D01*
X2635136Y43378638D01*
X2677499Y43431371D01*
X2686919Y43446123D01*
X2708188Y43472695D01*
X2716712Y43471990D01*
G37*
G36*
X2741617Y42900548D02*
G01*
X2780772Y42851909D01*
X2832514Y42811001D01*
X2839639Y42806925D01*
X2876300Y42785122D01*
X2891299Y42774683D01*
X2889937Y42773263D01*
X2867462Y42758296D01*
X2826101Y42733208D01*
X2819839Y42729321D01*
X2769477Y42685631D01*
X2734726Y42635807D01*
X2708672Y42576947D01*
X2673744Y42634381D01*
X2669343Y42641155D01*
X2625091Y42690454D01*
X2570582Y42732075D01*
X2502346Y42772334D01*
X2565520Y42804082D01*
X2567316Y42805000D01*
X2622950Y42845119D01*
X2669038Y42896271D01*
X2709383Y42956712D01*
X2741617Y42900548D01*
G37*
G36*
X2741481Y42376874D02*
G01*
X2780710Y42328090D01*
X2832514Y42287089D01*
X2839639Y42283013D01*
X2876300Y42261210D01*
X2891299Y42250771D01*
X2889133Y42248745D01*
X2864649Y42232684D01*
X2821657Y42206674D01*
X2809946Y42199181D01*
X2761330Y42155923D01*
X2730917Y42109944D01*
X2709943Y42054376D01*
X2669243Y42114771D01*
X2667466Y42117362D01*
X2620716Y42171213D01*
X2566125Y42217229D01*
X2503707Y42259293D01*
X2552212Y42271467D01*
X2567678Y42277725D01*
X2612092Y42310620D01*
X2654914Y42358458D01*
X2709112Y42433275D01*
X2741481Y42376874D01*
G37*
D12*
%TO.C,R17*%
X15393641Y6478000D02*
X15086359Y6478000D01*
X15393641Y7238000D02*
X15086359Y7238000D01*
%TO.C,J3*%
X15950000Y51328000D02*
X15950000Y53228000D01*
X15950000Y53228000D02*
X14050000Y53228000D01*
X14050000Y51328000D02*
X15950000Y51328000D01*
X14050000Y53228000D02*
X14050000Y51328000D01*
%TO.C,R7*%
X10012000Y7953836D02*
X10012000Y7738164D01*
X9292000Y7953836D02*
X9292000Y7738164D01*
%TO.C,R1*%
X20426000Y7981836D02*
X20426000Y7766164D01*
X19706000Y7981836D02*
X19706000Y7766164D01*
%TO.C,J8*%
X12950000Y51328000D02*
X12950000Y53228000D01*
X12950000Y53228000D02*
X11050000Y53228000D01*
X11050000Y51328000D02*
X12950000Y51328000D01*
X11050000Y53228000D02*
X11050000Y51328000D01*
%TO.C,J7*%
X18950000Y51328000D02*
X18950000Y53228000D01*
X18950000Y53228000D02*
X17050000Y53228000D01*
X17050000Y51328000D02*
X18950000Y51328000D01*
X17050000Y53228000D02*
X17050000Y51328000D01*
%TO.C,R16*%
X15086359Y9270000D02*
X15393641Y9270000D01*
X15086359Y8510000D02*
X15393641Y8510000D01*
%TD*%
%LPC*%
D13*
%TO.C,J5*%
X16510000Y55880000D03*
X11430000Y54864000D03*
X11430000Y56896000D03*
%TD*%
D14*
%TO.C,H3*%
X4000000Y4000000D03*
%TD*%
D15*
%TO.C,J10*%
X25176100Y20150800D03*
X25176100Y25300800D03*
%TD*%
D16*
%TO.C,J6*%
X11642000Y6794000D03*
D17*
X11641999Y8793999D03*
X11641999Y10793999D03*
%TD*%
D14*
%TO.C,H2*%
X36000000Y4000000D03*
%TD*%
D18*
%TO.C,J2*%
X34289999Y23955999D03*
D19*
X34290000Y28956000D03*
X34290000Y33956000D03*
X34290000Y38956000D03*
X34290000Y43956000D03*
X34290000Y48956000D03*
%TD*%
D14*
%TO.C,H1*%
X4000000Y56000000D03*
%TD*%
D18*
%TO.C,J4*%
X34289999Y11175999D03*
D19*
X34290000Y16176000D03*
%TD*%
D20*
%TO.C,J9*%
X25176100Y9850000D03*
X25176100Y4700000D03*
%TD*%
D14*
%TO.C,H4*%
X36000000Y56000000D03*
%TD*%
D16*
%TO.C,J1*%
X18288000Y6858000D03*
D17*
X18287999Y8857999D03*
X18287999Y10857999D03*
%TD*%
D21*
%TO.C,R17*%
X15750000Y6858000D03*
X14730000Y6858000D03*
%TD*%
D22*
%TO.C,J3*%
X14999999Y52277999D03*
%TD*%
D23*
%TO.C,R7*%
X9652000Y8326000D03*
X9652000Y7366000D03*
%TD*%
%TO.C,R1*%
X20066000Y8354000D03*
X20066000Y7394000D03*
%TD*%
D22*
%TO.C,J8*%
X11999999Y52277999D03*
%TD*%
%TO.C,J7*%
X17999999Y52277999D03*
%TD*%
D24*
%TO.C,R16*%
X14730000Y8890000D03*
X15750000Y8890000D03*
%TD*%
M02*
