%TF.GenerationSoftware,KiCad,Pcbnew,(7.0.0)*%
%TF.CreationDate,2023-03-11T20:41:09+01:00*%
%TF.ProjectId,StripController,53747269-7043-46f6-9e74-726f6c6c6572,rev?*%
%TF.SameCoordinates,Original*%
%TF.FileFunction,Copper,L2,Bot*%
%TF.FilePolarity,Positive*%
%FSLAX46Y46*%
G04 Gerber Fmt 4.6, Leading zero omitted, Abs format (unit mm)*
G04 Created by KiCad (PCBNEW (7.0.0)) date 2023-03-11 20:41:09*
%MOMM*%
%LPD*%
G01*
G04 APERTURE LIST*
G04 Aperture macros list*
%AMRoundRect*
0 Rectangle with rounded corners*
0 $1 Rounding radius*
0 $2 $3 $4 $5 $6 $7 $8 $9 X,Y pos of 4 corners*
0 Add a 4 corners polygon primitive as box body*
4,1,4,$2,$3,$4,$5,$6,$7,$8,$9,$2,$3,0*
0 Add four circle primitives for the rounded corners*
1,1,$1+$1,$2,$3*
1,1,$1+$1,$4,$5*
1,1,$1+$1,$6,$7*
1,1,$1+$1,$8,$9*
0 Add four rect primitives between the rounded corners*
20,1,$1+$1,$2,$3,$4,$5,0*
20,1,$1+$1,$4,$5,$6,$7,0*
20,1,$1+$1,$6,$7,$8,$9,0*
20,1,$1+$1,$8,$9,$2,$3,0*%
G04 Aperture macros list end*
%TA.AperFunction,ComponentPad*%
%ADD10RoundRect,0.575000X0.575000X-0.575000X0.575000X0.575000X-0.575000X0.575000X-0.575000X-0.575000X0*%
%TD*%
%TA.AperFunction,ComponentPad*%
%ADD11RoundRect,0.250000X0.625000X-0.350000X0.625000X0.350000X-0.625000X0.350000X-0.625000X-0.350000X0*%
%TD*%
%TA.AperFunction,ComponentPad*%
%ADD12O,1.750000X1.200000*%
%TD*%
%TA.AperFunction,ComponentPad*%
%ADD13R,2.600000X2.600000*%
%TD*%
%TA.AperFunction,ComponentPad*%
%ADD14C,2.600000*%
%TD*%
%TA.AperFunction,ComponentPad*%
%ADD15RoundRect,0.575000X-0.575000X0.575000X-0.575000X-0.575000X0.575000X-0.575000X0.575000X0.575000X0*%
%TD*%
%TA.AperFunction,ComponentPad*%
%ADD16C,0.500000*%
%TD*%
%TA.AperFunction,SMDPad,CuDef*%
%ADD17R,1.650000X1.650000*%
%TD*%
%TA.AperFunction,SMDPad,CuDef*%
%ADD18RoundRect,0.135000X0.135000X0.185000X-0.135000X0.185000X-0.135000X-0.185000X0.135000X-0.185000X0*%
%TD*%
%TA.AperFunction,SMDPad,CuDef*%
%ADD19R,1.500000X1.500000*%
%TD*%
%TA.AperFunction,SMDPad,CuDef*%
%ADD20RoundRect,0.140000X-0.170000X0.140000X-0.170000X-0.140000X0.170000X-0.140000X0.170000X0.140000X0*%
%TD*%
%TA.AperFunction,SMDPad,CuDef*%
%ADD21RoundRect,0.135000X-0.135000X-0.185000X0.135000X-0.185000X0.135000X0.185000X-0.135000X0.185000X0*%
%TD*%
%TA.AperFunction,ViaPad*%
%ADD22C,0.400000*%
%TD*%
%TA.AperFunction,ViaPad*%
%ADD23C,0.800000*%
%TD*%
%TA.AperFunction,Conductor*%
%ADD24C,0.250000*%
%TD*%
%TA.AperFunction,Conductor*%
%ADD25C,0.152400*%
%TD*%
%TA.AperFunction,Conductor*%
%ADD26C,0.254000*%
%TD*%
G04 APERTURE END LIST*
D10*
%TO.P,J10,1,Pin_1*%
%TO.N,VCC*%
X25176100Y20150800D03*
X25176100Y25300800D03*
%TD*%
D11*
%TO.P,J6,1,Pin_1*%
%TO.N,TA*%
X11642000Y6794000D03*
D12*
%TO.P,J6,2,Pin_2*%
%TO.N,TB*%
X11641999Y8793999D03*
%TO.P,J6,3,Pin_3*%
%TO.N,GND*%
X11641999Y10793999D03*
%TD*%
D13*
%TO.P,J2,1,Pin_1*%
%TO.N,VCC*%
X34289999Y23955999D03*
D14*
%TO.P,J2,2,Pin_2*%
%TO.N,R_OUT*%
X34290000Y28956000D03*
%TO.P,J2,3,Pin_3*%
%TO.N,G_OUT*%
X34290000Y33956000D03*
%TO.P,J2,4,Pin_4*%
%TO.N,B_OUT*%
X34290000Y38956000D03*
%TO.P,J2,5,Pin_5*%
%TO.N,W_OUT*%
X34290000Y43956000D03*
%TO.P,J2,6,Pin_6*%
%TO.N,WW_OUT*%
X34290000Y48956000D03*
%TD*%
D13*
%TO.P,J4,1,Pin_1*%
%TO.N,Net-(J4-Pin_1)*%
X34289999Y11175999D03*
D14*
%TO.P,J4,2,Pin_2*%
%TO.N,GND*%
X34290000Y16176000D03*
%TD*%
D15*
%TO.P,J9,1,Pin_1*%
%TO.N,Net-(J4-Pin_1)*%
X25176100Y9850000D03*
X25176100Y4700000D03*
%TD*%
D16*
%TO.P,IC2,21,Vss_Pad*%
%TO.N,GND*%
X12281000Y45983000D03*
X13431000Y45983000D03*
D17*
X12855999Y46557999D03*
D16*
X12281000Y47133000D03*
X13431000Y47133000D03*
%TD*%
D11*
%TO.P,J1,1,Pin_1*%
%TO.N,RA*%
X18288000Y6858000D03*
D12*
%TO.P,J1,2,Pin_2*%
%TO.N,RB*%
X18287999Y8857999D03*
%TO.P,J1,3,Pin_3*%
%TO.N,GND*%
X18287999Y10857999D03*
%TD*%
D18*
%TO.P,R17,1*%
%TO.N,RA*%
X15750000Y6858000D03*
%TO.P,R17,2*%
%TO.N,TA*%
X14730000Y6858000D03*
%TD*%
D19*
%TO.P,J3,1,Pin_1*%
%TO.N,SWD*%
X14999999Y52277999D03*
%TD*%
D20*
%TO.P,R7,1*%
%TO.N,TB*%
X9652000Y8326000D03*
%TO.P,R7,2*%
%TO.N,TA*%
X9652000Y7366000D03*
%TD*%
%TO.P,R1,1*%
%TO.N,RB*%
X20066000Y8354000D03*
%TO.P,R1,2*%
%TO.N,RA*%
X20066000Y7394000D03*
%TD*%
D19*
%TO.P,J8,1,Pin_1*%
%TO.N,GND*%
X11999999Y52277999D03*
%TD*%
%TO.P,J7,1,Pin_1*%
%TO.N,+5V*%
X17999999Y52277999D03*
%TD*%
D21*
%TO.P,R16,1*%
%TO.N,TB*%
X14730000Y8890000D03*
%TO.P,R16,2*%
%TO.N,RB*%
X15750000Y8890000D03*
%TD*%
D22*
%TO.N,VCC*%
X21031200Y30810200D03*
%TO.N,GND*%
X23114000Y46228000D03*
X1270000Y33528000D03*
X23114000Y50800000D03*
X12700000Y57600000D03*
D23*
X17272000Y16764000D03*
D22*
X23622000Y35306000D03*
X23487000Y57732800D03*
X15798800Y43990200D03*
X2119000Y48858400D03*
X23622000Y50800000D03*
X23622000Y46736000D03*
X23622000Y35814000D03*
X23114000Y35306000D03*
X7645400Y8128000D03*
X23114000Y40640000D03*
X23876000Y30226000D03*
X23114000Y41656000D03*
X13581000Y39832000D03*
X23368000Y30734000D03*
X23114000Y48260000D03*
X1270000Y34036000D03*
X23368000Y30226000D03*
X23876000Y30734000D03*
X23114000Y51816000D03*
X23114000Y43180000D03*
X22098000Y34785400D03*
X23114000Y46736000D03*
X762000Y33528000D03*
X13716000Y18034000D03*
X6121400Y14046200D03*
X19956400Y26420800D03*
X20540600Y36149000D03*
X23622000Y41656000D03*
X22098000Y30734000D03*
X23114000Y38100000D03*
X2119000Y47607800D03*
X23114000Y35814000D03*
X23368000Y31242000D03*
X19050000Y33528000D03*
D23*
X17272000Y15748000D03*
D22*
X23114000Y32766000D03*
X762000Y34036000D03*
X13454000Y44272200D03*
X18542000Y34036000D03*
X23622000Y46228000D03*
X23114000Y41148000D03*
X23114000Y36322000D03*
X15240000Y40622000D03*
X23622000Y51816000D03*
X19050000Y34036000D03*
X8813800Y15875000D03*
X9644000Y42598000D03*
X6121400Y21132800D03*
X23622000Y40640000D03*
X15392400Y28219400D03*
X13716000Y17526000D03*
X23114000Y51308000D03*
X2997200Y21844000D03*
X23114000Y45720000D03*
X23622000Y51308000D03*
X23622000Y41148000D03*
X14224000Y25908000D03*
X23622000Y36322000D03*
X15748000Y22606000D03*
X23622000Y45720000D03*
X18542000Y33528000D03*
D23*
X17272000Y14732000D03*
D22*
X11295000Y43388000D03*
X23876000Y31242000D03*
D23*
%TO.N,+5V*%
X18180400Y58147400D03*
D22*
%TO.N,Net-(IC1-FB)*%
X14666000Y18034000D03*
X14224000Y28067000D03*
%TO.N,U2_RO*%
X9504900Y45395100D03*
X4013200Y19710400D03*
X4013200Y12573000D03*
%TO.N,U2_DI*%
X9646055Y43653945D03*
X4064000Y8763000D03*
%TO.N,StateLed0*%
X27999400Y57732800D03*
X17264000Y45928000D03*
%TO.N,StateLed1*%
X25747600Y57758200D03*
X17272000Y46710600D03*
%TO.N,NRST*%
X13970000Y57630000D03*
X11700000Y44400000D03*
%TO.N,SWD*%
X11600000Y49500000D03*
X15240000Y53827400D03*
%TO.N,U2_RE*%
X4064000Y11328400D03*
X13411200Y48914063D03*
%TO.N,U2_DE*%
X14147800Y48920400D03*
X4064000Y10033000D03*
%TO.N,Temp*%
X9128700Y48895000D03*
X10972800Y48895000D03*
%TD*%
D24*
%TO.N,VCC*%
X21056600Y30810200D02*
X24784000Y27082800D01*
X24784000Y27082800D02*
X25176100Y26690700D01*
X21031200Y30810200D02*
X21056600Y30810200D01*
X25176100Y26690700D02*
X25176100Y25300800D01*
X24784000Y27082800D02*
X25090800Y26776000D01*
%TO.N,+5V*%
X18180400Y58147400D02*
X17568800Y57535800D01*
X17568800Y52709200D02*
X18000000Y52278000D01*
X17568800Y57535800D02*
X17568800Y52709200D01*
%TO.N,Net-(IC1-FB)*%
X14666000Y18034000D02*
X14749000Y18117000D01*
X14749000Y27542000D02*
X14224000Y28067000D01*
X14749000Y18117000D02*
X14749000Y27542000D01*
%TO.N,RA*%
X19530000Y6858000D02*
X18288000Y6858000D01*
X15750000Y6858000D02*
X18288000Y6858000D01*
X20066000Y7394000D02*
X19530000Y6858000D01*
%TO.N,RB*%
X20066000Y8382000D02*
X19558000Y8890000D01*
X20066000Y8354000D02*
X20066000Y8382000D01*
X15930000Y8858000D02*
X18288000Y8858000D01*
X19526000Y8858000D02*
X18288000Y8858000D01*
X19558000Y8890000D02*
X19526000Y8858000D01*
%TO.N,TA*%
X11578000Y6858000D02*
X11642000Y6794000D01*
X10160000Y6858000D02*
X11578000Y6858000D01*
X11706000Y6858000D02*
X11642000Y6794000D01*
X9652000Y7366000D02*
X10160000Y6858000D01*
X14730000Y6858000D02*
X11706000Y6858000D01*
%TO.N,TB*%
X9652000Y8382000D02*
X10064000Y8794000D01*
X14730000Y8890000D02*
X14634000Y8794000D01*
X14634000Y8794000D02*
X11642000Y8794000D01*
X9652000Y8326000D02*
X9652000Y8382000D01*
X10064000Y8794000D02*
X11642000Y8794000D01*
D25*
%TO.N,U2_RO*%
X4013200Y19710400D02*
X4013200Y12573000D01*
X4013200Y39903400D02*
X4013200Y19710400D01*
X9504900Y45395100D02*
X4013200Y39903400D01*
%TO.N,U2_DI*%
X5194200Y9893200D02*
X4064000Y8763000D01*
X5194200Y39202090D02*
X5194200Y9893200D01*
X9646055Y43653945D02*
X5194200Y39202090D01*
%TO.N,StateLed0*%
X17772000Y46436000D02*
X17772000Y47528200D01*
X17772000Y47528200D02*
X27976600Y57732800D01*
X17264000Y45928000D02*
X17772000Y46436000D01*
X27976600Y57732800D02*
X27999400Y57732800D01*
%TO.N,StateLed1*%
X17264000Y46718600D02*
X17264000Y47518568D01*
X17272000Y46710600D02*
X17264000Y46718600D01*
X25747600Y56002168D02*
X25747600Y57758200D01*
X17264000Y47518568D02*
X25747600Y56002168D01*
%TO.N,NRST*%
X13900849Y48000000D02*
X12095600Y48000000D01*
X13970000Y57630000D02*
X13962000Y57622000D01*
X13962000Y56596000D02*
X16502000Y54056000D01*
X11700000Y47604400D02*
X11700000Y44400000D01*
X12095600Y48000000D02*
X11700000Y47604400D01*
X16502000Y50601151D02*
X13900849Y48000000D01*
X13962000Y57622000D02*
X13962000Y56596000D01*
X16502000Y54056000D02*
X16502000Y50601151D01*
%TO.N,SWD*%
X15240000Y52518000D02*
X12222000Y49500000D01*
X15240000Y53827400D02*
X15240000Y52518000D01*
X12222000Y49500000D02*
X11600000Y49500000D01*
%TO.N,U2_RE*%
X10900000Y47900000D02*
X10900000Y46079000D01*
X4489400Y11753800D02*
X4064000Y11328400D01*
X4489400Y39668400D02*
X4489400Y11753800D01*
D26*
X13411200Y48929091D02*
X13411200Y48914063D01*
D25*
X10900000Y46079000D02*
X4489400Y39668400D01*
X11914063Y48914063D02*
X10900000Y47900000D01*
X13411200Y48914063D02*
X11914063Y48914063D01*
%TO.N,U2_DE*%
X4841800Y10810800D02*
X4064000Y10033000D01*
X11898368Y48400000D02*
X11252400Y47754032D01*
X11252400Y47754032D02*
X11252400Y45933032D01*
X4841800Y39522432D02*
X4841800Y10810800D01*
X14147800Y48920400D02*
X13627400Y48400000D01*
X11252400Y45933032D02*
X4841800Y39522432D01*
X13627400Y48400000D02*
X11898368Y48400000D01*
D26*
X14147800Y48905372D02*
X14147800Y48920400D01*
D25*
%TO.N,Temp*%
X10972800Y48895000D02*
X9128700Y48895000D01*
%TD*%
%TA.AperFunction,Conductor*%
%TO.N,GND*%
G36*
X35002562Y59999395D02*
G01*
X35217600Y59990500D01*
X35413455Y59981948D01*
X35423330Y59981119D01*
X35636706Y59954521D01*
X35636793Y59954510D01*
X35834945Y59928423D01*
X35844192Y59926847D01*
X36053521Y59882956D01*
X36054765Y59882688D01*
X36250386Y59839320D01*
X36258901Y59837111D01*
X36463665Y59776150D01*
X36465325Y59775641D01*
X36656696Y59715302D01*
X36664453Y59712569D01*
X36863363Y59634954D01*
X36865513Y59634089D01*
X37051024Y59557248D01*
X37057972Y59554114D01*
X37225903Y59472018D01*
X37249587Y59460439D01*
X37252383Y59459028D01*
X37430420Y59366348D01*
X37436636Y59362882D01*
X37619793Y59253745D01*
X37622929Y59251813D01*
X37686491Y59211319D01*
X37792282Y59143922D01*
X37797710Y59140259D01*
X37971184Y59016401D01*
X37974616Y59013860D01*
X38133912Y58891628D01*
X38138567Y58887874D01*
X38301226Y58750109D01*
X38304838Y58746928D01*
X38452925Y58611231D01*
X38456807Y58607514D01*
X38607512Y58456809D01*
X38611232Y58452924D01*
X38746921Y58304845D01*
X38750107Y58301228D01*
X38887872Y58138569D01*
X38891626Y58133914D01*
X39013858Y57974618D01*
X39016399Y57971186D01*
X39140257Y57797712D01*
X39143920Y57792284D01*
X39251800Y57622948D01*
X39253743Y57619795D01*
X39362880Y57436638D01*
X39366346Y57430422D01*
X39459026Y57252385D01*
X39460437Y57249589D01*
X39554099Y57058003D01*
X39557260Y57050995D01*
X39634051Y56865605D01*
X39634991Y56863266D01*
X39639288Y56852257D01*
X39712559Y56664477D01*
X39715302Y56656691D01*
X39775602Y56465446D01*
X39776186Y56463540D01*
X39837105Y56258916D01*
X39839321Y56250373D01*
X39882671Y56054834D01*
X39882971Y56053441D01*
X39926844Y55844198D01*
X39928422Y55834938D01*
X39954459Y55637171D01*
X39954568Y55636323D01*
X39981114Y55423359D01*
X39981948Y55413430D01*
X39990513Y55217272D01*
X39990525Y55216987D01*
X39999394Y55002562D01*
X39999500Y54997438D01*
X39999500Y47023700D01*
X39981541Y4587714D01*
X39980589Y4572428D01*
X39954568Y4363679D01*
X39954459Y4362831D01*
X39928422Y4165064D01*
X39926844Y4155804D01*
X39882971Y3946561D01*
X39882671Y3945168D01*
X39839321Y3749629D01*
X39837105Y3741086D01*
X39776186Y3536462D01*
X39775602Y3534556D01*
X39715302Y3343311D01*
X39712559Y3335525D01*
X39635008Y3136776D01*
X39634051Y3134397D01*
X39557260Y2949007D01*
X39554099Y2941999D01*
X39460437Y2750413D01*
X39459026Y2747617D01*
X39366346Y2569580D01*
X39362880Y2563364D01*
X39253743Y2380207D01*
X39251800Y2377054D01*
X39143920Y2207718D01*
X39140257Y2202290D01*
X39016399Y2028816D01*
X39013858Y2025384D01*
X38891626Y1866088D01*
X38887872Y1861433D01*
X38750107Y1698774D01*
X38746908Y1695142D01*
X38611254Y1547101D01*
X38607512Y1543193D01*
X38456807Y1392488D01*
X38452899Y1388746D01*
X38304858Y1253092D01*
X38301226Y1249893D01*
X38138567Y1112128D01*
X38133912Y1108374D01*
X37974616Y986142D01*
X37971184Y983601D01*
X37797710Y859743D01*
X37792282Y856080D01*
X37622946Y748200D01*
X37619793Y746257D01*
X37436636Y637120D01*
X37430420Y633654D01*
X37252383Y540974D01*
X37249587Y539563D01*
X37058001Y445901D01*
X37050993Y442740D01*
X36865603Y365949D01*
X36863224Y364992D01*
X36664475Y287441D01*
X36656689Y284698D01*
X36465444Y224398D01*
X36463538Y223814D01*
X36258914Y162895D01*
X36250371Y160679D01*
X36054832Y117329D01*
X36053439Y117029D01*
X35844196Y73156D01*
X35834936Y71578D01*
X35637169Y45541D01*
X35636321Y45432D01*
X35423357Y18886D01*
X35413428Y18052D01*
X35217381Y9492D01*
X35217097Y9480D01*
X35002563Y606D01*
X34997438Y500D01*
X5002562Y500D01*
X4997437Y606D01*
X4782901Y9480D01*
X4782617Y9492D01*
X4586570Y18052D01*
X4576641Y18886D01*
X4363677Y45432D01*
X4362829Y45541D01*
X4165062Y71578D01*
X4155802Y73156D01*
X3946559Y117029D01*
X3945166Y117329D01*
X3749627Y160679D01*
X3741084Y162895D01*
X3536460Y223814D01*
X3534554Y224398D01*
X3343309Y284698D01*
X3335523Y287441D01*
X3206985Y337596D01*
X3136734Y365009D01*
X3134395Y365949D01*
X2949005Y442740D01*
X2941997Y445901D01*
X2750411Y539563D01*
X2747615Y540974D01*
X2569578Y633654D01*
X2563362Y637120D01*
X2380205Y746257D01*
X2377052Y748200D01*
X2207716Y856080D01*
X2202288Y859743D01*
X2028814Y983601D01*
X2025382Y986142D01*
X1866086Y1108374D01*
X1861431Y1112128D01*
X1698772Y1249893D01*
X1695155Y1253079D01*
X1547076Y1388768D01*
X1543191Y1392488D01*
X1392486Y1543193D01*
X1388769Y1547075D01*
X1253072Y1695162D01*
X1249891Y1698774D01*
X1112126Y1861433D01*
X1108372Y1866088D01*
X986140Y2025384D01*
X983599Y2028816D01*
X859741Y2202290D01*
X856078Y2207718D01*
X788681Y2313509D01*
X748187Y2377071D01*
X746255Y2380207D01*
X637118Y2563364D01*
X633652Y2569580D01*
X540972Y2747617D01*
X539561Y2750413D01*
X527982Y2774097D01*
X445886Y2942028D01*
X442752Y2948976D01*
X365911Y3134487D01*
X365046Y3136637D01*
X287431Y3335547D01*
X284696Y3343311D01*
X224359Y3534675D01*
X223850Y3536335D01*
X162889Y3741099D01*
X160680Y3749614D01*
X120194Y3932235D01*
X2145788Y3932235D01*
X2146282Y3927738D01*
X2146283Y3927733D01*
X2174917Y3667494D01*
X2174918Y3667487D01*
X2175414Y3662982D01*
X2176559Y3658602D01*
X2176561Y3658592D01*
X2239605Y3417446D01*
X2243928Y3400912D01*
X2245693Y3396758D01*
X2245696Y3396750D01*
X2337498Y3180724D01*
X2349870Y3151610D01*
X2352226Y3147749D01*
X2352229Y3147744D01*
X2447447Y2991724D01*
X2490982Y2920390D01*
X2664255Y2712180D01*
X2667630Y2709156D01*
X2667631Y2709155D01*
X2823406Y2569580D01*
X2865998Y2531418D01*
X3091910Y2381956D01*
X3337176Y2266980D01*
X3596569Y2188940D01*
X3864561Y2149500D01*
X4065369Y2149500D01*
X4067631Y2149500D01*
X4270156Y2164323D01*
X4534553Y2223220D01*
X4787558Y2319986D01*
X5023777Y2452559D01*
X5238177Y2618112D01*
X5426186Y2813119D01*
X5583799Y3033421D01*
X5707656Y3274325D01*
X5795118Y3530695D01*
X5844319Y3797067D01*
X5853680Y4053216D01*
X23775600Y4053216D01*
X23775740Y4051148D01*
X23775741Y4051126D01*
X23777965Y4018341D01*
X23778334Y4012900D01*
X23779649Y4007609D01*
X23779650Y4007608D01*
X23820043Y3845178D01*
X23820045Y3845171D01*
X23821667Y3838651D01*
X23901447Y3677790D01*
X23905658Y3672551D01*
X23905659Y3672550D01*
X23986518Y3571956D01*
X24013941Y3537841D01*
X24153890Y3425347D01*
X24314751Y3345567D01*
X24321276Y3343945D01*
X24321277Y3343944D01*
X24338727Y3339605D01*
X24489000Y3302234D01*
X24529316Y3299500D01*
X25820787Y3299500D01*
X25822884Y3299500D01*
X25863200Y3302234D01*
X26037449Y3345567D01*
X26198310Y3425347D01*
X26338259Y3537841D01*
X26450753Y3677790D01*
X26530533Y3838651D01*
X26553806Y3932235D01*
X34145788Y3932235D01*
X34146282Y3927738D01*
X34146283Y3927733D01*
X34174917Y3667494D01*
X34174918Y3667487D01*
X34175414Y3662982D01*
X34176559Y3658602D01*
X34176561Y3658592D01*
X34239605Y3417446D01*
X34243928Y3400912D01*
X34245693Y3396758D01*
X34245696Y3396750D01*
X34337498Y3180724D01*
X34349870Y3151610D01*
X34352226Y3147749D01*
X34352229Y3147744D01*
X34447447Y2991724D01*
X34490982Y2920390D01*
X34664255Y2712180D01*
X34667630Y2709156D01*
X34667631Y2709155D01*
X34823406Y2569580D01*
X34865998Y2531418D01*
X35091910Y2381956D01*
X35337176Y2266980D01*
X35596569Y2188940D01*
X35864561Y2149500D01*
X36065369Y2149500D01*
X36067631Y2149500D01*
X36270156Y2164323D01*
X36534553Y2223220D01*
X36787558Y2319986D01*
X37023777Y2452559D01*
X37238177Y2618112D01*
X37426186Y2813119D01*
X37583799Y3033421D01*
X37707656Y3274325D01*
X37795118Y3530695D01*
X37844319Y3797067D01*
X37854212Y4067765D01*
X37824586Y4337018D01*
X37756072Y4599088D01*
X37650130Y4848390D01*
X37509018Y5079610D01*
X37335745Y5287820D01*
X37269937Y5346784D01*
X37137382Y5465554D01*
X37137378Y5465558D01*
X37134002Y5468582D01*
X36908090Y5618044D01*
X36903996Y5619964D01*
X36903991Y5619966D01*
X36666929Y5731096D01*
X36666925Y5731098D01*
X36662824Y5733020D01*
X36658477Y5734328D01*
X36658474Y5734329D01*
X36407772Y5809754D01*
X36407771Y5809755D01*
X36403431Y5811060D01*
X36398957Y5811719D01*
X36398950Y5811720D01*
X36139913Y5849842D01*
X36139907Y5849843D01*
X36135439Y5850500D01*
X35932369Y5850500D01*
X35930120Y5850336D01*
X35930109Y5850335D01*
X35734363Y5836008D01*
X35734359Y5836008D01*
X35729844Y5835677D01*
X35725426Y5834693D01*
X35725420Y5834692D01*
X35469877Y5777768D01*
X35469861Y5777764D01*
X35465447Y5776780D01*
X35461216Y5775162D01*
X35461210Y5775160D01*
X35216673Y5681633D01*
X35216663Y5681629D01*
X35212442Y5680014D01*
X35208494Y5677799D01*
X35208489Y5677796D01*
X34980176Y5549660D01*
X34980171Y5549657D01*
X34976223Y5547441D01*
X34972639Y5544675D01*
X34972635Y5544671D01*
X34765407Y5384657D01*
X34765394Y5384646D01*
X34761823Y5381888D01*
X34758685Y5378634D01*
X34758678Y5378627D01*
X34576958Y5190143D01*
X34576952Y5190136D01*
X34573814Y5186881D01*
X34571189Y5183213D01*
X34571179Y5183200D01*
X34418834Y4970260D01*
X34418830Y4970255D01*
X34416201Y4966579D01*
X34414132Y4962556D01*
X34414129Y4962550D01*
X34294416Y4729707D01*
X34294411Y4729696D01*
X34292344Y4725675D01*
X34290884Y4721398D01*
X34290879Y4721384D01*
X34206348Y4473605D01*
X34206344Y4473593D01*
X34204882Y4469305D01*
X34204057Y4464841D01*
X34204057Y4464839D01*
X34156504Y4207394D01*
X34156502Y4207381D01*
X34155681Y4202933D01*
X34155515Y4198407D01*
X34155515Y4198401D01*
X34146261Y3945168D01*
X34145788Y3932235D01*
X26553806Y3932235D01*
X26573866Y4012900D01*
X26576600Y4053216D01*
X26576600Y5346784D01*
X26573866Y5387100D01*
X26530533Y5561349D01*
X26450753Y5722210D01*
X26338259Y5862159D01*
X26236624Y5943855D01*
X26203550Y5970441D01*
X26203549Y5970442D01*
X26198310Y5974653D01*
X26037449Y6054433D01*
X26030929Y6056055D01*
X26030922Y6056057D01*
X25868492Y6096450D01*
X25868491Y6096451D01*
X25863200Y6097766D01*
X25857759Y6098135D01*
X25824974Y6100359D01*
X25824952Y6100360D01*
X25822884Y6100500D01*
X24529316Y6100500D01*
X24527248Y6100360D01*
X24527225Y6100359D01*
X24494440Y6098135D01*
X24494438Y6098135D01*
X24489000Y6097766D01*
X24483710Y6096451D01*
X24483707Y6096450D01*
X24321277Y6056057D01*
X24321267Y6056054D01*
X24314751Y6054433D01*
X24308729Y6051447D01*
X24308725Y6051445D01*
X24159912Y5977640D01*
X24159909Y5977639D01*
X24153890Y5974653D01*
X24148654Y5970445D01*
X24148649Y5970441D01*
X24019181Y5866372D01*
X24019176Y5866368D01*
X24013941Y5862159D01*
X24009732Y5856924D01*
X24009728Y5856919D01*
X23905659Y5727451D01*
X23905655Y5727446D01*
X23901447Y5722210D01*
X23898461Y5716191D01*
X23898460Y5716188D01*
X23824655Y5567375D01*
X23824653Y5567371D01*
X23821667Y5561349D01*
X23820046Y5554833D01*
X23820043Y5554823D01*
X23798597Y5468582D01*
X23778334Y5387100D01*
X23777965Y5381662D01*
X23777965Y5381660D01*
X23775741Y5348875D01*
X23775740Y5348852D01*
X23775600Y5346784D01*
X23775600Y4053216D01*
X5853680Y4053216D01*
X5854212Y4067765D01*
X5824586Y4337018D01*
X5756072Y4599088D01*
X5650130Y4848390D01*
X5509018Y5079610D01*
X5335745Y5287820D01*
X5269937Y5346784D01*
X5137382Y5465554D01*
X5137378Y5465558D01*
X5134002Y5468582D01*
X4908090Y5618044D01*
X4903996Y5619964D01*
X4903991Y5619966D01*
X4666929Y5731096D01*
X4666925Y5731098D01*
X4662824Y5733020D01*
X4658477Y5734328D01*
X4658474Y5734329D01*
X4407772Y5809754D01*
X4407771Y5809755D01*
X4403431Y5811060D01*
X4398957Y5811719D01*
X4398950Y5811720D01*
X4139913Y5849842D01*
X4139907Y5849843D01*
X4135439Y5850500D01*
X3932369Y5850500D01*
X3930120Y5850336D01*
X3930109Y5850335D01*
X3734363Y5836008D01*
X3734359Y5836008D01*
X3729844Y5835677D01*
X3725426Y5834693D01*
X3725420Y5834692D01*
X3469877Y5777768D01*
X3469861Y5777764D01*
X3465447Y5776780D01*
X3461216Y5775162D01*
X3461210Y5775160D01*
X3216673Y5681633D01*
X3216663Y5681629D01*
X3212442Y5680014D01*
X3208494Y5677799D01*
X3208489Y5677796D01*
X2980176Y5549660D01*
X2980171Y5549657D01*
X2976223Y5547441D01*
X2972639Y5544675D01*
X2972635Y5544671D01*
X2765407Y5384657D01*
X2765394Y5384646D01*
X2761823Y5381888D01*
X2758685Y5378634D01*
X2758678Y5378627D01*
X2576958Y5190143D01*
X2576952Y5190136D01*
X2573814Y5186881D01*
X2571189Y5183213D01*
X2571179Y5183200D01*
X2418834Y4970260D01*
X2418830Y4970255D01*
X2416201Y4966579D01*
X2414132Y4962556D01*
X2414129Y4962550D01*
X2294416Y4729707D01*
X2294411Y4729696D01*
X2292344Y4725675D01*
X2290884Y4721398D01*
X2290879Y4721384D01*
X2206348Y4473605D01*
X2206344Y4473593D01*
X2204882Y4469305D01*
X2204057Y4464841D01*
X2204057Y4464839D01*
X2156504Y4207394D01*
X2156502Y4207381D01*
X2155681Y4202933D01*
X2155515Y4198407D01*
X2155515Y4198401D01*
X2146261Y3945168D01*
X2145788Y3932235D01*
X120194Y3932235D01*
X117312Y3945235D01*
X117027Y3946561D01*
X111495Y3972943D01*
X73153Y4155808D01*
X71576Y4165064D01*
X45490Y4363207D01*
X45483Y4363257D01*
X18881Y4576670D01*
X18052Y4586545D01*
X9487Y4782709D01*
X605Y4997438D01*
X500Y5002561D01*
X500Y7200124D01*
X9091500Y7200124D01*
X9091501Y7195266D01*
X9092261Y7190462D01*
X9092262Y7190460D01*
X9104456Y7113462D01*
X9104457Y7113458D01*
X9105983Y7103825D01*
X9162141Y6993609D01*
X9249609Y6906141D01*
X9359825Y6849983D01*
X9451265Y6835500D01*
X9600100Y6835501D01*
X9647552Y6826062D01*
X9687781Y6799182D01*
X9857850Y6629113D01*
X9873974Y6609259D01*
X9879916Y6600164D01*
X9888018Y6593858D01*
X9888021Y6593855D01*
X9904894Y6580723D01*
X9908808Y6577266D01*
X9908942Y6577423D01*
X9912848Y6574115D01*
X9916482Y6570481D01*
X9923959Y6565143D01*
X9933389Y6558410D01*
X9937500Y6555345D01*
X9978811Y6523191D01*
X9986331Y6520610D01*
X9992801Y6515990D01*
X10042940Y6501063D01*
X10047822Y6499499D01*
X10070066Y6491863D01*
X10097340Y6482500D01*
X10105293Y6482500D01*
X10112911Y6480232D01*
X10165191Y6482394D01*
X10170315Y6482500D01*
X10395831Y6482500D01*
X10453959Y6468032D01*
X10498522Y6428002D01*
X10519121Y6371754D01*
X10522079Y6344232D01*
X10522080Y6344227D01*
X10522909Y6336517D01*
X10525619Y6329251D01*
X10525620Y6329247D01*
X10551982Y6258569D01*
X10573204Y6201669D01*
X10578518Y6194570D01*
X10578519Y6194569D01*
X10650709Y6098135D01*
X10659454Y6086454D01*
X10774669Y6000204D01*
X10909517Y5949909D01*
X10969127Y5943500D01*
X12314872Y5943501D01*
X12374483Y5949909D01*
X12509331Y6000204D01*
X12624546Y6086454D01*
X12710796Y6201669D01*
X12761091Y6336517D01*
X12764880Y6371756D01*
X12785479Y6428004D01*
X12830042Y6468032D01*
X12888169Y6482500D01*
X14189041Y6482500D01*
X14245800Y6468747D01*
X14274739Y6443714D01*
X14276924Y6445898D01*
X14367898Y6354924D01*
X14483482Y6298418D01*
X14558418Y6287500D01*
X14897100Y6287500D01*
X14901582Y6287500D01*
X14976518Y6298418D01*
X15092102Y6354924D01*
X15152319Y6415142D01*
X15207906Y6447235D01*
X15272094Y6447235D01*
X15327681Y6415141D01*
X15387898Y6354924D01*
X15503482Y6298418D01*
X15578418Y6287500D01*
X15917100Y6287500D01*
X15921582Y6287500D01*
X15996518Y6298418D01*
X16112102Y6354924D01*
X16203076Y6445898D01*
X16205260Y6443714D01*
X16234200Y6468747D01*
X16290959Y6482500D01*
X17052416Y6482500D01*
X17105932Y6470357D01*
X17148967Y6436307D01*
X17166859Y6399753D01*
X17168909Y6400517D01*
X17219204Y6265669D01*
X17305454Y6150454D01*
X17420669Y6064204D01*
X17555517Y6013909D01*
X17615127Y6007500D01*
X18960872Y6007501D01*
X19020483Y6013909D01*
X19155331Y6064204D01*
X19270546Y6150454D01*
X19356796Y6265669D01*
X19406232Y6398217D01*
X19433860Y6441683D01*
X19476766Y6470175D01*
X19514402Y6476551D01*
X19514268Y6477633D01*
X19545676Y6481549D01*
X19550887Y6481872D01*
X19550871Y6482076D01*
X19555986Y6482500D01*
X19561114Y6482500D01*
X19581636Y6485926D01*
X19586666Y6486658D01*
X19638626Y6493134D01*
X19645770Y6496627D01*
X19653610Y6497935D01*
X19699647Y6522850D01*
X19704164Y6525175D01*
X19751211Y6548174D01*
X19756834Y6553798D01*
X19763826Y6557581D01*
X19799317Y6596137D01*
X19802794Y6599759D01*
X20030217Y6827182D01*
X20070446Y6854062D01*
X20117899Y6863501D01*
X20261865Y6863501D01*
X20266734Y6863501D01*
X20358175Y6877983D01*
X20468391Y6934141D01*
X20555859Y7021609D01*
X20612017Y7131825D01*
X20626500Y7223265D01*
X20626499Y7564734D01*
X20612017Y7656175D01*
X20555859Y7766391D01*
X20535931Y7786319D01*
X20503837Y7841906D01*
X20503837Y7906094D01*
X20535931Y7961681D01*
X20536555Y7962305D01*
X20555859Y7981609D01*
X20612017Y8091825D01*
X20626500Y8183265D01*
X20626499Y8524734D01*
X20612017Y8616175D01*
X20555859Y8726391D01*
X20468391Y8813859D01*
X20358175Y8870017D01*
X20348537Y8871544D01*
X20348533Y8871545D01*
X20271555Y8883737D01*
X20271549Y8883738D01*
X20266735Y8884500D01*
X20261857Y8884500D01*
X20145900Y8884500D01*
X20098447Y8893939D01*
X20058219Y8920819D01*
X19838121Y9140917D01*
X19831180Y9148457D01*
X19828584Y9151522D01*
X19804041Y9180500D01*
X19792715Y9187249D01*
X19772172Y9199491D01*
X19767948Y9202008D01*
X19766099Y9203216D01*
X23775600Y9203216D01*
X23775740Y9201148D01*
X23775741Y9201126D01*
X23777556Y9174367D01*
X23778334Y9162900D01*
X23779649Y9157609D01*
X23779650Y9157608D01*
X23820043Y8995178D01*
X23820045Y8995171D01*
X23821667Y8988651D01*
X23901447Y8827790D01*
X23905658Y8822551D01*
X23905659Y8822550D01*
X23962401Y8751959D01*
X24013941Y8687841D01*
X24153890Y8575347D01*
X24314751Y8495567D01*
X24321276Y8493945D01*
X24321277Y8493944D01*
X24338727Y8489605D01*
X24489000Y8452234D01*
X24529316Y8449500D01*
X25820787Y8449500D01*
X25822884Y8449500D01*
X25863200Y8452234D01*
X26037449Y8495567D01*
X26198310Y8575347D01*
X26338259Y8687841D01*
X26450753Y8827790D01*
X26530533Y8988651D01*
X26573866Y9162900D01*
X26576600Y9203216D01*
X26576600Y9851326D01*
X32739500Y9851326D01*
X32740688Y9845351D01*
X32740689Y9845347D01*
X32751650Y9790241D01*
X32751651Y9790238D01*
X32754034Y9778260D01*
X32809399Y9695399D01*
X32892260Y9640034D01*
X32965326Y9625500D01*
X35608579Y9625500D01*
X35614674Y9625500D01*
X35687740Y9640034D01*
X35770601Y9695399D01*
X35825966Y9778260D01*
X35840500Y9851326D01*
X35840500Y12500674D01*
X35825966Y12573740D01*
X35770601Y12656601D01*
X35687740Y12711966D01*
X35675762Y12714349D01*
X35675759Y12714350D01*
X35620653Y12725311D01*
X35620649Y12725312D01*
X35614674Y12726500D01*
X32965326Y12726500D01*
X32959351Y12725312D01*
X32959346Y12725311D01*
X32904240Y12714350D01*
X32904235Y12714349D01*
X32892260Y12711966D01*
X32882105Y12705181D01*
X32882103Y12705180D01*
X32819551Y12663385D01*
X32819548Y12663383D01*
X32809399Y12656601D01*
X32802617Y12646452D01*
X32802615Y12646449D01*
X32760820Y12583897D01*
X32760819Y12583895D01*
X32754034Y12573740D01*
X32751651Y12561765D01*
X32751650Y12561760D01*
X32740689Y12506654D01*
X32740688Y12506649D01*
X32739500Y12500674D01*
X32739500Y9851326D01*
X26576600Y9851326D01*
X26576600Y10496784D01*
X26573866Y10537100D01*
X26530533Y10711349D01*
X26450753Y10872210D01*
X26338259Y11012159D01*
X26259287Y11075638D01*
X26203550Y11120441D01*
X26203549Y11120442D01*
X26198310Y11124653D01*
X26062306Y11192105D01*
X26043474Y11201445D01*
X26043472Y11201446D01*
X26037449Y11204433D01*
X26030929Y11206055D01*
X26030922Y11206057D01*
X25868492Y11246450D01*
X25868491Y11246451D01*
X25863200Y11247766D01*
X25857759Y11248135D01*
X25824974Y11250359D01*
X25824952Y11250360D01*
X25822884Y11250500D01*
X24529316Y11250500D01*
X24527248Y11250360D01*
X24527225Y11250359D01*
X24494440Y11248135D01*
X24494438Y11248135D01*
X24489000Y11247766D01*
X24483710Y11246451D01*
X24483707Y11246450D01*
X24321277Y11206057D01*
X24321267Y11206054D01*
X24314751Y11204433D01*
X24308729Y11201447D01*
X24308725Y11201445D01*
X24159912Y11127640D01*
X24159909Y11127639D01*
X24153890Y11124653D01*
X24148654Y11120445D01*
X24148649Y11120441D01*
X24019181Y11016372D01*
X24019176Y11016368D01*
X24013941Y11012159D01*
X24009732Y11006924D01*
X24009728Y11006919D01*
X23905659Y10877451D01*
X23905655Y10877446D01*
X23901447Y10872210D01*
X23898461Y10866191D01*
X23898460Y10866188D01*
X23824655Y10717375D01*
X23824653Y10717371D01*
X23821667Y10711349D01*
X23820046Y10704833D01*
X23820043Y10704823D01*
X23779650Y10542393D01*
X23778334Y10537100D01*
X23777965Y10531662D01*
X23777965Y10531660D01*
X23775741Y10498875D01*
X23775740Y10498852D01*
X23775600Y10496784D01*
X23775600Y9203216D01*
X19766099Y9203216D01*
X19759373Y9207611D01*
X19733562Y9226039D01*
X19725199Y9232010D01*
X19715351Y9234942D01*
X19710362Y9237381D01*
X19705210Y9239392D01*
X19696385Y9244650D01*
X19686329Y9246759D01*
X19686326Y9246760D01*
X19655259Y9253275D01*
X19645332Y9255789D01*
X19614939Y9264837D01*
X19614930Y9264839D01*
X19605088Y9267768D01*
X19594822Y9267345D01*
X19589310Y9268031D01*
X19583786Y9268260D01*
X19573732Y9270367D01*
X19563540Y9269097D01*
X19563535Y9269097D01*
X19532047Y9265173D01*
X19521842Y9264327D01*
X19490140Y9263015D01*
X19490137Y9263015D01*
X19479876Y9262590D01*
X19470309Y9258859D01*
X19464871Y9257718D01*
X19459558Y9256137D01*
X19449374Y9254866D01*
X19440152Y9250359D01*
X19431682Y9247836D01*
X19375542Y9244430D01*
X19323672Y9266174D01*
X19286744Y9308596D01*
X19286334Y9309369D01*
X19271100Y9338104D01*
X19224406Y9393076D01*
X19155691Y9473974D01*
X19151337Y9479100D01*
X19067886Y9542538D01*
X19009417Y9586985D01*
X19009415Y9586986D01*
X19004064Y9591054D01*
X18836167Y9668732D01*
X18655497Y9708500D01*
X17966887Y9708500D01*
X17963552Y9708138D01*
X17963546Y9708137D01*
X17835772Y9694241D01*
X17835769Y9694241D01*
X17829090Y9693514D01*
X17822729Y9691371D01*
X17822721Y9691369D01*
X17660152Y9636592D01*
X17660146Y9636590D01*
X17653779Y9634444D01*
X17648026Y9630983D01*
X17648016Y9630978D01*
X17501027Y9542538D01*
X17501023Y9542536D01*
X17495264Y9539070D01*
X17490386Y9534450D01*
X17490379Y9534444D01*
X17365839Y9416472D01*
X17360959Y9411849D01*
X17357194Y9406298D01*
X17357187Y9406288D01*
X17306934Y9332168D01*
X17280290Y9292870D01*
X17276929Y9287913D01*
X17232378Y9247945D01*
X17174295Y9233500D01*
X16313807Y9233500D01*
X16257056Y9247249D01*
X16212890Y9285446D01*
X16207589Y9292870D01*
X16203076Y9302102D01*
X16112102Y9393076D01*
X16064245Y9416472D01*
X16005171Y9445352D01*
X16005169Y9445353D01*
X15996518Y9449582D01*
X15986987Y9450971D01*
X15986986Y9450971D01*
X15926019Y9459854D01*
X15926012Y9459855D01*
X15921582Y9460500D01*
X15578418Y9460500D01*
X15573988Y9459855D01*
X15573980Y9459854D01*
X15513013Y9450971D01*
X15513010Y9450971D01*
X15503482Y9449582D01*
X15494831Y9445354D01*
X15494828Y9445352D01*
X15397130Y9397590D01*
X15397126Y9397588D01*
X15387898Y9393076D01*
X15380634Y9385813D01*
X15380631Y9385810D01*
X15327681Y9332859D01*
X15272094Y9300765D01*
X15207906Y9300765D01*
X15152319Y9332859D01*
X15099368Y9385810D01*
X15092102Y9393076D01*
X15044245Y9416472D01*
X14985171Y9445352D01*
X14985169Y9445353D01*
X14976518Y9449582D01*
X14966987Y9450971D01*
X14966986Y9450971D01*
X14906019Y9459854D01*
X14906012Y9459855D01*
X14901582Y9460500D01*
X14558418Y9460500D01*
X14553988Y9459855D01*
X14553980Y9459854D01*
X14493013Y9450971D01*
X14493010Y9450971D01*
X14483482Y9449582D01*
X14474831Y9445354D01*
X14474828Y9445352D01*
X14377130Y9397590D01*
X14377126Y9397588D01*
X14367898Y9393076D01*
X14360634Y9385813D01*
X14360631Y9385810D01*
X14284190Y9309369D01*
X14284187Y9309366D01*
X14276924Y9302102D01*
X14272412Y9292874D01*
X14272410Y9292870D01*
X14246094Y9239039D01*
X14200355Y9188312D01*
X14134694Y9169500D01*
X12755166Y9169500D01*
X12691238Y9187249D01*
X12645611Y9235416D01*
X12640832Y9244430D01*
X12625100Y9274104D01*
X12601318Y9302102D01*
X12509691Y9409974D01*
X12505337Y9415100D01*
X12358064Y9527054D01*
X12190167Y9604732D01*
X12136717Y9616497D01*
X12016062Y9643055D01*
X12016061Y9643056D01*
X12009497Y9644500D01*
X11320887Y9644500D01*
X11317552Y9644138D01*
X11317546Y9644137D01*
X11189772Y9630241D01*
X11189769Y9630241D01*
X11183090Y9629514D01*
X11176729Y9627371D01*
X11176721Y9627369D01*
X11014152Y9572592D01*
X11014146Y9572590D01*
X11007779Y9570444D01*
X11002026Y9566983D01*
X11002016Y9566978D01*
X10855027Y9478538D01*
X10855023Y9478536D01*
X10849264Y9475070D01*
X10844386Y9470450D01*
X10844379Y9470444D01*
X10719839Y9352472D01*
X10714959Y9347849D01*
X10711194Y9342298D01*
X10711187Y9342288D01*
X10658473Y9264538D01*
X10636419Y9232010D01*
X10630929Y9223913D01*
X10586378Y9183945D01*
X10528295Y9169500D01*
X10115805Y9169500D01*
X10090356Y9172140D01*
X10089790Y9172259D01*
X10089783Y9172260D01*
X10079732Y9174367D01*
X10069541Y9173097D01*
X10069537Y9173097D01*
X10048324Y9170452D01*
X10043109Y9170129D01*
X10043126Y9169924D01*
X10038007Y9169500D01*
X10032886Y9169500D01*
X10027838Y9168658D01*
X10027828Y9168657D01*
X10012394Y9166082D01*
X10007334Y9165345D01*
X9965571Y9160139D01*
X9965560Y9160136D01*
X9955374Y9158866D01*
X9948229Y9155374D01*
X9940390Y9154065D01*
X9931361Y9149180D01*
X9931358Y9149178D01*
X9894369Y9129162D01*
X9889821Y9126821D01*
X9852017Y9108338D01*
X9852015Y9108337D01*
X9842789Y9103826D01*
X9837165Y9098203D01*
X9830174Y9094419D01*
X9823223Y9086869D01*
X9823217Y9086864D01*
X9794719Y9055908D01*
X9791174Y9052214D01*
X9631779Y8892819D01*
X9591551Y8865939D01*
X9544099Y8856500D01*
X9456136Y8856500D01*
X9456123Y8856500D01*
X9451266Y8856499D01*
X9446463Y8855739D01*
X9446458Y8855738D01*
X9369461Y8843544D01*
X9369455Y8843543D01*
X9359825Y8842017D01*
X9351135Y8837590D01*
X9351131Y8837588D01*
X9258304Y8790290D01*
X9258300Y8790288D01*
X9249609Y8785859D01*
X9242710Y8778961D01*
X9242707Y8778958D01*
X9169042Y8705293D01*
X9169039Y8705290D01*
X9162141Y8698391D01*
X9157712Y8689700D01*
X9157710Y8689696D01*
X9115340Y8606539D01*
X9105983Y8588175D01*
X9104456Y8578540D01*
X9104455Y8578534D01*
X9092263Y8501556D01*
X9092262Y8501549D01*
X9091500Y8496735D01*
X9091500Y8491858D01*
X9091500Y8491857D01*
X9091500Y8160136D01*
X9091500Y8160124D01*
X9091501Y8155266D01*
X9092261Y8150462D01*
X9092262Y8150460D01*
X9104456Y8073462D01*
X9104457Y8073458D01*
X9105983Y8063825D01*
X9110411Y8055134D01*
X9110412Y8055132D01*
X9147029Y7983268D01*
X9162141Y7953609D01*
X9169042Y7946709D01*
X9169042Y7946708D01*
X9182069Y7933681D01*
X9214163Y7878094D01*
X9214163Y7813906D01*
X9182069Y7758319D01*
X9169042Y7745293D01*
X9169039Y7745290D01*
X9162141Y7738391D01*
X9157712Y7729700D01*
X9157710Y7729696D01*
X9114120Y7644145D01*
X9105983Y7628175D01*
X9104456Y7618540D01*
X9104455Y7618534D01*
X9092263Y7541556D01*
X9092262Y7541549D01*
X9091500Y7536735D01*
X9091500Y7531858D01*
X9091500Y7531857D01*
X9091500Y7200136D01*
X9091500Y7200124D01*
X500Y7200124D01*
X500Y12573000D01*
X3558067Y12573000D01*
X3559329Y12564223D01*
X3575240Y12453554D01*
X3575241Y12453550D01*
X3576503Y12444774D01*
X3580187Y12436706D01*
X3580188Y12436705D01*
X3626634Y12335002D01*
X3626636Y12334998D01*
X3630318Y12326937D01*
X3636120Y12320241D01*
X3636122Y12320238D01*
X3699838Y12246706D01*
X3715151Y12229033D01*
X3824131Y12158996D01*
X3948428Y12122500D01*
X3957299Y12122500D01*
X4038700Y12122500D01*
X4100700Y12105887D01*
X4146087Y12060500D01*
X4162700Y11998500D01*
X4162700Y11940485D01*
X4153261Y11893032D01*
X4126381Y11852804D01*
X4088796Y11815219D01*
X4048568Y11788339D01*
X4016614Y11781983D01*
X4016876Y11780162D01*
X4008098Y11778900D01*
X3999228Y11778900D01*
X3990718Y11776402D01*
X3990715Y11776401D01*
X3883444Y11744904D01*
X3883441Y11744903D01*
X3874931Y11742404D01*
X3867468Y11737609D01*
X3867468Y11737608D01*
X3773412Y11677163D01*
X3773406Y11677159D01*
X3765951Y11672367D01*
X3760146Y11665668D01*
X3760143Y11665665D01*
X3686922Y11581163D01*
X3686917Y11581157D01*
X3681118Y11574463D01*
X3677438Y11566406D01*
X3677434Y11566399D01*
X3630988Y11464696D01*
X3627303Y11456626D01*
X3626041Y11447853D01*
X3626040Y11447847D01*
X3611369Y11345807D01*
X3608867Y11328400D01*
X3610129Y11319623D01*
X3626040Y11208954D01*
X3626041Y11208950D01*
X3627303Y11200174D01*
X3630987Y11192106D01*
X3630988Y11192105D01*
X3677434Y11090402D01*
X3677436Y11090398D01*
X3681118Y11082337D01*
X3686920Y11075641D01*
X3686922Y11075638D01*
X3738276Y11016372D01*
X3765951Y10984433D01*
X3874931Y10914396D01*
X3999228Y10877900D01*
X4119902Y10877900D01*
X4128772Y10877900D01*
X4134606Y10879614D01*
X4193991Y10873231D01*
X4244372Y10838253D01*
X4271827Y10783408D01*
X4269638Y10722114D01*
X4238343Y10669368D01*
X4088792Y10519817D01*
X4048567Y10492939D01*
X4016614Y10486584D01*
X4016876Y10484762D01*
X4008098Y10483500D01*
X3999228Y10483500D01*
X3990718Y10481002D01*
X3990715Y10481001D01*
X3883444Y10449504D01*
X3883441Y10449503D01*
X3874931Y10447004D01*
X3867468Y10442209D01*
X3867468Y10442208D01*
X3773412Y10381763D01*
X3773406Y10381759D01*
X3765951Y10376967D01*
X3760146Y10370268D01*
X3760143Y10370265D01*
X3686922Y10285763D01*
X3686917Y10285757D01*
X3681118Y10279063D01*
X3677438Y10271006D01*
X3677434Y10270999D01*
X3630988Y10169296D01*
X3627303Y10161226D01*
X3626041Y10152453D01*
X3626040Y10152447D01*
X3611369Y10050407D01*
X3608867Y10033000D01*
X3610129Y10024223D01*
X3626040Y9913554D01*
X3626041Y9913550D01*
X3627303Y9904774D01*
X3630987Y9896706D01*
X3630988Y9896705D01*
X3677434Y9795002D01*
X3677436Y9794998D01*
X3681118Y9786937D01*
X3686920Y9780241D01*
X3686922Y9780238D01*
X3741290Y9717494D01*
X3765951Y9689033D01*
X3874931Y9618996D01*
X3999228Y9582500D01*
X4008099Y9582500D01*
X4122114Y9582500D01*
X4178409Y9568985D01*
X4222432Y9531385D01*
X4244587Y9477898D01*
X4240045Y9420182D01*
X4209795Y9370819D01*
X4088795Y9249819D01*
X4048567Y9222939D01*
X4016614Y9216584D01*
X4016876Y9214762D01*
X4008098Y9213500D01*
X3999228Y9213500D01*
X3990718Y9211002D01*
X3990715Y9211001D01*
X3883444Y9179504D01*
X3883441Y9179503D01*
X3874931Y9177004D01*
X3867468Y9172209D01*
X3867468Y9172208D01*
X3773412Y9111763D01*
X3773406Y9111759D01*
X3765951Y9106967D01*
X3760146Y9100268D01*
X3760143Y9100265D01*
X3686922Y9015763D01*
X3686917Y9015757D01*
X3681118Y9009063D01*
X3677438Y9001006D01*
X3677434Y9000999D01*
X3630988Y8899296D01*
X3627303Y8891226D01*
X3626041Y8882453D01*
X3626040Y8882447D01*
X3619591Y8837588D01*
X3608867Y8763000D01*
X3610129Y8754223D01*
X3626040Y8643554D01*
X3626041Y8643550D01*
X3627303Y8634774D01*
X3630987Y8626707D01*
X3630988Y8626705D01*
X3677434Y8525002D01*
X3677436Y8524998D01*
X3681118Y8516937D01*
X3686920Y8510241D01*
X3686922Y8510238D01*
X3741596Y8447141D01*
X3765951Y8419033D01*
X3773411Y8414239D01*
X3773412Y8414238D01*
X3777730Y8411463D01*
X3874931Y8348996D01*
X3999228Y8312500D01*
X4119901Y8312500D01*
X4128772Y8312500D01*
X4253069Y8348996D01*
X4362049Y8419033D01*
X4446882Y8516937D01*
X4500697Y8634774D01*
X4512102Y8714105D01*
X4523955Y8751959D01*
X4547155Y8784133D01*
X5411305Y9648283D01*
X5419273Y9655583D01*
X5448328Y9679962D01*
X5467294Y9712813D01*
X5473095Y9721919D01*
X5494859Y9753000D01*
X5497667Y9763485D01*
X5499231Y9766837D01*
X5500503Y9770334D01*
X5505934Y9779738D01*
X5512523Y9817114D01*
X5514851Y9827615D01*
X5524678Y9864286D01*
X5521371Y9902072D01*
X5520900Y9912879D01*
X5520900Y28067000D01*
X13768867Y28067000D01*
X13770129Y28058223D01*
X13786040Y27947554D01*
X13786041Y27947550D01*
X13787303Y27938774D01*
X13790987Y27930706D01*
X13790988Y27930705D01*
X13837434Y27829002D01*
X13837436Y27828998D01*
X13841118Y27820937D01*
X13846920Y27814241D01*
X13846922Y27814238D01*
X13899134Y27753982D01*
X13925951Y27723033D01*
X14034931Y27652996D01*
X14106544Y27631969D01*
X14159289Y27600674D01*
X14337181Y27422782D01*
X14364061Y27382554D01*
X14373500Y27335101D01*
X14373500Y18430621D01*
X14365682Y18387288D01*
X14343214Y18349419D01*
X14288922Y18286763D01*
X14288917Y18286757D01*
X14283118Y18280063D01*
X14279438Y18272006D01*
X14279434Y18271999D01*
X14232988Y18170296D01*
X14229303Y18162226D01*
X14228041Y18153453D01*
X14228040Y18153447D01*
X14215305Y18064868D01*
X14210867Y18034000D01*
X14212129Y18025223D01*
X14228040Y17914554D01*
X14228041Y17914550D01*
X14229303Y17905774D01*
X14232987Y17897706D01*
X14232988Y17897705D01*
X14279434Y17796002D01*
X14279436Y17795998D01*
X14283118Y17787937D01*
X14288920Y17781241D01*
X14288922Y17781238D01*
X14352638Y17707706D01*
X14367951Y17690033D01*
X14476931Y17619996D01*
X14601228Y17583500D01*
X14721901Y17583500D01*
X14730772Y17583500D01*
X14855069Y17619996D01*
X14964049Y17690033D01*
X15048882Y17787937D01*
X15102697Y17905774D01*
X15121133Y18034000D01*
X15120720Y18036866D01*
X15121426Y18045389D01*
X15124500Y18054340D01*
X15124500Y18062294D01*
X15126768Y18069912D01*
X15124606Y18122193D01*
X15124500Y18127316D01*
X15124500Y19504016D01*
X23775600Y19504016D01*
X23775740Y19501948D01*
X23775741Y19501926D01*
X23777744Y19472405D01*
X23778334Y19463700D01*
X23779649Y19458409D01*
X23779650Y19458408D01*
X23820043Y19295978D01*
X23820045Y19295971D01*
X23821667Y19289451D01*
X23901447Y19128590D01*
X24013941Y18988641D01*
X24153890Y18876147D01*
X24314751Y18796367D01*
X24489000Y18753034D01*
X24529316Y18750300D01*
X25820787Y18750300D01*
X25822884Y18750300D01*
X25863200Y18753034D01*
X26037449Y18796367D01*
X26198310Y18876147D01*
X26338259Y18988641D01*
X26450753Y19128590D01*
X26530533Y19289451D01*
X26573866Y19463700D01*
X26576600Y19504016D01*
X26576600Y20797584D01*
X26573866Y20837900D01*
X26530533Y21012149D01*
X26450753Y21173010D01*
X26338259Y21312959D01*
X26198310Y21425453D01*
X26037449Y21505233D01*
X26030929Y21506855D01*
X26030922Y21506857D01*
X25868492Y21547250D01*
X25868491Y21547251D01*
X25863200Y21548566D01*
X25857759Y21548935D01*
X25824974Y21551159D01*
X25824952Y21551160D01*
X25822884Y21551300D01*
X24529316Y21551300D01*
X24527248Y21551160D01*
X24527225Y21551159D01*
X24494440Y21548935D01*
X24494438Y21548935D01*
X24489000Y21548566D01*
X24483710Y21547251D01*
X24483707Y21547250D01*
X24321277Y21506857D01*
X24321267Y21506854D01*
X24314751Y21505233D01*
X24308729Y21502247D01*
X24308725Y21502245D01*
X24159912Y21428440D01*
X24159909Y21428439D01*
X24153890Y21425453D01*
X24148654Y21421245D01*
X24148649Y21421241D01*
X24019181Y21317172D01*
X24019176Y21317168D01*
X24013941Y21312959D01*
X24009732Y21307724D01*
X24009728Y21307719D01*
X23905659Y21178251D01*
X23905655Y21178246D01*
X23901447Y21173010D01*
X23898461Y21166991D01*
X23898460Y21166988D01*
X23824655Y21018175D01*
X23824653Y21018171D01*
X23821667Y21012149D01*
X23820046Y21005633D01*
X23820043Y21005623D01*
X23779650Y20843193D01*
X23778334Y20837900D01*
X23777965Y20832462D01*
X23777965Y20832460D01*
X23775741Y20799675D01*
X23775740Y20799652D01*
X23775600Y20797584D01*
X23775600Y19504016D01*
X15124500Y19504016D01*
X15124500Y22631326D01*
X32739500Y22631326D01*
X32740688Y22625351D01*
X32740689Y22625347D01*
X32751650Y22570241D01*
X32751651Y22570238D01*
X32754034Y22558260D01*
X32809399Y22475399D01*
X32892260Y22420034D01*
X32965326Y22405500D01*
X35608579Y22405500D01*
X35614674Y22405500D01*
X35687740Y22420034D01*
X35770601Y22475399D01*
X35825966Y22558260D01*
X35840500Y22631326D01*
X35840500Y25280674D01*
X35825966Y25353740D01*
X35770601Y25436601D01*
X35687740Y25491966D01*
X35675762Y25494349D01*
X35675759Y25494350D01*
X35620653Y25505311D01*
X35620649Y25505312D01*
X35614674Y25506500D01*
X32965326Y25506500D01*
X32959351Y25505312D01*
X32959346Y25505311D01*
X32904240Y25494350D01*
X32904235Y25494349D01*
X32892260Y25491966D01*
X32882105Y25485181D01*
X32882103Y25485180D01*
X32819551Y25443385D01*
X32819548Y25443383D01*
X32809399Y25436601D01*
X32802617Y25426452D01*
X32802615Y25426449D01*
X32760820Y25363897D01*
X32760819Y25363895D01*
X32754034Y25353740D01*
X32751651Y25341765D01*
X32751650Y25341760D01*
X32740689Y25286654D01*
X32740688Y25286649D01*
X32739500Y25280674D01*
X32739500Y22631326D01*
X15124500Y22631326D01*
X15124500Y27490195D01*
X15127140Y27515644D01*
X15127258Y27516210D01*
X15127258Y27516211D01*
X15129367Y27526268D01*
X15125451Y27557677D01*
X15125128Y27562887D01*
X15124924Y27562870D01*
X15124500Y27567982D01*
X15124500Y27573114D01*
X15121074Y27593638D01*
X15120341Y27598674D01*
X15115137Y27640428D01*
X15113866Y27650626D01*
X15110373Y27657771D01*
X15109065Y27665610D01*
X15084158Y27711634D01*
X15081837Y27716141D01*
X15058826Y27763211D01*
X15053202Y27768835D01*
X15049419Y27775826D01*
X15041858Y27782786D01*
X15041857Y27782788D01*
X15010917Y27811270D01*
X15007219Y27814818D01*
X14695300Y28126738D01*
X14664004Y28179483D01*
X14661959Y28186447D01*
X14660697Y28195226D01*
X14606882Y28313063D01*
X14522049Y28410967D01*
X14514589Y28415762D01*
X14514587Y28415763D01*
X14467559Y28445986D01*
X14413069Y28481004D01*
X14404555Y28483504D01*
X14297284Y28515001D01*
X14297282Y28515002D01*
X14288772Y28517500D01*
X14159228Y28517500D01*
X14150718Y28515002D01*
X14150715Y28515001D01*
X14043444Y28483504D01*
X14043441Y28483503D01*
X14034931Y28481004D01*
X14027468Y28476209D01*
X14027468Y28476208D01*
X13933412Y28415763D01*
X13933406Y28415759D01*
X13925951Y28410967D01*
X13920146Y28404268D01*
X13920143Y28404265D01*
X13846922Y28319763D01*
X13846917Y28319757D01*
X13841118Y28313063D01*
X13837438Y28305006D01*
X13837434Y28304999D01*
X13790988Y28203296D01*
X13787303Y28195226D01*
X13786041Y28186453D01*
X13786040Y28186447D01*
X13777456Y28126738D01*
X13768867Y28067000D01*
X5520900Y28067000D01*
X5520900Y30810200D01*
X20576067Y30810200D01*
X20577329Y30801423D01*
X20593240Y30690754D01*
X20593241Y30690750D01*
X20594503Y30681974D01*
X20598187Y30673906D01*
X20598188Y30673905D01*
X20644634Y30572202D01*
X20644636Y30572198D01*
X20648318Y30564137D01*
X20654120Y30557441D01*
X20654122Y30557438D01*
X20694106Y30511294D01*
X20733151Y30466233D01*
X20842131Y30396196D01*
X20949701Y30364612D01*
X21002447Y30333316D01*
X24452596Y26883167D01*
X24484833Y26827039D01*
X24484395Y26762313D01*
X24451402Y26706626D01*
X24394842Y26675152D01*
X24321282Y26656858D01*
X24321274Y26656856D01*
X24314751Y26655233D01*
X24308729Y26652247D01*
X24308725Y26652245D01*
X24159912Y26578440D01*
X24159909Y26578439D01*
X24153890Y26575453D01*
X24148654Y26571245D01*
X24148649Y26571241D01*
X24019181Y26467172D01*
X24019176Y26467168D01*
X24013941Y26462959D01*
X24009732Y26457724D01*
X24009728Y26457719D01*
X23905659Y26328251D01*
X23905655Y26328246D01*
X23901447Y26323010D01*
X23898461Y26316991D01*
X23898460Y26316988D01*
X23824655Y26168175D01*
X23824653Y26168171D01*
X23821667Y26162149D01*
X23820046Y26155633D01*
X23820043Y26155623D01*
X23779650Y25993193D01*
X23778334Y25987900D01*
X23777965Y25982462D01*
X23777965Y25982460D01*
X23775741Y25949675D01*
X23775740Y25949652D01*
X23775600Y25947584D01*
X23775600Y24654016D01*
X23775740Y24651948D01*
X23775741Y24651926D01*
X23777965Y24619141D01*
X23778334Y24613700D01*
X23779649Y24608409D01*
X23779650Y24608408D01*
X23820043Y24445978D01*
X23820045Y24445971D01*
X23821667Y24439451D01*
X23901447Y24278590D01*
X24013941Y24138641D01*
X24153890Y24026147D01*
X24314751Y23946367D01*
X24489000Y23903034D01*
X24529316Y23900300D01*
X25820787Y23900300D01*
X25822884Y23900300D01*
X25863200Y23903034D01*
X26037449Y23946367D01*
X26198310Y24026147D01*
X26338259Y24138641D01*
X26450753Y24278590D01*
X26530533Y24439451D01*
X26573866Y24613700D01*
X26576600Y24654016D01*
X26576600Y25947584D01*
X26573866Y25987900D01*
X26530533Y26162149D01*
X26450753Y26323010D01*
X26338259Y26462959D01*
X26198310Y26575453D01*
X26037449Y26655233D01*
X26030929Y26656855D01*
X26030922Y26656857D01*
X25868492Y26697250D01*
X25868491Y26697251D01*
X25863200Y26698566D01*
X25857759Y26698935D01*
X25824974Y26701159D01*
X25824952Y26701160D01*
X25822884Y26701300D01*
X25820787Y26701300D01*
X25660847Y26701300D01*
X25609476Y26712441D01*
X25567337Y26743864D01*
X25542178Y26789600D01*
X25540966Y26799326D01*
X25537473Y26806471D01*
X25536165Y26814310D01*
X25511258Y26860334D01*
X25508937Y26864841D01*
X25485926Y26911911D01*
X25480302Y26917535D01*
X25476519Y26924526D01*
X25468958Y26931486D01*
X25468957Y26931488D01*
X25438018Y26959969D01*
X25434320Y26963517D01*
X25027525Y27370313D01*
X25027524Y27370314D01*
X25027518Y27370320D01*
X25027514Y27370323D01*
X23441837Y28956000D01*
X32734706Y28956000D01*
X32753854Y28712698D01*
X32754988Y28707974D01*
X32754989Y28707969D01*
X32809690Y28480127D01*
X32810828Y28475388D01*
X32812693Y28470884D01*
X32812694Y28470883D01*
X32902357Y28254414D01*
X32902361Y28254406D01*
X32904223Y28249911D01*
X32961986Y28155651D01*
X33010932Y28075777D01*
X33031741Y28041821D01*
X33034905Y28038116D01*
X33034909Y28038111D01*
X33112252Y27947554D01*
X33190241Y27856241D01*
X33193948Y27853075D01*
X33372110Y27700910D01*
X33372113Y27700908D01*
X33375821Y27697741D01*
X33583911Y27570223D01*
X33588410Y27568360D01*
X33588413Y27568358D01*
X33614202Y27557676D01*
X33809388Y27476828D01*
X34046698Y27419854D01*
X34290000Y27400706D01*
X34533302Y27419854D01*
X34770612Y27476828D01*
X34996089Y27570223D01*
X35204179Y27697741D01*
X35389759Y27856241D01*
X35548259Y28041821D01*
X35675777Y28249911D01*
X35769172Y28475388D01*
X35826146Y28712698D01*
X35845294Y28956000D01*
X35826146Y29199302D01*
X35769172Y29436612D01*
X35675777Y29662089D01*
X35548259Y29870179D01*
X35389759Y30055759D01*
X35386051Y30058926D01*
X35207889Y30211091D01*
X35207884Y30211095D01*
X35204179Y30214259D01*
X35200023Y30216806D01*
X35200020Y30216808D01*
X35108374Y30272969D01*
X34996089Y30341777D01*
X34991594Y30343639D01*
X34991586Y30343643D01*
X34775117Y30433306D01*
X34775116Y30433307D01*
X34770612Y30435172D01*
X34765875Y30436310D01*
X34765873Y30436310D01*
X34538031Y30491011D01*
X34538026Y30491012D01*
X34533302Y30492146D01*
X34528455Y30492528D01*
X34528452Y30492528D01*
X34294854Y30510912D01*
X34290000Y30511294D01*
X34285146Y30510912D01*
X34051547Y30492528D01*
X34051542Y30492528D01*
X34046698Y30492146D01*
X34041975Y30491013D01*
X34041968Y30491011D01*
X33814126Y30436310D01*
X33814120Y30436309D01*
X33809388Y30435172D01*
X33804886Y30433308D01*
X33804882Y30433306D01*
X33588413Y30343643D01*
X33588400Y30343637D01*
X33583911Y30341777D01*
X33579757Y30339232D01*
X33579756Y30339231D01*
X33379979Y30216808D01*
X33379970Y30216802D01*
X33375821Y30214259D01*
X33372121Y30211100D01*
X33372110Y30211091D01*
X33193948Y30058926D01*
X33193941Y30058920D01*
X33190241Y30055759D01*
X33187080Y30052059D01*
X33187074Y30052052D01*
X33034909Y29873890D01*
X33034900Y29873879D01*
X33031741Y29870179D01*
X33029198Y29866030D01*
X33029192Y29866021D01*
X32906769Y29666244D01*
X32904223Y29662089D01*
X32902363Y29657600D01*
X32902357Y29657587D01*
X32812694Y29441118D01*
X32810828Y29436612D01*
X32809691Y29431880D01*
X32809690Y29431874D01*
X32754989Y29204032D01*
X32754987Y29204025D01*
X32753854Y29199302D01*
X32734706Y28956000D01*
X23441837Y28956000D01*
X21490848Y30906990D01*
X21465735Y30943159D01*
X21414082Y31056263D01*
X21329249Y31154167D01*
X21321789Y31158962D01*
X21321787Y31158963D01*
X21274758Y31189186D01*
X21220269Y31224204D01*
X21211755Y31226704D01*
X21104484Y31258201D01*
X21104482Y31258202D01*
X21095972Y31260700D01*
X20966428Y31260700D01*
X20957918Y31258202D01*
X20957915Y31258201D01*
X20850644Y31226704D01*
X20850641Y31226703D01*
X20842131Y31224204D01*
X20834668Y31219409D01*
X20834668Y31219408D01*
X20740612Y31158963D01*
X20740606Y31158959D01*
X20733151Y31154167D01*
X20727346Y31147468D01*
X20727343Y31147465D01*
X20654122Y31062963D01*
X20654117Y31062957D01*
X20648318Y31056263D01*
X20644638Y31048206D01*
X20644634Y31048199D01*
X20598188Y30946496D01*
X20594503Y30938426D01*
X20593241Y30929653D01*
X20593240Y30929647D01*
X20593078Y30928517D01*
X20576067Y30810200D01*
X5520900Y30810200D01*
X5520900Y33956000D01*
X32734706Y33956000D01*
X32753854Y33712698D01*
X32810828Y33475388D01*
X32812693Y33470884D01*
X32812694Y33470883D01*
X32902357Y33254414D01*
X32902361Y33254406D01*
X32904223Y33249911D01*
X33031741Y33041821D01*
X33034905Y33038116D01*
X33034909Y33038111D01*
X33187074Y32859949D01*
X33190241Y32856241D01*
X33193948Y32853075D01*
X33372110Y32700910D01*
X33372113Y32700908D01*
X33375821Y32697741D01*
X33583911Y32570223D01*
X33588410Y32568360D01*
X33588413Y32568358D01*
X33649600Y32543014D01*
X33809388Y32476828D01*
X34046698Y32419854D01*
X34290000Y32400706D01*
X34533302Y32419854D01*
X34770612Y32476828D01*
X34996089Y32570223D01*
X35204179Y32697741D01*
X35389759Y32856241D01*
X35548259Y33041821D01*
X35675777Y33249911D01*
X35769172Y33475388D01*
X35826146Y33712698D01*
X35845294Y33956000D01*
X35826146Y34199302D01*
X35769172Y34436612D01*
X35675777Y34662089D01*
X35548259Y34870179D01*
X35389759Y35055759D01*
X35386051Y35058926D01*
X35207889Y35211091D01*
X35207884Y35211095D01*
X35204179Y35214259D01*
X35200023Y35216806D01*
X35200020Y35216808D01*
X35108374Y35272969D01*
X34996089Y35341777D01*
X34991594Y35343639D01*
X34991586Y35343643D01*
X34775117Y35433306D01*
X34775116Y35433307D01*
X34770612Y35435172D01*
X34765875Y35436310D01*
X34765873Y35436310D01*
X34538031Y35491011D01*
X34538026Y35491012D01*
X34533302Y35492146D01*
X34528455Y35492528D01*
X34528452Y35492528D01*
X34294854Y35510912D01*
X34290000Y35511294D01*
X34285146Y35510912D01*
X34051547Y35492528D01*
X34051542Y35492528D01*
X34046698Y35492146D01*
X34041975Y35491013D01*
X34041968Y35491011D01*
X33814126Y35436310D01*
X33814120Y35436309D01*
X33809388Y35435172D01*
X33804886Y35433308D01*
X33804882Y35433306D01*
X33588413Y35343643D01*
X33588400Y35343637D01*
X33583911Y35341777D01*
X33579757Y35339232D01*
X33579756Y35339231D01*
X33379979Y35216808D01*
X33379970Y35216802D01*
X33375821Y35214259D01*
X33372121Y35211100D01*
X33372110Y35211091D01*
X33193948Y35058926D01*
X33193941Y35058920D01*
X33190241Y35055759D01*
X33187080Y35052059D01*
X33187074Y35052052D01*
X33034909Y34873890D01*
X33034900Y34873879D01*
X33031741Y34870179D01*
X33029198Y34866030D01*
X33029192Y34866021D01*
X32906769Y34666244D01*
X32904223Y34662089D01*
X32902363Y34657600D01*
X32902357Y34657587D01*
X32812694Y34441118D01*
X32810828Y34436612D01*
X32809691Y34431880D01*
X32809690Y34431874D01*
X32754989Y34204032D01*
X32754987Y34204025D01*
X32753854Y34199302D01*
X32734706Y33956000D01*
X5520900Y33956000D01*
X5520900Y38956000D01*
X32734706Y38956000D01*
X32753854Y38712698D01*
X32810828Y38475388D01*
X32812693Y38470884D01*
X32812694Y38470883D01*
X32902357Y38254414D01*
X32902361Y38254406D01*
X32904223Y38249911D01*
X33031741Y38041821D01*
X33034905Y38038116D01*
X33034909Y38038111D01*
X33187074Y37859949D01*
X33190241Y37856241D01*
X33193948Y37853075D01*
X33372110Y37700910D01*
X33372113Y37700908D01*
X33375821Y37697741D01*
X33583911Y37570223D01*
X33588410Y37568360D01*
X33588413Y37568358D01*
X33649600Y37543014D01*
X33809388Y37476828D01*
X34046698Y37419854D01*
X34290000Y37400706D01*
X34533302Y37419854D01*
X34770612Y37476828D01*
X34996089Y37570223D01*
X35204179Y37697741D01*
X35389759Y37856241D01*
X35548259Y38041821D01*
X35675777Y38249911D01*
X35769172Y38475388D01*
X35826146Y38712698D01*
X35845294Y38956000D01*
X35826146Y39199302D01*
X35769172Y39436612D01*
X35675777Y39662089D01*
X35548259Y39870179D01*
X35536693Y39883721D01*
X35392925Y40052052D01*
X35389759Y40055759D01*
X35367612Y40074674D01*
X35207889Y40211091D01*
X35207884Y40211095D01*
X35204179Y40214259D01*
X35200023Y40216806D01*
X35200020Y40216808D01*
X35108374Y40272969D01*
X34996089Y40341777D01*
X34991594Y40343639D01*
X34991586Y40343643D01*
X34775117Y40433306D01*
X34775116Y40433307D01*
X34770612Y40435172D01*
X34765875Y40436310D01*
X34765873Y40436310D01*
X34538031Y40491011D01*
X34538026Y40491012D01*
X34533302Y40492146D01*
X34528455Y40492528D01*
X34528452Y40492528D01*
X34294854Y40510912D01*
X34290000Y40511294D01*
X34285146Y40510912D01*
X34051547Y40492528D01*
X34051542Y40492528D01*
X34046698Y40492146D01*
X34041975Y40491013D01*
X34041968Y40491011D01*
X33814126Y40436310D01*
X33814120Y40436309D01*
X33809388Y40435172D01*
X33804886Y40433308D01*
X33804882Y40433306D01*
X33588413Y40343643D01*
X33588400Y40343637D01*
X33583911Y40341777D01*
X33579757Y40339232D01*
X33579756Y40339231D01*
X33379979Y40216808D01*
X33379970Y40216802D01*
X33375821Y40214259D01*
X33372121Y40211100D01*
X33372110Y40211091D01*
X33193948Y40058926D01*
X33193941Y40058920D01*
X33190241Y40055759D01*
X33187080Y40052059D01*
X33187074Y40052052D01*
X33034909Y39873890D01*
X33034900Y39873879D01*
X33031741Y39870179D01*
X33029198Y39866030D01*
X33029192Y39866021D01*
X32906769Y39666244D01*
X32904223Y39662089D01*
X32902363Y39657600D01*
X32902357Y39657587D01*
X32812694Y39441118D01*
X32810828Y39436612D01*
X32809691Y39431880D01*
X32809690Y39431874D01*
X32754989Y39204032D01*
X32754987Y39204025D01*
X32753854Y39199302D01*
X32753472Y39194458D01*
X32753472Y39194453D01*
X32743423Y39066766D01*
X32734706Y38956000D01*
X5520900Y38956000D01*
X5520900Y39015404D01*
X5530339Y39062857D01*
X5557219Y39103085D01*
X9621260Y43167126D01*
X9661488Y43194006D01*
X9693440Y43200362D01*
X9693179Y43202183D01*
X9701955Y43203445D01*
X9710827Y43203445D01*
X9835124Y43239941D01*
X9944104Y43309978D01*
X10028937Y43407882D01*
X10082752Y43525719D01*
X10101188Y43653945D01*
X10082752Y43782171D01*
X10028937Y43900008D01*
X9984626Y43951146D01*
X9944104Y43997912D01*
X9946523Y44000009D01*
X9918651Y44042292D01*
X9916271Y44109269D01*
X9949089Y44167700D01*
X11161618Y45380228D01*
X11210982Y45410478D01*
X11268698Y45415020D01*
X11322185Y45392865D01*
X11359785Y45348842D01*
X11373300Y45292547D01*
X11373300Y44757150D01*
X11365482Y44713817D01*
X11343015Y44675951D01*
X11317118Y44646063D01*
X11313436Y44638001D01*
X11313433Y44637996D01*
X11266988Y44536296D01*
X11263303Y44528226D01*
X11262041Y44519453D01*
X11262040Y44519447D01*
X11250779Y44441118D01*
X11244867Y44400000D01*
X11246129Y44391223D01*
X11262040Y44280554D01*
X11262041Y44280550D01*
X11263303Y44271774D01*
X11266987Y44263706D01*
X11266988Y44263705D01*
X11313434Y44162002D01*
X11313436Y44161998D01*
X11317118Y44153937D01*
X11322920Y44147241D01*
X11322922Y44147238D01*
X11355822Y44109269D01*
X11401951Y44056033D01*
X11510931Y43985996D01*
X11635228Y43949500D01*
X11755901Y43949500D01*
X11764772Y43949500D01*
X11786910Y43956000D01*
X32734706Y43956000D01*
X32753854Y43712698D01*
X32754988Y43707974D01*
X32754989Y43707969D01*
X32809690Y43480127D01*
X32810828Y43475388D01*
X32812693Y43470884D01*
X32812694Y43470883D01*
X32902357Y43254414D01*
X32902361Y43254406D01*
X32904223Y43249911D01*
X33031741Y43041821D01*
X33034905Y43038116D01*
X33034909Y43038111D01*
X33187074Y42859949D01*
X33190241Y42856241D01*
X33193948Y42853075D01*
X33372110Y42700910D01*
X33372113Y42700908D01*
X33375821Y42697741D01*
X33583911Y42570223D01*
X33588410Y42568360D01*
X33588413Y42568358D01*
X33649600Y42543014D01*
X33809388Y42476828D01*
X34046698Y42419854D01*
X34290000Y42400706D01*
X34533302Y42419854D01*
X34770612Y42476828D01*
X34996089Y42570223D01*
X35204179Y42697741D01*
X35389759Y42856241D01*
X35548259Y43041821D01*
X35675777Y43249911D01*
X35769172Y43475388D01*
X35826146Y43712698D01*
X35845294Y43956000D01*
X35826146Y44199302D01*
X35769172Y44436612D01*
X35675777Y44662089D01*
X35548259Y44870179D01*
X35389759Y45055759D01*
X35386051Y45058926D01*
X35207889Y45211091D01*
X35207884Y45211095D01*
X35204179Y45214259D01*
X35200023Y45216806D01*
X35200020Y45216808D01*
X35076425Y45292547D01*
X34996089Y45341777D01*
X34991594Y45343639D01*
X34991586Y45343643D01*
X34775117Y45433306D01*
X34775116Y45433307D01*
X34770612Y45435172D01*
X34765875Y45436310D01*
X34765873Y45436310D01*
X34538031Y45491011D01*
X34538026Y45491012D01*
X34533302Y45492146D01*
X34528455Y45492528D01*
X34528452Y45492528D01*
X34294854Y45510912D01*
X34290000Y45511294D01*
X34285146Y45510912D01*
X34051547Y45492528D01*
X34051542Y45492528D01*
X34046698Y45492146D01*
X34041975Y45491013D01*
X34041968Y45491011D01*
X33814126Y45436310D01*
X33814120Y45436309D01*
X33809388Y45435172D01*
X33804886Y45433308D01*
X33804882Y45433306D01*
X33588413Y45343643D01*
X33588400Y45343637D01*
X33583911Y45341777D01*
X33579757Y45339232D01*
X33579756Y45339231D01*
X33379979Y45216808D01*
X33379970Y45216802D01*
X33375821Y45214259D01*
X33372121Y45211100D01*
X33372110Y45211091D01*
X33193948Y45058926D01*
X33193941Y45058920D01*
X33190241Y45055759D01*
X33187080Y45052059D01*
X33187074Y45052052D01*
X33034909Y44873890D01*
X33034900Y44873879D01*
X33031741Y44870179D01*
X33029198Y44866030D01*
X33029192Y44866021D01*
X32935922Y44713817D01*
X32904223Y44662089D01*
X32902363Y44657600D01*
X32902357Y44657587D01*
X32812694Y44441118D01*
X32810828Y44436612D01*
X32809691Y44431880D01*
X32809690Y44431874D01*
X32754989Y44204032D01*
X32754987Y44204025D01*
X32753854Y44199302D01*
X32753472Y44194458D01*
X32753472Y44194453D01*
X32738004Y43997912D01*
X32734706Y43956000D01*
X11786910Y43956000D01*
X11889069Y43985996D01*
X11998049Y44056033D01*
X12082882Y44153937D01*
X12136697Y44271774D01*
X12155133Y44400000D01*
X12136697Y44528226D01*
X12082882Y44646063D01*
X12056984Y44675951D01*
X12034518Y44713817D01*
X12026700Y44757150D01*
X12026700Y45928000D01*
X16808867Y45928000D01*
X16810129Y45919223D01*
X16826040Y45808554D01*
X16826041Y45808550D01*
X16827303Y45799774D01*
X16830987Y45791707D01*
X16830988Y45791705D01*
X16877434Y45690002D01*
X16877436Y45689998D01*
X16881118Y45681937D01*
X16886920Y45675241D01*
X16886922Y45675238D01*
X16950638Y45601706D01*
X16965951Y45584033D01*
X17074931Y45513996D01*
X17199228Y45477500D01*
X17319901Y45477500D01*
X17328772Y45477500D01*
X17453069Y45513996D01*
X17562049Y45584033D01*
X17646882Y45681937D01*
X17700697Y45799774D01*
X17712102Y45879106D01*
X17723955Y45916959D01*
X17747155Y45949134D01*
X17989100Y46191079D01*
X17997052Y46198366D01*
X18026128Y46222762D01*
X18045100Y46255624D01*
X18050893Y46264717D01*
X18072659Y46295800D01*
X18075469Y46306291D01*
X18077039Y46309657D01*
X18078305Y46313138D01*
X18083734Y46322538D01*
X18090320Y46359895D01*
X18092662Y46370456D01*
X18099669Y46396607D01*
X18099668Y46396607D01*
X18102477Y46407086D01*
X18099172Y46444864D01*
X18098700Y46455671D01*
X18098700Y47341514D01*
X18108139Y47388967D01*
X18135019Y47429195D01*
X19661824Y48956000D01*
X32734706Y48956000D01*
X32753854Y48712698D01*
X32754988Y48707974D01*
X32754989Y48707969D01*
X32809690Y48480127D01*
X32810828Y48475388D01*
X32812693Y48470884D01*
X32812694Y48470883D01*
X32902357Y48254414D01*
X32902361Y48254406D01*
X32904223Y48249911D01*
X32906769Y48245757D01*
X33027287Y48049088D01*
X33031741Y48041821D01*
X33034905Y48038116D01*
X33034909Y48038111D01*
X33169675Y47880321D01*
X33190241Y47856241D01*
X33193948Y47853075D01*
X33372110Y47700910D01*
X33372113Y47700908D01*
X33375821Y47697741D01*
X33583911Y47570223D01*
X33588410Y47568360D01*
X33588413Y47568358D01*
X33613512Y47557962D01*
X33809388Y47476828D01*
X34046698Y47419854D01*
X34290000Y47400706D01*
X34533302Y47419854D01*
X34770612Y47476828D01*
X34996089Y47570223D01*
X35204179Y47697741D01*
X35389759Y47856241D01*
X35548259Y48041821D01*
X35675777Y48249911D01*
X35769172Y48475388D01*
X35826146Y48712698D01*
X35845294Y48956000D01*
X35826146Y49199302D01*
X35769172Y49436612D01*
X35693440Y49619447D01*
X35677642Y49657587D01*
X35677640Y49657590D01*
X35675777Y49662089D01*
X35548259Y49870179D01*
X35514925Y49909208D01*
X35392925Y50052052D01*
X35389759Y50055759D01*
X35386051Y50058926D01*
X35207889Y50211091D01*
X35207884Y50211095D01*
X35204179Y50214259D01*
X35200023Y50216806D01*
X35200020Y50216808D01*
X35108374Y50272969D01*
X34996089Y50341777D01*
X34991594Y50343639D01*
X34991586Y50343643D01*
X34775117Y50433306D01*
X34775116Y50433307D01*
X34770612Y50435172D01*
X34765875Y50436310D01*
X34765873Y50436310D01*
X34538031Y50491011D01*
X34538026Y50491012D01*
X34533302Y50492146D01*
X34528455Y50492528D01*
X34528452Y50492528D01*
X34294854Y50510912D01*
X34290000Y50511294D01*
X34285146Y50510912D01*
X34051547Y50492528D01*
X34051542Y50492528D01*
X34046698Y50492146D01*
X34041975Y50491013D01*
X34041968Y50491011D01*
X33814126Y50436310D01*
X33814120Y50436309D01*
X33809388Y50435172D01*
X33804886Y50433308D01*
X33804882Y50433306D01*
X33588413Y50343643D01*
X33588400Y50343637D01*
X33583911Y50341777D01*
X33579757Y50339232D01*
X33579756Y50339231D01*
X33379979Y50216808D01*
X33379970Y50216802D01*
X33375821Y50214259D01*
X33372121Y50211100D01*
X33372110Y50211091D01*
X33193948Y50058926D01*
X33193941Y50058920D01*
X33190241Y50055759D01*
X33187080Y50052059D01*
X33187074Y50052052D01*
X33034909Y49873890D01*
X33034900Y49873879D01*
X33031741Y49870179D01*
X33029198Y49866030D01*
X33029192Y49866021D01*
X32906769Y49666244D01*
X32904223Y49662089D01*
X32902363Y49657600D01*
X32902357Y49657587D01*
X32812694Y49441118D01*
X32810828Y49436612D01*
X32809691Y49431880D01*
X32809690Y49431874D01*
X32754989Y49204032D01*
X32754987Y49204025D01*
X32753854Y49199302D01*
X32753472Y49194458D01*
X32753472Y49194453D01*
X32740632Y49031296D01*
X32734706Y48956000D01*
X19661824Y48956000D01*
X26638059Y55932235D01*
X34145788Y55932235D01*
X34146282Y55927738D01*
X34146283Y55927733D01*
X34174917Y55667494D01*
X34174918Y55667487D01*
X34175414Y55662982D01*
X34176559Y55658602D01*
X34176561Y55658592D01*
X34221498Y55486708D01*
X34243928Y55400912D01*
X34245693Y55396758D01*
X34245696Y55396750D01*
X34348099Y55155777D01*
X34349870Y55151610D01*
X34352226Y55147749D01*
X34352229Y55147744D01*
X34450219Y54987182D01*
X34490982Y54920390D01*
X34568243Y54827551D01*
X34640421Y54740819D01*
X34664255Y54712180D01*
X34667630Y54709156D01*
X34667631Y54709155D01*
X34772330Y54615344D01*
X34865998Y54531418D01*
X35091910Y54381956D01*
X35337176Y54266980D01*
X35596569Y54188940D01*
X35864561Y54149500D01*
X36065369Y54149500D01*
X36067631Y54149500D01*
X36270156Y54164323D01*
X36534553Y54223220D01*
X36787558Y54319986D01*
X37023777Y54452559D01*
X37238177Y54618112D01*
X37426186Y54813119D01*
X37583799Y55033421D01*
X37707656Y55274325D01*
X37795118Y55530695D01*
X37844319Y55797067D01*
X37854212Y56067765D01*
X37824586Y56337018D01*
X37756072Y56599088D01*
X37753614Y56604871D01*
X37699878Y56731324D01*
X37650130Y56848390D01*
X37509018Y57079610D01*
X37335745Y57287820D01*
X37295820Y57323593D01*
X37137382Y57465554D01*
X37137378Y57465558D01*
X37134002Y57468582D01*
X36908090Y57618044D01*
X36903996Y57619964D01*
X36903991Y57619966D01*
X36666929Y57731096D01*
X36666925Y57731098D01*
X36662824Y57733020D01*
X36658477Y57734328D01*
X36658474Y57734329D01*
X36407772Y57809754D01*
X36407771Y57809755D01*
X36403431Y57811060D01*
X36398957Y57811719D01*
X36398950Y57811720D01*
X36139913Y57849842D01*
X36139907Y57849843D01*
X36135439Y57850500D01*
X35932369Y57850500D01*
X35930120Y57850336D01*
X35930109Y57850335D01*
X35734363Y57836008D01*
X35734359Y57836008D01*
X35729844Y57835677D01*
X35725426Y57834693D01*
X35725420Y57834692D01*
X35469877Y57777768D01*
X35469861Y57777764D01*
X35465447Y57776780D01*
X35461216Y57775162D01*
X35461210Y57775160D01*
X35216673Y57681633D01*
X35216663Y57681629D01*
X35212442Y57680014D01*
X35208494Y57677799D01*
X35208489Y57677796D01*
X34980176Y57549660D01*
X34980171Y57549657D01*
X34976223Y57547441D01*
X34972639Y57544675D01*
X34972635Y57544671D01*
X34765407Y57384657D01*
X34765394Y57384646D01*
X34761823Y57381888D01*
X34758685Y57378634D01*
X34758678Y57378627D01*
X34576958Y57190143D01*
X34576952Y57190136D01*
X34573814Y57186881D01*
X34571189Y57183213D01*
X34571179Y57183200D01*
X34418834Y56970260D01*
X34418830Y56970255D01*
X34416201Y56966579D01*
X34414132Y56962556D01*
X34414129Y56962550D01*
X34294416Y56729707D01*
X34294411Y56729696D01*
X34292344Y56725675D01*
X34290884Y56721398D01*
X34290879Y56721384D01*
X34206348Y56473605D01*
X34206344Y56473593D01*
X34204882Y56469305D01*
X34204057Y56464841D01*
X34204057Y56464839D01*
X34156504Y56207394D01*
X34156502Y56207381D01*
X34155681Y56202933D01*
X34155515Y56198407D01*
X34155515Y56198401D01*
X34148381Y56003182D01*
X34145788Y55932235D01*
X26638059Y55932235D01*
X27951805Y57245981D01*
X27992033Y57272861D01*
X28039486Y57282300D01*
X28055301Y57282300D01*
X28064172Y57282300D01*
X28188469Y57318796D01*
X28297449Y57388833D01*
X28382282Y57486737D01*
X28436097Y57604574D01*
X28454533Y57732800D01*
X28436097Y57861026D01*
X28382282Y57978863D01*
X28369235Y57993920D01*
X28303256Y58070065D01*
X28297449Y58076767D01*
X28289989Y58081562D01*
X28289987Y58081563D01*
X28208467Y58133952D01*
X28188469Y58146804D01*
X28179955Y58149304D01*
X28072684Y58180801D01*
X28072682Y58180802D01*
X28064172Y58183300D01*
X27934628Y58183300D01*
X27926118Y58180802D01*
X27926115Y58180801D01*
X27818844Y58149304D01*
X27818841Y58149303D01*
X27810331Y58146804D01*
X27802868Y58142009D01*
X27802868Y58142008D01*
X27708812Y58081563D01*
X27708806Y58081559D01*
X27701351Y58076767D01*
X27695546Y58070068D01*
X27695543Y58070065D01*
X27622322Y57985563D01*
X27622317Y57985557D01*
X27616518Y57978863D01*
X27612838Y57970806D01*
X27612834Y57970799D01*
X27566388Y57869097D01*
X27566388Y57869096D01*
X27562703Y57861026D01*
X27561441Y57852250D01*
X27561440Y57852246D01*
X27555125Y57808326D01*
X27543270Y57770469D01*
X27520068Y57738294D01*
X26285981Y56504205D01*
X26236618Y56473955D01*
X26178902Y56469413D01*
X26125415Y56491568D01*
X26087815Y56535591D01*
X26074300Y56591886D01*
X26074300Y57401050D01*
X26082118Y57444383D01*
X26104584Y57482250D01*
X26130482Y57512137D01*
X26184297Y57629974D01*
X26202733Y57758200D01*
X26184297Y57886426D01*
X26130482Y58004263D01*
X26100202Y58039208D01*
X26051456Y58095465D01*
X26045649Y58102167D01*
X26038189Y58106962D01*
X26038187Y58106963D01*
X25986853Y58139953D01*
X25936669Y58172204D01*
X25898879Y58183300D01*
X25820884Y58206201D01*
X25820882Y58206202D01*
X25812372Y58208700D01*
X25682828Y58208700D01*
X25674318Y58206202D01*
X25674315Y58206201D01*
X25567044Y58174704D01*
X25567041Y58174703D01*
X25558531Y58172204D01*
X25551068Y58167409D01*
X25551068Y58167408D01*
X25457012Y58106963D01*
X25457006Y58106959D01*
X25449551Y58102167D01*
X25443746Y58095468D01*
X25443743Y58095465D01*
X25370522Y58010963D01*
X25370517Y58010957D01*
X25364718Y58004263D01*
X25361038Y57996206D01*
X25361034Y57996199D01*
X25320828Y57908159D01*
X25310903Y57886426D01*
X25309641Y57877653D01*
X25309640Y57877647D01*
X25297169Y57790905D01*
X25292467Y57758200D01*
X25293729Y57749423D01*
X25309640Y57638754D01*
X25309641Y57638750D01*
X25310903Y57629974D01*
X25314587Y57621906D01*
X25314588Y57621905D01*
X25359597Y57523349D01*
X25364718Y57512137D01*
X25390615Y57482250D01*
X25413082Y57444383D01*
X25420900Y57401050D01*
X25420900Y56188854D01*
X25411461Y56141401D01*
X25384581Y56101173D01*
X17046899Y47763493D01*
X17038927Y47756187D01*
X17018180Y47738778D01*
X17018178Y47738777D01*
X17009872Y47731806D01*
X17004451Y47722418D01*
X17004446Y47722411D01*
X16990906Y47698959D01*
X16985098Y47689842D01*
X16969563Y47667656D01*
X16969559Y47667648D01*
X16963341Y47658767D01*
X16960533Y47648293D01*
X16958957Y47644911D01*
X16957685Y47641419D01*
X16952266Y47632030D01*
X16950383Y47621355D01*
X16950382Y47621350D01*
X16945680Y47594681D01*
X16943339Y47584123D01*
X16936329Y47557962D01*
X16936328Y47557957D01*
X16933522Y47547482D01*
X16934467Y47536679D01*
X16934467Y47536676D01*
X16936828Y47509697D01*
X16937300Y47498889D01*
X16937300Y47058518D01*
X16929482Y47015184D01*
X16907013Y46977315D01*
X16894922Y46963363D01*
X16894917Y46963357D01*
X16889118Y46956663D01*
X16885438Y46948606D01*
X16885434Y46948599D01*
X16838988Y46846896D01*
X16835303Y46838826D01*
X16834041Y46830053D01*
X16834040Y46830047D01*
X16819369Y46728007D01*
X16816867Y46710600D01*
X16818129Y46701823D01*
X16834040Y46591154D01*
X16834041Y46591150D01*
X16835303Y46582374D01*
X16838987Y46574306D01*
X16838988Y46574305D01*
X16885434Y46472602D01*
X16885436Y46472598D01*
X16889118Y46464537D01*
X16894920Y46457841D01*
X16894922Y46457838D01*
X16940603Y46405119D01*
X16967394Y46353151D01*
X16967394Y46294684D01*
X16940603Y46242716D01*
X16886925Y46180767D01*
X16886919Y46180759D01*
X16881118Y46174063D01*
X16877438Y46166006D01*
X16877434Y46165999D01*
X16830988Y46064296D01*
X16827303Y46056226D01*
X16826041Y46047453D01*
X16826040Y46047447D01*
X16811906Y45949137D01*
X16808867Y45928000D01*
X12026700Y45928000D01*
X12026700Y47417714D01*
X12036139Y47465167D01*
X12063019Y47505395D01*
X12194605Y47636981D01*
X12234833Y47663861D01*
X12282286Y47673300D01*
X13881170Y47673300D01*
X13891977Y47672829D01*
X13929763Y47669522D01*
X13966402Y47679341D01*
X13976952Y47681680D01*
X14014311Y47688266D01*
X14023715Y47693697D01*
X14027203Y47694966D01*
X14030559Y47696532D01*
X14041048Y47699341D01*
X14072135Y47721110D01*
X14081216Y47726896D01*
X14114087Y47745872D01*
X14138468Y47774930D01*
X14145766Y47782895D01*
X16719105Y50356234D01*
X16727073Y50363534D01*
X16747815Y50380938D01*
X16747814Y50380938D01*
X16756128Y50387913D01*
X16775104Y50420784D01*
X16780890Y50429865D01*
X16802659Y50460952D01*
X16805468Y50471441D01*
X16807034Y50474797D01*
X16808303Y50478285D01*
X16813734Y50487689D01*
X16820320Y50525048D01*
X16822659Y50535598D01*
X16832478Y50572237D01*
X16829171Y50610023D01*
X16828700Y50620830D01*
X16828700Y51298857D01*
X16844511Y51359446D01*
X16887910Y51404584D01*
X16947832Y51422761D01*
X17008995Y51409342D01*
X17055802Y51367747D01*
X17062612Y51357555D01*
X17062615Y51357552D01*
X17069399Y51347399D01*
X17152260Y51292034D01*
X17225326Y51277500D01*
X18768579Y51277500D01*
X18774674Y51277500D01*
X18847740Y51292034D01*
X18930601Y51347399D01*
X18985966Y51430260D01*
X19000500Y51503326D01*
X19000500Y53052674D01*
X18985966Y53125740D01*
X18930601Y53208601D01*
X18847740Y53263966D01*
X18835762Y53266349D01*
X18835759Y53266350D01*
X18780653Y53277311D01*
X18780649Y53277312D01*
X18774674Y53278500D01*
X18768579Y53278500D01*
X18068300Y53278500D01*
X18006300Y53295113D01*
X17960913Y53340500D01*
X17944300Y53402500D01*
X17944300Y57328901D01*
X17953739Y57376354D01*
X17980619Y57416582D01*
X18024618Y57460581D01*
X18064846Y57487461D01*
X18112299Y57496900D01*
X18251885Y57496900D01*
X18259385Y57496900D01*
X18412765Y57534704D01*
X18552640Y57608117D01*
X18670883Y57712870D01*
X18760620Y57842877D01*
X18816637Y57990582D01*
X18835678Y58147400D01*
X18816637Y58304218D01*
X18760620Y58451923D01*
X18670883Y58581930D01*
X18665272Y58586901D01*
X18558256Y58681708D01*
X18558254Y58681710D01*
X18552640Y58686683D01*
X18545995Y58690171D01*
X18545993Y58690172D01*
X18419406Y58756611D01*
X18419402Y58756613D01*
X18412765Y58760096D01*
X18405487Y58761890D01*
X18405484Y58761891D01*
X18266667Y58796106D01*
X18266660Y58796107D01*
X18259385Y58797900D01*
X18101415Y58797900D01*
X18094140Y58796108D01*
X18094132Y58796106D01*
X17955315Y58761891D01*
X17955309Y58761890D01*
X17948035Y58760096D01*
X17941400Y58756614D01*
X17941393Y58756611D01*
X17814806Y58690172D01*
X17814800Y58690169D01*
X17808160Y58686683D01*
X17802548Y58681713D01*
X17802543Y58681708D01*
X17695527Y58586901D01*
X17695522Y58586897D01*
X17689917Y58581930D01*
X17685662Y58575766D01*
X17685657Y58575760D01*
X17604443Y58458100D01*
X17604440Y58458097D01*
X17600180Y58451923D01*
X17597520Y58444912D01*
X17597518Y58444906D01*
X17546823Y58311233D01*
X17544163Y58304218D01*
X17543259Y58296778D01*
X17543258Y58296771D01*
X17528437Y58174704D01*
X17525122Y58147400D01*
X17526026Y58139955D01*
X17526026Y58139953D01*
X17531296Y58096546D01*
X17525417Y58041151D01*
X17495881Y57993920D01*
X17339908Y57837947D01*
X17320056Y57821826D01*
X17319781Y57821646D01*
X17319560Y57821501D01*
X17319558Y57821500D01*
X17310964Y57815884D01*
X17304658Y57807783D01*
X17304652Y57807777D01*
X17291520Y57790905D01*
X17288073Y57786978D01*
X17288218Y57786855D01*
X17284905Y57782945D01*
X17281280Y57779318D01*
X17278305Y57775152D01*
X17278298Y57775143D01*
X17269201Y57762401D01*
X17266142Y57758299D01*
X17240300Y57725097D01*
X17240296Y57725090D01*
X17233991Y57716989D01*
X17231409Y57709469D01*
X17226790Y57702999D01*
X17223860Y57693159D01*
X17223858Y57693154D01*
X17211856Y57652843D01*
X17210295Y57647971D01*
X17196636Y57608181D01*
X17196635Y57608176D01*
X17193300Y57598460D01*
X17193300Y57590506D01*
X17191032Y57582888D01*
X17191456Y57572625D01*
X17191456Y57572621D01*
X17193194Y57530607D01*
X17193300Y57525484D01*
X17193300Y56546135D01*
X17173881Y56479510D01*
X17121705Y56433753D01*
X17053115Y56423196D01*
X16989594Y56451146D01*
X16928145Y56502708D01*
X16928144Y56502709D01*
X16922614Y56507349D01*
X16887030Y56525220D01*
X16773265Y56582355D01*
X16773262Y56582356D01*
X16766815Y56585594D01*
X16740267Y56591886D01*
X16604198Y56624135D01*
X16604194Y56624136D01*
X16597171Y56625800D01*
X16466564Y56625800D01*
X16462999Y56625384D01*
X16462993Y56625383D01*
X16344003Y56611475D01*
X16344000Y56611475D01*
X16336836Y56610637D01*
X16330057Y56608170D01*
X16330054Y56608169D01*
X16179792Y56553478D01*
X16179788Y56553477D01*
X16173007Y56551008D01*
X16166980Y56547045D01*
X16166970Y56547039D01*
X16033382Y56459176D01*
X16033376Y56459172D01*
X16027346Y56455205D01*
X16022393Y56449956D01*
X16022388Y56449951D01*
X15912661Y56333648D01*
X15912657Y56333644D01*
X15907704Y56328393D01*
X15904095Y56322143D01*
X15904092Y56322138D01*
X15824143Y56183661D01*
X15824140Y56183657D01*
X15820533Y56177407D01*
X15818463Y56170495D01*
X15818462Y56170491D01*
X15787708Y56067765D01*
X15770531Y56010388D01*
X15760393Y55836340D01*
X15761645Y55829237D01*
X15761646Y55829229D01*
X15789413Y55671760D01*
X15789414Y55671756D01*
X15790668Y55664646D01*
X15793527Y55658018D01*
X15793528Y55658015D01*
X15850302Y55526396D01*
X15859721Y55504562D01*
X15861843Y55501712D01*
X15877837Y55446837D01*
X15866337Y55389024D01*
X15829441Y55343054D01*
X15775487Y55319314D01*
X15716667Y55323169D01*
X15666274Y55353749D01*
X15493627Y55526396D01*
X14325019Y56695005D01*
X14298139Y56735233D01*
X14288700Y56782686D01*
X14288700Y57263616D01*
X14296518Y57306949D01*
X14318986Y57344818D01*
X14334987Y57363285D01*
X14352882Y57383937D01*
X14406697Y57501774D01*
X14425133Y57630000D01*
X14406697Y57758226D01*
X14352882Y57876063D01*
X14268049Y57973967D01*
X14260589Y57978762D01*
X14260587Y57978763D01*
X14170571Y58036612D01*
X14159069Y58044004D01*
X14150555Y58046504D01*
X14043284Y58078001D01*
X14043282Y58078002D01*
X14034772Y58080500D01*
X13905228Y58080500D01*
X13896718Y58078002D01*
X13896715Y58078001D01*
X13789444Y58046504D01*
X13789441Y58046503D01*
X13780931Y58044004D01*
X13773468Y58039209D01*
X13773468Y58039208D01*
X13679412Y57978763D01*
X13679406Y57978759D01*
X13671951Y57973967D01*
X13666146Y57967268D01*
X13666143Y57967265D01*
X13592922Y57882763D01*
X13592917Y57882757D01*
X13587118Y57876063D01*
X13583438Y57868006D01*
X13583434Y57867999D01*
X13537299Y57766977D01*
X13533303Y57758226D01*
X13532041Y57749453D01*
X13532040Y57749447D01*
X13522058Y57680014D01*
X13514867Y57630000D01*
X13516129Y57621223D01*
X13532040Y57510554D01*
X13532041Y57510550D01*
X13533303Y57501774D01*
X13536987Y57493706D01*
X13536988Y57493705D01*
X13583434Y57392002D01*
X13583436Y57391998D01*
X13587118Y57383937D01*
X13592920Y57377241D01*
X13592922Y57377238D01*
X13605013Y57363285D01*
X13627482Y57325416D01*
X13635300Y57282082D01*
X13635300Y56615679D01*
X13634828Y56604871D01*
X13633732Y56592340D01*
X13631522Y56567086D01*
X13634328Y56556612D01*
X13634329Y56556608D01*
X13641340Y56530443D01*
X13643681Y56519883D01*
X13646445Y56504205D01*
X13650266Y56482538D01*
X13655686Y56473149D01*
X13656958Y56469656D01*
X13658533Y56466278D01*
X13661341Y56455801D01*
X13667562Y56446916D01*
X13667563Y56446915D01*
X13683096Y56424731D01*
X13688906Y56415611D01*
X13707872Y56382762D01*
X13716181Y56375790D01*
X13716182Y56375789D01*
X13736926Y56358383D01*
X13744902Y56351074D01*
X14948232Y55147744D01*
X16138981Y53956996D01*
X16165861Y53916768D01*
X16175300Y53869315D01*
X16175300Y53251156D01*
X16159489Y53190567D01*
X16116089Y53145428D01*
X16056167Y53127252D01*
X15995004Y53140672D01*
X15948197Y53182267D01*
X15937386Y53198447D01*
X15937384Y53198449D01*
X15930601Y53208601D01*
X15847740Y53263966D01*
X15835762Y53266349D01*
X15835759Y53266350D01*
X15780653Y53277311D01*
X15780649Y53277312D01*
X15774674Y53278500D01*
X15768579Y53278500D01*
X15690700Y53278500D01*
X15628700Y53295113D01*
X15583313Y53340500D01*
X15566700Y53402500D01*
X15566700Y53470250D01*
X15574518Y53513583D01*
X15596984Y53551450D01*
X15622882Y53581337D01*
X15676697Y53699174D01*
X15695133Y53827400D01*
X15676697Y53955626D01*
X15622882Y54073463D01*
X15538049Y54171367D01*
X15530589Y54176162D01*
X15530587Y54176163D01*
X15483558Y54206386D01*
X15429069Y54241404D01*
X15420555Y54243904D01*
X15313284Y54275401D01*
X15313282Y54275402D01*
X15304772Y54277900D01*
X15175228Y54277900D01*
X15166718Y54275402D01*
X15166715Y54275401D01*
X15059444Y54243904D01*
X15059441Y54243903D01*
X15050931Y54241404D01*
X15043468Y54236609D01*
X15043468Y54236608D01*
X14949412Y54176163D01*
X14949406Y54176159D01*
X14941951Y54171367D01*
X14936146Y54164668D01*
X14936143Y54164665D01*
X14862922Y54080163D01*
X14862917Y54080157D01*
X14857118Y54073463D01*
X14853438Y54065406D01*
X14853434Y54065399D01*
X14806988Y53963696D01*
X14803303Y53955626D01*
X14802041Y53946853D01*
X14802040Y53946847D01*
X14798278Y53920677D01*
X14784867Y53827400D01*
X14786129Y53818623D01*
X14802040Y53707954D01*
X14802041Y53707950D01*
X14803303Y53699174D01*
X14857118Y53581337D01*
X14883015Y53551450D01*
X14905482Y53513583D01*
X14913300Y53470250D01*
X14913300Y53402500D01*
X14896687Y53340500D01*
X14851300Y53295113D01*
X14789300Y53278500D01*
X14225326Y53278500D01*
X14219351Y53277312D01*
X14219346Y53277311D01*
X14164240Y53266350D01*
X14164235Y53266349D01*
X14152260Y53263966D01*
X14142105Y53257181D01*
X14142103Y53257180D01*
X14079551Y53215385D01*
X14079548Y53215383D01*
X14069399Y53208601D01*
X14062617Y53198452D01*
X14062615Y53198449D01*
X14020820Y53135897D01*
X14020819Y53135895D01*
X14014034Y53125740D01*
X14011651Y53113765D01*
X14011650Y53113760D01*
X14000689Y53058654D01*
X14000688Y53058649D01*
X13999500Y53052674D01*
X13999500Y53046579D01*
X13999500Y51790886D01*
X13990061Y51743433D01*
X13963181Y51703205D01*
X12122995Y49863019D01*
X12082767Y49836139D01*
X12035314Y49826700D01*
X11961327Y49826700D01*
X11894288Y49846384D01*
X11857262Y49870179D01*
X11789069Y49914004D01*
X11780555Y49916504D01*
X11673284Y49948001D01*
X11673282Y49948002D01*
X11664772Y49950500D01*
X11535228Y49950500D01*
X11526718Y49948002D01*
X11526715Y49948001D01*
X11419444Y49916504D01*
X11419441Y49916503D01*
X11410931Y49914004D01*
X11403468Y49909209D01*
X11403468Y49909208D01*
X11309412Y49848763D01*
X11309406Y49848759D01*
X11301951Y49843967D01*
X11296146Y49837268D01*
X11296143Y49837265D01*
X11222922Y49752763D01*
X11222917Y49752757D01*
X11217118Y49746063D01*
X11213438Y49738006D01*
X11213434Y49737999D01*
X11166988Y49636296D01*
X11163303Y49628226D01*
X11162041Y49619453D01*
X11162040Y49619447D01*
X11147369Y49517407D01*
X11144867Y49500000D01*
X11146129Y49491223D01*
X11146715Y49487147D01*
X11142954Y49434565D01*
X11117690Y49388297D01*
X11075488Y49356706D01*
X11023977Y49345500D01*
X10908028Y49345500D01*
X10899518Y49343002D01*
X10899515Y49343001D01*
X10792244Y49311504D01*
X10792241Y49311503D01*
X10783731Y49309004D01*
X10682110Y49243696D01*
X10678512Y49241384D01*
X10611473Y49221700D01*
X9490027Y49221700D01*
X9422988Y49241384D01*
X9317769Y49309004D01*
X9309255Y49311504D01*
X9201984Y49343001D01*
X9201982Y49343002D01*
X9193472Y49345500D01*
X9063928Y49345500D01*
X9055418Y49343002D01*
X9055415Y49343001D01*
X8948144Y49311504D01*
X8948141Y49311503D01*
X8939631Y49309004D01*
X8932168Y49304209D01*
X8932168Y49304208D01*
X8838112Y49243763D01*
X8838106Y49243759D01*
X8830651Y49238967D01*
X8824846Y49232268D01*
X8824843Y49232265D01*
X8751622Y49147763D01*
X8751617Y49147757D01*
X8745818Y49141063D01*
X8742138Y49133006D01*
X8742134Y49132999D01*
X8695688Y49031296D01*
X8692003Y49023226D01*
X8690741Y49014453D01*
X8690740Y49014447D01*
X8676069Y48912407D01*
X8673567Y48895000D01*
X8674829Y48886223D01*
X8690740Y48775554D01*
X8690741Y48775550D01*
X8692003Y48766774D01*
X8695687Y48758706D01*
X8695688Y48758705D01*
X8742134Y48657002D01*
X8742136Y48656998D01*
X8745818Y48648937D01*
X8751620Y48642241D01*
X8751622Y48642238D01*
X8815338Y48568706D01*
X8830651Y48551033D01*
X8939631Y48480996D01*
X9063928Y48444500D01*
X9184601Y48444500D01*
X9193472Y48444500D01*
X9317769Y48480996D01*
X9422988Y48548617D01*
X9490027Y48568300D01*
X10611473Y48568300D01*
X10678511Y48548617D01*
X10783731Y48480996D01*
X10786510Y48480180D01*
X10830131Y48445667D01*
X10854237Y48391613D01*
X10850542Y48332543D01*
X10819888Y48281914D01*
X10682899Y48144925D01*
X10674927Y48137619D01*
X10654180Y48120210D01*
X10654178Y48120209D01*
X10645872Y48113238D01*
X10640451Y48103850D01*
X10640446Y48103843D01*
X10626906Y48080391D01*
X10621098Y48071274D01*
X10605563Y48049088D01*
X10605559Y48049080D01*
X10599341Y48040199D01*
X10596533Y48029725D01*
X10594957Y48026343D01*
X10593685Y48022851D01*
X10588266Y48013462D01*
X10586383Y48002787D01*
X10586382Y48002782D01*
X10581680Y47976113D01*
X10579339Y47965555D01*
X10572329Y47939394D01*
X10572328Y47939389D01*
X10569522Y47928914D01*
X10570467Y47918111D01*
X10570467Y47918108D01*
X10572828Y47891129D01*
X10573300Y47880321D01*
X10573300Y46265685D01*
X10563861Y46218232D01*
X10536981Y46178004D01*
X10034119Y45675144D01*
X9975672Y45642320D01*
X9908681Y45644713D01*
X9852725Y45681623D01*
X9808760Y45732361D01*
X9808758Y45732363D01*
X9802949Y45739067D01*
X9795489Y45743862D01*
X9795487Y45743863D01*
X9721039Y45791707D01*
X9693969Y45809104D01*
X9685455Y45811604D01*
X9578184Y45843101D01*
X9578182Y45843102D01*
X9569672Y45845600D01*
X9440128Y45845600D01*
X9431618Y45843102D01*
X9431615Y45843101D01*
X9324344Y45811604D01*
X9324341Y45811603D01*
X9315831Y45809104D01*
X9308368Y45804309D01*
X9308368Y45804308D01*
X9214312Y45743863D01*
X9214306Y45743859D01*
X9206851Y45739067D01*
X9201046Y45732368D01*
X9201043Y45732365D01*
X9127822Y45647863D01*
X9127817Y45647857D01*
X9122018Y45641163D01*
X9118338Y45633106D01*
X9118334Y45633099D01*
X9071888Y45531396D01*
X9068203Y45523326D01*
X9066941Y45514553D01*
X9066940Y45514547D01*
X9056797Y45443999D01*
X9044943Y45406142D01*
X9021740Y45373966D01*
X3796099Y40148325D01*
X3788127Y40141019D01*
X3767380Y40123610D01*
X3767378Y40123609D01*
X3759072Y40116638D01*
X3753651Y40107250D01*
X3753646Y40107243D01*
X3740106Y40083791D01*
X3734298Y40074674D01*
X3718763Y40052488D01*
X3718759Y40052480D01*
X3712541Y40043599D01*
X3709733Y40033125D01*
X3708157Y40029743D01*
X3706885Y40026251D01*
X3701466Y40016862D01*
X3699583Y40006187D01*
X3699582Y40006182D01*
X3694880Y39979513D01*
X3692539Y39968955D01*
X3685529Y39942794D01*
X3685528Y39942789D01*
X3682722Y39932314D01*
X3683667Y39921511D01*
X3683667Y39921508D01*
X3686028Y39894529D01*
X3686500Y39883721D01*
X3686500Y20067550D01*
X3678682Y20024217D01*
X3656215Y19986351D01*
X3630318Y19956463D01*
X3626636Y19948401D01*
X3626633Y19948396D01*
X3580188Y19846696D01*
X3576503Y19838626D01*
X3575241Y19829853D01*
X3575240Y19829847D01*
X3560569Y19727807D01*
X3558067Y19710400D01*
X3559329Y19701623D01*
X3575240Y19590954D01*
X3575241Y19590950D01*
X3576503Y19582174D01*
X3630318Y19464337D01*
X3656215Y19434450D01*
X3678682Y19396583D01*
X3686500Y19353250D01*
X3686500Y12930150D01*
X3678682Y12886817D01*
X3656215Y12848951D01*
X3630318Y12819063D01*
X3626636Y12811001D01*
X3626633Y12810996D01*
X3580188Y12709296D01*
X3576503Y12701226D01*
X3575241Y12692453D01*
X3575240Y12692447D01*
X3568627Y12646449D01*
X3558067Y12573000D01*
X500Y12573000D01*
X500Y54997439D01*
X606Y55002563D01*
X4749Y55102734D01*
X9488Y55217313D01*
X18052Y55413460D01*
X18881Y55423327D01*
X45491Y55636805D01*
X71578Y55834955D01*
X73151Y55844184D01*
X91613Y55932235D01*
X2145788Y55932235D01*
X2146282Y55927738D01*
X2146283Y55927733D01*
X2174917Y55667494D01*
X2174918Y55667487D01*
X2175414Y55662982D01*
X2176559Y55658602D01*
X2176561Y55658592D01*
X2221498Y55486708D01*
X2243928Y55400912D01*
X2245693Y55396758D01*
X2245696Y55396750D01*
X2348099Y55155777D01*
X2349870Y55151610D01*
X2352226Y55147749D01*
X2352229Y55147744D01*
X2450219Y54987182D01*
X2490982Y54920390D01*
X2568243Y54827551D01*
X2640421Y54740819D01*
X2664255Y54712180D01*
X2667630Y54709156D01*
X2667631Y54709155D01*
X2772330Y54615344D01*
X2865998Y54531418D01*
X3091910Y54381956D01*
X3337176Y54266980D01*
X3596569Y54188940D01*
X3864561Y54149500D01*
X4065369Y54149500D01*
X4067631Y54149500D01*
X4270156Y54164323D01*
X4534553Y54223220D01*
X4787558Y54319986D01*
X5023777Y54452559D01*
X5238177Y54618112D01*
X5426186Y54813119D01*
X5431352Y54820340D01*
X10680393Y54820340D01*
X10681645Y54813237D01*
X10681646Y54813229D01*
X10709413Y54655760D01*
X10709414Y54655756D01*
X10710668Y54648646D01*
X10713527Y54642018D01*
X10713528Y54642015D01*
X10762314Y54528915D01*
X10779721Y54488562D01*
X10784034Y54482769D01*
X10784035Y54482767D01*
X10857225Y54384456D01*
X10883832Y54348717D01*
X11017386Y54236651D01*
X11173185Y54158406D01*
X11342829Y54118200D01*
X11469837Y54118200D01*
X11473436Y54118200D01*
X11603164Y54133363D01*
X11766993Y54192992D01*
X11912654Y54288795D01*
X12032296Y54415607D01*
X12119467Y54566593D01*
X12169469Y54733612D01*
X12179607Y54907660D01*
X12149332Y55079354D01*
X12080279Y55239438D01*
X11976168Y55379283D01*
X11842614Y55491349D01*
X11816305Y55504562D01*
X11693265Y55566355D01*
X11693262Y55566356D01*
X11686815Y55569594D01*
X11677039Y55571911D01*
X11524198Y55608135D01*
X11524194Y55608136D01*
X11517171Y55609800D01*
X11386564Y55609800D01*
X11382999Y55609384D01*
X11382993Y55609383D01*
X11264003Y55595475D01*
X11264000Y55595475D01*
X11256836Y55594637D01*
X11250057Y55592170D01*
X11250054Y55592169D01*
X11099792Y55537478D01*
X11099788Y55537477D01*
X11093007Y55535008D01*
X11086980Y55531045D01*
X11086970Y55531039D01*
X10953382Y55443176D01*
X10953376Y55443172D01*
X10947346Y55439205D01*
X10942393Y55433956D01*
X10942388Y55433951D01*
X10832661Y55317648D01*
X10832657Y55317644D01*
X10827704Y55312393D01*
X10824095Y55306143D01*
X10824092Y55306138D01*
X10744143Y55167661D01*
X10744140Y55167657D01*
X10740533Y55161407D01*
X10738463Y55154495D01*
X10738462Y55154491D01*
X10701115Y55029741D01*
X10690531Y54994388D01*
X10690111Y54987185D01*
X10690111Y54987182D01*
X10685479Y54907660D01*
X10680393Y54820340D01*
X5431352Y54820340D01*
X5583799Y55033421D01*
X5707656Y55274325D01*
X5795118Y55530695D01*
X5844319Y55797067D01*
X5854212Y56067765D01*
X5824586Y56337018D01*
X5756072Y56599088D01*
X5753614Y56604871D01*
X5699878Y56731324D01*
X5650130Y56848390D01*
X5647719Y56852340D01*
X10680393Y56852340D01*
X10681645Y56845237D01*
X10681646Y56845229D01*
X10709413Y56687760D01*
X10709414Y56687756D01*
X10710668Y56680646D01*
X10713527Y56674018D01*
X10713528Y56674015D01*
X10775458Y56530443D01*
X10779721Y56520562D01*
X10784034Y56514769D01*
X10784035Y56514767D01*
X10844348Y56433753D01*
X10883832Y56380717D01*
X11017386Y56268651D01*
X11173185Y56190406D01*
X11342829Y56150200D01*
X11469837Y56150200D01*
X11473436Y56150200D01*
X11603164Y56165363D01*
X11766993Y56224992D01*
X11912654Y56320795D01*
X12032296Y56447607D01*
X12119467Y56598593D01*
X12169469Y56765612D01*
X12179607Y56939660D01*
X12149332Y57111354D01*
X12080279Y57271438D01*
X11976168Y57411283D01*
X11876635Y57494802D01*
X11848145Y57518708D01*
X11848144Y57518709D01*
X11842614Y57523349D01*
X11836163Y57526589D01*
X11693265Y57598355D01*
X11693262Y57598356D01*
X11686815Y57601594D01*
X11679790Y57603259D01*
X11524198Y57640135D01*
X11524194Y57640136D01*
X11517171Y57641800D01*
X11386564Y57641800D01*
X11382999Y57641384D01*
X11382993Y57641383D01*
X11264003Y57627475D01*
X11264000Y57627475D01*
X11256836Y57626637D01*
X11250057Y57624170D01*
X11250054Y57624169D01*
X11099792Y57569478D01*
X11099788Y57569477D01*
X11093007Y57567008D01*
X11086980Y57563045D01*
X11086970Y57563039D01*
X10953382Y57475176D01*
X10953376Y57475172D01*
X10947346Y57471205D01*
X10942393Y57465956D01*
X10942388Y57465951D01*
X10832661Y57349648D01*
X10832657Y57349644D01*
X10827704Y57344393D01*
X10824095Y57338143D01*
X10824092Y57338138D01*
X10744143Y57199661D01*
X10744140Y57199657D01*
X10740533Y57193407D01*
X10738463Y57186495D01*
X10738462Y57186491D01*
X10705305Y57075738D01*
X10690531Y57026388D01*
X10690111Y57019185D01*
X10690111Y57019182D01*
X10685479Y56939660D01*
X10680393Y56852340D01*
X5647719Y56852340D01*
X5509018Y57079610D01*
X5335745Y57287820D01*
X5295820Y57323593D01*
X5137382Y57465554D01*
X5137378Y57465558D01*
X5134002Y57468582D01*
X4908090Y57618044D01*
X4903996Y57619964D01*
X4903991Y57619966D01*
X4666929Y57731096D01*
X4666925Y57731098D01*
X4662824Y57733020D01*
X4658477Y57734328D01*
X4658474Y57734329D01*
X4407772Y57809754D01*
X4407771Y57809755D01*
X4403431Y57811060D01*
X4398957Y57811719D01*
X4398950Y57811720D01*
X4139913Y57849842D01*
X4139907Y57849843D01*
X4135439Y57850500D01*
X3932369Y57850500D01*
X3930120Y57850336D01*
X3930109Y57850335D01*
X3734363Y57836008D01*
X3734359Y57836008D01*
X3729844Y57835677D01*
X3725426Y57834693D01*
X3725420Y57834692D01*
X3469877Y57777768D01*
X3469861Y57777764D01*
X3465447Y57776780D01*
X3461216Y57775162D01*
X3461210Y57775160D01*
X3216673Y57681633D01*
X3216663Y57681629D01*
X3212442Y57680014D01*
X3208494Y57677799D01*
X3208489Y57677796D01*
X2980176Y57549660D01*
X2980171Y57549657D01*
X2976223Y57547441D01*
X2972639Y57544675D01*
X2972635Y57544671D01*
X2765407Y57384657D01*
X2765394Y57384646D01*
X2761823Y57381888D01*
X2758685Y57378634D01*
X2758678Y57378627D01*
X2576958Y57190143D01*
X2576952Y57190136D01*
X2573814Y57186881D01*
X2571189Y57183213D01*
X2571179Y57183200D01*
X2418834Y56970260D01*
X2418830Y56970255D01*
X2416201Y56966579D01*
X2414132Y56962556D01*
X2414129Y56962550D01*
X2294416Y56729707D01*
X2294411Y56729696D01*
X2292344Y56725675D01*
X2290884Y56721398D01*
X2290879Y56721384D01*
X2206348Y56473605D01*
X2206344Y56473593D01*
X2204882Y56469305D01*
X2204057Y56464841D01*
X2204057Y56464839D01*
X2156504Y56207394D01*
X2156502Y56207381D01*
X2155681Y56202933D01*
X2155515Y56198407D01*
X2155515Y56198401D01*
X2148381Y56003182D01*
X2145788Y55932235D01*
X91613Y55932235D01*
X117062Y56053608D01*
X117297Y56054698D01*
X160684Y56250401D01*
X162885Y56258889D01*
X223875Y56463747D01*
X224337Y56465257D01*
X284704Y56656716D01*
X287423Y56664435D01*
X365074Y56863436D01*
X365883Y56865447D01*
X442762Y57051049D01*
X445874Y57057949D01*
X539587Y57249643D01*
X540945Y57252333D01*
X633667Y57430449D01*
X637118Y57436638D01*
X651385Y57460581D01*
X746295Y57619861D01*
X748150Y57622871D01*
X856090Y57792303D01*
X859721Y57797684D01*
X983635Y57971236D01*
X986102Y57974567D01*
X1108401Y58133952D01*
X1112114Y58138555D01*
X1249903Y58301242D01*
X1253027Y58304789D01*
X1388811Y58452972D01*
X1392440Y58456762D01*
X1543238Y58607560D01*
X1547028Y58611189D01*
X1695211Y58746973D01*
X1698758Y58750097D01*
X1861445Y58887886D01*
X1866048Y58891599D01*
X2025433Y59013898D01*
X2028764Y59016365D01*
X2202316Y59140279D01*
X2207697Y59143910D01*
X2377129Y59251850D01*
X2380139Y59253705D01*
X2563373Y59362889D01*
X2569551Y59366333D01*
X2747667Y59459055D01*
X2750357Y59460413D01*
X2942051Y59554126D01*
X2948951Y59557238D01*
X3134553Y59634117D01*
X3136564Y59634926D01*
X3335565Y59712577D01*
X3343284Y59715296D01*
X3534743Y59775663D01*
X3536253Y59776125D01*
X3741111Y59837115D01*
X3749599Y59839316D01*
X3945302Y59882703D01*
X3946392Y59882938D01*
X4155816Y59926849D01*
X4165045Y59928422D01*
X4363195Y59954509D01*
X4576673Y59981119D01*
X4586540Y59981948D01*
X4782628Y59990510D01*
X4997437Y59999395D01*
X5002561Y59999500D01*
X34997439Y59999500D01*
X35002562Y59999395D01*
G37*
%TD.AperFunction*%
%TD*%
M02*
