%TF.GenerationSoftware,KiCad,Pcbnew,(7.0.0)*%
%TF.CreationDate,2023-03-11T20:41:09+01:00*%
%TF.ProjectId,StripController,53747269-7043-46f6-9e74-726f6c6c6572,rev?*%
%TF.SameCoordinates,Original*%
%TF.FileFunction,Legend,Top*%
%TF.FilePolarity,Positive*%
%FSLAX46Y46*%
G04 Gerber Fmt 4.6, Leading zero omitted, Abs format (unit mm)*
G04 Created by KiCad (PCBNEW (7.0.0)) date 2023-03-11 20:41:09*
%MOMM*%
%LPD*%
G01*
G04 APERTURE LIST*
G04 Aperture macros list*
%AMRoundRect*
0 Rectangle with rounded corners*
0 $1 Rounding radius*
0 $2 $3 $4 $5 $6 $7 $8 $9 X,Y pos of 4 corners*
0 Add a 4 corners polygon primitive as box body*
4,1,4,$2,$3,$4,$5,$6,$7,$8,$9,$2,$3,0*
0 Add four circle primitives for the rounded corners*
1,1,$1+$1,$2,$3*
1,1,$1+$1,$4,$5*
1,1,$1+$1,$6,$7*
1,1,$1+$1,$8,$9*
0 Add four rect primitives between the rounded corners*
20,1,$1+$1,$2,$3,$4,$5,0*
20,1,$1+$1,$4,$5,$6,$7,0*
20,1,$1+$1,$6,$7,$8,$9,0*
20,1,$1+$1,$8,$9,$2,$3,0*%
G04 Aperture macros list end*
%ADD10C,0.100000*%
%ADD11C,0.150000*%
%ADD12C,0.120000*%
%ADD13C,0.127000*%
%ADD14C,0.200000*%
%ADD15C,0.010000*%
%ADD16RoundRect,0.135000X-0.135000X-0.185000X0.135000X-0.185000X0.135000X0.185000X-0.135000X0.185000X0*%
%ADD17RoundRect,0.135000X0.185000X-0.135000X0.185000X0.135000X-0.185000X0.135000X-0.185000X-0.135000X0*%
%ADD18RoundRect,0.150000X0.150000X-0.512500X0.150000X0.512500X-0.150000X0.512500X-0.150000X-0.512500X0*%
%ADD19RoundRect,0.135000X-0.185000X0.135000X-0.185000X-0.135000X0.185000X-0.135000X0.185000X0.135000X0*%
%ADD20RoundRect,0.140000X0.170000X-0.140000X0.170000X0.140000X-0.170000X0.140000X-0.170000X-0.140000X0*%
%ADD21C,0.990600*%
%ADD22C,0.787400*%
%ADD23C,3.200000*%
%ADD24RoundRect,0.135000X0.135000X0.185000X-0.135000X0.185000X-0.135000X-0.185000X0.135000X-0.185000X0*%
%ADD25R,1.220000X0.650000*%
%ADD26R,0.500000X0.350000*%
%ADD27RoundRect,0.112500X0.112500X-0.187500X0.112500X0.187500X-0.112500X0.187500X-0.112500X-0.187500X0*%
%ADD28R,3.500000X2.350000*%
%ADD29RoundRect,0.140000X-0.170000X0.140000X-0.170000X-0.140000X0.170000X-0.140000X0.170000X0.140000X0*%
%ADD30RoundRect,0.218750X-0.256250X0.218750X-0.256250X-0.218750X0.256250X-0.218750X0.256250X0.218750X0*%
%ADD31RoundRect,0.250000X-0.550000X1.250000X-0.550000X-1.250000X0.550000X-1.250000X0.550000X1.250000X0*%
%ADD32RoundRect,0.147500X0.147500X0.172500X-0.147500X0.172500X-0.147500X-0.172500X0.147500X-0.172500X0*%
%ADD33RoundRect,0.150000X-0.825000X-0.150000X0.825000X-0.150000X0.825000X0.150000X-0.825000X0.150000X0*%
%ADD34RoundRect,0.575000X0.575000X-0.575000X0.575000X0.575000X-0.575000X0.575000X-0.575000X-0.575000X0*%
%ADD35RoundRect,0.140000X0.140000X0.170000X-0.140000X0.170000X-0.140000X-0.170000X0.140000X-0.170000X0*%
%ADD36RoundRect,0.250000X0.625000X-0.350000X0.625000X0.350000X-0.625000X0.350000X-0.625000X-0.350000X0*%
%ADD37O,1.750000X1.200000*%
%ADD38R,2.600000X2.600000*%
%ADD39C,2.600000*%
%ADD40RoundRect,0.250000X-1.250000X-0.550000X1.250000X-0.550000X1.250000X0.550000X-1.250000X0.550000X0*%
%ADD41R,1.400000X1.200000*%
%ADD42RoundRect,0.575000X-0.575000X0.575000X-0.575000X-0.575000X0.575000X-0.575000X0.575000X0.575000X0*%
%ADD43RoundRect,0.050000X0.050000X-0.375000X0.050000X0.375000X-0.050000X0.375000X-0.050000X-0.375000X0*%
%ADD44RoundRect,0.050000X0.375000X-0.050000X0.375000X0.050000X-0.375000X0.050000X-0.375000X-0.050000X0*%
%ADD45R,1.650000X1.650000*%
%ADD46RoundRect,0.250000X1.250000X0.550000X-1.250000X0.550000X-1.250000X-0.550000X1.250000X-0.550000X0*%
G04 APERTURE END LIST*
D10*
%TO.C,R24*%
X21299457Y50429248D02*
X21166124Y50619724D01*
X21070886Y50429248D02*
X21070886Y50829248D01*
X21070886Y50829248D02*
X21223267Y50829248D01*
X21223267Y50829248D02*
X21261362Y50810200D01*
X21261362Y50810200D02*
X21280409Y50791153D01*
X21280409Y50791153D02*
X21299457Y50753058D01*
X21299457Y50753058D02*
X21299457Y50695915D01*
X21299457Y50695915D02*
X21280409Y50657820D01*
X21280409Y50657820D02*
X21261362Y50638772D01*
X21261362Y50638772D02*
X21223267Y50619724D01*
X21223267Y50619724D02*
X21070886Y50619724D01*
X21451838Y50791153D02*
X21470886Y50810200D01*
X21470886Y50810200D02*
X21508981Y50829248D01*
X21508981Y50829248D02*
X21604219Y50829248D01*
X21604219Y50829248D02*
X21642314Y50810200D01*
X21642314Y50810200D02*
X21661362Y50791153D01*
X21661362Y50791153D02*
X21680409Y50753058D01*
X21680409Y50753058D02*
X21680409Y50714962D01*
X21680409Y50714962D02*
X21661362Y50657820D01*
X21661362Y50657820D02*
X21432790Y50429248D01*
X21432790Y50429248D02*
X21680409Y50429248D01*
X22023266Y50695915D02*
X22023266Y50429248D01*
X21928028Y50848296D02*
X21832790Y50562581D01*
X21832790Y50562581D02*
X22080409Y50562581D01*
%TO.C,R18*%
X20408152Y33555058D02*
X20217676Y33421725D01*
X20408152Y33326487D02*
X20008152Y33326487D01*
X20008152Y33326487D02*
X20008152Y33478868D01*
X20008152Y33478868D02*
X20027200Y33516963D01*
X20027200Y33516963D02*
X20046247Y33536010D01*
X20046247Y33536010D02*
X20084342Y33555058D01*
X20084342Y33555058D02*
X20141485Y33555058D01*
X20141485Y33555058D02*
X20179580Y33536010D01*
X20179580Y33536010D02*
X20198628Y33516963D01*
X20198628Y33516963D02*
X20217676Y33478868D01*
X20217676Y33478868D02*
X20217676Y33326487D01*
X20408152Y33936010D02*
X20408152Y33707439D01*
X20408152Y33821725D02*
X20008152Y33821725D01*
X20008152Y33821725D02*
X20065295Y33783629D01*
X20065295Y33783629D02*
X20103390Y33745534D01*
X20103390Y33745534D02*
X20122438Y33707439D01*
X20179580Y34164581D02*
X20160533Y34126486D01*
X20160533Y34126486D02*
X20141485Y34107439D01*
X20141485Y34107439D02*
X20103390Y34088391D01*
X20103390Y34088391D02*
X20084342Y34088391D01*
X20084342Y34088391D02*
X20046247Y34107439D01*
X20046247Y34107439D02*
X20027200Y34126486D01*
X20027200Y34126486D02*
X20008152Y34164581D01*
X20008152Y34164581D02*
X20008152Y34240772D01*
X20008152Y34240772D02*
X20027200Y34278867D01*
X20027200Y34278867D02*
X20046247Y34297915D01*
X20046247Y34297915D02*
X20084342Y34316962D01*
X20084342Y34316962D02*
X20103390Y34316962D01*
X20103390Y34316962D02*
X20141485Y34297915D01*
X20141485Y34297915D02*
X20160533Y34278867D01*
X20160533Y34278867D02*
X20179580Y34240772D01*
X20179580Y34240772D02*
X20179580Y34164581D01*
X20179580Y34164581D02*
X20198628Y34126486D01*
X20198628Y34126486D02*
X20217676Y34107439D01*
X20217676Y34107439D02*
X20255771Y34088391D01*
X20255771Y34088391D02*
X20331961Y34088391D01*
X20331961Y34088391D02*
X20370057Y34107439D01*
X20370057Y34107439D02*
X20389104Y34126486D01*
X20389104Y34126486D02*
X20408152Y34164581D01*
X20408152Y34164581D02*
X20408152Y34240772D01*
X20408152Y34240772D02*
X20389104Y34278867D01*
X20389104Y34278867D02*
X20370057Y34297915D01*
X20370057Y34297915D02*
X20331961Y34316962D01*
X20331961Y34316962D02*
X20255771Y34316962D01*
X20255771Y34316962D02*
X20217676Y34297915D01*
X20217676Y34297915D02*
X20198628Y34278867D01*
X20198628Y34278867D02*
X20179580Y34240772D01*
%TO.C,IC1*%
X13800124Y22311448D02*
X13800124Y22711448D01*
X14219171Y22349543D02*
X14200123Y22330496D01*
X14200123Y22330496D02*
X14142981Y22311448D01*
X14142981Y22311448D02*
X14104885Y22311448D01*
X14104885Y22311448D02*
X14047742Y22330496D01*
X14047742Y22330496D02*
X14009647Y22368591D01*
X14009647Y22368591D02*
X13990600Y22406686D01*
X13990600Y22406686D02*
X13971552Y22482877D01*
X13971552Y22482877D02*
X13971552Y22540020D01*
X13971552Y22540020D02*
X13990600Y22616210D01*
X13990600Y22616210D02*
X14009647Y22654305D01*
X14009647Y22654305D02*
X14047742Y22692400D01*
X14047742Y22692400D02*
X14104885Y22711448D01*
X14104885Y22711448D02*
X14142981Y22711448D01*
X14142981Y22711448D02*
X14200123Y22692400D01*
X14200123Y22692400D02*
X14219171Y22673353D01*
X14600123Y22311448D02*
X14371552Y22311448D01*
X14485838Y22311448D02*
X14485838Y22711448D01*
X14485838Y22711448D02*
X14447742Y22654305D01*
X14447742Y22654305D02*
X14409647Y22616210D01*
X14409647Y22616210D02*
X14371552Y22597162D01*
%TO.C,R11*%
X21172457Y57924248D02*
X21039124Y58114724D01*
X20943886Y57924248D02*
X20943886Y58324248D01*
X20943886Y58324248D02*
X21096267Y58324248D01*
X21096267Y58324248D02*
X21134362Y58305200D01*
X21134362Y58305200D02*
X21153409Y58286153D01*
X21153409Y58286153D02*
X21172457Y58248058D01*
X21172457Y58248058D02*
X21172457Y58190915D01*
X21172457Y58190915D02*
X21153409Y58152820D01*
X21153409Y58152820D02*
X21134362Y58133772D01*
X21134362Y58133772D02*
X21096267Y58114724D01*
X21096267Y58114724D02*
X20943886Y58114724D01*
X21553409Y57924248D02*
X21324838Y57924248D01*
X21439124Y57924248D02*
X21439124Y58324248D01*
X21439124Y58324248D02*
X21401028Y58267105D01*
X21401028Y58267105D02*
X21362933Y58229010D01*
X21362933Y58229010D02*
X21324838Y58209962D01*
X21934361Y57924248D02*
X21705790Y57924248D01*
X21820076Y57924248D02*
X21820076Y58324248D01*
X21820076Y58324248D02*
X21781980Y58267105D01*
X21781980Y58267105D02*
X21743885Y58229010D01*
X21743885Y58229010D02*
X21705790Y58209962D01*
%TO.C,C10*%
X9386857Y42799143D02*
X9367809Y42780096D01*
X9367809Y42780096D02*
X9310667Y42761048D01*
X9310667Y42761048D02*
X9272571Y42761048D01*
X9272571Y42761048D02*
X9215428Y42780096D01*
X9215428Y42780096D02*
X9177333Y42818191D01*
X9177333Y42818191D02*
X9158286Y42856286D01*
X9158286Y42856286D02*
X9139238Y42932477D01*
X9139238Y42932477D02*
X9139238Y42989620D01*
X9139238Y42989620D02*
X9158286Y43065810D01*
X9158286Y43065810D02*
X9177333Y43103905D01*
X9177333Y43103905D02*
X9215428Y43142000D01*
X9215428Y43142000D02*
X9272571Y43161048D01*
X9272571Y43161048D02*
X9310667Y43161048D01*
X9310667Y43161048D02*
X9367809Y43142000D01*
X9367809Y43142000D02*
X9386857Y43122953D01*
X9767809Y42761048D02*
X9539238Y42761048D01*
X9653524Y42761048D02*
X9653524Y43161048D01*
X9653524Y43161048D02*
X9615428Y43103905D01*
X9615428Y43103905D02*
X9577333Y43065810D01*
X9577333Y43065810D02*
X9539238Y43046762D01*
X10015428Y43161048D02*
X10053523Y43161048D01*
X10053523Y43161048D02*
X10091619Y43142000D01*
X10091619Y43142000D02*
X10110666Y43122953D01*
X10110666Y43122953D02*
X10129714Y43084858D01*
X10129714Y43084858D02*
X10148761Y43008667D01*
X10148761Y43008667D02*
X10148761Y42913429D01*
X10148761Y42913429D02*
X10129714Y42837239D01*
X10129714Y42837239D02*
X10110666Y42799143D01*
X10110666Y42799143D02*
X10091619Y42780096D01*
X10091619Y42780096D02*
X10053523Y42761048D01*
X10053523Y42761048D02*
X10015428Y42761048D01*
X10015428Y42761048D02*
X9977333Y42780096D01*
X9977333Y42780096D02*
X9958285Y42799143D01*
X9958285Y42799143D02*
X9939238Y42837239D01*
X9939238Y42837239D02*
X9920190Y42913429D01*
X9920190Y42913429D02*
X9920190Y43008667D01*
X9920190Y43008667D02*
X9939238Y43084858D01*
X9939238Y43084858D02*
X9958285Y43122953D01*
X9958285Y43122953D02*
X9977333Y43142000D01*
X9977333Y43142000D02*
X10015428Y43161048D01*
%TO.C,J5*%
X16966666Y54353048D02*
X16966666Y54067334D01*
X16966666Y54067334D02*
X16947619Y54010191D01*
X16947619Y54010191D02*
X16909523Y53972096D01*
X16909523Y53972096D02*
X16852381Y53953048D01*
X16852381Y53953048D02*
X16814285Y53953048D01*
X17347619Y54353048D02*
X17157143Y54353048D01*
X17157143Y54353048D02*
X17138095Y54162572D01*
X17138095Y54162572D02*
X17157143Y54181620D01*
X17157143Y54181620D02*
X17195238Y54200667D01*
X17195238Y54200667D02*
X17290476Y54200667D01*
X17290476Y54200667D02*
X17328571Y54181620D01*
X17328571Y54181620D02*
X17347619Y54162572D01*
X17347619Y54162572D02*
X17366666Y54124477D01*
X17366666Y54124477D02*
X17366666Y54029239D01*
X17366666Y54029239D02*
X17347619Y53991143D01*
X17347619Y53991143D02*
X17328571Y53972096D01*
X17328571Y53972096D02*
X17290476Y53953048D01*
X17290476Y53953048D02*
X17195238Y53953048D01*
X17195238Y53953048D02*
X17157143Y53972096D01*
X17157143Y53972096D02*
X17138095Y53991143D01*
%TO.C,R14*%
X2333657Y14653048D02*
X2200324Y14843524D01*
X2105086Y14653048D02*
X2105086Y15053048D01*
X2105086Y15053048D02*
X2257467Y15053048D01*
X2257467Y15053048D02*
X2295562Y15034000D01*
X2295562Y15034000D02*
X2314609Y15014953D01*
X2314609Y15014953D02*
X2333657Y14976858D01*
X2333657Y14976858D02*
X2333657Y14919715D01*
X2333657Y14919715D02*
X2314609Y14881620D01*
X2314609Y14881620D02*
X2295562Y14862572D01*
X2295562Y14862572D02*
X2257467Y14843524D01*
X2257467Y14843524D02*
X2105086Y14843524D01*
X2714609Y14653048D02*
X2486038Y14653048D01*
X2600324Y14653048D02*
X2600324Y15053048D01*
X2600324Y15053048D02*
X2562228Y14995905D01*
X2562228Y14995905D02*
X2524133Y14957810D01*
X2524133Y14957810D02*
X2486038Y14938762D01*
X3057466Y14919715D02*
X3057466Y14653048D01*
X2962228Y15072096D02*
X2866990Y14786381D01*
X2866990Y14786381D02*
X3114609Y14786381D01*
%TO.C,R10*%
X22848857Y50429248D02*
X22715524Y50619724D01*
X22620286Y50429248D02*
X22620286Y50829248D01*
X22620286Y50829248D02*
X22772667Y50829248D01*
X22772667Y50829248D02*
X22810762Y50810200D01*
X22810762Y50810200D02*
X22829809Y50791153D01*
X22829809Y50791153D02*
X22848857Y50753058D01*
X22848857Y50753058D02*
X22848857Y50695915D01*
X22848857Y50695915D02*
X22829809Y50657820D01*
X22829809Y50657820D02*
X22810762Y50638772D01*
X22810762Y50638772D02*
X22772667Y50619724D01*
X22772667Y50619724D02*
X22620286Y50619724D01*
X23229809Y50429248D02*
X23001238Y50429248D01*
X23115524Y50429248D02*
X23115524Y50829248D01*
X23115524Y50829248D02*
X23077428Y50772105D01*
X23077428Y50772105D02*
X23039333Y50734010D01*
X23039333Y50734010D02*
X23001238Y50714962D01*
X23477428Y50829248D02*
X23515523Y50829248D01*
X23515523Y50829248D02*
X23553619Y50810200D01*
X23553619Y50810200D02*
X23572666Y50791153D01*
X23572666Y50791153D02*
X23591714Y50753058D01*
X23591714Y50753058D02*
X23610761Y50676867D01*
X23610761Y50676867D02*
X23610761Y50581629D01*
X23610761Y50581629D02*
X23591714Y50505439D01*
X23591714Y50505439D02*
X23572666Y50467343D01*
X23572666Y50467343D02*
X23553619Y50448296D01*
X23553619Y50448296D02*
X23515523Y50429248D01*
X23515523Y50429248D02*
X23477428Y50429248D01*
X23477428Y50429248D02*
X23439333Y50448296D01*
X23439333Y50448296D02*
X23420285Y50467343D01*
X23420285Y50467343D02*
X23401238Y50505439D01*
X23401238Y50505439D02*
X23382190Y50581629D01*
X23382190Y50581629D02*
X23382190Y50676867D01*
X23382190Y50676867D02*
X23401238Y50753058D01*
X23401238Y50753058D02*
X23420285Y50791153D01*
X23420285Y50791153D02*
X23439333Y50810200D01*
X23439333Y50810200D02*
X23477428Y50829248D01*
%TO.C,TH1*%
X4285714Y49053048D02*
X4514285Y49053048D01*
X4399999Y48653048D02*
X4399999Y49053048D01*
X4647619Y48653048D02*
X4647619Y49053048D01*
X4647619Y48862572D02*
X4876190Y48862572D01*
X4876190Y48653048D02*
X4876190Y49053048D01*
X5276190Y48653048D02*
X5047619Y48653048D01*
X5161905Y48653048D02*
X5161905Y49053048D01*
X5161905Y49053048D02*
X5123809Y48995905D01*
X5123809Y48995905D02*
X5085714Y48957810D01*
X5085714Y48957810D02*
X5047619Y48938762D01*
%TO.C,Q6*%
X20061904Y23814953D02*
X20023809Y23834000D01*
X20023809Y23834000D02*
X19985714Y23872096D01*
X19985714Y23872096D02*
X19928571Y23929239D01*
X19928571Y23929239D02*
X19890476Y23948286D01*
X19890476Y23948286D02*
X19852380Y23948286D01*
X19871428Y23853048D02*
X19833333Y23872096D01*
X19833333Y23872096D02*
X19795238Y23910191D01*
X19795238Y23910191D02*
X19776190Y23986381D01*
X19776190Y23986381D02*
X19776190Y24119715D01*
X19776190Y24119715D02*
X19795238Y24195905D01*
X19795238Y24195905D02*
X19833333Y24234000D01*
X19833333Y24234000D02*
X19871428Y24253048D01*
X19871428Y24253048D02*
X19947619Y24253048D01*
X19947619Y24253048D02*
X19985714Y24234000D01*
X19985714Y24234000D02*
X20023809Y24195905D01*
X20023809Y24195905D02*
X20042857Y24119715D01*
X20042857Y24119715D02*
X20042857Y23986381D01*
X20042857Y23986381D02*
X20023809Y23910191D01*
X20023809Y23910191D02*
X19985714Y23872096D01*
X19985714Y23872096D02*
X19947619Y23853048D01*
X19947619Y23853048D02*
X19871428Y23853048D01*
X20385714Y24253048D02*
X20309524Y24253048D01*
X20309524Y24253048D02*
X20271428Y24234000D01*
X20271428Y24234000D02*
X20252381Y24214953D01*
X20252381Y24214953D02*
X20214286Y24157810D01*
X20214286Y24157810D02*
X20195238Y24081620D01*
X20195238Y24081620D02*
X20195238Y23929239D01*
X20195238Y23929239D02*
X20214286Y23891143D01*
X20214286Y23891143D02*
X20233333Y23872096D01*
X20233333Y23872096D02*
X20271428Y23853048D01*
X20271428Y23853048D02*
X20347619Y23853048D01*
X20347619Y23853048D02*
X20385714Y23872096D01*
X20385714Y23872096D02*
X20404762Y23891143D01*
X20404762Y23891143D02*
X20423809Y23929239D01*
X20423809Y23929239D02*
X20423809Y24024477D01*
X20423809Y24024477D02*
X20404762Y24062572D01*
X20404762Y24062572D02*
X20385714Y24081620D01*
X20385714Y24081620D02*
X20347619Y24100667D01*
X20347619Y24100667D02*
X20271428Y24100667D01*
X20271428Y24100667D02*
X20233333Y24081620D01*
X20233333Y24081620D02*
X20214286Y24062572D01*
X20214286Y24062572D02*
X20195238Y24024477D01*
%TO.C,Q1*%
X27361904Y47714953D02*
X27323809Y47734000D01*
X27323809Y47734000D02*
X27285714Y47772096D01*
X27285714Y47772096D02*
X27228571Y47829239D01*
X27228571Y47829239D02*
X27190476Y47848286D01*
X27190476Y47848286D02*
X27152380Y47848286D01*
X27171428Y47753048D02*
X27133333Y47772096D01*
X27133333Y47772096D02*
X27095238Y47810191D01*
X27095238Y47810191D02*
X27076190Y47886381D01*
X27076190Y47886381D02*
X27076190Y48019715D01*
X27076190Y48019715D02*
X27095238Y48095905D01*
X27095238Y48095905D02*
X27133333Y48134000D01*
X27133333Y48134000D02*
X27171428Y48153048D01*
X27171428Y48153048D02*
X27247619Y48153048D01*
X27247619Y48153048D02*
X27285714Y48134000D01*
X27285714Y48134000D02*
X27323809Y48095905D01*
X27323809Y48095905D02*
X27342857Y48019715D01*
X27342857Y48019715D02*
X27342857Y47886381D01*
X27342857Y47886381D02*
X27323809Y47810191D01*
X27323809Y47810191D02*
X27285714Y47772096D01*
X27285714Y47772096D02*
X27247619Y47753048D01*
X27247619Y47753048D02*
X27171428Y47753048D01*
X27723809Y47753048D02*
X27495238Y47753048D01*
X27609524Y47753048D02*
X27609524Y48153048D01*
X27609524Y48153048D02*
X27571428Y48095905D01*
X27571428Y48095905D02*
X27533333Y48057810D01*
X27533333Y48057810D02*
X27495238Y48038762D01*
%TO.C,R2*%
X23039333Y45273048D02*
X22906000Y45463524D01*
X22810762Y45273048D02*
X22810762Y45673048D01*
X22810762Y45673048D02*
X22963143Y45673048D01*
X22963143Y45673048D02*
X23001238Y45654000D01*
X23001238Y45654000D02*
X23020285Y45634953D01*
X23020285Y45634953D02*
X23039333Y45596858D01*
X23039333Y45596858D02*
X23039333Y45539715D01*
X23039333Y45539715D02*
X23020285Y45501620D01*
X23020285Y45501620D02*
X23001238Y45482572D01*
X23001238Y45482572D02*
X22963143Y45463524D01*
X22963143Y45463524D02*
X22810762Y45463524D01*
X23191714Y45634953D02*
X23210762Y45654000D01*
X23210762Y45654000D02*
X23248857Y45673048D01*
X23248857Y45673048D02*
X23344095Y45673048D01*
X23344095Y45673048D02*
X23382190Y45654000D01*
X23382190Y45654000D02*
X23401238Y45634953D01*
X23401238Y45634953D02*
X23420285Y45596858D01*
X23420285Y45596858D02*
X23420285Y45558762D01*
X23420285Y45558762D02*
X23401238Y45501620D01*
X23401238Y45501620D02*
X23172666Y45273048D01*
X23172666Y45273048D02*
X23420285Y45273048D01*
%TO.C,D1*%
X16409962Y26578648D02*
X16409962Y26978648D01*
X16409962Y26978648D02*
X16505200Y26978648D01*
X16505200Y26978648D02*
X16562343Y26959600D01*
X16562343Y26959600D02*
X16600438Y26921505D01*
X16600438Y26921505D02*
X16619485Y26883410D01*
X16619485Y26883410D02*
X16638533Y26807220D01*
X16638533Y26807220D02*
X16638533Y26750077D01*
X16638533Y26750077D02*
X16619485Y26673886D01*
X16619485Y26673886D02*
X16600438Y26635791D01*
X16600438Y26635791D02*
X16562343Y26597696D01*
X16562343Y26597696D02*
X16505200Y26578648D01*
X16505200Y26578648D02*
X16409962Y26578648D01*
X17019485Y26578648D02*
X16790914Y26578648D01*
X16905200Y26578648D02*
X16905200Y26978648D01*
X16905200Y26978648D02*
X16867104Y26921505D01*
X16867104Y26921505D02*
X16829009Y26883410D01*
X16829009Y26883410D02*
X16790914Y26864362D01*
%TO.C,C4*%
X11033333Y21191143D02*
X11014285Y21172096D01*
X11014285Y21172096D02*
X10957143Y21153048D01*
X10957143Y21153048D02*
X10919047Y21153048D01*
X10919047Y21153048D02*
X10861904Y21172096D01*
X10861904Y21172096D02*
X10823809Y21210191D01*
X10823809Y21210191D02*
X10804762Y21248286D01*
X10804762Y21248286D02*
X10785714Y21324477D01*
X10785714Y21324477D02*
X10785714Y21381620D01*
X10785714Y21381620D02*
X10804762Y21457810D01*
X10804762Y21457810D02*
X10823809Y21495905D01*
X10823809Y21495905D02*
X10861904Y21534000D01*
X10861904Y21534000D02*
X10919047Y21553048D01*
X10919047Y21553048D02*
X10957143Y21553048D01*
X10957143Y21553048D02*
X11014285Y21534000D01*
X11014285Y21534000D02*
X11033333Y21514953D01*
X11376190Y21419715D02*
X11376190Y21153048D01*
X11280952Y21572096D02*
X11185714Y21286381D01*
X11185714Y21286381D02*
X11433333Y21286381D01*
%TO.C,L1*%
X6833333Y30253048D02*
X6642857Y30253048D01*
X6642857Y30253048D02*
X6642857Y30653048D01*
X7176190Y30253048D02*
X6947619Y30253048D01*
X7061905Y30253048D02*
X7061905Y30653048D01*
X7061905Y30653048D02*
X7023809Y30595905D01*
X7023809Y30595905D02*
X6985714Y30557810D01*
X6985714Y30557810D02*
X6947619Y30538762D01*
%TO.C,Q2*%
X27361904Y32214953D02*
X27323809Y32234000D01*
X27323809Y32234000D02*
X27285714Y32272096D01*
X27285714Y32272096D02*
X27228571Y32329239D01*
X27228571Y32329239D02*
X27190476Y32348286D01*
X27190476Y32348286D02*
X27152380Y32348286D01*
X27171428Y32253048D02*
X27133333Y32272096D01*
X27133333Y32272096D02*
X27095238Y32310191D01*
X27095238Y32310191D02*
X27076190Y32386381D01*
X27076190Y32386381D02*
X27076190Y32519715D01*
X27076190Y32519715D02*
X27095238Y32595905D01*
X27095238Y32595905D02*
X27133333Y32634000D01*
X27133333Y32634000D02*
X27171428Y32653048D01*
X27171428Y32653048D02*
X27247619Y32653048D01*
X27247619Y32653048D02*
X27285714Y32634000D01*
X27285714Y32634000D02*
X27323809Y32595905D01*
X27323809Y32595905D02*
X27342857Y32519715D01*
X27342857Y32519715D02*
X27342857Y32386381D01*
X27342857Y32386381D02*
X27323809Y32310191D01*
X27323809Y32310191D02*
X27285714Y32272096D01*
X27285714Y32272096D02*
X27247619Y32253048D01*
X27247619Y32253048D02*
X27171428Y32253048D01*
X27495238Y32614953D02*
X27514286Y32634000D01*
X27514286Y32634000D02*
X27552381Y32653048D01*
X27552381Y32653048D02*
X27647619Y32653048D01*
X27647619Y32653048D02*
X27685714Y32634000D01*
X27685714Y32634000D02*
X27704762Y32614953D01*
X27704762Y32614953D02*
X27723809Y32576858D01*
X27723809Y32576858D02*
X27723809Y32538762D01*
X27723809Y32538762D02*
X27704762Y32481620D01*
X27704762Y32481620D02*
X27476190Y32253048D01*
X27476190Y32253048D02*
X27723809Y32253048D01*
%TO.C,C8*%
X15633333Y46091143D02*
X15614285Y46072096D01*
X15614285Y46072096D02*
X15557143Y46053048D01*
X15557143Y46053048D02*
X15519047Y46053048D01*
X15519047Y46053048D02*
X15461904Y46072096D01*
X15461904Y46072096D02*
X15423809Y46110191D01*
X15423809Y46110191D02*
X15404762Y46148286D01*
X15404762Y46148286D02*
X15385714Y46224477D01*
X15385714Y46224477D02*
X15385714Y46281620D01*
X15385714Y46281620D02*
X15404762Y46357810D01*
X15404762Y46357810D02*
X15423809Y46395905D01*
X15423809Y46395905D02*
X15461904Y46434000D01*
X15461904Y46434000D02*
X15519047Y46453048D01*
X15519047Y46453048D02*
X15557143Y46453048D01*
X15557143Y46453048D02*
X15614285Y46434000D01*
X15614285Y46434000D02*
X15633333Y46414953D01*
X15861904Y46281620D02*
X15823809Y46300667D01*
X15823809Y46300667D02*
X15804762Y46319715D01*
X15804762Y46319715D02*
X15785714Y46357810D01*
X15785714Y46357810D02*
X15785714Y46376858D01*
X15785714Y46376858D02*
X15804762Y46414953D01*
X15804762Y46414953D02*
X15823809Y46434000D01*
X15823809Y46434000D02*
X15861904Y46453048D01*
X15861904Y46453048D02*
X15938095Y46453048D01*
X15938095Y46453048D02*
X15976190Y46434000D01*
X15976190Y46434000D02*
X15995238Y46414953D01*
X15995238Y46414953D02*
X16014285Y46376858D01*
X16014285Y46376858D02*
X16014285Y46357810D01*
X16014285Y46357810D02*
X15995238Y46319715D01*
X15995238Y46319715D02*
X15976190Y46300667D01*
X15976190Y46300667D02*
X15938095Y46281620D01*
X15938095Y46281620D02*
X15861904Y46281620D01*
X15861904Y46281620D02*
X15823809Y46262572D01*
X15823809Y46262572D02*
X15804762Y46243524D01*
X15804762Y46243524D02*
X15785714Y46205429D01*
X15785714Y46205429D02*
X15785714Y46129239D01*
X15785714Y46129239D02*
X15804762Y46091143D01*
X15804762Y46091143D02*
X15823809Y46072096D01*
X15823809Y46072096D02*
X15861904Y46053048D01*
X15861904Y46053048D02*
X15938095Y46053048D01*
X15938095Y46053048D02*
X15976190Y46072096D01*
X15976190Y46072096D02*
X15995238Y46091143D01*
X15995238Y46091143D02*
X16014285Y46129239D01*
X16014285Y46129239D02*
X16014285Y46205429D01*
X16014285Y46205429D02*
X15995238Y46243524D01*
X15995238Y46243524D02*
X15976190Y46262572D01*
X15976190Y46262572D02*
X15938095Y46281620D01*
%TO.C,D2*%
X22575152Y55970563D02*
X22175152Y55970563D01*
X22175152Y55970563D02*
X22175152Y56065801D01*
X22175152Y56065801D02*
X22194200Y56122944D01*
X22194200Y56122944D02*
X22232295Y56161039D01*
X22232295Y56161039D02*
X22270390Y56180086D01*
X22270390Y56180086D02*
X22346580Y56199134D01*
X22346580Y56199134D02*
X22403723Y56199134D01*
X22403723Y56199134D02*
X22479914Y56180086D01*
X22479914Y56180086D02*
X22518009Y56161039D01*
X22518009Y56161039D02*
X22556104Y56122944D01*
X22556104Y56122944D02*
X22575152Y56065801D01*
X22575152Y56065801D02*
X22575152Y55970563D01*
X22213247Y56351515D02*
X22194200Y56370563D01*
X22194200Y56370563D02*
X22175152Y56408658D01*
X22175152Y56408658D02*
X22175152Y56503896D01*
X22175152Y56503896D02*
X22194200Y56541991D01*
X22194200Y56541991D02*
X22213247Y56561039D01*
X22213247Y56561039D02*
X22251342Y56580086D01*
X22251342Y56580086D02*
X22289438Y56580086D01*
X22289438Y56580086D02*
X22346580Y56561039D01*
X22346580Y56561039D02*
X22575152Y56332467D01*
X22575152Y56332467D02*
X22575152Y56580086D01*
X23809028Y58031201D02*
X23209028Y58031201D01*
X23209028Y58031201D02*
X23209028Y58259772D01*
X23209028Y58259772D02*
X23237600Y58316915D01*
X23237600Y58316915D02*
X23266171Y58345486D01*
X23266171Y58345486D02*
X23323314Y58374058D01*
X23323314Y58374058D02*
X23409028Y58374058D01*
X23409028Y58374058D02*
X23466171Y58345486D01*
X23466171Y58345486D02*
X23494742Y58316915D01*
X23494742Y58316915D02*
X23523314Y58259772D01*
X23523314Y58259772D02*
X23523314Y58031201D01*
X23209028Y58574058D02*
X23809028Y58716915D01*
X23809028Y58716915D02*
X23380457Y58831201D01*
X23380457Y58831201D02*
X23809028Y58945486D01*
X23809028Y58945486D02*
X23209028Y59088343D01*
X23809028Y59659772D02*
X23523314Y59459772D01*
X23809028Y59316915D02*
X23209028Y59316915D01*
X23209028Y59316915D02*
X23209028Y59545486D01*
X23209028Y59545486D02*
X23237600Y59602629D01*
X23237600Y59602629D02*
X23266171Y59631200D01*
X23266171Y59631200D02*
X23323314Y59659772D01*
X23323314Y59659772D02*
X23409028Y59659772D01*
X23409028Y59659772D02*
X23466171Y59631200D01*
X23466171Y59631200D02*
X23494742Y59602629D01*
X23494742Y59602629D02*
X23523314Y59545486D01*
X23523314Y59545486D02*
X23523314Y59316915D01*
%TO.C,Q5*%
X27361904Y52814953D02*
X27323809Y52834000D01*
X27323809Y52834000D02*
X27285714Y52872096D01*
X27285714Y52872096D02*
X27228571Y52929239D01*
X27228571Y52929239D02*
X27190476Y52948286D01*
X27190476Y52948286D02*
X27152380Y52948286D01*
X27171428Y52853048D02*
X27133333Y52872096D01*
X27133333Y52872096D02*
X27095238Y52910191D01*
X27095238Y52910191D02*
X27076190Y52986381D01*
X27076190Y52986381D02*
X27076190Y53119715D01*
X27076190Y53119715D02*
X27095238Y53195905D01*
X27095238Y53195905D02*
X27133333Y53234000D01*
X27133333Y53234000D02*
X27171428Y53253048D01*
X27171428Y53253048D02*
X27247619Y53253048D01*
X27247619Y53253048D02*
X27285714Y53234000D01*
X27285714Y53234000D02*
X27323809Y53195905D01*
X27323809Y53195905D02*
X27342857Y53119715D01*
X27342857Y53119715D02*
X27342857Y52986381D01*
X27342857Y52986381D02*
X27323809Y52910191D01*
X27323809Y52910191D02*
X27285714Y52872096D01*
X27285714Y52872096D02*
X27247619Y52853048D01*
X27247619Y52853048D02*
X27171428Y52853048D01*
X27704762Y53253048D02*
X27514286Y53253048D01*
X27514286Y53253048D02*
X27495238Y53062572D01*
X27495238Y53062572D02*
X27514286Y53081620D01*
X27514286Y53081620D02*
X27552381Y53100667D01*
X27552381Y53100667D02*
X27647619Y53100667D01*
X27647619Y53100667D02*
X27685714Y53081620D01*
X27685714Y53081620D02*
X27704762Y53062572D01*
X27704762Y53062572D02*
X27723809Y53024477D01*
X27723809Y53024477D02*
X27723809Y52929239D01*
X27723809Y52929239D02*
X27704762Y52891143D01*
X27704762Y52891143D02*
X27685714Y52872096D01*
X27685714Y52872096D02*
X27647619Y52853048D01*
X27647619Y52853048D02*
X27552381Y52853048D01*
X27552381Y52853048D02*
X27514286Y52872096D01*
X27514286Y52872096D02*
X27495238Y52891143D01*
%TO.C,R19*%
X4442857Y49953048D02*
X4309524Y50143524D01*
X4214286Y49953048D02*
X4214286Y50353048D01*
X4214286Y50353048D02*
X4366667Y50353048D01*
X4366667Y50353048D02*
X4404762Y50334000D01*
X4404762Y50334000D02*
X4423809Y50314953D01*
X4423809Y50314953D02*
X4442857Y50276858D01*
X4442857Y50276858D02*
X4442857Y50219715D01*
X4442857Y50219715D02*
X4423809Y50181620D01*
X4423809Y50181620D02*
X4404762Y50162572D01*
X4404762Y50162572D02*
X4366667Y50143524D01*
X4366667Y50143524D02*
X4214286Y50143524D01*
X4823809Y49953048D02*
X4595238Y49953048D01*
X4709524Y49953048D02*
X4709524Y50353048D01*
X4709524Y50353048D02*
X4671428Y50295905D01*
X4671428Y50295905D02*
X4633333Y50257810D01*
X4633333Y50257810D02*
X4595238Y50238762D01*
X5014285Y49953048D02*
X5090476Y49953048D01*
X5090476Y49953048D02*
X5128571Y49972096D01*
X5128571Y49972096D02*
X5147619Y49991143D01*
X5147619Y49991143D02*
X5185714Y50048286D01*
X5185714Y50048286D02*
X5204761Y50124477D01*
X5204761Y50124477D02*
X5204761Y50276858D01*
X5204761Y50276858D02*
X5185714Y50314953D01*
X5185714Y50314953D02*
X5166666Y50334000D01*
X5166666Y50334000D02*
X5128571Y50353048D01*
X5128571Y50353048D02*
X5052380Y50353048D01*
X5052380Y50353048D02*
X5014285Y50334000D01*
X5014285Y50334000D02*
X4995238Y50314953D01*
X4995238Y50314953D02*
X4976190Y50276858D01*
X4976190Y50276858D02*
X4976190Y50181620D01*
X4976190Y50181620D02*
X4995238Y50143524D01*
X4995238Y50143524D02*
X5014285Y50124477D01*
X5014285Y50124477D02*
X5052380Y50105429D01*
X5052380Y50105429D02*
X5128571Y50105429D01*
X5128571Y50105429D02*
X5166666Y50124477D01*
X5166666Y50124477D02*
X5185714Y50143524D01*
X5185714Y50143524D02*
X5204761Y50181620D01*
%TO.C,R21*%
X21883657Y37068848D02*
X21750324Y37259324D01*
X21655086Y37068848D02*
X21655086Y37468848D01*
X21655086Y37468848D02*
X21807467Y37468848D01*
X21807467Y37468848D02*
X21845562Y37449800D01*
X21845562Y37449800D02*
X21864609Y37430753D01*
X21864609Y37430753D02*
X21883657Y37392658D01*
X21883657Y37392658D02*
X21883657Y37335515D01*
X21883657Y37335515D02*
X21864609Y37297420D01*
X21864609Y37297420D02*
X21845562Y37278372D01*
X21845562Y37278372D02*
X21807467Y37259324D01*
X21807467Y37259324D02*
X21655086Y37259324D01*
X22036038Y37430753D02*
X22055086Y37449800D01*
X22055086Y37449800D02*
X22093181Y37468848D01*
X22093181Y37468848D02*
X22188419Y37468848D01*
X22188419Y37468848D02*
X22226514Y37449800D01*
X22226514Y37449800D02*
X22245562Y37430753D01*
X22245562Y37430753D02*
X22264609Y37392658D01*
X22264609Y37392658D02*
X22264609Y37354562D01*
X22264609Y37354562D02*
X22245562Y37297420D01*
X22245562Y37297420D02*
X22016990Y37068848D01*
X22016990Y37068848D02*
X22264609Y37068848D01*
X22645561Y37068848D02*
X22416990Y37068848D01*
X22531276Y37068848D02*
X22531276Y37468848D01*
X22531276Y37468848D02*
X22493180Y37411705D01*
X22493180Y37411705D02*
X22455085Y37373610D01*
X22455085Y37373610D02*
X22416990Y37354562D01*
%TO.C,C3*%
X16133333Y14591143D02*
X16114285Y14572096D01*
X16114285Y14572096D02*
X16057143Y14553048D01*
X16057143Y14553048D02*
X16019047Y14553048D01*
X16019047Y14553048D02*
X15961904Y14572096D01*
X15961904Y14572096D02*
X15923809Y14610191D01*
X15923809Y14610191D02*
X15904762Y14648286D01*
X15904762Y14648286D02*
X15885714Y14724477D01*
X15885714Y14724477D02*
X15885714Y14781620D01*
X15885714Y14781620D02*
X15904762Y14857810D01*
X15904762Y14857810D02*
X15923809Y14895905D01*
X15923809Y14895905D02*
X15961904Y14934000D01*
X15961904Y14934000D02*
X16019047Y14953048D01*
X16019047Y14953048D02*
X16057143Y14953048D01*
X16057143Y14953048D02*
X16114285Y14934000D01*
X16114285Y14934000D02*
X16133333Y14914953D01*
X16266666Y14953048D02*
X16514285Y14953048D01*
X16514285Y14953048D02*
X16380952Y14800667D01*
X16380952Y14800667D02*
X16438095Y14800667D01*
X16438095Y14800667D02*
X16476190Y14781620D01*
X16476190Y14781620D02*
X16495238Y14762572D01*
X16495238Y14762572D02*
X16514285Y14724477D01*
X16514285Y14724477D02*
X16514285Y14629239D01*
X16514285Y14629239D02*
X16495238Y14591143D01*
X16495238Y14591143D02*
X16476190Y14572096D01*
X16476190Y14572096D02*
X16438095Y14553048D01*
X16438095Y14553048D02*
X16323809Y14553048D01*
X16323809Y14553048D02*
X16285714Y14572096D01*
X16285714Y14572096D02*
X16266666Y14591143D01*
%TO.C,F2*%
X22337667Y14291372D02*
X22204334Y14291372D01*
X22204334Y14081848D02*
X22204334Y14481848D01*
X22204334Y14481848D02*
X22394810Y14481848D01*
X22528143Y14443753D02*
X22547191Y14462800D01*
X22547191Y14462800D02*
X22585286Y14481848D01*
X22585286Y14481848D02*
X22680524Y14481848D01*
X22680524Y14481848D02*
X22718619Y14462800D01*
X22718619Y14462800D02*
X22737667Y14443753D01*
X22737667Y14443753D02*
X22756714Y14405658D01*
X22756714Y14405658D02*
X22756714Y14367562D01*
X22756714Y14367562D02*
X22737667Y14310420D01*
X22737667Y14310420D02*
X22509095Y14081848D01*
X22509095Y14081848D02*
X22756714Y14081848D01*
%TO.C,R20*%
X20408152Y29345458D02*
X20217676Y29212125D01*
X20408152Y29116887D02*
X20008152Y29116887D01*
X20008152Y29116887D02*
X20008152Y29269268D01*
X20008152Y29269268D02*
X20027200Y29307363D01*
X20027200Y29307363D02*
X20046247Y29326410D01*
X20046247Y29326410D02*
X20084342Y29345458D01*
X20084342Y29345458D02*
X20141485Y29345458D01*
X20141485Y29345458D02*
X20179580Y29326410D01*
X20179580Y29326410D02*
X20198628Y29307363D01*
X20198628Y29307363D02*
X20217676Y29269268D01*
X20217676Y29269268D02*
X20217676Y29116887D01*
X20046247Y29497839D02*
X20027200Y29516887D01*
X20027200Y29516887D02*
X20008152Y29554982D01*
X20008152Y29554982D02*
X20008152Y29650220D01*
X20008152Y29650220D02*
X20027200Y29688315D01*
X20027200Y29688315D02*
X20046247Y29707363D01*
X20046247Y29707363D02*
X20084342Y29726410D01*
X20084342Y29726410D02*
X20122438Y29726410D01*
X20122438Y29726410D02*
X20179580Y29707363D01*
X20179580Y29707363D02*
X20408152Y29478791D01*
X20408152Y29478791D02*
X20408152Y29726410D01*
X20008152Y29974029D02*
X20008152Y30012124D01*
X20008152Y30012124D02*
X20027200Y30050220D01*
X20027200Y30050220D02*
X20046247Y30069267D01*
X20046247Y30069267D02*
X20084342Y30088315D01*
X20084342Y30088315D02*
X20160533Y30107362D01*
X20160533Y30107362D02*
X20255771Y30107362D01*
X20255771Y30107362D02*
X20331961Y30088315D01*
X20331961Y30088315D02*
X20370057Y30069267D01*
X20370057Y30069267D02*
X20389104Y30050220D01*
X20389104Y30050220D02*
X20408152Y30012124D01*
X20408152Y30012124D02*
X20408152Y29974029D01*
X20408152Y29974029D02*
X20389104Y29935934D01*
X20389104Y29935934D02*
X20370057Y29916886D01*
X20370057Y29916886D02*
X20331961Y29897839D01*
X20331961Y29897839D02*
X20255771Y29878791D01*
X20255771Y29878791D02*
X20160533Y29878791D01*
X20160533Y29878791D02*
X20084342Y29897839D01*
X20084342Y29897839D02*
X20046247Y29916886D01*
X20046247Y29916886D02*
X20027200Y29935934D01*
X20027200Y29935934D02*
X20008152Y29974029D01*
%TO.C,U2*%
X4895238Y13953048D02*
X4895238Y13629239D01*
X4895238Y13629239D02*
X4914285Y13591143D01*
X4914285Y13591143D02*
X4933333Y13572096D01*
X4933333Y13572096D02*
X4971428Y13553048D01*
X4971428Y13553048D02*
X5047619Y13553048D01*
X5047619Y13553048D02*
X5085714Y13572096D01*
X5085714Y13572096D02*
X5104761Y13591143D01*
X5104761Y13591143D02*
X5123809Y13629239D01*
X5123809Y13629239D02*
X5123809Y13953048D01*
X5295238Y13914953D02*
X5314286Y13934000D01*
X5314286Y13934000D02*
X5352381Y13953048D01*
X5352381Y13953048D02*
X5447619Y13953048D01*
X5447619Y13953048D02*
X5485714Y13934000D01*
X5485714Y13934000D02*
X5504762Y13914953D01*
X5504762Y13914953D02*
X5523809Y13876858D01*
X5523809Y13876858D02*
X5523809Y13838762D01*
X5523809Y13838762D02*
X5504762Y13781620D01*
X5504762Y13781620D02*
X5276190Y13553048D01*
X5276190Y13553048D02*
X5523809Y13553048D01*
%TO.C,C13*%
X4442857Y47491143D02*
X4423809Y47472096D01*
X4423809Y47472096D02*
X4366667Y47453048D01*
X4366667Y47453048D02*
X4328571Y47453048D01*
X4328571Y47453048D02*
X4271428Y47472096D01*
X4271428Y47472096D02*
X4233333Y47510191D01*
X4233333Y47510191D02*
X4214286Y47548286D01*
X4214286Y47548286D02*
X4195238Y47624477D01*
X4195238Y47624477D02*
X4195238Y47681620D01*
X4195238Y47681620D02*
X4214286Y47757810D01*
X4214286Y47757810D02*
X4233333Y47795905D01*
X4233333Y47795905D02*
X4271428Y47834000D01*
X4271428Y47834000D02*
X4328571Y47853048D01*
X4328571Y47853048D02*
X4366667Y47853048D01*
X4366667Y47853048D02*
X4423809Y47834000D01*
X4423809Y47834000D02*
X4442857Y47814953D01*
X4823809Y47453048D02*
X4595238Y47453048D01*
X4709524Y47453048D02*
X4709524Y47853048D01*
X4709524Y47853048D02*
X4671428Y47795905D01*
X4671428Y47795905D02*
X4633333Y47757810D01*
X4633333Y47757810D02*
X4595238Y47738762D01*
X4957142Y47853048D02*
X5204761Y47853048D01*
X5204761Y47853048D02*
X5071428Y47700667D01*
X5071428Y47700667D02*
X5128571Y47700667D01*
X5128571Y47700667D02*
X5166666Y47681620D01*
X5166666Y47681620D02*
X5185714Y47662572D01*
X5185714Y47662572D02*
X5204761Y47624477D01*
X5204761Y47624477D02*
X5204761Y47529239D01*
X5204761Y47529239D02*
X5185714Y47491143D01*
X5185714Y47491143D02*
X5166666Y47472096D01*
X5166666Y47472096D02*
X5128571Y47453048D01*
X5128571Y47453048D02*
X5014285Y47453048D01*
X5014285Y47453048D02*
X4976190Y47472096D01*
X4976190Y47472096D02*
X4957142Y47491143D01*
%TO.C,C1*%
X16233333Y20691143D02*
X16214285Y20672096D01*
X16214285Y20672096D02*
X16157143Y20653048D01*
X16157143Y20653048D02*
X16119047Y20653048D01*
X16119047Y20653048D02*
X16061904Y20672096D01*
X16061904Y20672096D02*
X16023809Y20710191D01*
X16023809Y20710191D02*
X16004762Y20748286D01*
X16004762Y20748286D02*
X15985714Y20824477D01*
X15985714Y20824477D02*
X15985714Y20881620D01*
X15985714Y20881620D02*
X16004762Y20957810D01*
X16004762Y20957810D02*
X16023809Y20995905D01*
X16023809Y20995905D02*
X16061904Y21034000D01*
X16061904Y21034000D02*
X16119047Y21053048D01*
X16119047Y21053048D02*
X16157143Y21053048D01*
X16157143Y21053048D02*
X16214285Y21034000D01*
X16214285Y21034000D02*
X16233333Y21014953D01*
X16614285Y20653048D02*
X16385714Y20653048D01*
X16500000Y20653048D02*
X16500000Y21053048D01*
X16500000Y21053048D02*
X16461904Y20995905D01*
X16461904Y20995905D02*
X16423809Y20957810D01*
X16423809Y20957810D02*
X16385714Y20938762D01*
%TO.C,R6*%
X24146952Y33733334D02*
X23956476Y33600001D01*
X24146952Y33504763D02*
X23746952Y33504763D01*
X23746952Y33504763D02*
X23746952Y33657144D01*
X23746952Y33657144D02*
X23766000Y33695239D01*
X23766000Y33695239D02*
X23785047Y33714286D01*
X23785047Y33714286D02*
X23823142Y33733334D01*
X23823142Y33733334D02*
X23880285Y33733334D01*
X23880285Y33733334D02*
X23918380Y33714286D01*
X23918380Y33714286D02*
X23937428Y33695239D01*
X23937428Y33695239D02*
X23956476Y33657144D01*
X23956476Y33657144D02*
X23956476Y33504763D01*
X23746952Y34076191D02*
X23746952Y34000001D01*
X23746952Y34000001D02*
X23766000Y33961905D01*
X23766000Y33961905D02*
X23785047Y33942858D01*
X23785047Y33942858D02*
X23842190Y33904763D01*
X23842190Y33904763D02*
X23918380Y33885715D01*
X23918380Y33885715D02*
X24070761Y33885715D01*
X24070761Y33885715D02*
X24108857Y33904763D01*
X24108857Y33904763D02*
X24127904Y33923810D01*
X24127904Y33923810D02*
X24146952Y33961905D01*
X24146952Y33961905D02*
X24146952Y34038096D01*
X24146952Y34038096D02*
X24127904Y34076191D01*
X24127904Y34076191D02*
X24108857Y34095239D01*
X24108857Y34095239D02*
X24070761Y34114286D01*
X24070761Y34114286D02*
X23975523Y34114286D01*
X23975523Y34114286D02*
X23937428Y34095239D01*
X23937428Y34095239D02*
X23918380Y34076191D01*
X23918380Y34076191D02*
X23899333Y34038096D01*
X23899333Y34038096D02*
X23899333Y33961905D01*
X23899333Y33961905D02*
X23918380Y33923810D01*
X23918380Y33923810D02*
X23937428Y33904763D01*
X23937428Y33904763D02*
X23975523Y33885715D01*
%TO.C,J6*%
X9566666Y4153048D02*
X9566666Y3867334D01*
X9566666Y3867334D02*
X9547619Y3810191D01*
X9547619Y3810191D02*
X9509523Y3772096D01*
X9509523Y3772096D02*
X9452381Y3753048D01*
X9452381Y3753048D02*
X9414285Y3753048D01*
X9928571Y4153048D02*
X9852381Y4153048D01*
X9852381Y4153048D02*
X9814285Y4134000D01*
X9814285Y4134000D02*
X9795238Y4114953D01*
X9795238Y4114953D02*
X9757143Y4057810D01*
X9757143Y4057810D02*
X9738095Y3981620D01*
X9738095Y3981620D02*
X9738095Y3829239D01*
X9738095Y3829239D02*
X9757143Y3791143D01*
X9757143Y3791143D02*
X9776190Y3772096D01*
X9776190Y3772096D02*
X9814285Y3753048D01*
X9814285Y3753048D02*
X9890476Y3753048D01*
X9890476Y3753048D02*
X9928571Y3772096D01*
X9928571Y3772096D02*
X9947619Y3791143D01*
X9947619Y3791143D02*
X9966666Y3829239D01*
X9966666Y3829239D02*
X9966666Y3924477D01*
X9966666Y3924477D02*
X9947619Y3962572D01*
X9947619Y3962572D02*
X9928571Y3981620D01*
X9928571Y3981620D02*
X9890476Y4000667D01*
X9890476Y4000667D02*
X9814285Y4000667D01*
X9814285Y4000667D02*
X9776190Y3981620D01*
X9776190Y3981620D02*
X9757143Y3962572D01*
X9757143Y3962572D02*
X9738095Y3924477D01*
%TO.C,R5*%
X14133333Y27853048D02*
X14000000Y28043524D01*
X13904762Y27853048D02*
X13904762Y28253048D01*
X13904762Y28253048D02*
X14057143Y28253048D01*
X14057143Y28253048D02*
X14095238Y28234000D01*
X14095238Y28234000D02*
X14114285Y28214953D01*
X14114285Y28214953D02*
X14133333Y28176858D01*
X14133333Y28176858D02*
X14133333Y28119715D01*
X14133333Y28119715D02*
X14114285Y28081620D01*
X14114285Y28081620D02*
X14095238Y28062572D01*
X14095238Y28062572D02*
X14057143Y28043524D01*
X14057143Y28043524D02*
X13904762Y28043524D01*
X14495238Y28253048D02*
X14304762Y28253048D01*
X14304762Y28253048D02*
X14285714Y28062572D01*
X14285714Y28062572D02*
X14304762Y28081620D01*
X14304762Y28081620D02*
X14342857Y28100667D01*
X14342857Y28100667D02*
X14438095Y28100667D01*
X14438095Y28100667D02*
X14476190Y28081620D01*
X14476190Y28081620D02*
X14495238Y28062572D01*
X14495238Y28062572D02*
X14514285Y28024477D01*
X14514285Y28024477D02*
X14514285Y27929239D01*
X14514285Y27929239D02*
X14495238Y27891143D01*
X14495238Y27891143D02*
X14476190Y27872096D01*
X14476190Y27872096D02*
X14438095Y27853048D01*
X14438095Y27853048D02*
X14342857Y27853048D01*
X14342857Y27853048D02*
X14304762Y27872096D01*
X14304762Y27872096D02*
X14285714Y27891143D01*
%TO.C,C2*%
X8459733Y13942143D02*
X8440685Y13923096D01*
X8440685Y13923096D02*
X8383543Y13904048D01*
X8383543Y13904048D02*
X8345447Y13904048D01*
X8345447Y13904048D02*
X8288304Y13923096D01*
X8288304Y13923096D02*
X8250209Y13961191D01*
X8250209Y13961191D02*
X8231162Y13999286D01*
X8231162Y13999286D02*
X8212114Y14075477D01*
X8212114Y14075477D02*
X8212114Y14132620D01*
X8212114Y14132620D02*
X8231162Y14208810D01*
X8231162Y14208810D02*
X8250209Y14246905D01*
X8250209Y14246905D02*
X8288304Y14285000D01*
X8288304Y14285000D02*
X8345447Y14304048D01*
X8345447Y14304048D02*
X8383543Y14304048D01*
X8383543Y14304048D02*
X8440685Y14285000D01*
X8440685Y14285000D02*
X8459733Y14265953D01*
X8612114Y14265953D02*
X8631162Y14285000D01*
X8631162Y14285000D02*
X8669257Y14304048D01*
X8669257Y14304048D02*
X8764495Y14304048D01*
X8764495Y14304048D02*
X8802590Y14285000D01*
X8802590Y14285000D02*
X8821638Y14265953D01*
X8821638Y14265953D02*
X8840685Y14227858D01*
X8840685Y14227858D02*
X8840685Y14189762D01*
X8840685Y14189762D02*
X8821638Y14132620D01*
X8821638Y14132620D02*
X8593066Y13904048D01*
X8593066Y13904048D02*
X8840685Y13904048D01*
%TO.C,R3*%
X17741152Y27598134D02*
X17550676Y27464801D01*
X17741152Y27369563D02*
X17341152Y27369563D01*
X17341152Y27369563D02*
X17341152Y27521944D01*
X17341152Y27521944D02*
X17360200Y27560039D01*
X17360200Y27560039D02*
X17379247Y27579086D01*
X17379247Y27579086D02*
X17417342Y27598134D01*
X17417342Y27598134D02*
X17474485Y27598134D01*
X17474485Y27598134D02*
X17512580Y27579086D01*
X17512580Y27579086D02*
X17531628Y27560039D01*
X17531628Y27560039D02*
X17550676Y27521944D01*
X17550676Y27521944D02*
X17550676Y27369563D01*
X17341152Y27731467D02*
X17341152Y27979086D01*
X17341152Y27979086D02*
X17493533Y27845753D01*
X17493533Y27845753D02*
X17493533Y27902896D01*
X17493533Y27902896D02*
X17512580Y27940991D01*
X17512580Y27940991D02*
X17531628Y27960039D01*
X17531628Y27960039D02*
X17569723Y27979086D01*
X17569723Y27979086D02*
X17664961Y27979086D01*
X17664961Y27979086D02*
X17703057Y27960039D01*
X17703057Y27960039D02*
X17722104Y27940991D01*
X17722104Y27940991D02*
X17741152Y27902896D01*
X17741152Y27902896D02*
X17741152Y27788610D01*
X17741152Y27788610D02*
X17722104Y27750515D01*
X17722104Y27750515D02*
X17703057Y27731467D01*
%TO.C,R8*%
X23046952Y29538534D02*
X22856476Y29405201D01*
X23046952Y29309963D02*
X22646952Y29309963D01*
X22646952Y29309963D02*
X22646952Y29462344D01*
X22646952Y29462344D02*
X22666000Y29500439D01*
X22666000Y29500439D02*
X22685047Y29519486D01*
X22685047Y29519486D02*
X22723142Y29538534D01*
X22723142Y29538534D02*
X22780285Y29538534D01*
X22780285Y29538534D02*
X22818380Y29519486D01*
X22818380Y29519486D02*
X22837428Y29500439D01*
X22837428Y29500439D02*
X22856476Y29462344D01*
X22856476Y29462344D02*
X22856476Y29309963D01*
X22818380Y29767105D02*
X22799333Y29729010D01*
X22799333Y29729010D02*
X22780285Y29709963D01*
X22780285Y29709963D02*
X22742190Y29690915D01*
X22742190Y29690915D02*
X22723142Y29690915D01*
X22723142Y29690915D02*
X22685047Y29709963D01*
X22685047Y29709963D02*
X22666000Y29729010D01*
X22666000Y29729010D02*
X22646952Y29767105D01*
X22646952Y29767105D02*
X22646952Y29843296D01*
X22646952Y29843296D02*
X22666000Y29881391D01*
X22666000Y29881391D02*
X22685047Y29900439D01*
X22685047Y29900439D02*
X22723142Y29919486D01*
X22723142Y29919486D02*
X22742190Y29919486D01*
X22742190Y29919486D02*
X22780285Y29900439D01*
X22780285Y29900439D02*
X22799333Y29881391D01*
X22799333Y29881391D02*
X22818380Y29843296D01*
X22818380Y29843296D02*
X22818380Y29767105D01*
X22818380Y29767105D02*
X22837428Y29729010D01*
X22837428Y29729010D02*
X22856476Y29709963D01*
X22856476Y29709963D02*
X22894571Y29690915D01*
X22894571Y29690915D02*
X22970761Y29690915D01*
X22970761Y29690915D02*
X23008857Y29709963D01*
X23008857Y29709963D02*
X23027904Y29729010D01*
X23027904Y29729010D02*
X23046952Y29767105D01*
X23046952Y29767105D02*
X23046952Y29843296D01*
X23046952Y29843296D02*
X23027904Y29881391D01*
X23027904Y29881391D02*
X23008857Y29900439D01*
X23008857Y29900439D02*
X22970761Y29919486D01*
X22970761Y29919486D02*
X22894571Y29919486D01*
X22894571Y29919486D02*
X22856476Y29900439D01*
X22856476Y29900439D02*
X22837428Y29881391D01*
X22837428Y29881391D02*
X22818380Y29843296D01*
%TO.C,U4*%
X4795238Y21053048D02*
X4795238Y20729239D01*
X4795238Y20729239D02*
X4814285Y20691143D01*
X4814285Y20691143D02*
X4833333Y20672096D01*
X4833333Y20672096D02*
X4871428Y20653048D01*
X4871428Y20653048D02*
X4947619Y20653048D01*
X4947619Y20653048D02*
X4985714Y20672096D01*
X4985714Y20672096D02*
X5004761Y20691143D01*
X5004761Y20691143D02*
X5023809Y20729239D01*
X5023809Y20729239D02*
X5023809Y21053048D01*
X5385714Y20919715D02*
X5385714Y20653048D01*
X5290476Y21072096D02*
X5195238Y20786381D01*
X5195238Y20786381D02*
X5442857Y20786381D01*
%TO.C,C5*%
X6433333Y21791143D02*
X6414285Y21772096D01*
X6414285Y21772096D02*
X6357143Y21753048D01*
X6357143Y21753048D02*
X6319047Y21753048D01*
X6319047Y21753048D02*
X6261904Y21772096D01*
X6261904Y21772096D02*
X6223809Y21810191D01*
X6223809Y21810191D02*
X6204762Y21848286D01*
X6204762Y21848286D02*
X6185714Y21924477D01*
X6185714Y21924477D02*
X6185714Y21981620D01*
X6185714Y21981620D02*
X6204762Y22057810D01*
X6204762Y22057810D02*
X6223809Y22095905D01*
X6223809Y22095905D02*
X6261904Y22134000D01*
X6261904Y22134000D02*
X6319047Y22153048D01*
X6319047Y22153048D02*
X6357143Y22153048D01*
X6357143Y22153048D02*
X6414285Y22134000D01*
X6414285Y22134000D02*
X6433333Y22114953D01*
X6795238Y22153048D02*
X6604762Y22153048D01*
X6604762Y22153048D02*
X6585714Y21962572D01*
X6585714Y21962572D02*
X6604762Y21981620D01*
X6604762Y21981620D02*
X6642857Y22000667D01*
X6642857Y22000667D02*
X6738095Y22000667D01*
X6738095Y22000667D02*
X6776190Y21981620D01*
X6776190Y21981620D02*
X6795238Y21962572D01*
X6795238Y21962572D02*
X6814285Y21924477D01*
X6814285Y21924477D02*
X6814285Y21829239D01*
X6814285Y21829239D02*
X6795238Y21791143D01*
X6795238Y21791143D02*
X6776190Y21772096D01*
X6776190Y21772096D02*
X6738095Y21753048D01*
X6738095Y21753048D02*
X6642857Y21753048D01*
X6642857Y21753048D02*
X6604762Y21772096D01*
X6604762Y21772096D02*
X6585714Y21791143D01*
%TO.C,R12*%
X19953257Y57924248D02*
X19819924Y58114724D01*
X19724686Y57924248D02*
X19724686Y58324248D01*
X19724686Y58324248D02*
X19877067Y58324248D01*
X19877067Y58324248D02*
X19915162Y58305200D01*
X19915162Y58305200D02*
X19934209Y58286153D01*
X19934209Y58286153D02*
X19953257Y58248058D01*
X19953257Y58248058D02*
X19953257Y58190915D01*
X19953257Y58190915D02*
X19934209Y58152820D01*
X19934209Y58152820D02*
X19915162Y58133772D01*
X19915162Y58133772D02*
X19877067Y58114724D01*
X19877067Y58114724D02*
X19724686Y58114724D01*
X20334209Y57924248D02*
X20105638Y57924248D01*
X20219924Y57924248D02*
X20219924Y58324248D01*
X20219924Y58324248D02*
X20181828Y58267105D01*
X20181828Y58267105D02*
X20143733Y58229010D01*
X20143733Y58229010D02*
X20105638Y58209962D01*
X20486590Y58286153D02*
X20505638Y58305200D01*
X20505638Y58305200D02*
X20543733Y58324248D01*
X20543733Y58324248D02*
X20638971Y58324248D01*
X20638971Y58324248D02*
X20677066Y58305200D01*
X20677066Y58305200D02*
X20696114Y58286153D01*
X20696114Y58286153D02*
X20715161Y58248058D01*
X20715161Y58248058D02*
X20715161Y58209962D01*
X20715161Y58209962D02*
X20696114Y58152820D01*
X20696114Y58152820D02*
X20467542Y57924248D01*
X20467542Y57924248D02*
X20715161Y57924248D01*
%TO.C,R22*%
X21756657Y41234448D02*
X21623324Y41424924D01*
X21528086Y41234448D02*
X21528086Y41634448D01*
X21528086Y41634448D02*
X21680467Y41634448D01*
X21680467Y41634448D02*
X21718562Y41615400D01*
X21718562Y41615400D02*
X21737609Y41596353D01*
X21737609Y41596353D02*
X21756657Y41558258D01*
X21756657Y41558258D02*
X21756657Y41501115D01*
X21756657Y41501115D02*
X21737609Y41463020D01*
X21737609Y41463020D02*
X21718562Y41443972D01*
X21718562Y41443972D02*
X21680467Y41424924D01*
X21680467Y41424924D02*
X21528086Y41424924D01*
X21909038Y41596353D02*
X21928086Y41615400D01*
X21928086Y41615400D02*
X21966181Y41634448D01*
X21966181Y41634448D02*
X22061419Y41634448D01*
X22061419Y41634448D02*
X22099514Y41615400D01*
X22099514Y41615400D02*
X22118562Y41596353D01*
X22118562Y41596353D02*
X22137609Y41558258D01*
X22137609Y41558258D02*
X22137609Y41520162D01*
X22137609Y41520162D02*
X22118562Y41463020D01*
X22118562Y41463020D02*
X21889990Y41234448D01*
X21889990Y41234448D02*
X22137609Y41234448D01*
X22289990Y41596353D02*
X22309038Y41615400D01*
X22309038Y41615400D02*
X22347133Y41634448D01*
X22347133Y41634448D02*
X22442371Y41634448D01*
X22442371Y41634448D02*
X22480466Y41615400D01*
X22480466Y41615400D02*
X22499514Y41596353D01*
X22499514Y41596353D02*
X22518561Y41558258D01*
X22518561Y41558258D02*
X22518561Y41520162D01*
X22518561Y41520162D02*
X22499514Y41463020D01*
X22499514Y41463020D02*
X22270942Y41234448D01*
X22270942Y41234448D02*
X22518561Y41234448D01*
%TO.C,R23*%
X21782057Y46289048D02*
X21648724Y46479524D01*
X21553486Y46289048D02*
X21553486Y46689048D01*
X21553486Y46689048D02*
X21705867Y46689048D01*
X21705867Y46689048D02*
X21743962Y46670000D01*
X21743962Y46670000D02*
X21763009Y46650953D01*
X21763009Y46650953D02*
X21782057Y46612858D01*
X21782057Y46612858D02*
X21782057Y46555715D01*
X21782057Y46555715D02*
X21763009Y46517620D01*
X21763009Y46517620D02*
X21743962Y46498572D01*
X21743962Y46498572D02*
X21705867Y46479524D01*
X21705867Y46479524D02*
X21553486Y46479524D01*
X21934438Y46650953D02*
X21953486Y46670000D01*
X21953486Y46670000D02*
X21991581Y46689048D01*
X21991581Y46689048D02*
X22086819Y46689048D01*
X22086819Y46689048D02*
X22124914Y46670000D01*
X22124914Y46670000D02*
X22143962Y46650953D01*
X22143962Y46650953D02*
X22163009Y46612858D01*
X22163009Y46612858D02*
X22163009Y46574762D01*
X22163009Y46574762D02*
X22143962Y46517620D01*
X22143962Y46517620D02*
X21915390Y46289048D01*
X21915390Y46289048D02*
X22163009Y46289048D01*
X22296342Y46689048D02*
X22543961Y46689048D01*
X22543961Y46689048D02*
X22410628Y46536667D01*
X22410628Y46536667D02*
X22467771Y46536667D01*
X22467771Y46536667D02*
X22505866Y46517620D01*
X22505866Y46517620D02*
X22524914Y46498572D01*
X22524914Y46498572D02*
X22543961Y46460477D01*
X22543961Y46460477D02*
X22543961Y46365239D01*
X22543961Y46365239D02*
X22524914Y46327143D01*
X22524914Y46327143D02*
X22505866Y46308096D01*
X22505866Y46308096D02*
X22467771Y46289048D01*
X22467771Y46289048D02*
X22353485Y46289048D01*
X22353485Y46289048D02*
X22315390Y46308096D01*
X22315390Y46308096D02*
X22296342Y46327143D01*
%TO.C,Q4*%
X27361904Y42614953D02*
X27323809Y42634000D01*
X27323809Y42634000D02*
X27285714Y42672096D01*
X27285714Y42672096D02*
X27228571Y42729239D01*
X27228571Y42729239D02*
X27190476Y42748286D01*
X27190476Y42748286D02*
X27152380Y42748286D01*
X27171428Y42653048D02*
X27133333Y42672096D01*
X27133333Y42672096D02*
X27095238Y42710191D01*
X27095238Y42710191D02*
X27076190Y42786381D01*
X27076190Y42786381D02*
X27076190Y42919715D01*
X27076190Y42919715D02*
X27095238Y42995905D01*
X27095238Y42995905D02*
X27133333Y43034000D01*
X27133333Y43034000D02*
X27171428Y43053048D01*
X27171428Y43053048D02*
X27247619Y43053048D01*
X27247619Y43053048D02*
X27285714Y43034000D01*
X27285714Y43034000D02*
X27323809Y42995905D01*
X27323809Y42995905D02*
X27342857Y42919715D01*
X27342857Y42919715D02*
X27342857Y42786381D01*
X27342857Y42786381D02*
X27323809Y42710191D01*
X27323809Y42710191D02*
X27285714Y42672096D01*
X27285714Y42672096D02*
X27247619Y42653048D01*
X27247619Y42653048D02*
X27171428Y42653048D01*
X27685714Y42919715D02*
X27685714Y42653048D01*
X27590476Y43072096D02*
X27495238Y42786381D01*
X27495238Y42786381D02*
X27742857Y42786381D01*
%TO.C,D3*%
X24843552Y55938963D02*
X24443552Y55938963D01*
X24443552Y55938963D02*
X24443552Y56034201D01*
X24443552Y56034201D02*
X24462600Y56091344D01*
X24462600Y56091344D02*
X24500695Y56129439D01*
X24500695Y56129439D02*
X24538790Y56148486D01*
X24538790Y56148486D02*
X24614980Y56167534D01*
X24614980Y56167534D02*
X24672123Y56167534D01*
X24672123Y56167534D02*
X24748314Y56148486D01*
X24748314Y56148486D02*
X24786409Y56129439D01*
X24786409Y56129439D02*
X24824504Y56091344D01*
X24824504Y56091344D02*
X24843552Y56034201D01*
X24843552Y56034201D02*
X24843552Y55938963D01*
X24443552Y56300867D02*
X24443552Y56548486D01*
X24443552Y56548486D02*
X24595933Y56415153D01*
X24595933Y56415153D02*
X24595933Y56472296D01*
X24595933Y56472296D02*
X24614980Y56510391D01*
X24614980Y56510391D02*
X24634028Y56529439D01*
X24634028Y56529439D02*
X24672123Y56548486D01*
X24672123Y56548486D02*
X24767361Y56548486D01*
X24767361Y56548486D02*
X24805457Y56529439D01*
X24805457Y56529439D02*
X24824504Y56510391D01*
X24824504Y56510391D02*
X24843552Y56472296D01*
X24843552Y56472296D02*
X24843552Y56358010D01*
X24843552Y56358010D02*
X24824504Y56319915D01*
X24824504Y56319915D02*
X24805457Y56300867D01*
X25972657Y58012257D02*
X26001228Y58097971D01*
X26001228Y58097971D02*
X26001228Y58240829D01*
X26001228Y58240829D02*
X25972657Y58297971D01*
X25972657Y58297971D02*
X25944085Y58326543D01*
X25944085Y58326543D02*
X25886942Y58355114D01*
X25886942Y58355114D02*
X25829800Y58355114D01*
X25829800Y58355114D02*
X25772657Y58326543D01*
X25772657Y58326543D02*
X25744085Y58297971D01*
X25744085Y58297971D02*
X25715514Y58240829D01*
X25715514Y58240829D02*
X25686942Y58126543D01*
X25686942Y58126543D02*
X25658371Y58069400D01*
X25658371Y58069400D02*
X25629800Y58040829D01*
X25629800Y58040829D02*
X25572657Y58012257D01*
X25572657Y58012257D02*
X25515514Y58012257D01*
X25515514Y58012257D02*
X25458371Y58040829D01*
X25458371Y58040829D02*
X25429800Y58069400D01*
X25429800Y58069400D02*
X25401228Y58126543D01*
X25401228Y58126543D02*
X25401228Y58269400D01*
X25401228Y58269400D02*
X25429800Y58355114D01*
X26001228Y58926543D02*
X26001228Y58583686D01*
X26001228Y58755115D02*
X25401228Y58755115D01*
X25401228Y58755115D02*
X25486942Y58697972D01*
X25486942Y58697972D02*
X25544085Y58640829D01*
X25544085Y58640829D02*
X25572657Y58583686D01*
%TO.C,H2*%
X35695238Y8053048D02*
X35695238Y8453048D01*
X35695238Y8262572D02*
X35923809Y8262572D01*
X35923809Y8053048D02*
X35923809Y8453048D01*
X36095238Y8414953D02*
X36114286Y8434000D01*
X36114286Y8434000D02*
X36152381Y8453048D01*
X36152381Y8453048D02*
X36247619Y8453048D01*
X36247619Y8453048D02*
X36285714Y8434000D01*
X36285714Y8434000D02*
X36304762Y8414953D01*
X36304762Y8414953D02*
X36323809Y8376858D01*
X36323809Y8376858D02*
X36323809Y8338762D01*
X36323809Y8338762D02*
X36304762Y8281620D01*
X36304762Y8281620D02*
X36076190Y8053048D01*
X36076190Y8053048D02*
X36323809Y8053048D01*
%TO.C,C11*%
X14974857Y42771143D02*
X14955809Y42752096D01*
X14955809Y42752096D02*
X14898667Y42733048D01*
X14898667Y42733048D02*
X14860571Y42733048D01*
X14860571Y42733048D02*
X14803428Y42752096D01*
X14803428Y42752096D02*
X14765333Y42790191D01*
X14765333Y42790191D02*
X14746286Y42828286D01*
X14746286Y42828286D02*
X14727238Y42904477D01*
X14727238Y42904477D02*
X14727238Y42961620D01*
X14727238Y42961620D02*
X14746286Y43037810D01*
X14746286Y43037810D02*
X14765333Y43075905D01*
X14765333Y43075905D02*
X14803428Y43114000D01*
X14803428Y43114000D02*
X14860571Y43133048D01*
X14860571Y43133048D02*
X14898667Y43133048D01*
X14898667Y43133048D02*
X14955809Y43114000D01*
X14955809Y43114000D02*
X14974857Y43094953D01*
X15355809Y42733048D02*
X15127238Y42733048D01*
X15241524Y42733048D02*
X15241524Y43133048D01*
X15241524Y43133048D02*
X15203428Y43075905D01*
X15203428Y43075905D02*
X15165333Y43037810D01*
X15165333Y43037810D02*
X15127238Y43018762D01*
X15736761Y42733048D02*
X15508190Y42733048D01*
X15622476Y42733048D02*
X15622476Y43133048D01*
X15622476Y43133048D02*
X15584380Y43075905D01*
X15584380Y43075905D02*
X15546285Y43037810D01*
X15546285Y43037810D02*
X15508190Y43018762D01*
%TO.C,J2*%
X27776952Y36322667D02*
X28062666Y36322667D01*
X28062666Y36322667D02*
X28119809Y36303620D01*
X28119809Y36303620D02*
X28157904Y36265524D01*
X28157904Y36265524D02*
X28176952Y36208382D01*
X28176952Y36208382D02*
X28176952Y36170286D01*
X27815047Y36494096D02*
X27796000Y36513144D01*
X27796000Y36513144D02*
X27776952Y36551239D01*
X27776952Y36551239D02*
X27776952Y36646477D01*
X27776952Y36646477D02*
X27796000Y36684572D01*
X27796000Y36684572D02*
X27815047Y36703620D01*
X27815047Y36703620D02*
X27853142Y36722667D01*
X27853142Y36722667D02*
X27891238Y36722667D01*
X27891238Y36722667D02*
X27948380Y36703620D01*
X27948380Y36703620D02*
X28176952Y36475048D01*
X28176952Y36475048D02*
X28176952Y36722667D01*
%TO.C,D4*%
X27104152Y55964363D02*
X26704152Y55964363D01*
X26704152Y55964363D02*
X26704152Y56059601D01*
X26704152Y56059601D02*
X26723200Y56116744D01*
X26723200Y56116744D02*
X26761295Y56154839D01*
X26761295Y56154839D02*
X26799390Y56173886D01*
X26799390Y56173886D02*
X26875580Y56192934D01*
X26875580Y56192934D02*
X26932723Y56192934D01*
X26932723Y56192934D02*
X27008914Y56173886D01*
X27008914Y56173886D02*
X27047009Y56154839D01*
X27047009Y56154839D02*
X27085104Y56116744D01*
X27085104Y56116744D02*
X27104152Y56059601D01*
X27104152Y56059601D02*
X27104152Y55964363D01*
X26837485Y56535791D02*
X27104152Y56535791D01*
X26685104Y56440553D02*
X26970819Y56345315D01*
X26970819Y56345315D02*
X26970819Y56592934D01*
X28233257Y57993057D02*
X28261828Y58078771D01*
X28261828Y58078771D02*
X28261828Y58221629D01*
X28261828Y58221629D02*
X28233257Y58278771D01*
X28233257Y58278771D02*
X28204685Y58307343D01*
X28204685Y58307343D02*
X28147542Y58335914D01*
X28147542Y58335914D02*
X28090400Y58335914D01*
X28090400Y58335914D02*
X28033257Y58307343D01*
X28033257Y58307343D02*
X28004685Y58278771D01*
X28004685Y58278771D02*
X27976114Y58221629D01*
X27976114Y58221629D02*
X27947542Y58107343D01*
X27947542Y58107343D02*
X27918971Y58050200D01*
X27918971Y58050200D02*
X27890400Y58021629D01*
X27890400Y58021629D02*
X27833257Y57993057D01*
X27833257Y57993057D02*
X27776114Y57993057D01*
X27776114Y57993057D02*
X27718971Y58021629D01*
X27718971Y58021629D02*
X27690400Y58050200D01*
X27690400Y58050200D02*
X27661828Y58107343D01*
X27661828Y58107343D02*
X27661828Y58250200D01*
X27661828Y58250200D02*
X27690400Y58335914D01*
X27718971Y58564486D02*
X27690400Y58593058D01*
X27690400Y58593058D02*
X27661828Y58650200D01*
X27661828Y58650200D02*
X27661828Y58793058D01*
X27661828Y58793058D02*
X27690400Y58850200D01*
X27690400Y58850200D02*
X27718971Y58878772D01*
X27718971Y58878772D02*
X27776114Y58907343D01*
X27776114Y58907343D02*
X27833257Y58907343D01*
X27833257Y58907343D02*
X27918971Y58878772D01*
X27918971Y58878772D02*
X28261828Y58535915D01*
X28261828Y58535915D02*
X28261828Y58907343D01*
%TO.C,R4*%
X14133333Y30253048D02*
X14000000Y30443524D01*
X13904762Y30253048D02*
X13904762Y30653048D01*
X13904762Y30653048D02*
X14057143Y30653048D01*
X14057143Y30653048D02*
X14095238Y30634000D01*
X14095238Y30634000D02*
X14114285Y30614953D01*
X14114285Y30614953D02*
X14133333Y30576858D01*
X14133333Y30576858D02*
X14133333Y30519715D01*
X14133333Y30519715D02*
X14114285Y30481620D01*
X14114285Y30481620D02*
X14095238Y30462572D01*
X14095238Y30462572D02*
X14057143Y30443524D01*
X14057143Y30443524D02*
X13904762Y30443524D01*
X14476190Y30519715D02*
X14476190Y30253048D01*
X14380952Y30672096D02*
X14285714Y30386381D01*
X14285714Y30386381D02*
X14533333Y30386381D01*
%TO.C,J4*%
X33927352Y13511267D02*
X34213066Y13511267D01*
X34213066Y13511267D02*
X34270209Y13492220D01*
X34270209Y13492220D02*
X34308304Y13454124D01*
X34308304Y13454124D02*
X34327352Y13396982D01*
X34327352Y13396982D02*
X34327352Y13358886D01*
X34060685Y13873172D02*
X34327352Y13873172D01*
X33908304Y13777934D02*
X34194019Y13682696D01*
X34194019Y13682696D02*
X34194019Y13930315D01*
%TO.C,C9*%
X16733333Y36891143D02*
X16714285Y36872096D01*
X16714285Y36872096D02*
X16657143Y36853048D01*
X16657143Y36853048D02*
X16619047Y36853048D01*
X16619047Y36853048D02*
X16561904Y36872096D01*
X16561904Y36872096D02*
X16523809Y36910191D01*
X16523809Y36910191D02*
X16504762Y36948286D01*
X16504762Y36948286D02*
X16485714Y37024477D01*
X16485714Y37024477D02*
X16485714Y37081620D01*
X16485714Y37081620D02*
X16504762Y37157810D01*
X16504762Y37157810D02*
X16523809Y37195905D01*
X16523809Y37195905D02*
X16561904Y37234000D01*
X16561904Y37234000D02*
X16619047Y37253048D01*
X16619047Y37253048D02*
X16657143Y37253048D01*
X16657143Y37253048D02*
X16714285Y37234000D01*
X16714285Y37234000D02*
X16733333Y37214953D01*
X16923809Y36853048D02*
X17000000Y36853048D01*
X17000000Y36853048D02*
X17038095Y36872096D01*
X17038095Y36872096D02*
X17057143Y36891143D01*
X17057143Y36891143D02*
X17095238Y36948286D01*
X17095238Y36948286D02*
X17114285Y37024477D01*
X17114285Y37024477D02*
X17114285Y37176858D01*
X17114285Y37176858D02*
X17095238Y37214953D01*
X17095238Y37214953D02*
X17076190Y37234000D01*
X17076190Y37234000D02*
X17038095Y37253048D01*
X17038095Y37253048D02*
X16961904Y37253048D01*
X16961904Y37253048D02*
X16923809Y37234000D01*
X16923809Y37234000D02*
X16904762Y37214953D01*
X16904762Y37214953D02*
X16885714Y37176858D01*
X16885714Y37176858D02*
X16885714Y37081620D01*
X16885714Y37081620D02*
X16904762Y37043524D01*
X16904762Y37043524D02*
X16923809Y37024477D01*
X16923809Y37024477D02*
X16961904Y37005429D01*
X16961904Y37005429D02*
X17038095Y37005429D01*
X17038095Y37005429D02*
X17076190Y37024477D01*
X17076190Y37024477D02*
X17095238Y37043524D01*
X17095238Y37043524D02*
X17114285Y37081620D01*
%TO.C,D5*%
X20219962Y36433848D02*
X20219962Y36833848D01*
X20219962Y36833848D02*
X20315200Y36833848D01*
X20315200Y36833848D02*
X20372343Y36814800D01*
X20372343Y36814800D02*
X20410438Y36776705D01*
X20410438Y36776705D02*
X20429485Y36738610D01*
X20429485Y36738610D02*
X20448533Y36662420D01*
X20448533Y36662420D02*
X20448533Y36605277D01*
X20448533Y36605277D02*
X20429485Y36529086D01*
X20429485Y36529086D02*
X20410438Y36490991D01*
X20410438Y36490991D02*
X20372343Y36452896D01*
X20372343Y36452896D02*
X20315200Y36433848D01*
X20315200Y36433848D02*
X20219962Y36433848D01*
X20810438Y36833848D02*
X20619962Y36833848D01*
X20619962Y36833848D02*
X20600914Y36643372D01*
X20600914Y36643372D02*
X20619962Y36662420D01*
X20619962Y36662420D02*
X20658057Y36681467D01*
X20658057Y36681467D02*
X20753295Y36681467D01*
X20753295Y36681467D02*
X20791390Y36662420D01*
X20791390Y36662420D02*
X20810438Y36643372D01*
X20810438Y36643372D02*
X20829485Y36605277D01*
X20829485Y36605277D02*
X20829485Y36510039D01*
X20829485Y36510039D02*
X20810438Y36471943D01*
X20810438Y36471943D02*
X20791390Y36452896D01*
X20791390Y36452896D02*
X20753295Y36433848D01*
X20753295Y36433848D02*
X20658057Y36433848D01*
X20658057Y36433848D02*
X20619962Y36452896D01*
X20619962Y36452896D02*
X20600914Y36471943D01*
%TO.C,C6*%
X15333333Y30291143D02*
X15314285Y30272096D01*
X15314285Y30272096D02*
X15257143Y30253048D01*
X15257143Y30253048D02*
X15219047Y30253048D01*
X15219047Y30253048D02*
X15161904Y30272096D01*
X15161904Y30272096D02*
X15123809Y30310191D01*
X15123809Y30310191D02*
X15104762Y30348286D01*
X15104762Y30348286D02*
X15085714Y30424477D01*
X15085714Y30424477D02*
X15085714Y30481620D01*
X15085714Y30481620D02*
X15104762Y30557810D01*
X15104762Y30557810D02*
X15123809Y30595905D01*
X15123809Y30595905D02*
X15161904Y30634000D01*
X15161904Y30634000D02*
X15219047Y30653048D01*
X15219047Y30653048D02*
X15257143Y30653048D01*
X15257143Y30653048D02*
X15314285Y30634000D01*
X15314285Y30634000D02*
X15333333Y30614953D01*
X15676190Y30653048D02*
X15600000Y30653048D01*
X15600000Y30653048D02*
X15561904Y30634000D01*
X15561904Y30634000D02*
X15542857Y30614953D01*
X15542857Y30614953D02*
X15504762Y30557810D01*
X15504762Y30557810D02*
X15485714Y30481620D01*
X15485714Y30481620D02*
X15485714Y30329239D01*
X15485714Y30329239D02*
X15504762Y30291143D01*
X15504762Y30291143D02*
X15523809Y30272096D01*
X15523809Y30272096D02*
X15561904Y30253048D01*
X15561904Y30253048D02*
X15638095Y30253048D01*
X15638095Y30253048D02*
X15676190Y30272096D01*
X15676190Y30272096D02*
X15695238Y30291143D01*
X15695238Y30291143D02*
X15714285Y30329239D01*
X15714285Y30329239D02*
X15714285Y30424477D01*
X15714285Y30424477D02*
X15695238Y30462572D01*
X15695238Y30462572D02*
X15676190Y30481620D01*
X15676190Y30481620D02*
X15638095Y30500667D01*
X15638095Y30500667D02*
X15561904Y30500667D01*
X15561904Y30500667D02*
X15523809Y30481620D01*
X15523809Y30481620D02*
X15504762Y30462572D01*
X15504762Y30462572D02*
X15485714Y30424477D01*
%TO.C,Q3*%
X27361904Y37314953D02*
X27323809Y37334000D01*
X27323809Y37334000D02*
X27285714Y37372096D01*
X27285714Y37372096D02*
X27228571Y37429239D01*
X27228571Y37429239D02*
X27190476Y37448286D01*
X27190476Y37448286D02*
X27152380Y37448286D01*
X27171428Y37353048D02*
X27133333Y37372096D01*
X27133333Y37372096D02*
X27095238Y37410191D01*
X27095238Y37410191D02*
X27076190Y37486381D01*
X27076190Y37486381D02*
X27076190Y37619715D01*
X27076190Y37619715D02*
X27095238Y37695905D01*
X27095238Y37695905D02*
X27133333Y37734000D01*
X27133333Y37734000D02*
X27171428Y37753048D01*
X27171428Y37753048D02*
X27247619Y37753048D01*
X27247619Y37753048D02*
X27285714Y37734000D01*
X27285714Y37734000D02*
X27323809Y37695905D01*
X27323809Y37695905D02*
X27342857Y37619715D01*
X27342857Y37619715D02*
X27342857Y37486381D01*
X27342857Y37486381D02*
X27323809Y37410191D01*
X27323809Y37410191D02*
X27285714Y37372096D01*
X27285714Y37372096D02*
X27247619Y37353048D01*
X27247619Y37353048D02*
X27171428Y37353048D01*
X27476190Y37753048D02*
X27723809Y37753048D01*
X27723809Y37753048D02*
X27590476Y37600667D01*
X27590476Y37600667D02*
X27647619Y37600667D01*
X27647619Y37600667D02*
X27685714Y37581620D01*
X27685714Y37581620D02*
X27704762Y37562572D01*
X27704762Y37562572D02*
X27723809Y37524477D01*
X27723809Y37524477D02*
X27723809Y37429239D01*
X27723809Y37429239D02*
X27704762Y37391143D01*
X27704762Y37391143D02*
X27685714Y37372096D01*
X27685714Y37372096D02*
X27647619Y37353048D01*
X27647619Y37353048D02*
X27533333Y37353048D01*
X27533333Y37353048D02*
X27495238Y37372096D01*
X27495238Y37372096D02*
X27476190Y37391143D01*
%TO.C,Y2*%
X10596524Y39621524D02*
X10596524Y39431048D01*
X10463191Y39831048D02*
X10596524Y39621524D01*
X10596524Y39621524D02*
X10729857Y39831048D01*
X10844143Y39792953D02*
X10863191Y39812000D01*
X10863191Y39812000D02*
X10901286Y39831048D01*
X10901286Y39831048D02*
X10996524Y39831048D01*
X10996524Y39831048D02*
X11034619Y39812000D01*
X11034619Y39812000D02*
X11053667Y39792953D01*
X11053667Y39792953D02*
X11072714Y39754858D01*
X11072714Y39754858D02*
X11072714Y39716762D01*
X11072714Y39716762D02*
X11053667Y39659620D01*
X11053667Y39659620D02*
X10825095Y39431048D01*
X10825095Y39431048D02*
X11072714Y39431048D01*
%TO.C,R15*%
X1842857Y21753048D02*
X1709524Y21943524D01*
X1614286Y21753048D02*
X1614286Y22153048D01*
X1614286Y22153048D02*
X1766667Y22153048D01*
X1766667Y22153048D02*
X1804762Y22134000D01*
X1804762Y22134000D02*
X1823809Y22114953D01*
X1823809Y22114953D02*
X1842857Y22076858D01*
X1842857Y22076858D02*
X1842857Y22019715D01*
X1842857Y22019715D02*
X1823809Y21981620D01*
X1823809Y21981620D02*
X1804762Y21962572D01*
X1804762Y21962572D02*
X1766667Y21943524D01*
X1766667Y21943524D02*
X1614286Y21943524D01*
X2223809Y21753048D02*
X1995238Y21753048D01*
X2109524Y21753048D02*
X2109524Y22153048D01*
X2109524Y22153048D02*
X2071428Y22095905D01*
X2071428Y22095905D02*
X2033333Y22057810D01*
X2033333Y22057810D02*
X1995238Y22038762D01*
X2585714Y22153048D02*
X2395238Y22153048D01*
X2395238Y22153048D02*
X2376190Y21962572D01*
X2376190Y21962572D02*
X2395238Y21981620D01*
X2395238Y21981620D02*
X2433333Y22000667D01*
X2433333Y22000667D02*
X2528571Y22000667D01*
X2528571Y22000667D02*
X2566666Y21981620D01*
X2566666Y21981620D02*
X2585714Y21962572D01*
X2585714Y21962572D02*
X2604761Y21924477D01*
X2604761Y21924477D02*
X2604761Y21829239D01*
X2604761Y21829239D02*
X2585714Y21791143D01*
X2585714Y21791143D02*
X2566666Y21772096D01*
X2566666Y21772096D02*
X2528571Y21753048D01*
X2528571Y21753048D02*
X2433333Y21753048D01*
X2433333Y21753048D02*
X2395238Y21772096D01*
X2395238Y21772096D02*
X2376190Y21791143D01*
%TO.C,R9*%
X23039333Y40218448D02*
X22906000Y40408924D01*
X22810762Y40218448D02*
X22810762Y40618448D01*
X22810762Y40618448D02*
X22963143Y40618448D01*
X22963143Y40618448D02*
X23001238Y40599400D01*
X23001238Y40599400D02*
X23020285Y40580353D01*
X23020285Y40580353D02*
X23039333Y40542258D01*
X23039333Y40542258D02*
X23039333Y40485115D01*
X23039333Y40485115D02*
X23020285Y40447020D01*
X23020285Y40447020D02*
X23001238Y40427972D01*
X23001238Y40427972D02*
X22963143Y40408924D01*
X22963143Y40408924D02*
X22810762Y40408924D01*
X23229809Y40218448D02*
X23306000Y40218448D01*
X23306000Y40218448D02*
X23344095Y40237496D01*
X23344095Y40237496D02*
X23363143Y40256543D01*
X23363143Y40256543D02*
X23401238Y40313686D01*
X23401238Y40313686D02*
X23420285Y40389877D01*
X23420285Y40389877D02*
X23420285Y40542258D01*
X23420285Y40542258D02*
X23401238Y40580353D01*
X23401238Y40580353D02*
X23382190Y40599400D01*
X23382190Y40599400D02*
X23344095Y40618448D01*
X23344095Y40618448D02*
X23267904Y40618448D01*
X23267904Y40618448D02*
X23229809Y40599400D01*
X23229809Y40599400D02*
X23210762Y40580353D01*
X23210762Y40580353D02*
X23191714Y40542258D01*
X23191714Y40542258D02*
X23191714Y40447020D01*
X23191714Y40447020D02*
X23210762Y40408924D01*
X23210762Y40408924D02*
X23229809Y40389877D01*
X23229809Y40389877D02*
X23267904Y40370829D01*
X23267904Y40370829D02*
X23344095Y40370829D01*
X23344095Y40370829D02*
X23382190Y40389877D01*
X23382190Y40389877D02*
X23401238Y40408924D01*
X23401238Y40408924D02*
X23420285Y40447020D01*
D11*
%TO.C,J9*%
X25294428Y14866934D02*
X25294428Y15200267D01*
X24770619Y15200267D02*
X25770619Y15200267D01*
X25770619Y15200267D02*
X25770619Y14724077D01*
X24770619Y13819315D02*
X24770619Y14390743D01*
X24770619Y14105029D02*
X25770619Y14105029D01*
X25770619Y14105029D02*
X25627761Y14200267D01*
X25627761Y14200267D02*
X25532523Y14295505D01*
X25532523Y14295505D02*
X25484904Y14390743D01*
D10*
%TO.C,IC2*%
X11336324Y48778248D02*
X11336324Y49178248D01*
X11755371Y48816343D02*
X11736323Y48797296D01*
X11736323Y48797296D02*
X11679181Y48778248D01*
X11679181Y48778248D02*
X11641085Y48778248D01*
X11641085Y48778248D02*
X11583942Y48797296D01*
X11583942Y48797296D02*
X11545847Y48835391D01*
X11545847Y48835391D02*
X11526800Y48873486D01*
X11526800Y48873486D02*
X11507752Y48949677D01*
X11507752Y48949677D02*
X11507752Y49006820D01*
X11507752Y49006820D02*
X11526800Y49083010D01*
X11526800Y49083010D02*
X11545847Y49121105D01*
X11545847Y49121105D02*
X11583942Y49159200D01*
X11583942Y49159200D02*
X11641085Y49178248D01*
X11641085Y49178248D02*
X11679181Y49178248D01*
X11679181Y49178248D02*
X11736323Y49159200D01*
X11736323Y49159200D02*
X11755371Y49140153D01*
X11907752Y49140153D02*
X11926800Y49159200D01*
X11926800Y49159200D02*
X11964895Y49178248D01*
X11964895Y49178248D02*
X12060133Y49178248D01*
X12060133Y49178248D02*
X12098228Y49159200D01*
X12098228Y49159200D02*
X12117276Y49140153D01*
X12117276Y49140153D02*
X12136323Y49102058D01*
X12136323Y49102058D02*
X12136323Y49063962D01*
X12136323Y49063962D02*
X12117276Y49006820D01*
X12117276Y49006820D02*
X11888704Y48778248D01*
X11888704Y48778248D02*
X12136323Y48778248D01*
%TO.C,R14*%
X20446952Y31542858D02*
X20256476Y31409525D01*
X20446952Y31314287D02*
X20046952Y31314287D01*
X20046952Y31314287D02*
X20046952Y31466668D01*
X20046952Y31466668D02*
X20066000Y31504763D01*
X20066000Y31504763D02*
X20085047Y31523810D01*
X20085047Y31523810D02*
X20123142Y31542858D01*
X20123142Y31542858D02*
X20180285Y31542858D01*
X20180285Y31542858D02*
X20218380Y31523810D01*
X20218380Y31523810D02*
X20237428Y31504763D01*
X20237428Y31504763D02*
X20256476Y31466668D01*
X20256476Y31466668D02*
X20256476Y31314287D01*
X20446952Y31923810D02*
X20446952Y31695239D01*
X20446952Y31809525D02*
X20046952Y31809525D01*
X20046952Y31809525D02*
X20104095Y31771429D01*
X20104095Y31771429D02*
X20142190Y31733334D01*
X20142190Y31733334D02*
X20161238Y31695239D01*
X20180285Y32266667D02*
X20446952Y32266667D01*
X20027904Y32171429D02*
X20313619Y32076191D01*
X20313619Y32076191D02*
X20313619Y32323810D01*
%TO.C,C7*%
X3033333Y36891143D02*
X3014285Y36872096D01*
X3014285Y36872096D02*
X2957143Y36853048D01*
X2957143Y36853048D02*
X2919047Y36853048D01*
X2919047Y36853048D02*
X2861904Y36872096D01*
X2861904Y36872096D02*
X2823809Y36910191D01*
X2823809Y36910191D02*
X2804762Y36948286D01*
X2804762Y36948286D02*
X2785714Y37024477D01*
X2785714Y37024477D02*
X2785714Y37081620D01*
X2785714Y37081620D02*
X2804762Y37157810D01*
X2804762Y37157810D02*
X2823809Y37195905D01*
X2823809Y37195905D02*
X2861904Y37234000D01*
X2861904Y37234000D02*
X2919047Y37253048D01*
X2919047Y37253048D02*
X2957143Y37253048D01*
X2957143Y37253048D02*
X3014285Y37234000D01*
X3014285Y37234000D02*
X3033333Y37214953D01*
X3166666Y37253048D02*
X3433333Y37253048D01*
X3433333Y37253048D02*
X3261904Y36853048D01*
%TO.C,C12*%
X23000857Y31573858D02*
X23019904Y31554810D01*
X23019904Y31554810D02*
X23038952Y31497668D01*
X23038952Y31497668D02*
X23038952Y31459572D01*
X23038952Y31459572D02*
X23019904Y31402429D01*
X23019904Y31402429D02*
X22981809Y31364334D01*
X22981809Y31364334D02*
X22943714Y31345287D01*
X22943714Y31345287D02*
X22867523Y31326239D01*
X22867523Y31326239D02*
X22810380Y31326239D01*
X22810380Y31326239D02*
X22734190Y31345287D01*
X22734190Y31345287D02*
X22696095Y31364334D01*
X22696095Y31364334D02*
X22658000Y31402429D01*
X22658000Y31402429D02*
X22638952Y31459572D01*
X22638952Y31459572D02*
X22638952Y31497668D01*
X22638952Y31497668D02*
X22658000Y31554810D01*
X22658000Y31554810D02*
X22677047Y31573858D01*
X23038952Y31954810D02*
X23038952Y31726239D01*
X23038952Y31840525D02*
X22638952Y31840525D01*
X22638952Y31840525D02*
X22696095Y31802429D01*
X22696095Y31802429D02*
X22734190Y31764334D01*
X22734190Y31764334D02*
X22753238Y31726239D01*
X22677047Y32107191D02*
X22658000Y32126239D01*
X22658000Y32126239D02*
X22638952Y32164334D01*
X22638952Y32164334D02*
X22638952Y32259572D01*
X22638952Y32259572D02*
X22658000Y32297667D01*
X22658000Y32297667D02*
X22677047Y32316715D01*
X22677047Y32316715D02*
X22715142Y32335762D01*
X22715142Y32335762D02*
X22753238Y32335762D01*
X22753238Y32335762D02*
X22810380Y32316715D01*
X22810380Y32316715D02*
X23038952Y32088143D01*
X23038952Y32088143D02*
X23038952Y32335762D01*
%TO.C,R13*%
X18734057Y57898848D02*
X18600724Y58089324D01*
X18505486Y57898848D02*
X18505486Y58298848D01*
X18505486Y58298848D02*
X18657867Y58298848D01*
X18657867Y58298848D02*
X18695962Y58279800D01*
X18695962Y58279800D02*
X18715009Y58260753D01*
X18715009Y58260753D02*
X18734057Y58222658D01*
X18734057Y58222658D02*
X18734057Y58165515D01*
X18734057Y58165515D02*
X18715009Y58127420D01*
X18715009Y58127420D02*
X18695962Y58108372D01*
X18695962Y58108372D02*
X18657867Y58089324D01*
X18657867Y58089324D02*
X18505486Y58089324D01*
X19115009Y57898848D02*
X18886438Y57898848D01*
X19000724Y57898848D02*
X19000724Y58298848D01*
X19000724Y58298848D02*
X18962628Y58241705D01*
X18962628Y58241705D02*
X18924533Y58203610D01*
X18924533Y58203610D02*
X18886438Y58184562D01*
X19248342Y58298848D02*
X19495961Y58298848D01*
X19495961Y58298848D02*
X19362628Y58146467D01*
X19362628Y58146467D02*
X19419771Y58146467D01*
X19419771Y58146467D02*
X19457866Y58127420D01*
X19457866Y58127420D02*
X19476914Y58108372D01*
X19476914Y58108372D02*
X19495961Y58070277D01*
X19495961Y58070277D02*
X19495961Y57975039D01*
X19495961Y57975039D02*
X19476914Y57936943D01*
X19476914Y57936943D02*
X19457866Y57917896D01*
X19457866Y57917896D02*
X19419771Y57898848D01*
X19419771Y57898848D02*
X19305485Y57898848D01*
X19305485Y57898848D02*
X19267390Y57917896D01*
X19267390Y57917896D02*
X19248342Y57936943D01*
%TO.C,J1*%
X16166666Y4253048D02*
X16166666Y3967334D01*
X16166666Y3967334D02*
X16147619Y3910191D01*
X16147619Y3910191D02*
X16109523Y3872096D01*
X16109523Y3872096D02*
X16052381Y3853048D01*
X16052381Y3853048D02*
X16014285Y3853048D01*
X16566666Y3853048D02*
X16338095Y3853048D01*
X16452381Y3853048D02*
X16452381Y4253048D01*
X16452381Y4253048D02*
X16414285Y4195905D01*
X16414285Y4195905D02*
X16376190Y4157810D01*
X16376190Y4157810D02*
X16338095Y4138762D01*
D12*
%TO.C,R24*%
X21402959Y50168800D02*
X21710241Y50168800D01*
X21402959Y49408800D02*
X21710241Y49408800D01*
%TO.C,R18*%
X21718000Y33653759D02*
X21718000Y33961041D01*
X22478000Y33653759D02*
X22478000Y33961041D01*
%TO.C,IC1*%
X15276000Y20066000D02*
X15276000Y20866000D01*
X15276000Y20066000D02*
X15276000Y19266000D01*
X12156000Y20066000D02*
X12156000Y20866000D01*
X12156000Y20066000D02*
X12156000Y18266000D01*
%TO.C,R11*%
X21809600Y56980241D02*
X21809600Y56672959D01*
X21049600Y56980241D02*
X21049600Y56672959D01*
%TO.C,C10*%
X9284000Y41502164D02*
X9284000Y41717836D01*
X10004000Y41502164D02*
X10004000Y41717836D01*
%TO.C,J5*%
X15875000Y57150000D02*
X15875000Y56515000D01*
X15240000Y57150000D02*
X15875000Y57150000D01*
%TO.C,R14*%
X2437159Y14426200D02*
X2744441Y14426200D01*
X2437159Y13666200D02*
X2744441Y13666200D01*
%TO.C,R10*%
X22734000Y49122359D02*
X22734000Y49429641D01*
X23494000Y49122359D02*
X23494000Y49429641D01*
%TO.C,TH1*%
X3343641Y48497800D02*
X3036359Y48497800D01*
X3343641Y49257800D02*
X3036359Y49257800D01*
%TO.C,Q6*%
X21040000Y25560000D02*
X18610000Y25560000D01*
X21060000Y25550000D02*
X21060000Y24550000D01*
X21060000Y23550000D02*
X21060000Y22500000D01*
X21060000Y22500000D02*
X19210000Y22500000D01*
D13*
%TO.C,Q1*%
X25373000Y47220000D02*
X24408000Y47220000D01*
X25373000Y44220000D02*
X24408000Y44220000D01*
X26443000Y47220000D02*
X27408000Y47220000D01*
X26443000Y44220000D02*
X27408000Y44220000D01*
D14*
X23845500Y46695000D02*
G75*
G03*
X23845500Y46695000I-100000J0D01*
G01*
D12*
%TO.C,R2*%
X22734000Y44042359D02*
X22734000Y44349641D01*
X23494000Y44042359D02*
X23494000Y44349641D01*
%TO.C,D1*%
X15906000Y23210600D02*
X17606000Y23210600D01*
X15906000Y23210600D02*
X15906000Y25870600D01*
X17606000Y23210600D02*
X17606000Y25870600D01*
%TO.C,C4*%
X10816000Y19958164D02*
X10816000Y20173836D01*
X11536000Y19958164D02*
X11536000Y20173836D01*
D11*
%TO.C,L1*%
X6556000Y22816000D02*
X8056000Y22816000D01*
X6556000Y22816000D02*
X6556000Y30016000D01*
X13256000Y22816000D02*
X11756000Y22816000D01*
X13256000Y22816000D02*
X13256000Y30016000D01*
X6556000Y30016000D02*
X8056000Y30016000D01*
X13256000Y30016000D02*
X11756000Y30016000D01*
D13*
%TO.C,Q2*%
X25373000Y31726000D02*
X24408000Y31726000D01*
X25373000Y28726000D02*
X24408000Y28726000D01*
X26443000Y31726000D02*
X27408000Y31726000D01*
X26443000Y28726000D02*
X27408000Y28726000D01*
D14*
X23845500Y31201000D02*
G75*
G03*
X23845500Y31201000I-100000J0D01*
G01*
D12*
%TO.C,C8*%
X16158800Y45139436D02*
X16158800Y44923764D01*
X15438800Y45139436D02*
X15438800Y44923764D01*
%TO.C,D2*%
X24222000Y57750800D02*
X22752000Y57750800D01*
X22752000Y57750800D02*
X22752000Y55465800D01*
X24222000Y55465800D02*
X24222000Y57750800D01*
D13*
%TO.C,Q5*%
X25373000Y52300000D02*
X24408000Y52300000D01*
X25373000Y49300000D02*
X24408000Y49300000D01*
X26443000Y52300000D02*
X27408000Y52300000D01*
X26443000Y49300000D02*
X27408000Y49300000D01*
D14*
X23845500Y51775000D02*
G75*
G03*
X23845500Y51775000I-100000J0D01*
G01*
D12*
%TO.C,R19*%
X3036359Y50527800D02*
X3343641Y50527800D01*
X3036359Y49767800D02*
X3343641Y49767800D01*
%TO.C,R21*%
X22495400Y36124841D02*
X22495400Y35817559D01*
X21735400Y36124841D02*
X21735400Y35817559D01*
%TO.C,C3*%
X20481000Y21659000D02*
X20481000Y21034000D01*
X20793500Y21346500D02*
X20168500Y21346500D01*
X20491563Y20794000D02*
X19856000Y20794000D01*
X20491563Y20794000D02*
X21556000Y19729563D01*
X17100437Y20794000D02*
X17736000Y20794000D01*
X17100437Y20794000D02*
X16036000Y19729563D01*
X21556000Y19729563D02*
X21556000Y15274000D01*
X16036000Y19729563D02*
X16036000Y15274000D01*
X21556000Y15274000D02*
X19856000Y15274000D01*
X16036000Y15274000D02*
X17736000Y15274000D01*
%TO.C,R20*%
X21403200Y29756241D02*
X21403200Y29448959D01*
X20643200Y29756241D02*
X20643200Y29448959D01*
%TO.C,U2*%
X5105400Y13228000D02*
X1655400Y13228000D01*
X5105400Y13228000D02*
X7055400Y13228000D01*
X5105400Y8108000D02*
X3155400Y8108000D01*
X5105400Y8108000D02*
X7055400Y8108000D01*
%TO.C,J10*%
X22656100Y20439800D02*
X24006100Y20439800D01*
X27756100Y20439800D02*
X26406100Y20439800D01*
X22656100Y24939800D02*
X22656100Y20439800D01*
X22656100Y24939800D02*
X24006100Y24939800D01*
X27756100Y24939800D02*
X27756100Y20439800D01*
X27756100Y24939800D02*
X26406100Y24939800D01*
%TO.C,C13*%
X3297836Y47247800D02*
X3082164Y47247800D01*
X3297836Y47967800D02*
X3082164Y47967800D01*
%TO.C,C1*%
X15896000Y21990164D02*
X15896000Y22205836D01*
X16616000Y21990164D02*
X16616000Y22205836D01*
%TO.C,R6*%
X22734000Y33628359D02*
X22734000Y33935641D01*
X23494000Y33628359D02*
X23494000Y33935641D01*
%TO.C,J6*%
X9532000Y4434000D02*
X10782000Y4434000D01*
X9832000Y4734000D02*
X14552000Y4734000D01*
X11142000Y4734000D02*
X11142000Y5344000D01*
X12442000Y4734000D02*
X12442000Y5344000D01*
X14552000Y4734000D02*
X14552000Y12854000D01*
X10442000Y5344000D02*
X13942000Y5344000D01*
X13942000Y5344000D02*
X13942000Y12244000D01*
X9532000Y5684000D02*
X9532000Y4434000D01*
X9632000Y6194000D02*
X9832000Y6194000D01*
X9632000Y6494000D02*
X9632000Y6194000D01*
X9732000Y6494000D02*
X9732000Y6194000D01*
X9832000Y6494000D02*
X9632000Y6494000D01*
X9832000Y7294000D02*
X10442000Y7294000D01*
X10442000Y7294000D02*
X10442000Y5344000D01*
X13442000Y7694000D02*
X13442000Y7894000D01*
X13942000Y7694000D02*
X13442000Y7694000D01*
X13942000Y7794000D02*
X13442000Y7794000D01*
X13442000Y7894000D02*
X13942000Y7894000D01*
X13442000Y9694000D02*
X13442000Y9894000D01*
X13942000Y9694000D02*
X13442000Y9694000D01*
X13942000Y9794000D02*
X13442000Y9794000D01*
X13442000Y9894000D02*
X13942000Y9894000D01*
X10442000Y10294000D02*
X9832000Y10294000D01*
X10442000Y12244000D02*
X10442000Y10294000D01*
X13942000Y12244000D02*
X10442000Y12244000D01*
X9832000Y12854000D02*
X9832000Y4734000D01*
X11142000Y12854000D02*
X11142000Y12244000D01*
X12442000Y12854000D02*
X12442000Y12244000D01*
X14552000Y12854000D02*
X9832000Y12854000D01*
%TO.C,R5*%
X13844000Y26770359D02*
X13844000Y27077641D01*
X14604000Y26770359D02*
X14604000Y27077641D01*
%TO.C,C2*%
X7219836Y13711600D02*
X7004164Y13711600D01*
X7219836Y14431600D02*
X7004164Y14431600D01*
%TO.C,R3*%
X18710559Y26800800D02*
X19017841Y26800800D01*
X18710559Y26040800D02*
X19017841Y26040800D01*
%TO.C,G\u002A\u002A\u002A*%
G36*
X2873035Y41245942D02*
G01*
X2868312Y41223694D01*
X2841849Y41210998D01*
X2815939Y41220380D01*
X2811695Y41236696D01*
X2825655Y41261181D01*
X2845678Y41262127D01*
X2873035Y41245942D01*
G37*
G36*
X2873035Y40935239D02*
G01*
X2868312Y40912990D01*
X2841849Y40900295D01*
X2815939Y40909677D01*
X2811695Y40925992D01*
X2825655Y40950478D01*
X2845678Y40951424D01*
X2873035Y40935239D01*
G37*
G36*
X3455604Y42216890D02*
G01*
X3450880Y42194642D01*
X3424418Y42181946D01*
X3398508Y42191328D01*
X3394264Y42207644D01*
X3408223Y42232129D01*
X3428247Y42233075D01*
X3455604Y42216890D01*
G37*
G36*
X3650289Y39732055D02*
G01*
X3662432Y39707452D01*
X3654858Y39678573D01*
X3637001Y39673469D01*
X3612427Y39687405D01*
X3611303Y39703623D01*
X3628107Y39733451D01*
X3650289Y39732055D01*
G37*
G36*
X2424657Y41255285D02*
G01*
X2440387Y41231221D01*
X2440159Y41202016D01*
X2424462Y41188148D01*
X2398162Y41202264D01*
X2394187Y41207567D01*
X2390388Y41236366D01*
X2405799Y41256571D01*
X2424657Y41255285D01*
G37*
G36*
X2652960Y41580402D02*
G01*
X2656343Y41566818D01*
X2640799Y41541073D01*
X2627215Y41537689D01*
X2601470Y41553234D01*
X2598086Y41566818D01*
X2613630Y41592563D01*
X2627215Y41595946D01*
X2652960Y41580402D01*
G37*
G36*
X3177418Y40415239D02*
G01*
X3180655Y40401680D01*
X3166174Y40377254D01*
X3135554Y40373867D01*
X3116453Y40384970D01*
X3111937Y40408731D01*
X3134156Y40427582D01*
X3152673Y40430809D01*
X3177418Y40415239D01*
G37*
G36*
X3274366Y42007619D02*
G01*
X3277750Y41994035D01*
X3262206Y41968290D01*
X3248621Y41964907D01*
X3222876Y41980451D01*
X3219493Y41994035D01*
X3235037Y42019780D01*
X3248621Y42023163D01*
X3274366Y42007619D01*
G37*
G36*
X3703006Y42374512D02*
G01*
X3704967Y42364419D01*
X3688632Y42339209D01*
X3664511Y42333867D01*
X3634915Y42343144D01*
X3632137Y42358141D01*
X3653032Y42382321D01*
X3682395Y42388272D01*
X3703006Y42374512D01*
G37*
G36*
X4148220Y39677344D02*
G01*
X4151603Y39663760D01*
X4136059Y39638015D01*
X4122475Y39634631D01*
X4096730Y39650176D01*
X4093346Y39663760D01*
X4108890Y39689505D01*
X4122475Y39692888D01*
X4148220Y39677344D01*
G37*
G36*
X4381393Y40861875D02*
G01*
X4384631Y40848316D01*
X4370149Y40823890D01*
X4339529Y40820503D01*
X4320429Y40831606D01*
X4315913Y40855367D01*
X4338132Y40874218D01*
X4356648Y40877445D01*
X4381393Y40861875D01*
G37*
G36*
X4692097Y39502548D02*
G01*
X4695334Y39488989D01*
X4680853Y39464563D01*
X4650233Y39461176D01*
X4631132Y39472279D01*
X4626616Y39496040D01*
X4648835Y39514891D01*
X4667352Y39518118D01*
X4692097Y39502548D01*
G37*
G36*
X5663671Y42079150D02*
G01*
X5657371Y42063293D01*
X5629145Y42043451D01*
X5600470Y42058794D01*
X5598231Y42062139D01*
X5602559Y42084227D01*
X5617341Y42093666D01*
X5652541Y42097501D01*
X5663671Y42079150D01*
G37*
G36*
X7079413Y41037880D02*
G01*
X7082335Y41008426D01*
X7066647Y40985609D01*
X7041525Y40989018D01*
X7027978Y41000814D01*
X7016995Y41032204D01*
X7040027Y41050354D01*
X7057974Y41052215D01*
X7079413Y41037880D01*
G37*
G36*
X7157882Y41095267D02*
G01*
X7161542Y41081344D01*
X7158952Y41056517D01*
X7145728Y41061689D01*
X7126793Y41082083D01*
X7112139Y41104490D01*
X7128444Y41110441D01*
X7131648Y41110472D01*
X7157882Y41095267D01*
G37*
G36*
X2657907Y40610550D02*
G01*
X2663227Y40606463D01*
X2669997Y40578396D01*
X2653194Y40552574D01*
X2636924Y40547323D01*
X2612090Y40561490D01*
X2606454Y40568913D01*
X2607434Y40594023D01*
X2630209Y40611622D01*
X2657907Y40610550D01*
G37*
G36*
X3993116Y40479586D02*
G01*
X3998443Y40475222D01*
X4009315Y40444601D01*
X3995152Y40417533D01*
X3976832Y40411390D01*
X3951927Y40425535D01*
X3946658Y40432501D01*
X3944390Y40462116D01*
X3964935Y40481985D01*
X3993116Y40479586D01*
G37*
G36*
X6372006Y41116777D02*
G01*
X6384044Y41087508D01*
X6384783Y41078107D01*
X6370448Y41056669D01*
X6340994Y41053746D01*
X6318177Y41069434D01*
X6320969Y41092936D01*
X6342753Y41114541D01*
X6367186Y41119877D01*
X6372006Y41116777D01*
G37*
G36*
X4610220Y41281986D02*
G01*
X4632679Y41268822D01*
X4637077Y41246405D01*
X4630563Y41220996D01*
X4604236Y41209766D01*
X4559401Y41207567D01*
X4508583Y41210824D01*
X4486123Y41223988D01*
X4481725Y41246405D01*
X4488239Y41271814D01*
X4514567Y41283044D01*
X4559401Y41285243D01*
X4610220Y41281986D01*
G37*
G36*
X5033277Y40613095D02*
G01*
X5069393Y40589295D01*
X5104692Y40554351D01*
X5129107Y40518494D01*
X5132572Y40491955D01*
X5130580Y40489327D01*
X5105090Y40488047D01*
X5062747Y40519804D01*
X5047034Y40535386D01*
X5008294Y40581587D01*
X5000655Y40608989D01*
X5006411Y40615520D01*
X5033277Y40613095D01*
G37*
G36*
X5145192Y40135203D02*
G01*
X5126197Y40096574D01*
X5102107Y40066703D01*
X5053999Y40019763D01*
X5020891Y40004646D01*
X4998538Y40019441D01*
X4998229Y40019934D01*
X5004987Y40041683D01*
X5033497Y40078740D01*
X5055378Y40101455D01*
X5105132Y40141101D01*
X5136620Y40151198D01*
X5145192Y40135203D01*
G37*
G36*
X5281179Y40859261D02*
G01*
X5319189Y40825667D01*
X5331474Y40813517D01*
X5373748Y40762980D01*
X5387360Y40729562D01*
X5375162Y40717881D01*
X5340005Y40732560D01*
X5300551Y40763408D01*
X5255784Y40813750D01*
X5247395Y40851576D01*
X5247965Y40853210D01*
X5259747Y40867344D01*
X5281179Y40859261D01*
G37*
G36*
X5387587Y39890263D02*
G01*
X5363666Y39849184D01*
X5344357Y39827243D01*
X5300207Y39789160D01*
X5263212Y39770963D01*
X5241591Y39775857D01*
X5239065Y39786174D01*
X5251891Y39807838D01*
X5284407Y39844954D01*
X5304842Y39865537D01*
X5353290Y39903175D01*
X5382500Y39909839D01*
X5387587Y39890263D01*
G37*
G36*
X5417947Y40958767D02*
G01*
X5447819Y40934677D01*
X5486463Y40896059D01*
X5508762Y40866206D01*
X5510930Y40859446D01*
X5500520Y40833743D01*
X5471030Y40839496D01*
X5425073Y40875942D01*
X5413066Y40887948D01*
X5373420Y40937702D01*
X5363324Y40969190D01*
X5379319Y40977761D01*
X5417947Y40958767D01*
G37*
G36*
X5514724Y39793957D02*
G01*
X5523582Y39771851D01*
X5506974Y39740625D01*
X5481924Y39712435D01*
X5428054Y39666541D01*
X5387980Y39655126D01*
X5367190Y39670392D01*
X5373947Y39692141D01*
X5402458Y39729198D01*
X5424338Y39751914D01*
X5468997Y39790679D01*
X5497646Y39802292D01*
X5514724Y39793957D01*
G37*
G36*
X5920119Y39763254D02*
G01*
X5928306Y39756932D01*
X5971496Y39715358D01*
X5982230Y39686830D01*
X5959830Y39673946D01*
X5950096Y39673469D01*
X5920805Y39686573D01*
X5883375Y39718337D01*
X5881241Y39720579D01*
X5849969Y39763763D01*
X5849395Y39787874D01*
X5874463Y39789005D01*
X5920119Y39763254D01*
G37*
G36*
X6022893Y39904735D02*
G01*
X6065871Y39865511D01*
X6105937Y39821346D01*
X6118615Y39794095D01*
X6109240Y39778302D01*
X6081419Y39775983D01*
X6039447Y39802937D01*
X6016648Y39823348D01*
X5976735Y39865271D01*
X5964360Y39892414D01*
X5973279Y39910558D01*
X5993880Y39919246D01*
X6022893Y39904735D01*
G37*
G36*
X6164442Y40000681D02*
G01*
X6186586Y39982391D01*
X6222768Y39943901D01*
X6239532Y39913721D01*
X6238843Y39906013D01*
X6220353Y39889293D01*
X6194706Y39897088D01*
X6154717Y39932324D01*
X6141924Y39945463D01*
X6106183Y39992251D01*
X6101276Y40019740D01*
X6122322Y40023894D01*
X6164442Y40000681D01*
G37*
G36*
X6349739Y40609553D02*
G01*
X6358597Y40587447D01*
X6341989Y40556222D01*
X6316940Y40528032D01*
X6263069Y40482137D01*
X6222996Y40470722D01*
X6202205Y40485989D01*
X6208962Y40507738D01*
X6237473Y40544795D01*
X6259354Y40567510D01*
X6304013Y40606276D01*
X6332661Y40617889D01*
X6349739Y40609553D01*
G37*
G36*
X5178469Y40730581D02*
G01*
X5212333Y40700351D01*
X5248024Y40658243D01*
X5264975Y40622862D01*
X5264606Y40612943D01*
X5250773Y40590975D01*
X5229980Y40592480D01*
X5195461Y40619994D01*
X5165175Y40650220D01*
X5127864Y40693516D01*
X5117727Y40721333D01*
X5126435Y40737628D01*
X5147969Y40746381D01*
X5178469Y40730581D01*
G37*
G36*
X5261941Y40027321D02*
G01*
X5271264Y40005381D01*
X5255556Y39974898D01*
X5229478Y39945463D01*
X5185165Y39903226D01*
X5156814Y39889056D01*
X5136857Y39900117D01*
X5130987Y39908558D01*
X5135367Y39933993D01*
X5161956Y39972931D01*
X5178089Y39990417D01*
X5219605Y40027058D01*
X5246480Y40036167D01*
X5261941Y40027321D01*
G37*
G36*
X6115007Y40847025D02*
G01*
X6115999Y40826317D01*
X6089466Y40787588D01*
X6071958Y40768451D01*
X6025168Y40723394D01*
X5995512Y40705391D01*
X5975684Y40711316D01*
X5966520Y40723317D01*
X5968049Y40753006D01*
X5994176Y40789459D01*
X6034029Y40823619D01*
X6076734Y40846427D01*
X6111420Y40848827D01*
X6115007Y40847025D01*
G37*
G36*
X6230968Y40728324D02*
G01*
X6235097Y40705135D01*
X6209411Y40668899D01*
X6187238Y40646892D01*
X6139452Y40604924D01*
X6110193Y40588461D01*
X6091926Y40594209D01*
X6085691Y40602502D01*
X6092448Y40624251D01*
X6120959Y40661308D01*
X6142840Y40684024D01*
X6190174Y40723915D01*
X6220541Y40733926D01*
X6230968Y40728324D01*
G37*
G36*
X6279139Y40135278D02*
G01*
X6306980Y40110519D01*
X6348553Y40062602D01*
X6364498Y40025749D01*
X6353059Y40005659D01*
X6339869Y40003592D01*
X6311321Y40016659D01*
X6271227Y40049267D01*
X6258438Y40061977D01*
X6224012Y40103441D01*
X6217316Y40130328D01*
X6225548Y40143408D01*
X6247704Y40152138D01*
X6279139Y40135278D01*
G37*
G36*
X5990369Y40971490D02*
G01*
X6001077Y40952995D01*
X5988789Y40926883D01*
X5949682Y40885100D01*
X5949105Y40884539D01*
X5903818Y40841944D01*
X5877394Y40823366D01*
X5861501Y40825095D01*
X5849725Y40840285D01*
X5854338Y40865355D01*
X5880823Y40905103D01*
X5900515Y40927236D01*
X5943885Y40966965D01*
X5972807Y40978893D01*
X5990369Y40971490D01*
G37*
G36*
X7155359Y42132438D02*
G01*
X7158615Y42120319D01*
X7156754Y42098860D01*
X7143217Y42071517D01*
X7114545Y42034248D01*
X7067279Y41983014D01*
X6997962Y41913772D01*
X6906169Y41825377D01*
X6646939Y41578146D01*
X6030387Y41577337D01*
X5859581Y41577181D01*
X5723635Y41577373D01*
X5618573Y41578160D01*
X5540420Y41579785D01*
X5485197Y41582496D01*
X5448928Y41586536D01*
X5427636Y41592151D01*
X5417346Y41599587D01*
X5414079Y41609088D01*
X5413835Y41615365D01*
X5414939Y41626220D01*
X5420928Y41634838D01*
X5435817Y41641476D01*
X5463623Y41646394D01*
X5508362Y41649848D01*
X5574048Y41652097D01*
X5664700Y41653399D01*
X5784331Y41654012D01*
X5936958Y41654193D01*
X6018353Y41654203D01*
X6622871Y41654203D01*
X6887352Y41911117D01*
X6979480Y42000135D01*
X7047757Y42064547D01*
X7095832Y42107167D01*
X7127357Y42130812D01*
X7145983Y42138297D01*
X7155359Y42132438D01*
G37*
G36*
X5706150Y40794653D02*
G01*
X5739303Y40776909D01*
X5783586Y40742942D01*
X5843490Y40689157D01*
X5923506Y40611960D01*
X5962717Y40573156D01*
X6050127Y40483886D01*
X6119057Y40408656D01*
X6166402Y40351073D01*
X6189062Y40314748D01*
X6190594Y40308073D01*
X6176582Y40277310D01*
X6137729Y40227210D01*
X6078805Y40163567D01*
X6040097Y40125392D01*
X5934546Y40024208D01*
X5853376Y39946781D01*
X5792764Y39890171D01*
X5748884Y39851436D01*
X5717915Y39827632D01*
X5696032Y39815819D01*
X5679411Y39813054D01*
X5664230Y39816396D01*
X5646863Y39822831D01*
X5623584Y39839527D01*
X5578382Y39878827D01*
X5516691Y39935765D01*
X5443941Y40005376D01*
X5399271Y40049154D01*
X5310700Y40138329D01*
X5247887Y40205789D01*
X5207522Y40255574D01*
X5186292Y40291725D01*
X5180808Y40315694D01*
X5195029Y40351687D01*
X5233642Y40405874D01*
X5290576Y40472363D01*
X5359758Y40545260D01*
X5435114Y40618673D01*
X5510572Y40686707D01*
X5580059Y40743470D01*
X5637502Y40783069D01*
X5676828Y40799610D01*
X5679638Y40799769D01*
X5706150Y40794653D01*
G37*
G36*
X3374524Y45027528D02*
G01*
X3542779Y45011851D01*
X3727540Y44987283D01*
X3918517Y44955149D01*
X4063189Y44926113D01*
X4231134Y44895583D01*
X4394589Y44878895D01*
X4561890Y44876211D01*
X4741376Y44887694D01*
X4941385Y44913507D01*
X5134575Y44946991D01*
X5355925Y44985881D01*
X5548921Y45012477D01*
X5722071Y45026714D01*
X5883883Y45028525D01*
X6042866Y45017844D01*
X6207528Y44994605D01*
X6386378Y44958742D01*
X6481878Y44936515D01*
X6705196Y44882690D01*
X6711049Y44760956D01*
X6712406Y44690125D01*
X6705879Y44644407D01*
X6688247Y44610357D01*
X6669729Y44588571D01*
X6639627Y44553943D01*
X6615131Y44518100D01*
X6593123Y44473756D01*
X6570482Y44413626D01*
X6544088Y44330424D01*
X6511349Y44218696D01*
X6470535Y44083656D01*
X6433859Y43979524D01*
X6397949Y43899105D01*
X6359433Y43835202D01*
X6314938Y43780620D01*
X6297680Y43762737D01*
X6167990Y43660224D01*
X6014933Y43588709D01*
X5838488Y43548185D01*
X5676766Y43538073D01*
X5484661Y43552473D01*
X5315080Y43595905D01*
X5166475Y43669619D01*
X5037299Y43774867D01*
X4926004Y43912899D01*
X4831044Y44084966D01*
X4753489Y44284313D01*
X4714504Y44385272D01*
X4672804Y44452680D01*
X4623293Y44491752D01*
X4560877Y44507704D01*
X4534165Y44508790D01*
X4481171Y44504911D01*
X4440544Y44489429D01*
X4407505Y44456578D01*
X4377273Y44400592D01*
X4345068Y44315704D01*
X4325635Y44257239D01*
X4249875Y44069454D01*
X4152847Y43904000D01*
X4037827Y43765051D01*
X3908091Y43656783D01*
X3811771Y43602182D01*
X3759685Y43579454D01*
X3712390Y43563870D01*
X3660230Y43553889D01*
X3593553Y43547971D01*
X3502705Y43544574D01*
X3442811Y43543295D01*
X3298652Y43543318D01*
X3187589Y43549723D01*
X3104349Y43562862D01*
X3088030Y43567028D01*
X2948064Y43615572D01*
X2839802Y43676398D01*
X2756873Y43754128D01*
X2692906Y43853386D01*
X2692628Y43853934D01*
X2654807Y43937586D01*
X2612020Y44046522D01*
X2568708Y44168342D01*
X2529311Y44290649D01*
X2502243Y44385629D01*
X2477597Y44445854D01*
X2436558Y44515521D01*
X2403631Y44560044D01*
X2360207Y44615982D01*
X2336997Y44660612D01*
X2327756Y44711055D01*
X2326221Y44772276D01*
X2326221Y44890831D01*
X2583522Y44943213D01*
X2735528Y44973636D01*
X2857045Y44996487D01*
X2955460Y45012785D01*
X3038158Y45023553D01*
X3112528Y45029810D01*
X3185954Y45032579D01*
X3233063Y45032990D01*
X3374524Y45027528D01*
G37*
G36*
X1766669Y41544711D02*
G01*
X2530825Y41544711D01*
X2546784Y41510040D01*
X2564331Y41469468D01*
X2574519Y41408397D01*
X2578504Y41318840D01*
X2578667Y41289969D01*
X2578667Y41118559D01*
X2666053Y41032797D01*
X2720208Y40971738D01*
X2749605Y40920902D01*
X2753438Y40901904D01*
X2770720Y40856810D01*
X2797131Y40839212D01*
X2838864Y40824027D01*
X2865282Y40825073D01*
X2897198Y40844330D01*
X2904469Y40849418D01*
X2940838Y40894319D01*
X2943884Y40946572D01*
X2913955Y40994176D01*
X2899934Y41004894D01*
X2859462Y41023519D01*
X2832002Y41023636D01*
X2806872Y41027912D01*
X2764508Y41052463D01*
X2734403Y41075364D01*
X2657043Y41139601D01*
X2656852Y41222192D01*
X2751027Y41222192D01*
X2767399Y41175755D01*
X2804678Y41148286D01*
X2845264Y41137527D01*
X2866697Y41139582D01*
X2884379Y41131950D01*
X2921996Y41102195D01*
X2972464Y41056097D01*
X2990227Y41038784D01*
X3102979Y40927208D01*
X3102979Y40710515D01*
X3101856Y40610103D01*
X3097927Y40541743D01*
X3090352Y40498701D01*
X3078294Y40474241D01*
X3072869Y40468832D01*
X3049348Y40427606D01*
X3053607Y40377653D01*
X3082635Y40333918D01*
X3102798Y40320334D01*
X3158834Y40309531D01*
X3203982Y40332734D01*
X3231313Y40385315D01*
X3235297Y40408872D01*
X3231357Y40460874D01*
X3211024Y40481567D01*
X3197931Y40492596D01*
X3189119Y40517985D01*
X3183816Y40564024D01*
X3182186Y40610449D01*
X4949206Y40610449D01*
X4964208Y40563327D01*
X5012157Y40505766D01*
X5019280Y40499089D01*
X5074143Y40452987D01*
X5112888Y40434259D01*
X5144505Y40440648D01*
X5169711Y40461324D01*
X5191092Y40484675D01*
X5196472Y40504682D01*
X5183356Y40531920D01*
X5149247Y40576967D01*
X5139509Y40589268D01*
X5097594Y40636450D01*
X5062564Y40657648D01*
X5021590Y40660342D01*
X5018141Y40660028D01*
X4967176Y40643795D01*
X4949206Y40610449D01*
X3182186Y40610449D01*
X3181254Y40636999D01*
X3180711Y40720913D01*
X5072498Y40720913D01*
X5098075Y40665693D01*
X5134247Y40622964D01*
X5194543Y40569732D01*
X5241740Y40549250D01*
X5280802Y40559886D01*
X5293438Y40570625D01*
X5314552Y40608016D01*
X5305119Y40651809D01*
X5263505Y40706968D01*
X5241099Y40729816D01*
X5188592Y40775218D01*
X5149851Y40792982D01*
X5125579Y40791021D01*
X5081630Y40763397D01*
X5072498Y40720913D01*
X3180711Y40720913D01*
X3180655Y40729633D01*
X3180655Y40872903D01*
X4251912Y40872903D01*
X4255135Y40821065D01*
X4286001Y40776185D01*
X4291857Y40771742D01*
X4334971Y40746530D01*
X4369420Y40745569D01*
X4405326Y40761614D01*
X4434010Y40796137D01*
X4442555Y40846843D01*
X4430002Y40896142D01*
X4413759Y40916283D01*
X4388833Y40954624D01*
X4384631Y40976917D01*
X4369793Y41007623D01*
X4345793Y41013378D01*
X4313085Y40999449D01*
X4306955Y40976917D01*
X4292851Y40934012D01*
X4277826Y40916283D01*
X4251912Y40872903D01*
X3180655Y40872903D01*
X3180655Y40966046D01*
X3093577Y41052215D01*
X4287536Y41052215D01*
X4304384Y41038477D01*
X4344647Y41032797D01*
X4389493Y41038783D01*
X4413759Y41052215D01*
X4410085Y41058133D01*
X4520563Y41058133D01*
X4533282Y41023377D01*
X4564681Y40979558D01*
X4572744Y40970747D01*
X4605339Y40940991D01*
X4639444Y40924567D01*
X4687914Y40917620D01*
X4754342Y40916283D01*
X4825114Y40914967D01*
X4871247Y40907482D01*
X4906928Y40888521D01*
X4946348Y40852779D01*
X4959463Y40839573D01*
X5010977Y40789853D01*
X5043490Y40766920D01*
X5063385Y40768168D01*
X5077047Y40790991D01*
X5077243Y40791499D01*
X5070380Y40825783D01*
X5069575Y40826891D01*
X5184849Y40826891D01*
X5197662Y40799135D01*
X5235025Y40759292D01*
X5255292Y40740494D01*
X5315432Y40690255D01*
X5358108Y40668434D01*
X5390667Y40673568D01*
X5420453Y40704192D01*
X5422558Y40707159D01*
X5437300Y40732370D01*
X5437050Y40754686D01*
X5417700Y40783505D01*
X5375139Y40828224D01*
X5365307Y40838077D01*
X5307509Y40889545D01*
X5264467Y40909311D01*
X5229239Y40897886D01*
X5194886Y40855782D01*
X5191815Y40850855D01*
X5184849Y40826891D01*
X5069575Y40826891D01*
X5032083Y40878516D01*
X5004624Y40908013D01*
X4957980Y40953766D01*
X4921679Y40979474D01*
X4881284Y40990915D01*
X4822359Y40993863D01*
X4789795Y40993959D01*
X4717573Y40995582D01*
X4672571Y41002671D01*
X4643227Y41018551D01*
X4621127Y41042506D01*
X4582483Y41078175D01*
X4547019Y41089958D01*
X4524242Y41076375D01*
X4520563Y41058133D01*
X4410085Y41058133D01*
X4405555Y41065429D01*
X4365994Y41071491D01*
X4356648Y41071634D01*
X4311271Y41066832D01*
X4288249Y41055000D01*
X4287536Y41052215D01*
X3093577Y41052215D01*
X3064141Y41081344D01*
X2998179Y41152391D01*
X2958506Y41208237D01*
X2947628Y41240495D01*
X2931269Y41284822D01*
X2899080Y41316157D01*
X2861073Y41336704D01*
X2831189Y41333381D01*
X2801985Y41316157D01*
X2762490Y41273073D01*
X2751027Y41222192D01*
X2656852Y41222192D01*
X2656693Y41290884D01*
X2658562Y41375064D01*
X2666145Y41432074D01*
X2681699Y41473428D01*
X2697193Y41497420D01*
X2724741Y41556845D01*
X2719411Y41609399D01*
X2682634Y41646930D01*
X2669924Y41652563D01*
X2608016Y41660117D01*
X2559492Y41639213D01*
X2531409Y41598021D01*
X2530825Y41544711D01*
X1766669Y41544711D01*
X1767135Y41574625D01*
X1769888Y41725571D01*
X1773187Y41888342D01*
X1776920Y42058544D01*
X1780978Y42231781D01*
X1785249Y42403658D01*
X1789621Y42569780D01*
X1793986Y42725751D01*
X1798230Y42867176D01*
X1802244Y42989659D01*
X1805917Y43088806D01*
X1809138Y43160221D01*
X1811796Y43199509D01*
X1812929Y43205794D01*
X1821180Y43208458D01*
X1832603Y43200043D01*
X1848738Y43177483D01*
X1871130Y43137709D01*
X1901320Y43077653D01*
X1940851Y42994249D01*
X1991266Y42884427D01*
X2054106Y42745119D01*
X2130587Y42573993D01*
X2397729Y41974616D01*
X2677533Y41943816D01*
X2789979Y41932020D01*
X2869691Y41925349D01*
X2922421Y41923711D01*
X2953923Y41927009D01*
X2969947Y41935149D01*
X2972866Y41938961D01*
X3002062Y41957031D01*
X3051640Y41964982D01*
X3106264Y41963064D01*
X3150597Y41951527D01*
X3168258Y41935778D01*
X3196400Y41913743D01*
X3248428Y41906650D01*
X3300805Y41913276D01*
X3330640Y41938350D01*
X3339178Y41954402D01*
X3347097Y42007204D01*
X3328009Y42053783D01*
X3291005Y42087409D01*
X3245178Y42101353D01*
X3199621Y42088888D01*
X3180655Y42071711D01*
X3154093Y42055501D01*
X3114406Y42045078D01*
X3075288Y42041951D01*
X3050428Y42047631D01*
X3048582Y42057147D01*
X3080046Y42120443D01*
X3104157Y42156736D01*
X3131398Y42173524D01*
X3172252Y42178302D01*
X3218294Y42178515D01*
X3289137Y42174918D01*
X3333521Y42161964D01*
X3360629Y42139677D01*
X3401167Y42106591D01*
X3444062Y42107108D01*
X3487038Y42131069D01*
X3523581Y42175933D01*
X3526425Y42227989D01*
X3496029Y42275955D01*
X3480632Y42287772D01*
X3445110Y42307597D01*
X3417559Y42306322D01*
X3379841Y42282361D01*
X3374614Y42278510D01*
X3307624Y42246263D01*
X3225134Y42237386D01*
X3132108Y42237999D01*
X3186593Y42285933D01*
X3218153Y42310021D01*
X3252472Y42324409D01*
X3300440Y42331519D01*
X3372949Y42333774D01*
X3402046Y42333867D01*
X3485095Y42332466D01*
X3538904Y42327006D01*
X3573012Y42315596D01*
X3596955Y42296348D01*
X3598163Y42295029D01*
X3647516Y42260805D01*
X3697053Y42265043D01*
X3731086Y42291703D01*
X3760249Y42346832D01*
X3752830Y42400954D01*
X3713659Y42443123D01*
X3678467Y42462800D01*
X3651045Y42461761D01*
X3613696Y42438310D01*
X3606236Y42432823D01*
X3550873Y42403125D01*
X3485500Y42394881D01*
X3459669Y42395940D01*
X3370960Y42401833D01*
X3583035Y42522568D01*
X3685272Y42578543D01*
X3774371Y42620990D01*
X3864283Y42655462D01*
X3968957Y42687513D01*
X4055888Y42710810D01*
X4316664Y42778318D01*
X4394340Y42732898D01*
X4472016Y42687477D01*
X4651946Y42778935D01*
X4911522Y42700643D01*
X5018059Y42666443D01*
X5122011Y42629444D01*
X5212187Y42593858D01*
X5277392Y42563892D01*
X5282757Y42561012D01*
X5394417Y42499673D01*
X5394417Y42196624D01*
X5462383Y42156523D01*
X5514808Y42113922D01*
X5530349Y42072171D01*
X5544076Y42022988D01*
X5588833Y41988156D01*
X5613958Y41977826D01*
X5649144Y41982573D01*
X5691886Y42008531D01*
X5728162Y42044623D01*
X5743947Y42079768D01*
X5743958Y42080538D01*
X5727473Y42116815D01*
X5687448Y42151868D01*
X5638029Y42175078D01*
X5612880Y42178947D01*
X5556736Y42191331D01*
X5514635Y42213881D01*
X5487899Y42240466D01*
X5475896Y42274788D01*
X5474771Y42330387D01*
X5475797Y42350218D01*
X5481802Y42452052D01*
X5637154Y42349267D01*
X5707687Y42301394D01*
X5757784Y42261865D01*
X5796157Y42220767D01*
X5831515Y42168187D01*
X5872571Y42094215D01*
X5889600Y42062001D01*
X5986695Y41877521D01*
X6200303Y41900847D01*
X6320362Y41913455D01*
X6408880Y41923997D01*
X6472630Y41936785D01*
X6518381Y41956133D01*
X6552905Y41986352D01*
X6582972Y42031755D01*
X6615354Y42096655D01*
X6656820Y42185363D01*
X6661067Y42194321D01*
X6767649Y42418007D01*
X6858883Y42608172D01*
X6935654Y42766579D01*
X6998846Y42894991D01*
X7049344Y42995168D01*
X7088033Y43068875D01*
X7115799Y43117872D01*
X7133526Y43143923D01*
X7140692Y43149463D01*
X7148389Y43132434D01*
X7154273Y43080661D01*
X7158394Y42993117D01*
X7160800Y42868775D01*
X7161542Y42715065D01*
X7161542Y42280666D01*
X6877814Y42006273D01*
X6594086Y41731879D01*
X6005269Y41731879D01*
X5838529Y41731978D01*
X5706480Y41732447D01*
X5604973Y41733545D01*
X5529861Y41735530D01*
X5476996Y41738661D01*
X5442232Y41743195D01*
X5421421Y41749393D01*
X5410414Y41757511D01*
X5405065Y41767808D01*
X5404572Y41769312D01*
X5387439Y41793839D01*
X5346593Y41840386D01*
X5286493Y41904234D01*
X5211598Y41980668D01*
X5126366Y42064971D01*
X5111130Y42079783D01*
X4829568Y42352822D01*
X4656497Y42265901D01*
X4483426Y42178979D01*
X4304129Y42266244D01*
X4124833Y42353510D01*
X4075107Y42308738D01*
X3931516Y42178650D01*
X3814959Y42071123D01*
X3722864Y41983582D01*
X3652657Y41913453D01*
X3601765Y41858161D01*
X3567615Y41815134D01*
X3547632Y41781795D01*
X3547000Y41780426D01*
X3531745Y41739241D01*
X3521376Y41689323D01*
X3515054Y41622691D01*
X3511941Y41531362D01*
X3511204Y41439624D01*
X3512654Y41313125D01*
X3517558Y41223820D01*
X3526034Y41170210D01*
X3534080Y41153194D01*
X3564557Y41141988D01*
X3630608Y41134475D01*
X3733420Y41130557D01*
X3816265Y41129891D01*
X3922073Y41130398D01*
X3995311Y41132445D01*
X4042234Y41136820D01*
X4052205Y41139601D01*
X4268117Y41139601D01*
X4272356Y41108323D01*
X4292354Y41094420D01*
X4339028Y41091071D01*
X4345793Y41091053D01*
X4395838Y41093703D01*
X4418081Y41106202D01*
X4423441Y41135373D01*
X4423468Y41139601D01*
X4419229Y41170879D01*
X4399231Y41184781D01*
X4352557Y41188131D01*
X4345793Y41188148D01*
X4295747Y41185498D01*
X4273504Y41173000D01*
X4268145Y41143829D01*
X4268117Y41139601D01*
X4052205Y41139601D01*
X4069104Y41144314D01*
X4082178Y41155716D01*
X4085736Y41163875D01*
X4098068Y41193627D01*
X4124067Y41250253D01*
X4160039Y41325882D01*
X4163890Y41333790D01*
X4268117Y41333790D01*
X4272356Y41302512D01*
X4292354Y41288610D01*
X4339028Y41285260D01*
X4345793Y41285243D01*
X4395838Y41287893D01*
X4418081Y41300391D01*
X4423441Y41329563D01*
X4423468Y41333790D01*
X4419229Y41365069D01*
X4399231Y41378971D01*
X4352557Y41382320D01*
X4345793Y41382338D01*
X4462306Y41382338D01*
X4462306Y41110472D01*
X4675915Y41110472D01*
X4675915Y41382338D01*
X4462306Y41382338D01*
X4345793Y41382338D01*
X4295747Y41379688D01*
X4273504Y41367189D01*
X4268145Y41338018D01*
X4268117Y41333790D01*
X4163890Y41333790D01*
X4202292Y41412647D01*
X4206495Y41421176D01*
X4316664Y41644494D01*
X4471271Y41644494D01*
X4548948Y41643672D01*
X4597035Y41639528D01*
X4624771Y41629546D01*
X4641397Y41611209D01*
X4649495Y41595946D01*
X4699099Y41492590D01*
X4746045Y41392259D01*
X4787012Y41302287D01*
X4818681Y41230005D01*
X4837730Y41182744D01*
X4840770Y41173584D01*
X4852057Y41148959D01*
X4874605Y41135794D01*
X4918563Y41130619D01*
X4968508Y41129891D01*
X5083713Y41129891D01*
X5083713Y41045891D01*
X5091301Y40978180D01*
X5117986Y40930634D01*
X5129346Y40919021D01*
X5162465Y40891442D01*
X5183101Y40890069D01*
X5201537Y40908152D01*
X5216369Y40934839D01*
X5207999Y40950523D01*
X5305339Y40950523D01*
X5322058Y40923870D01*
X5361663Y40881352D01*
X5375535Y40867188D01*
X5429086Y40814907D01*
X5465461Y40788594D01*
X5493350Y40785243D01*
X5521443Y40801847D01*
X5533675Y40812488D01*
X5561648Y40845773D01*
X5562828Y40864340D01*
X5790789Y40864340D01*
X5792487Y40843780D01*
X5811042Y40820162D01*
X5811476Y40819683D01*
X5853734Y40787130D01*
X5897150Y40787015D01*
X5948163Y40820378D01*
X5974819Y40846082D01*
X6018775Y40904584D01*
X6022242Y40916600D01*
X6147368Y40916600D01*
X6154489Y40903280D01*
X6177164Y40882356D01*
X6200184Y40883589D01*
X6233222Y40909992D01*
X6258560Y40935702D01*
X6303802Y40972827D01*
X6347019Y40992836D01*
X6356278Y40993959D01*
X6400374Y41007791D01*
X6434532Y41034124D01*
X6458185Y41066313D01*
X6457074Y41095580D01*
X6441747Y41126364D01*
X6406827Y41165991D01*
X6367969Y41184854D01*
X6314758Y41175286D01*
X6270510Y41139393D01*
X6249207Y41089250D01*
X6248851Y41081967D01*
X6235402Y41042306D01*
X6201994Y40995942D01*
X6190949Y40984589D01*
X6154820Y40944227D01*
X6147368Y40916600D01*
X6022242Y40916600D01*
X6033395Y40955259D01*
X6018608Y40992231D01*
X5976883Y41009354D01*
X5935129Y41002747D01*
X5886765Y40970137D01*
X5852057Y40937028D01*
X5809472Y40892027D01*
X5790789Y40864340D01*
X5562828Y40864340D01*
X5563706Y40878148D01*
X5537626Y40917514D01*
X5491455Y40962571D01*
X5433639Y41009989D01*
X5391901Y41029103D01*
X5357557Y41021530D01*
X5325954Y40993411D01*
X5307855Y40970605D01*
X5305339Y40950523D01*
X5207999Y40950523D01*
X5203558Y40958846D01*
X5185033Y40975023D01*
X5148502Y41028192D01*
X5141970Y41069005D01*
X5141970Y41128117D01*
X5404126Y41139601D01*
X5409709Y41319226D01*
X5415293Y41498852D01*
X6040826Y41499162D01*
X6666358Y41499472D01*
X6734325Y41558868D01*
X6775778Y41596587D01*
X6836222Y41653454D01*
X6907044Y41721300D01*
X6969358Y41781876D01*
X7034990Y41845188D01*
X7090678Y41897099D01*
X7130593Y41932301D01*
X7148904Y41945485D01*
X7148983Y41945488D01*
X7153287Y41927170D01*
X7156955Y41876619D01*
X7159713Y41800439D01*
X7161283Y41705231D01*
X7161542Y41644494D01*
X7161542Y41343500D01*
X6322067Y41343500D01*
X6168945Y41194490D01*
X6107132Y41133141D01*
X6057270Y41081376D01*
X6025062Y41045267D01*
X6015823Y41031507D01*
X6027633Y41009711D01*
X6062191Y41017719D01*
X6118190Y41054842D01*
X6194324Y41120391D01*
X6206915Y41132174D01*
X6348468Y41265824D01*
X6755005Y41265824D01*
X6890379Y41265683D01*
X6991808Y41264948D01*
X7064183Y41263153D01*
X7112399Y41259829D01*
X7141345Y41254510D01*
X7155916Y41246727D01*
X7161003Y41236014D01*
X7161542Y41226986D01*
X7159417Y41211252D01*
X7148956Y41200437D01*
X7124027Y41193604D01*
X7078498Y41189815D01*
X7006240Y41188131D01*
X6904241Y41187620D01*
X6646939Y41187093D01*
X6457605Y41003981D01*
X6388195Y40935547D01*
X6330215Y40875898D01*
X6288824Y40830528D01*
X6269179Y40804934D01*
X6268270Y40802228D01*
X6277249Y40779159D01*
X6305178Y40782502D01*
X6353540Y40813169D01*
X6423822Y40872076D01*
X6505101Y40948117D01*
X6693384Y41129891D01*
X7025609Y41129891D01*
X6986771Y41091053D01*
X6939802Y41062471D01*
X6868940Y41051741D01*
X6855693Y41051473D01*
X6816465Y41049971D01*
X6783870Y41043248D01*
X6750984Y41026897D01*
X6710887Y40996510D01*
X6656655Y40947679D01*
X6583828Y40878359D01*
X6516187Y40811975D01*
X6460187Y40754206D01*
X6421165Y40710766D01*
X6404457Y40687367D01*
X6404202Y40686058D01*
X6412196Y40660378D01*
X6437480Y40660382D01*
X6482013Y40687183D01*
X6547751Y40741895D01*
X6618163Y40807699D01*
X6691603Y40877700D01*
X6744437Y40924788D01*
X6783580Y40953451D01*
X6815952Y40968175D01*
X6848470Y40973448D01*
X6874438Y40973922D01*
X6935962Y40966989D01*
X6986120Y40950506D01*
X6995338Y40944794D01*
X7052521Y40918492D01*
X7103308Y40930370D01*
X7133527Y40959975D01*
X7156074Y40988720D01*
X7161369Y40986717D01*
X7156792Y40963521D01*
X7143679Y40941393D01*
X7110336Y40893992D01*
X7060287Y40825867D01*
X6997057Y40741568D01*
X6924170Y40645644D01*
X6845150Y40542645D01*
X6763523Y40437121D01*
X6682812Y40333620D01*
X6606542Y40236693D01*
X6538237Y40150888D01*
X6481423Y40080755D01*
X6439622Y40030844D01*
X6416360Y40005704D01*
X6413146Y40003592D01*
X6411651Y40017946D01*
X6414933Y40028378D01*
X6408302Y40058995D01*
X6377632Y40099646D01*
X6332861Y40141546D01*
X6283925Y40175911D01*
X6240760Y40193958D01*
X6226916Y40194584D01*
X6185049Y40175351D01*
X6173105Y40137259D01*
X6190529Y40085525D01*
X6236767Y40025363D01*
X6245864Y40016217D01*
X6291972Y39973865D01*
X6322762Y39955728D01*
X6348959Y39957207D01*
X6365606Y39964883D01*
X6389164Y39975713D01*
X6391073Y39968582D01*
X6370065Y39938583D01*
X6353197Y39916825D01*
X6306793Y39866226D01*
X6258277Y39825952D01*
X6244578Y39817567D01*
X6214074Y39803745D01*
X6189826Y39804543D01*
X6161636Y39824511D01*
X6119308Y39868201D01*
X6111027Y39877171D01*
X6049491Y39935764D01*
X6001132Y39961575D01*
X5961353Y39956350D01*
X5942031Y39941451D01*
X5921407Y39906543D01*
X5928362Y39865238D01*
X5964808Y39811335D01*
X5991550Y39781092D01*
X6064371Y39702598D01*
X5985876Y39775419D01*
X5924224Y39825860D01*
X5877978Y39845942D01*
X5840939Y39837578D01*
X5825517Y39824937D01*
X5803808Y39782981D01*
X5818011Y39734065D01*
X5850799Y39692850D01*
X5899383Y39642139D01*
X5583788Y39492495D01*
X5480173Y39444242D01*
X5386977Y39402490D01*
X5310517Y39369937D01*
X5257112Y39349284D01*
X5234210Y39343098D01*
X5204994Y39356018D01*
X5201747Y39390004D01*
X5222800Y39438840D01*
X5266483Y39496306D01*
X5278845Y39509368D01*
X5322126Y39555589D01*
X5340708Y39583950D01*
X5338413Y39602948D01*
X5326473Y39615194D01*
X5305610Y39625864D01*
X5281098Y39618862D01*
X5244600Y39589990D01*
X5209017Y39556053D01*
X5158390Y39501893D01*
X5131961Y39458815D01*
X5122904Y39414537D01*
X5122551Y39400490D01*
X5122551Y39329786D01*
X4933216Y39317248D01*
X4844404Y39312755D01*
X4729501Y39308961D01*
X4601253Y39306183D01*
X4472407Y39304741D01*
X4427358Y39304610D01*
X4306207Y39305178D01*
X4219636Y39307198D01*
X4163406Y39311012D01*
X4133276Y39316959D01*
X4125006Y39325381D01*
X4126364Y39328783D01*
X4145561Y39350796D01*
X4187072Y39393814D01*
X4245137Y39452000D01*
X4276577Y39482827D01*
X4562131Y39482827D01*
X4579502Y39434005D01*
X4601451Y39413191D01*
X4650872Y39386406D01*
X4688726Y39390214D01*
X4724462Y39421023D01*
X4757067Y39445330D01*
X4805675Y39457174D01*
X4868821Y39459861D01*
X4921785Y39460867D01*
X4960461Y39467459D01*
X4994926Y39485001D01*
X5035256Y39518854D01*
X5091529Y39574380D01*
X5099901Y39582824D01*
X5157926Y39643016D01*
X5191104Y39682836D01*
X5191874Y39684450D01*
X5320336Y39684450D01*
X5326373Y39651979D01*
X5347256Y39626309D01*
X5379001Y39602162D01*
X5410276Y39601195D01*
X5449893Y39625868D01*
X5495547Y39667701D01*
X5548045Y39727639D01*
X5567453Y39774831D01*
X5555318Y39814104D01*
X5545884Y39824937D01*
X5510034Y39845790D01*
X5468085Y39837629D01*
X5414192Y39798626D01*
X5390381Y39776333D01*
X5340872Y39723118D01*
X5320336Y39684450D01*
X5191874Y39684450D01*
X5203194Y39708183D01*
X5197953Y39724955D01*
X5193304Y39729414D01*
X5174658Y39736620D01*
X5148620Y39727507D01*
X5109019Y39698317D01*
X5049687Y39645292D01*
X5039269Y39635579D01*
X4974768Y39577367D01*
X4927883Y39541988D01*
X4889514Y39524084D01*
X4850561Y39518298D01*
X4839753Y39518118D01*
X4760286Y39533926D01*
X4719813Y39561324D01*
X4684853Y39589538D01*
X4656318Y39591926D01*
X4621466Y39575275D01*
X4576579Y39533638D01*
X4562131Y39482827D01*
X4276577Y39482827D01*
X4314000Y39519520D01*
X4327581Y39532682D01*
X4513268Y39712307D01*
X4756019Y39712307D01*
X4856930Y39712585D01*
X4926728Y39714368D01*
X4973141Y39719082D01*
X5003893Y39728154D01*
X5026711Y39743008D01*
X5049320Y39765070D01*
X5050907Y39766725D01*
X5067876Y39787775D01*
X5202606Y39787775D01*
X5224142Y39747845D01*
X5234210Y39739339D01*
X5260472Y39720129D01*
X5279337Y39716752D01*
X5305240Y39731408D01*
X5337255Y39755026D01*
X5385797Y39797612D01*
X5424109Y39842153D01*
X5425378Y39844053D01*
X5444726Y39880414D01*
X5439100Y39906692D01*
X5422059Y39927558D01*
X5380552Y39958799D01*
X5337417Y39957390D01*
X5286592Y39922221D01*
X5262757Y39898460D01*
X5215275Y39836849D01*
X5202606Y39787775D01*
X5067876Y39787775D01*
X5083580Y39807255D01*
X5087491Y39833862D01*
X5080706Y39843480D01*
X5055614Y39853233D01*
X5019394Y39834921D01*
X5010165Y39827900D01*
X4985230Y39811840D01*
X4953655Y39801006D01*
X4907813Y39794414D01*
X4840079Y39791077D01*
X4742827Y39790011D01*
X4716685Y39789983D01*
X4471409Y39789983D01*
X4238685Y39555889D01*
X4005961Y39321796D01*
X3821481Y39334968D01*
X3637001Y39348141D01*
X3122398Y39607886D01*
X2904778Y39717730D01*
X3530196Y39717730D01*
X3546210Y39662158D01*
X3586529Y39625989D01*
X3639574Y39613779D01*
X3693764Y39630081D01*
X3713289Y39645728D01*
X3722138Y39660048D01*
X4015670Y39660048D01*
X4030691Y39624297D01*
X4065731Y39586329D01*
X4105760Y39560654D01*
X4122475Y39556956D01*
X4156933Y39569811D01*
X4190441Y39595793D01*
X4219366Y39635811D01*
X4229279Y39667796D01*
X4242139Y39699834D01*
X4275038Y39745540D01*
X4301186Y39774600D01*
X4373094Y39848240D01*
X4627924Y39848240D01*
X4731990Y39848560D01*
X4804575Y39850317D01*
X4853036Y39854705D01*
X4884729Y39862918D01*
X4907011Y39876149D01*
X4927237Y39895593D01*
X4928603Y39897045D01*
X4944573Y39917960D01*
X5068300Y39917960D01*
X5075714Y39887330D01*
X5106134Y39859974D01*
X5142785Y39842950D01*
X5179450Y39849176D01*
X5224326Y39881861D01*
X5264964Y39922149D01*
X5303720Y39977545D01*
X5314051Y40027210D01*
X5296150Y40063567D01*
X5261000Y40078070D01*
X5217019Y40070236D01*
X5163123Y40032837D01*
X5139631Y40011017D01*
X5089064Y39956745D01*
X5068300Y39917960D01*
X4944573Y39917960D01*
X4957758Y39935227D01*
X4957888Y39960895D01*
X4951866Y39968436D01*
X4926466Y39979182D01*
X4893498Y39958641D01*
X4893308Y39958469D01*
X4871544Y39944580D01*
X4837849Y39935116D01*
X4785370Y39929287D01*
X4707257Y39926303D01*
X4606420Y39925390D01*
X4355502Y39924865D01*
X4260601Y39840432D01*
X4192809Y39787789D01*
X4136958Y39759561D01*
X4116474Y39756000D01*
X4065390Y39739786D01*
X4027266Y39700185D01*
X4015670Y39660048D01*
X3722138Y39660048D01*
X3738331Y39686252D01*
X3743805Y39712225D01*
X3757768Y39740718D01*
X3795405Y39786452D01*
X3850336Y39842068D01*
X3879738Y39869017D01*
X4015670Y39989827D01*
X4015670Y40029880D01*
X4947780Y40029880D01*
X4961516Y40005534D01*
X4992460Y39974278D01*
X5025221Y39950311D01*
X5039431Y39945335D01*
X5055516Y39957196D01*
X5091232Y39987714D01*
X5122495Y40015561D01*
X5166295Y40060854D01*
X5194486Y40100996D01*
X5200227Y40118481D01*
X5184070Y40164797D01*
X5145220Y40194136D01*
X5124341Y40197781D01*
X5093692Y40184431D01*
X5050061Y40151162D01*
X5004143Y40108147D01*
X4966636Y40065558D01*
X4948238Y40033568D01*
X4947780Y40029880D01*
X4015670Y40029880D01*
X4015670Y40179112D01*
X4016896Y40270607D01*
X4020071Y40314222D01*
X5122551Y40314222D01*
X5134311Y40283150D01*
X5170592Y40232647D01*
X5232893Y40160893D01*
X5322716Y40066066D01*
X5350724Y40037447D01*
X5450420Y39937395D01*
X5528350Y39863381D01*
X5589046Y39812862D01*
X5637037Y39783294D01*
X5676853Y39772135D01*
X5713026Y39776840D01*
X5750084Y39794866D01*
X5765334Y39804675D01*
X5796880Y39830202D01*
X5849380Y39877439D01*
X5916478Y39940478D01*
X5968684Y39991015D01*
X6039970Y39991015D01*
X6056741Y39965138D01*
X6095764Y39926453D01*
X6117773Y39905960D01*
X6165759Y39861481D01*
X6194286Y39838361D01*
X6213023Y39832268D01*
X6231638Y39838870D01*
X6247843Y39847700D01*
X6286349Y39879540D01*
X6291788Y39919219D01*
X6263836Y39971174D01*
X6236439Y40004026D01*
X6174957Y40058391D01*
X6120178Y40080349D01*
X6076133Y40069015D01*
X6055344Y40043706D01*
X6040991Y40013925D01*
X6039970Y39991015D01*
X5968684Y39991015D01*
X5991821Y40013413D01*
X6022635Y40043829D01*
X6112451Y40133510D01*
X6177236Y40203889D01*
X6216660Y40261416D01*
X6230392Y40312538D01*
X6218102Y40363705D01*
X6179458Y40421365D01*
X6114131Y40491966D01*
X6097818Y40507864D01*
X6156531Y40507864D01*
X6159569Y40479338D01*
X6183893Y40446903D01*
X6183894Y40446902D01*
X6211106Y40421221D01*
X6235983Y40415451D01*
X6268045Y40431912D01*
X6316811Y40472919D01*
X6326471Y40481616D01*
X6381882Y40541000D01*
X6402587Y40589358D01*
X6389836Y40630340D01*
X6380900Y40640534D01*
X6345049Y40661386D01*
X6303100Y40653225D01*
X6249207Y40614223D01*
X6225396Y40591929D01*
X6177549Y40542166D01*
X6156531Y40507864D01*
X6097818Y40507864D01*
X6021790Y40581958D01*
X5993665Y40608991D01*
X5980434Y40621411D01*
X6035242Y40621411D01*
X6047230Y40591556D01*
X6074222Y40556094D01*
X6102759Y40531273D01*
X6112697Y40527904D01*
X6133055Y40540065D01*
X6171855Y40571466D01*
X6206782Y40602596D01*
X6251257Y40648335D01*
X6280644Y40687525D01*
X6287689Y40705517D01*
X6270997Y40748615D01*
X6231820Y40776479D01*
X6210984Y40779825D01*
X6179634Y40766657D01*
X6135396Y40734510D01*
X6089275Y40693301D01*
X6052274Y40652952D01*
X6035399Y40623380D01*
X6035242Y40621411D01*
X5980434Y40621411D01*
X5912273Y40685395D01*
X5853558Y40737784D01*
X5896042Y40737784D01*
X5939193Y40691851D01*
X5970561Y40665141D01*
X6000763Y40660078D01*
X6037345Y40679207D01*
X6087854Y40725069D01*
X6112446Y40750219D01*
X6152413Y40796044D01*
X6166612Y40827107D01*
X6159422Y40853138D01*
X6159035Y40853762D01*
X6118654Y40889699D01*
X6067037Y40890094D01*
X6007243Y40855517D01*
X5968792Y40818310D01*
X5896042Y40737784D01*
X5853558Y40737784D01*
X5837356Y40752240D01*
X5774605Y40804712D01*
X5729710Y40837997D01*
X5711923Y40847311D01*
X5677379Y40850555D01*
X5639723Y40840968D01*
X5594678Y40815477D01*
X5537966Y40771013D01*
X5465308Y40704504D01*
X5372426Y40612880D01*
X5341014Y40581089D01*
X5245698Y40481757D01*
X5178508Y40405857D01*
X5138005Y40351633D01*
X5122754Y40317330D01*
X5122551Y40314222D01*
X4020071Y40314222D01*
X4021217Y40329962D01*
X4029598Y40363814D01*
X4043003Y40378802D01*
X4044799Y40379574D01*
X4066094Y40405707D01*
X4073336Y40451029D01*
X4065830Y40498257D01*
X4050624Y40524020D01*
X4008567Y40543497D01*
X3953840Y40544982D01*
X3908192Y40528474D01*
X3903040Y40524020D01*
X3884320Y40486320D01*
X3880858Y40437904D01*
X3891957Y40396054D01*
X3908866Y40379574D01*
X3923548Y40365326D01*
X3932560Y40331735D01*
X3936999Y40271949D01*
X3937994Y40197255D01*
X3937994Y40026113D01*
X3816626Y39917845D01*
X3741946Y39856815D01*
X3682526Y39819728D01*
X3648239Y39809489D01*
X3597031Y39796330D01*
X3553135Y39764432D01*
X3530820Y39724888D01*
X3530196Y39717730D01*
X2904778Y39717730D01*
X2607796Y39867632D01*
X2185570Y40425940D01*
X1763344Y40984249D01*
X1763269Y41203707D01*
X2325299Y41203707D01*
X2346725Y41162051D01*
X2365396Y41131534D01*
X2376864Y41091640D01*
X2382697Y41032909D01*
X2384464Y40945882D01*
X2384478Y40934502D01*
X2384478Y40754947D01*
X2462154Y40688460D01*
X2513035Y40636026D01*
X2538240Y40590200D01*
X2539829Y40578822D01*
X2555239Y40523826D01*
X2599469Y40493872D01*
X2636924Y40489066D01*
X2684280Y40497543D01*
X2710716Y40512368D01*
X2736018Y40560171D01*
X2730687Y40611434D01*
X2700169Y40655240D01*
X2649911Y40680672D01*
X2625470Y40683255D01*
X2589586Y40694497D01*
X2541316Y40722503D01*
X2527098Y40732791D01*
X2462154Y40782327D01*
X2462154Y40953731D01*
X2464079Y41045160D01*
X2470530Y41104687D01*
X2482514Y41139089D01*
X2491282Y41149310D01*
X2516452Y41192440D01*
X2515694Y41246654D01*
X2489895Y41293565D01*
X2440178Y41323073D01*
X2391017Y41321636D01*
X2350255Y41296460D01*
X2325735Y41254749D01*
X2325299Y41203707D01*
X1763269Y41203707D01*
X1763258Y41236696D01*
X1763709Y41325792D01*
X1765038Y41439901D01*
X1766669Y41544711D01*
G37*
%TO.C,R8*%
X22478000Y29776841D02*
X22478000Y29469559D01*
X21718000Y29776841D02*
X21718000Y29469559D01*
%TO.C,U4*%
X5105400Y20340000D02*
X1655400Y20340000D01*
X5105400Y20340000D02*
X7055400Y20340000D01*
X5105400Y15220000D02*
X3155400Y15220000D01*
X5105400Y15220000D02*
X7055400Y15220000D01*
%TO.C,C5*%
X7245236Y20772800D02*
X7029564Y20772800D01*
X7245236Y21492800D02*
X7029564Y21492800D01*
%TO.C,R12*%
X20573800Y56980241D02*
X20573800Y56672959D01*
X19813800Y56980241D02*
X19813800Y56672959D01*
%TO.C,R22*%
X22393800Y40292441D02*
X22393800Y39985159D01*
X21633800Y40292441D02*
X21633800Y39985159D01*
%TO.C,R23*%
X22419200Y45370441D02*
X22419200Y45063159D01*
X21659200Y45370441D02*
X21659200Y45063159D01*
D13*
%TO.C,Q4*%
X25373000Y42140000D02*
X24408000Y42140000D01*
X25373000Y39140000D02*
X24408000Y39140000D01*
X26443000Y42140000D02*
X27408000Y42140000D01*
X26443000Y39140000D02*
X27408000Y39140000D01*
D14*
X23845500Y41615000D02*
G75*
G03*
X23845500Y41615000I-100000J0D01*
G01*
D12*
%TO.C,D3*%
X26473800Y57744600D02*
X25003800Y57744600D01*
X25003800Y57744600D02*
X25003800Y55459600D01*
X26473800Y55459600D02*
X26473800Y57744600D01*
%TO.C,C11*%
X15592000Y41717836D02*
X15592000Y41502164D01*
X14872000Y41717836D02*
X14872000Y41502164D01*
%TO.C,J2*%
X38450000Y21156000D02*
X39190000Y21156000D01*
X39190000Y21156000D02*
X39190000Y21656000D01*
X29029000Y21396000D02*
X38950000Y21396000D01*
X29029000Y21396000D02*
X29029000Y51516000D01*
X31989000Y21396000D02*
X31989000Y51516000D01*
X36890000Y21396000D02*
X36890000Y51516000D01*
X38390000Y21396000D02*
X38390000Y51516000D01*
X38950000Y21396000D02*
X38950000Y51516000D01*
X35313000Y27729000D02*
X35359000Y27682000D01*
X35529000Y27922000D02*
X35564000Y27887000D01*
X33015000Y30026000D02*
X33051000Y29991000D01*
X33221000Y30231000D02*
X33267000Y30184000D01*
X35313000Y32729000D02*
X35359000Y32682000D01*
X35529000Y32922000D02*
X35564000Y32887000D01*
X33015000Y35026000D02*
X33051000Y34991000D01*
X33221000Y35231000D02*
X33267000Y35184000D01*
X35313000Y37729000D02*
X35359000Y37682000D01*
X35529000Y37922000D02*
X35564000Y37887000D01*
X33015000Y40026000D02*
X33051000Y39991000D01*
X33221000Y40231000D02*
X33267000Y40184000D01*
X35313000Y42729000D02*
X35359000Y42682000D01*
X35529000Y42922000D02*
X35564000Y42887000D01*
X33015000Y45026000D02*
X33051000Y44991000D01*
X33221000Y45231000D02*
X33267000Y45184000D01*
X35313000Y47729000D02*
X35359000Y47682000D01*
X35529000Y47922000D02*
X35564000Y47887000D01*
X33015000Y50026000D02*
X33051000Y49991000D01*
X33221000Y50231000D02*
X33267000Y50184000D01*
X29029000Y51516000D02*
X38950000Y51516000D01*
X33606001Y22421001D02*
G75*
G03*
X34973042Y22420574I684000J1534992D01*
G01*
X32755001Y24639999D02*
G75*
G03*
X32754574Y23272958I1534992J-684000D01*
G01*
X35824999Y23272000D02*
G75*
G03*
X35970252Y23984805I-1535000J683999D01*
G01*
X35969999Y23956000D02*
G75*
G03*
X35824755Y24639318I-1679999J0D01*
G01*
X34974000Y25491000D02*
G75*
G03*
X33606958Y25491426I-684000J-1535000D01*
G01*
X35970000Y28956000D02*
G75*
G03*
X35970000Y28956000I-1680000J0D01*
G01*
X35970000Y33956000D02*
G75*
G03*
X35970000Y33956000I-1680000J0D01*
G01*
X35970000Y38956000D02*
G75*
G03*
X35970000Y38956000I-1680000J0D01*
G01*
X35970000Y43956000D02*
G75*
G03*
X35970000Y43956000I-1680000J0D01*
G01*
X35970000Y48956000D02*
G75*
G03*
X35970000Y48956000I-1680000J0D01*
G01*
%TO.C,D4*%
X28743200Y57750800D02*
X27273200Y57750800D01*
X27273200Y57750800D02*
X27273200Y55465800D01*
X28743200Y55465800D02*
X28743200Y57750800D01*
%TO.C,R4*%
X13844000Y29056359D02*
X13844000Y29363641D01*
X14604000Y29056359D02*
X14604000Y29363641D01*
%TO.C,J4*%
X38450000Y8376000D02*
X39190000Y8376000D01*
X39190000Y8376000D02*
X39190000Y8876000D01*
X29029000Y8616000D02*
X38950000Y8616000D01*
X29029000Y8616000D02*
X29029000Y18736000D01*
X31989000Y8616000D02*
X31989000Y18736000D01*
X36890000Y8616000D02*
X36890000Y18736000D01*
X38390000Y8616000D02*
X38390000Y18736000D01*
X38950000Y8616000D02*
X38950000Y18736000D01*
X35313000Y14949000D02*
X35359000Y14902000D01*
X35529000Y15142000D02*
X35564000Y15107000D01*
X33015000Y17246000D02*
X33051000Y17211000D01*
X33221000Y17451000D02*
X33267000Y17404000D01*
X29029000Y18736000D02*
X38950000Y18736000D01*
X33606001Y9641001D02*
G75*
G03*
X34973042Y9640574I684000J1534992D01*
G01*
X32755001Y11859999D02*
G75*
G03*
X32754574Y10492958I1534992J-684000D01*
G01*
X35824999Y10492000D02*
G75*
G03*
X35970252Y11204805I-1535000J683999D01*
G01*
X35969999Y11176000D02*
G75*
G03*
X35824755Y11859318I-1679999J0D01*
G01*
X34974000Y12711000D02*
G75*
G03*
X33606958Y12711426I-684000J-1535000D01*
G01*
X35970000Y16176000D02*
G75*
G03*
X35970000Y16176000I-1680000J0D01*
G01*
%TO.C,C9*%
X10599000Y35469000D02*
X11224000Y35469000D01*
X10911500Y35781500D02*
X10911500Y35156500D01*
X11464000Y35479563D02*
X11464000Y34844000D01*
X11464000Y35479563D02*
X12528437Y36544000D01*
X11464000Y32088437D02*
X11464000Y32724000D01*
X11464000Y32088437D02*
X12528437Y31024000D01*
X12528437Y36544000D02*
X16984000Y36544000D01*
X12528437Y31024000D02*
X16984000Y31024000D01*
X16984000Y36544000D02*
X16984000Y34844000D01*
X16984000Y31024000D02*
X16984000Y32724000D01*
%TO.C,D5*%
X19690600Y32938800D02*
X21390600Y32938800D01*
X19690600Y32938800D02*
X19690600Y35598800D01*
X21390600Y32938800D02*
X21390600Y35598800D01*
%TO.C,C6*%
X15752400Y29345836D02*
X15752400Y29130164D01*
X15032400Y29345836D02*
X15032400Y29130164D01*
D13*
%TO.C,Q3*%
X25373000Y36806000D02*
X24408000Y36806000D01*
X25373000Y33806000D02*
X24408000Y33806000D01*
X26443000Y36806000D02*
X27408000Y36806000D01*
X26443000Y33806000D02*
X27408000Y33806000D01*
D14*
X23845500Y36281000D02*
G75*
G03*
X23845500Y36281000I-100000J0D01*
G01*
D12*
%TO.C,Y2*%
X10438000Y43348000D02*
X10438000Y40048000D01*
X10438000Y40048000D02*
X14438000Y40048000D01*
%TO.C,R15*%
X2642841Y20752800D02*
X2335559Y20752800D01*
X2642841Y21512800D02*
X2335559Y21512800D01*
%TO.C,R9*%
X22734000Y38962359D02*
X22734000Y39269641D01*
X23494000Y38962359D02*
X23494000Y39269641D01*
%TO.C,J9*%
X27696100Y9561000D02*
X26346100Y9561000D01*
X22596100Y9561000D02*
X23946100Y9561000D01*
X27696100Y5061000D02*
X27696100Y9561000D01*
X27696100Y5061000D02*
X26346100Y5061000D01*
X22596100Y5061000D02*
X22596100Y9561000D01*
X22596100Y5061000D02*
X23946100Y5061000D01*
%TO.C,IC2*%
X14466000Y44948000D02*
X14016000Y44948000D01*
X11246000Y45398000D02*
X11246000Y44948000D01*
X14466000Y45398000D02*
X14466000Y44948000D01*
X11246000Y47718000D02*
X11246000Y48168000D01*
X14466000Y47718000D02*
X14466000Y48168000D01*
X11246000Y48168000D02*
X11696000Y48168000D01*
X14466000Y48168000D02*
X14016000Y48168000D01*
%TO.C,R14*%
X20651200Y31646359D02*
X20651200Y31953641D01*
X21411200Y31646359D02*
X21411200Y31953641D01*
%TO.C,C7*%
X9213000Y32097000D02*
X8588000Y32097000D01*
X8900500Y31784500D02*
X8900500Y32409500D01*
X8348000Y32086437D02*
X8348000Y32722000D01*
X8348000Y32086437D02*
X7283563Y31022000D01*
X8348000Y35477563D02*
X8348000Y34842000D01*
X8348000Y35477563D02*
X7283563Y36542000D01*
X7283563Y31022000D02*
X2828000Y31022000D01*
X7283563Y36542000D02*
X2828000Y36542000D01*
X2828000Y31022000D02*
X2828000Y32722000D01*
X2828000Y36542000D02*
X2828000Y34842000D01*
%TO.C,C12*%
X22450000Y31938836D02*
X22450000Y31723164D01*
X21730000Y31938836D02*
X21730000Y31723164D01*
%TO.C,R13*%
X19371200Y56980241D02*
X19371200Y56672959D01*
X18611200Y56980241D02*
X18611200Y56672959D01*
%TO.C,J1*%
X16178000Y4498000D02*
X17428000Y4498000D01*
X16478000Y4798000D02*
X21198000Y4798000D01*
X17788000Y4798000D02*
X17788000Y5408000D01*
X19088000Y4798000D02*
X19088000Y5408000D01*
X21198000Y4798000D02*
X21198000Y12918000D01*
X17088000Y5408000D02*
X20588000Y5408000D01*
X20588000Y5408000D02*
X20588000Y12308000D01*
X16178000Y5748000D02*
X16178000Y4498000D01*
X16278000Y6258000D02*
X16478000Y6258000D01*
X16278000Y6558000D02*
X16278000Y6258000D01*
X16378000Y6558000D02*
X16378000Y6258000D01*
X16478000Y6558000D02*
X16278000Y6558000D01*
X16478000Y7358000D02*
X17088000Y7358000D01*
X17088000Y7358000D02*
X17088000Y5408000D01*
X20088000Y7758000D02*
X20088000Y7958000D01*
X20588000Y7758000D02*
X20088000Y7758000D01*
X20588000Y7858000D02*
X20088000Y7858000D01*
X20088000Y7958000D02*
X20588000Y7958000D01*
X20088000Y9758000D02*
X20088000Y9958000D01*
X20588000Y9758000D02*
X20088000Y9758000D01*
X20588000Y9858000D02*
X20088000Y9858000D01*
X20088000Y9958000D02*
X20588000Y9958000D01*
X17088000Y10358000D02*
X16478000Y10358000D01*
X17088000Y12308000D02*
X17088000Y10358000D01*
X20588000Y12308000D02*
X17088000Y12308000D01*
X16478000Y12918000D02*
X16478000Y4798000D01*
X17788000Y12918000D02*
X17788000Y12308000D01*
X19088000Y12918000D02*
X19088000Y12308000D01*
X21198000Y12918000D02*
X16478000Y12918000D01*
%TD*%
%LPC*%
%TO.C,Q1*%
G36*
X26208000Y47045000D02*
G01*
X27358000Y47045000D01*
X27358000Y46995000D01*
X27658000Y46995000D01*
X27658000Y46395000D01*
X27358000Y46395000D01*
X27358000Y46345000D01*
X27658000Y46345000D01*
X27658000Y45745000D01*
X27358000Y45745000D01*
X27358000Y45695000D01*
X27658000Y45695000D01*
X27658000Y45095000D01*
X27358000Y45095000D01*
X27358000Y45045000D01*
X27658000Y45045000D01*
X27658000Y44470000D01*
X27358000Y44470000D01*
X27358000Y44395000D01*
X26233000Y44395000D01*
X26233000Y44020000D01*
X25583000Y44020000D01*
X25583000Y44395000D01*
X25183000Y44395000D01*
X25183000Y47045000D01*
X25583000Y47045000D01*
X25583000Y47420000D01*
X26208000Y47420000D01*
X26208000Y47045000D01*
G37*
D15*
X26208000Y47045000D02*
X27358000Y47045000D01*
X27358000Y46995000D01*
X27658000Y46995000D01*
X27658000Y46395000D01*
X27358000Y46395000D01*
X27358000Y46345000D01*
X27658000Y46345000D01*
X27658000Y45745000D01*
X27358000Y45745000D01*
X27358000Y45695000D01*
X27658000Y45695000D01*
X27658000Y45095000D01*
X27358000Y45095000D01*
X27358000Y45045000D01*
X27658000Y45045000D01*
X27658000Y44470000D01*
X27358000Y44470000D01*
X27358000Y44395000D01*
X26233000Y44395000D01*
X26233000Y44020000D01*
X25583000Y44020000D01*
X25583000Y44395000D01*
X25183000Y44395000D01*
X25183000Y47045000D01*
X25583000Y47045000D01*
X25583000Y47420000D01*
X26208000Y47420000D01*
X26208000Y47045000D01*
%TO.C,Q2*%
G36*
X26208000Y31551000D02*
G01*
X27358000Y31551000D01*
X27358000Y31501000D01*
X27658000Y31501000D01*
X27658000Y30901000D01*
X27358000Y30901000D01*
X27358000Y30851000D01*
X27658000Y30851000D01*
X27658000Y30251000D01*
X27358000Y30251000D01*
X27358000Y30201000D01*
X27658000Y30201000D01*
X27658000Y29601000D01*
X27358000Y29601000D01*
X27358000Y29551000D01*
X27658000Y29551000D01*
X27658000Y28976000D01*
X27358000Y28976000D01*
X27358000Y28901000D01*
X26233000Y28901000D01*
X26233000Y28526000D01*
X25583000Y28526000D01*
X25583000Y28901000D01*
X25183000Y28901000D01*
X25183000Y31551000D01*
X25583000Y31551000D01*
X25583000Y31926000D01*
X26208000Y31926000D01*
X26208000Y31551000D01*
G37*
X26208000Y31551000D02*
X27358000Y31551000D01*
X27358000Y31501000D01*
X27658000Y31501000D01*
X27658000Y30901000D01*
X27358000Y30901000D01*
X27358000Y30851000D01*
X27658000Y30851000D01*
X27658000Y30251000D01*
X27358000Y30251000D01*
X27358000Y30201000D01*
X27658000Y30201000D01*
X27658000Y29601000D01*
X27358000Y29601000D01*
X27358000Y29551000D01*
X27658000Y29551000D01*
X27658000Y28976000D01*
X27358000Y28976000D01*
X27358000Y28901000D01*
X26233000Y28901000D01*
X26233000Y28526000D01*
X25583000Y28526000D01*
X25583000Y28901000D01*
X25183000Y28901000D01*
X25183000Y31551000D01*
X25583000Y31551000D01*
X25583000Y31926000D01*
X26208000Y31926000D01*
X26208000Y31551000D01*
%TO.C,Q5*%
G36*
X26208000Y52125000D02*
G01*
X27358000Y52125000D01*
X27358000Y52075000D01*
X27658000Y52075000D01*
X27658000Y51475000D01*
X27358000Y51475000D01*
X27358000Y51425000D01*
X27658000Y51425000D01*
X27658000Y50825000D01*
X27358000Y50825000D01*
X27358000Y50775000D01*
X27658000Y50775000D01*
X27658000Y50175000D01*
X27358000Y50175000D01*
X27358000Y50125000D01*
X27658000Y50125000D01*
X27658000Y49550000D01*
X27358000Y49550000D01*
X27358000Y49475000D01*
X26233000Y49475000D01*
X26233000Y49100000D01*
X25583000Y49100000D01*
X25583000Y49475000D01*
X25183000Y49475000D01*
X25183000Y52125000D01*
X25583000Y52125000D01*
X25583000Y52500000D01*
X26208000Y52500000D01*
X26208000Y52125000D01*
G37*
X26208000Y52125000D02*
X27358000Y52125000D01*
X27358000Y52075000D01*
X27658000Y52075000D01*
X27658000Y51475000D01*
X27358000Y51475000D01*
X27358000Y51425000D01*
X27658000Y51425000D01*
X27658000Y50825000D01*
X27358000Y50825000D01*
X27358000Y50775000D01*
X27658000Y50775000D01*
X27658000Y50175000D01*
X27358000Y50175000D01*
X27358000Y50125000D01*
X27658000Y50125000D01*
X27658000Y49550000D01*
X27358000Y49550000D01*
X27358000Y49475000D01*
X26233000Y49475000D01*
X26233000Y49100000D01*
X25583000Y49100000D01*
X25583000Y49475000D01*
X25183000Y49475000D01*
X25183000Y52125000D01*
X25583000Y52125000D01*
X25583000Y52500000D01*
X26208000Y52500000D01*
X26208000Y52125000D01*
%TO.C,Q4*%
G36*
X26208000Y41965000D02*
G01*
X27358000Y41965000D01*
X27358000Y41915000D01*
X27658000Y41915000D01*
X27658000Y41315000D01*
X27358000Y41315000D01*
X27358000Y41265000D01*
X27658000Y41265000D01*
X27658000Y40665000D01*
X27358000Y40665000D01*
X27358000Y40615000D01*
X27658000Y40615000D01*
X27658000Y40015000D01*
X27358000Y40015000D01*
X27358000Y39965000D01*
X27658000Y39965000D01*
X27658000Y39390000D01*
X27358000Y39390000D01*
X27358000Y39315000D01*
X26233000Y39315000D01*
X26233000Y38940000D01*
X25583000Y38940000D01*
X25583000Y39315000D01*
X25183000Y39315000D01*
X25183000Y41965000D01*
X25583000Y41965000D01*
X25583000Y42340000D01*
X26208000Y42340000D01*
X26208000Y41965000D01*
G37*
X26208000Y41965000D02*
X27358000Y41965000D01*
X27358000Y41915000D01*
X27658000Y41915000D01*
X27658000Y41315000D01*
X27358000Y41315000D01*
X27358000Y41265000D01*
X27658000Y41265000D01*
X27658000Y40665000D01*
X27358000Y40665000D01*
X27358000Y40615000D01*
X27658000Y40615000D01*
X27658000Y40015000D01*
X27358000Y40015000D01*
X27358000Y39965000D01*
X27658000Y39965000D01*
X27658000Y39390000D01*
X27358000Y39390000D01*
X27358000Y39315000D01*
X26233000Y39315000D01*
X26233000Y38940000D01*
X25583000Y38940000D01*
X25583000Y39315000D01*
X25183000Y39315000D01*
X25183000Y41965000D01*
X25583000Y41965000D01*
X25583000Y42340000D01*
X26208000Y42340000D01*
X26208000Y41965000D01*
%TO.C,Q3*%
G36*
X26208000Y36631000D02*
G01*
X27358000Y36631000D01*
X27358000Y36581000D01*
X27658000Y36581000D01*
X27658000Y35981000D01*
X27358000Y35981000D01*
X27358000Y35931000D01*
X27658000Y35931000D01*
X27658000Y35331000D01*
X27358000Y35331000D01*
X27358000Y35281000D01*
X27658000Y35281000D01*
X27658000Y34681000D01*
X27358000Y34681000D01*
X27358000Y34631000D01*
X27658000Y34631000D01*
X27658000Y34056000D01*
X27358000Y34056000D01*
X27358000Y33981000D01*
X26233000Y33981000D01*
X26233000Y33606000D01*
X25583000Y33606000D01*
X25583000Y33981000D01*
X25183000Y33981000D01*
X25183000Y36631000D01*
X25583000Y36631000D01*
X25583000Y37006000D01*
X26208000Y37006000D01*
X26208000Y36631000D01*
G37*
X26208000Y36631000D02*
X27358000Y36631000D01*
X27358000Y36581000D01*
X27658000Y36581000D01*
X27658000Y35981000D01*
X27358000Y35981000D01*
X27358000Y35931000D01*
X27658000Y35931000D01*
X27658000Y35331000D01*
X27358000Y35331000D01*
X27358000Y35281000D01*
X27658000Y35281000D01*
X27658000Y34681000D01*
X27358000Y34681000D01*
X27358000Y34631000D01*
X27658000Y34631000D01*
X27658000Y34056000D01*
X27358000Y34056000D01*
X27358000Y33981000D01*
X26233000Y33981000D01*
X26233000Y33606000D01*
X25583000Y33606000D01*
X25583000Y33981000D01*
X25183000Y33981000D01*
X25183000Y36631000D01*
X25583000Y36631000D01*
X25583000Y37006000D01*
X26208000Y37006000D01*
X26208000Y36631000D01*
%TD*%
D16*
%TO.C,R24*%
X21046600Y49788800D03*
X22066600Y49788800D03*
%TD*%
D17*
%TO.C,R18*%
X22098000Y33297400D03*
X22098000Y34317400D03*
%TD*%
D18*
%TO.C,IC1*%
X12766000Y21203500D03*
X13716000Y21203500D03*
X14666000Y21203500D03*
X14666000Y18928500D03*
X13716000Y18928500D03*
X12766000Y18928500D03*
%TD*%
D19*
%TO.C,R11*%
X21429600Y57336600D03*
X21429600Y56316600D03*
%TD*%
D20*
%TO.C,C10*%
X9644000Y41130000D03*
X9644000Y42090000D03*
%TD*%
D21*
%TO.C,J5*%
X16510000Y55880000D03*
X11430000Y54864000D03*
X11430000Y56896000D03*
D22*
X15240000Y56515000D03*
X15240000Y55245000D03*
X13970000Y56515000D03*
X13970000Y55245000D03*
X12700000Y56515000D03*
X12700000Y55245000D03*
%TD*%
D16*
%TO.C,R14*%
X2080800Y14046200D03*
X3100800Y14046200D03*
%TD*%
D17*
%TO.C,R10*%
X23114000Y48766000D03*
X23114000Y49786000D03*
%TD*%
D23*
%TO.C,H3*%
X4000000Y4000000D03*
%TD*%
D24*
%TO.C,TH1*%
X3700000Y48877800D03*
X2680000Y48877800D03*
%TD*%
D25*
%TO.C,Q6*%
X18799999Y24999999D03*
X18799999Y23099999D03*
X21419999Y24049999D03*
%TD*%
D26*
%TO.C,Q1*%
X24507999Y46694999D03*
X24507999Y46044999D03*
X24507999Y45394999D03*
X24507999Y44744999D03*
%TD*%
D17*
%TO.C,R2*%
X23114000Y43686000D03*
X23114000Y44706000D03*
%TD*%
D27*
%TO.C,D1*%
X16756000Y23770600D03*
X16756000Y25870600D03*
%TD*%
D20*
%TO.C,C4*%
X11176000Y19586000D03*
X11176000Y20546000D03*
%TD*%
D28*
%TO.C,L1*%
X9905999Y23390999D03*
X9905999Y29440999D03*
%TD*%
D26*
%TO.C,Q2*%
X24507999Y31200999D03*
X24507999Y30550999D03*
X24507999Y29900999D03*
X24507999Y29250999D03*
%TD*%
D29*
%TO.C,C8*%
X15798800Y45511600D03*
X15798800Y44551600D03*
%TD*%
D30*
%TO.C,D2*%
X23487000Y57053300D03*
X23487000Y55478300D03*
%TD*%
D26*
%TO.C,Q5*%
X24507999Y51774999D03*
X24507999Y51124999D03*
X24507999Y50474999D03*
X24507999Y49824999D03*
%TD*%
D16*
%TO.C,R19*%
X2680000Y50147800D03*
X3700000Y50147800D03*
%TD*%
D19*
%TO.C,R21*%
X22115400Y36481200D03*
X22115400Y35461200D03*
%TD*%
D31*
%TO.C,C3*%
X18796000Y20234000D03*
X18796000Y15834000D03*
%TD*%
D32*
%TO.C,F2*%
X21590000Y14224000D03*
X20620000Y14224000D03*
%TD*%
D19*
%TO.C,R20*%
X21023200Y30112600D03*
X21023200Y29092600D03*
%TD*%
D33*
%TO.C,U2*%
X2630400Y12573000D03*
X2630400Y11303000D03*
X2630400Y10033000D03*
X2630400Y8763000D03*
X7580400Y8763000D03*
X7580400Y10033000D03*
X7580400Y11303000D03*
X7580400Y12573000D03*
%TD*%
D34*
%TO.C,J10*%
X25176100Y20150800D03*
X25176100Y25300800D03*
%TD*%
D35*
%TO.C,C13*%
X3670000Y47607800D03*
X2710000Y47607800D03*
%TD*%
D20*
%TO.C,C1*%
X16256000Y21618000D03*
X16256000Y22578000D03*
%TD*%
D17*
%TO.C,R6*%
X23114000Y33272000D03*
X23114000Y34292000D03*
%TD*%
D36*
%TO.C,J6*%
X11642000Y6794000D03*
D37*
X11641999Y8793999D03*
X11641999Y10793999D03*
%TD*%
D17*
%TO.C,R5*%
X14224000Y26414000D03*
X14224000Y27434000D03*
%TD*%
D35*
%TO.C,C2*%
X7592000Y14071600D03*
X6632000Y14071600D03*
%TD*%
D16*
%TO.C,R3*%
X18354200Y26420800D03*
X19374200Y26420800D03*
%TD*%
D19*
%TO.C,R8*%
X22098000Y30133200D03*
X22098000Y29113200D03*
%TD*%
D33*
%TO.C,U4*%
X2630400Y19685000D03*
X2630400Y18415000D03*
X2630400Y17145000D03*
X2630400Y15875000D03*
X7580400Y15875000D03*
X7580400Y17145000D03*
X7580400Y18415000D03*
X7580400Y19685000D03*
%TD*%
D35*
%TO.C,C5*%
X7617400Y21132800D03*
X6657400Y21132800D03*
%TD*%
D19*
%TO.C,R12*%
X20193800Y57336600D03*
X20193800Y56316600D03*
%TD*%
%TO.C,R22*%
X22013800Y40648800D03*
X22013800Y39628800D03*
%TD*%
%TO.C,R23*%
X22039200Y45726800D03*
X22039200Y44706800D03*
%TD*%
D26*
%TO.C,Q4*%
X24507999Y41614999D03*
X24507999Y40964999D03*
X24507999Y40314999D03*
X24507999Y39664999D03*
%TD*%
D30*
%TO.C,D3*%
X25738800Y57047100D03*
X25738800Y55472100D03*
%TD*%
D23*
%TO.C,H2*%
X36000000Y4000000D03*
%TD*%
D29*
%TO.C,C11*%
X15232000Y42090000D03*
X15232000Y41130000D03*
%TD*%
D38*
%TO.C,J2*%
X34289999Y23955999D03*
D39*
X34290000Y28956000D03*
X34290000Y33956000D03*
X34290000Y38956000D03*
X34290000Y43956000D03*
X34290000Y48956000D03*
%TD*%
D30*
%TO.C,D4*%
X28008200Y57053300D03*
X28008200Y55478300D03*
%TD*%
D17*
%TO.C,R4*%
X14224000Y28700000D03*
X14224000Y29720000D03*
%TD*%
D23*
%TO.C,H1*%
X4000000Y56000000D03*
%TD*%
D38*
%TO.C,J4*%
X34289999Y11175999D03*
D39*
X34290000Y16176000D03*
%TD*%
D40*
%TO.C,C9*%
X12024000Y33784000D03*
X16424000Y33784000D03*
%TD*%
D27*
%TO.C,D5*%
X20540600Y33498800D03*
X20540600Y35598800D03*
%TD*%
D29*
%TO.C,C6*%
X15392400Y29718000D03*
X15392400Y28758000D03*
%TD*%
D26*
%TO.C,Q3*%
X24507999Y36280999D03*
X24507999Y35630999D03*
X24507999Y34980999D03*
X24507999Y34330999D03*
%TD*%
D41*
%TO.C,Y2*%
X11337999Y40847999D03*
X13537999Y40847999D03*
X13537999Y42547999D03*
X11337999Y42547999D03*
%TD*%
D24*
%TO.C,R15*%
X2999200Y21132800D03*
X1979200Y21132800D03*
%TD*%
D17*
%TO.C,R9*%
X23114000Y38606000D03*
X23114000Y39626000D03*
%TD*%
D42*
%TO.C,J9*%
X25176100Y9850000D03*
X25176100Y4700000D03*
%TD*%
D23*
%TO.C,H4*%
X36000000Y56000000D03*
%TD*%
D43*
%TO.C,IC2*%
X12056000Y45108000D03*
X12456000Y45108000D03*
X12856000Y45108000D03*
X13256000Y45108000D03*
X13656000Y45108000D03*
D44*
X14306000Y45758000D03*
X14306000Y46158000D03*
X14306000Y46558000D03*
X14306000Y46958000D03*
X14306000Y47358000D03*
D43*
X13656000Y48008000D03*
X13256000Y48008000D03*
X12856000Y48008000D03*
X12456000Y48008000D03*
X12056000Y48008000D03*
D44*
X11406000Y47358000D03*
X11406000Y46958000D03*
X11406000Y46558000D03*
X11406000Y46158000D03*
X11406000Y45758000D03*
D45*
X12855999Y46557999D03*
%TD*%
D17*
%TO.C,R14*%
X21031200Y31290000D03*
X21031200Y32310000D03*
%TD*%
D46*
%TO.C,C7*%
X7788000Y33782000D03*
X3388000Y33782000D03*
%TD*%
D29*
%TO.C,C12*%
X22090000Y32311000D03*
X22090000Y31351000D03*
%TD*%
D19*
%TO.C,R13*%
X18991200Y57336600D03*
X18991200Y56316600D03*
%TD*%
D36*
%TO.C,J1*%
X18288000Y6858000D03*
D37*
X18287999Y8857999D03*
X18287999Y10857999D03*
%TD*%
M02*
