%TF.GenerationSoftware,KiCad,Pcbnew,(7.0.0)*%
%TF.CreationDate,2023-03-11T20:41:09+01:00*%
%TF.ProjectId,StripController,53747269-7043-46f6-9e74-726f6c6c6572,rev?*%
%TF.SameCoordinates,Original*%
%TF.FileFunction,Soldermask,Top*%
%TF.FilePolarity,Negative*%
%FSLAX46Y46*%
G04 Gerber Fmt 4.6, Leading zero omitted, Abs format (unit mm)*
G04 Created by KiCad (PCBNEW (7.0.0)) date 2023-03-11 20:41:09*
%MOMM*%
%LPD*%
G01*
G04 APERTURE LIST*
G04 Aperture macros list*
%AMRoundRect*
0 Rectangle with rounded corners*
0 $1 Rounding radius*
0 $2 $3 $4 $5 $6 $7 $8 $9 X,Y pos of 4 corners*
0 Add a 4 corners polygon primitive as box body*
4,1,4,$2,$3,$4,$5,$6,$7,$8,$9,$2,$3,0*
0 Add four circle primitives for the rounded corners*
1,1,$1+$1,$2,$3*
1,1,$1+$1,$4,$5*
1,1,$1+$1,$6,$7*
1,1,$1+$1,$8,$9*
0 Add four rect primitives between the rounded corners*
20,1,$1+$1,$2,$3,$4,$5,0*
20,1,$1+$1,$4,$5,$6,$7,0*
20,1,$1+$1,$6,$7,$8,$9,0*
20,1,$1+$1,$8,$9,$2,$3,0*%
G04 Aperture macros list end*
%ADD10C,0.010000*%
%ADD11RoundRect,0.135000X-0.135000X-0.185000X0.135000X-0.185000X0.135000X0.185000X-0.135000X0.185000X0*%
%ADD12RoundRect,0.135000X0.185000X-0.135000X0.185000X0.135000X-0.185000X0.135000X-0.185000X-0.135000X0*%
%ADD13RoundRect,0.150000X0.150000X-0.512500X0.150000X0.512500X-0.150000X0.512500X-0.150000X-0.512500X0*%
%ADD14RoundRect,0.135000X-0.185000X0.135000X-0.185000X-0.135000X0.185000X-0.135000X0.185000X0.135000X0*%
%ADD15RoundRect,0.140000X0.170000X-0.140000X0.170000X0.140000X-0.170000X0.140000X-0.170000X-0.140000X0*%
%ADD16C,0.990600*%
%ADD17C,0.787400*%
%ADD18C,3.200000*%
%ADD19RoundRect,0.135000X0.135000X0.185000X-0.135000X0.185000X-0.135000X-0.185000X0.135000X-0.185000X0*%
%ADD20R,1.220000X0.650000*%
%ADD21R,0.500000X0.350000*%
%ADD22RoundRect,0.112500X0.112500X-0.187500X0.112500X0.187500X-0.112500X0.187500X-0.112500X-0.187500X0*%
%ADD23R,3.500000X2.350000*%
%ADD24RoundRect,0.140000X-0.170000X0.140000X-0.170000X-0.140000X0.170000X-0.140000X0.170000X0.140000X0*%
%ADD25RoundRect,0.218750X-0.256250X0.218750X-0.256250X-0.218750X0.256250X-0.218750X0.256250X0.218750X0*%
%ADD26RoundRect,0.250000X-0.550000X1.250000X-0.550000X-1.250000X0.550000X-1.250000X0.550000X1.250000X0*%
%ADD27RoundRect,0.147500X0.147500X0.172500X-0.147500X0.172500X-0.147500X-0.172500X0.147500X-0.172500X0*%
%ADD28RoundRect,0.150000X-0.825000X-0.150000X0.825000X-0.150000X0.825000X0.150000X-0.825000X0.150000X0*%
%ADD29RoundRect,0.575000X0.575000X-0.575000X0.575000X0.575000X-0.575000X0.575000X-0.575000X-0.575000X0*%
%ADD30RoundRect,0.140000X0.140000X0.170000X-0.140000X0.170000X-0.140000X-0.170000X0.140000X-0.170000X0*%
%ADD31RoundRect,0.250000X0.625000X-0.350000X0.625000X0.350000X-0.625000X0.350000X-0.625000X-0.350000X0*%
%ADD32O,1.750000X1.200000*%
%ADD33R,2.600000X2.600000*%
%ADD34C,2.600000*%
%ADD35RoundRect,0.250000X-1.250000X-0.550000X1.250000X-0.550000X1.250000X0.550000X-1.250000X0.550000X0*%
%ADD36R,1.400000X1.200000*%
%ADD37RoundRect,0.575000X-0.575000X0.575000X-0.575000X-0.575000X0.575000X-0.575000X0.575000X0.575000X0*%
%ADD38RoundRect,0.050000X0.050000X-0.375000X0.050000X0.375000X-0.050000X0.375000X-0.050000X-0.375000X0*%
%ADD39RoundRect,0.050000X0.375000X-0.050000X0.375000X0.050000X-0.375000X0.050000X-0.375000X-0.050000X0*%
%ADD40R,1.650000X1.650000*%
%ADD41RoundRect,0.250000X1.250000X0.550000X-1.250000X0.550000X-1.250000X-0.550000X1.250000X-0.550000X0*%
G04 APERTURE END LIST*
%TO.C,Q1*%
G36*
X26208000Y47045000D02*
G01*
X27358000Y47045000D01*
X27358000Y46995000D01*
X27658000Y46995000D01*
X27658000Y46395000D01*
X27358000Y46395000D01*
X27358000Y46345000D01*
X27658000Y46345000D01*
X27658000Y45745000D01*
X27358000Y45745000D01*
X27358000Y45695000D01*
X27658000Y45695000D01*
X27658000Y45095000D01*
X27358000Y45095000D01*
X27358000Y45045000D01*
X27658000Y45045000D01*
X27658000Y44470000D01*
X27358000Y44470000D01*
X27358000Y44395000D01*
X26233000Y44395000D01*
X26233000Y44020000D01*
X25583000Y44020000D01*
X25583000Y44395000D01*
X25183000Y44395000D01*
X25183000Y47045000D01*
X25583000Y47045000D01*
X25583000Y47420000D01*
X26208000Y47420000D01*
X26208000Y47045000D01*
G37*
D10*
X26208000Y47045000D02*
X27358000Y47045000D01*
X27358000Y46995000D01*
X27658000Y46995000D01*
X27658000Y46395000D01*
X27358000Y46395000D01*
X27358000Y46345000D01*
X27658000Y46345000D01*
X27658000Y45745000D01*
X27358000Y45745000D01*
X27358000Y45695000D01*
X27658000Y45695000D01*
X27658000Y45095000D01*
X27358000Y45095000D01*
X27358000Y45045000D01*
X27658000Y45045000D01*
X27658000Y44470000D01*
X27358000Y44470000D01*
X27358000Y44395000D01*
X26233000Y44395000D01*
X26233000Y44020000D01*
X25583000Y44020000D01*
X25583000Y44395000D01*
X25183000Y44395000D01*
X25183000Y47045000D01*
X25583000Y47045000D01*
X25583000Y47420000D01*
X26208000Y47420000D01*
X26208000Y47045000D01*
%TO.C,Q2*%
G36*
X26208000Y31551000D02*
G01*
X27358000Y31551000D01*
X27358000Y31501000D01*
X27658000Y31501000D01*
X27658000Y30901000D01*
X27358000Y30901000D01*
X27358000Y30851000D01*
X27658000Y30851000D01*
X27658000Y30251000D01*
X27358000Y30251000D01*
X27358000Y30201000D01*
X27658000Y30201000D01*
X27658000Y29601000D01*
X27358000Y29601000D01*
X27358000Y29551000D01*
X27658000Y29551000D01*
X27658000Y28976000D01*
X27358000Y28976000D01*
X27358000Y28901000D01*
X26233000Y28901000D01*
X26233000Y28526000D01*
X25583000Y28526000D01*
X25583000Y28901000D01*
X25183000Y28901000D01*
X25183000Y31551000D01*
X25583000Y31551000D01*
X25583000Y31926000D01*
X26208000Y31926000D01*
X26208000Y31551000D01*
G37*
X26208000Y31551000D02*
X27358000Y31551000D01*
X27358000Y31501000D01*
X27658000Y31501000D01*
X27658000Y30901000D01*
X27358000Y30901000D01*
X27358000Y30851000D01*
X27658000Y30851000D01*
X27658000Y30251000D01*
X27358000Y30251000D01*
X27358000Y30201000D01*
X27658000Y30201000D01*
X27658000Y29601000D01*
X27358000Y29601000D01*
X27358000Y29551000D01*
X27658000Y29551000D01*
X27658000Y28976000D01*
X27358000Y28976000D01*
X27358000Y28901000D01*
X26233000Y28901000D01*
X26233000Y28526000D01*
X25583000Y28526000D01*
X25583000Y28901000D01*
X25183000Y28901000D01*
X25183000Y31551000D01*
X25583000Y31551000D01*
X25583000Y31926000D01*
X26208000Y31926000D01*
X26208000Y31551000D01*
%TO.C,Q5*%
G36*
X26208000Y52125000D02*
G01*
X27358000Y52125000D01*
X27358000Y52075000D01*
X27658000Y52075000D01*
X27658000Y51475000D01*
X27358000Y51475000D01*
X27358000Y51425000D01*
X27658000Y51425000D01*
X27658000Y50825000D01*
X27358000Y50825000D01*
X27358000Y50775000D01*
X27658000Y50775000D01*
X27658000Y50175000D01*
X27358000Y50175000D01*
X27358000Y50125000D01*
X27658000Y50125000D01*
X27658000Y49550000D01*
X27358000Y49550000D01*
X27358000Y49475000D01*
X26233000Y49475000D01*
X26233000Y49100000D01*
X25583000Y49100000D01*
X25583000Y49475000D01*
X25183000Y49475000D01*
X25183000Y52125000D01*
X25583000Y52125000D01*
X25583000Y52500000D01*
X26208000Y52500000D01*
X26208000Y52125000D01*
G37*
X26208000Y52125000D02*
X27358000Y52125000D01*
X27358000Y52075000D01*
X27658000Y52075000D01*
X27658000Y51475000D01*
X27358000Y51475000D01*
X27358000Y51425000D01*
X27658000Y51425000D01*
X27658000Y50825000D01*
X27358000Y50825000D01*
X27358000Y50775000D01*
X27658000Y50775000D01*
X27658000Y50175000D01*
X27358000Y50175000D01*
X27358000Y50125000D01*
X27658000Y50125000D01*
X27658000Y49550000D01*
X27358000Y49550000D01*
X27358000Y49475000D01*
X26233000Y49475000D01*
X26233000Y49100000D01*
X25583000Y49100000D01*
X25583000Y49475000D01*
X25183000Y49475000D01*
X25183000Y52125000D01*
X25583000Y52125000D01*
X25583000Y52500000D01*
X26208000Y52500000D01*
X26208000Y52125000D01*
%TO.C,Q4*%
G36*
X26208000Y41965000D02*
G01*
X27358000Y41965000D01*
X27358000Y41915000D01*
X27658000Y41915000D01*
X27658000Y41315000D01*
X27358000Y41315000D01*
X27358000Y41265000D01*
X27658000Y41265000D01*
X27658000Y40665000D01*
X27358000Y40665000D01*
X27358000Y40615000D01*
X27658000Y40615000D01*
X27658000Y40015000D01*
X27358000Y40015000D01*
X27358000Y39965000D01*
X27658000Y39965000D01*
X27658000Y39390000D01*
X27358000Y39390000D01*
X27358000Y39315000D01*
X26233000Y39315000D01*
X26233000Y38940000D01*
X25583000Y38940000D01*
X25583000Y39315000D01*
X25183000Y39315000D01*
X25183000Y41965000D01*
X25583000Y41965000D01*
X25583000Y42340000D01*
X26208000Y42340000D01*
X26208000Y41965000D01*
G37*
X26208000Y41965000D02*
X27358000Y41965000D01*
X27358000Y41915000D01*
X27658000Y41915000D01*
X27658000Y41315000D01*
X27358000Y41315000D01*
X27358000Y41265000D01*
X27658000Y41265000D01*
X27658000Y40665000D01*
X27358000Y40665000D01*
X27358000Y40615000D01*
X27658000Y40615000D01*
X27658000Y40015000D01*
X27358000Y40015000D01*
X27358000Y39965000D01*
X27658000Y39965000D01*
X27658000Y39390000D01*
X27358000Y39390000D01*
X27358000Y39315000D01*
X26233000Y39315000D01*
X26233000Y38940000D01*
X25583000Y38940000D01*
X25583000Y39315000D01*
X25183000Y39315000D01*
X25183000Y41965000D01*
X25583000Y41965000D01*
X25583000Y42340000D01*
X26208000Y42340000D01*
X26208000Y41965000D01*
%TO.C,Q3*%
G36*
X26208000Y36631000D02*
G01*
X27358000Y36631000D01*
X27358000Y36581000D01*
X27658000Y36581000D01*
X27658000Y35981000D01*
X27358000Y35981000D01*
X27358000Y35931000D01*
X27658000Y35931000D01*
X27658000Y35331000D01*
X27358000Y35331000D01*
X27358000Y35281000D01*
X27658000Y35281000D01*
X27658000Y34681000D01*
X27358000Y34681000D01*
X27358000Y34631000D01*
X27658000Y34631000D01*
X27658000Y34056000D01*
X27358000Y34056000D01*
X27358000Y33981000D01*
X26233000Y33981000D01*
X26233000Y33606000D01*
X25583000Y33606000D01*
X25583000Y33981000D01*
X25183000Y33981000D01*
X25183000Y36631000D01*
X25583000Y36631000D01*
X25583000Y37006000D01*
X26208000Y37006000D01*
X26208000Y36631000D01*
G37*
X26208000Y36631000D02*
X27358000Y36631000D01*
X27358000Y36581000D01*
X27658000Y36581000D01*
X27658000Y35981000D01*
X27358000Y35981000D01*
X27358000Y35931000D01*
X27658000Y35931000D01*
X27658000Y35331000D01*
X27358000Y35331000D01*
X27358000Y35281000D01*
X27658000Y35281000D01*
X27658000Y34681000D01*
X27358000Y34681000D01*
X27358000Y34631000D01*
X27658000Y34631000D01*
X27658000Y34056000D01*
X27358000Y34056000D01*
X27358000Y33981000D01*
X26233000Y33981000D01*
X26233000Y33606000D01*
X25583000Y33606000D01*
X25583000Y33981000D01*
X25183000Y33981000D01*
X25183000Y36631000D01*
X25583000Y36631000D01*
X25583000Y37006000D01*
X26208000Y37006000D01*
X26208000Y36631000D01*
%TD*%
D11*
%TO.C,R24*%
X21046600Y49788800D03*
X22066600Y49788800D03*
%TD*%
D12*
%TO.C,R18*%
X22098000Y33297400D03*
X22098000Y34317400D03*
%TD*%
D13*
%TO.C,IC1*%
X12766000Y21203500D03*
X13716000Y21203500D03*
X14666000Y21203500D03*
X14666000Y18928500D03*
X13716000Y18928500D03*
X12766000Y18928500D03*
%TD*%
D14*
%TO.C,R11*%
X21429600Y57336600D03*
X21429600Y56316600D03*
%TD*%
D15*
%TO.C,C10*%
X9644000Y41130000D03*
X9644000Y42090000D03*
%TD*%
D16*
%TO.C,J5*%
X16510000Y55880000D03*
X11430000Y54864000D03*
X11430000Y56896000D03*
D17*
X15240000Y56515000D03*
X15240000Y55245000D03*
X13970000Y56515000D03*
X13970000Y55245000D03*
X12700000Y56515000D03*
X12700000Y55245000D03*
%TD*%
D11*
%TO.C,R14*%
X2080800Y14046200D03*
X3100800Y14046200D03*
%TD*%
D12*
%TO.C,R10*%
X23114000Y48766000D03*
X23114000Y49786000D03*
%TD*%
D18*
%TO.C,H3*%
X4000000Y4000000D03*
%TD*%
D19*
%TO.C,TH1*%
X3700000Y48877800D03*
X2680000Y48877800D03*
%TD*%
D20*
%TO.C,Q6*%
X18799999Y24999999D03*
X18799999Y23099999D03*
X21419999Y24049999D03*
%TD*%
D21*
%TO.C,Q1*%
X24507999Y46694999D03*
X24507999Y46044999D03*
X24507999Y45394999D03*
X24507999Y44744999D03*
%TD*%
D12*
%TO.C,R2*%
X23114000Y43686000D03*
X23114000Y44706000D03*
%TD*%
D22*
%TO.C,D1*%
X16756000Y23770600D03*
X16756000Y25870600D03*
%TD*%
D15*
%TO.C,C4*%
X11176000Y19586000D03*
X11176000Y20546000D03*
%TD*%
D23*
%TO.C,L1*%
X9905999Y23390999D03*
X9905999Y29440999D03*
%TD*%
D21*
%TO.C,Q2*%
X24507999Y31200999D03*
X24507999Y30550999D03*
X24507999Y29900999D03*
X24507999Y29250999D03*
%TD*%
D24*
%TO.C,C8*%
X15798800Y45511600D03*
X15798800Y44551600D03*
%TD*%
D25*
%TO.C,D2*%
X23487000Y57053300D03*
X23487000Y55478300D03*
%TD*%
D21*
%TO.C,Q5*%
X24507999Y51774999D03*
X24507999Y51124999D03*
X24507999Y50474999D03*
X24507999Y49824999D03*
%TD*%
D11*
%TO.C,R19*%
X2680000Y50147800D03*
X3700000Y50147800D03*
%TD*%
D14*
%TO.C,R21*%
X22115400Y36481200D03*
X22115400Y35461200D03*
%TD*%
D26*
%TO.C,C3*%
X18796000Y20234000D03*
X18796000Y15834000D03*
%TD*%
D27*
%TO.C,F2*%
X21590000Y14224000D03*
X20620000Y14224000D03*
%TD*%
D14*
%TO.C,R20*%
X21023200Y30112600D03*
X21023200Y29092600D03*
%TD*%
D28*
%TO.C,U2*%
X2630400Y12573000D03*
X2630400Y11303000D03*
X2630400Y10033000D03*
X2630400Y8763000D03*
X7580400Y8763000D03*
X7580400Y10033000D03*
X7580400Y11303000D03*
X7580400Y12573000D03*
%TD*%
D29*
%TO.C,J10*%
X25176100Y20150800D03*
X25176100Y25300800D03*
%TD*%
D30*
%TO.C,C13*%
X3670000Y47607800D03*
X2710000Y47607800D03*
%TD*%
D15*
%TO.C,C1*%
X16256000Y21618000D03*
X16256000Y22578000D03*
%TD*%
D12*
%TO.C,R6*%
X23114000Y33272000D03*
X23114000Y34292000D03*
%TD*%
D31*
%TO.C,J6*%
X11642000Y6794000D03*
D32*
X11641999Y8793999D03*
X11641999Y10793999D03*
%TD*%
D12*
%TO.C,R5*%
X14224000Y26414000D03*
X14224000Y27434000D03*
%TD*%
D30*
%TO.C,C2*%
X7592000Y14071600D03*
X6632000Y14071600D03*
%TD*%
D11*
%TO.C,R3*%
X18354200Y26420800D03*
X19374200Y26420800D03*
%TD*%
D14*
%TO.C,R8*%
X22098000Y30133200D03*
X22098000Y29113200D03*
%TD*%
D28*
%TO.C,U4*%
X2630400Y19685000D03*
X2630400Y18415000D03*
X2630400Y17145000D03*
X2630400Y15875000D03*
X7580400Y15875000D03*
X7580400Y17145000D03*
X7580400Y18415000D03*
X7580400Y19685000D03*
%TD*%
D30*
%TO.C,C5*%
X7617400Y21132800D03*
X6657400Y21132800D03*
%TD*%
D14*
%TO.C,R12*%
X20193800Y57336600D03*
X20193800Y56316600D03*
%TD*%
%TO.C,R22*%
X22013800Y40648800D03*
X22013800Y39628800D03*
%TD*%
%TO.C,R23*%
X22039200Y45726800D03*
X22039200Y44706800D03*
%TD*%
D21*
%TO.C,Q4*%
X24507999Y41614999D03*
X24507999Y40964999D03*
X24507999Y40314999D03*
X24507999Y39664999D03*
%TD*%
D25*
%TO.C,D3*%
X25738800Y57047100D03*
X25738800Y55472100D03*
%TD*%
D18*
%TO.C,H2*%
X36000000Y4000000D03*
%TD*%
D24*
%TO.C,C11*%
X15232000Y42090000D03*
X15232000Y41130000D03*
%TD*%
D33*
%TO.C,J2*%
X34289999Y23955999D03*
D34*
X34290000Y28956000D03*
X34290000Y33956000D03*
X34290000Y38956000D03*
X34290000Y43956000D03*
X34290000Y48956000D03*
%TD*%
D25*
%TO.C,D4*%
X28008200Y57053300D03*
X28008200Y55478300D03*
%TD*%
D12*
%TO.C,R4*%
X14224000Y28700000D03*
X14224000Y29720000D03*
%TD*%
D18*
%TO.C,H1*%
X4000000Y56000000D03*
%TD*%
D33*
%TO.C,J4*%
X34289999Y11175999D03*
D34*
X34290000Y16176000D03*
%TD*%
D35*
%TO.C,C9*%
X12024000Y33784000D03*
X16424000Y33784000D03*
%TD*%
D22*
%TO.C,D5*%
X20540600Y33498800D03*
X20540600Y35598800D03*
%TD*%
D24*
%TO.C,C6*%
X15392400Y29718000D03*
X15392400Y28758000D03*
%TD*%
D21*
%TO.C,Q3*%
X24507999Y36280999D03*
X24507999Y35630999D03*
X24507999Y34980999D03*
X24507999Y34330999D03*
%TD*%
D36*
%TO.C,Y2*%
X11337999Y40847999D03*
X13537999Y40847999D03*
X13537999Y42547999D03*
X11337999Y42547999D03*
%TD*%
D19*
%TO.C,R15*%
X2999200Y21132800D03*
X1979200Y21132800D03*
%TD*%
D12*
%TO.C,R9*%
X23114000Y38606000D03*
X23114000Y39626000D03*
%TD*%
D37*
%TO.C,J9*%
X25176100Y9850000D03*
X25176100Y4700000D03*
%TD*%
D18*
%TO.C,H4*%
X36000000Y56000000D03*
%TD*%
D38*
%TO.C,IC2*%
X12056000Y45108000D03*
X12456000Y45108000D03*
X12856000Y45108000D03*
X13256000Y45108000D03*
X13656000Y45108000D03*
D39*
X14306000Y45758000D03*
X14306000Y46158000D03*
X14306000Y46558000D03*
X14306000Y46958000D03*
X14306000Y47358000D03*
D38*
X13656000Y48008000D03*
X13256000Y48008000D03*
X12856000Y48008000D03*
X12456000Y48008000D03*
X12056000Y48008000D03*
D39*
X11406000Y47358000D03*
X11406000Y46958000D03*
X11406000Y46558000D03*
X11406000Y46158000D03*
X11406000Y45758000D03*
D40*
X12855999Y46557999D03*
%TD*%
D12*
%TO.C,R14*%
X21031200Y31290000D03*
X21031200Y32310000D03*
%TD*%
D41*
%TO.C,C7*%
X7788000Y33782000D03*
X3388000Y33782000D03*
%TD*%
D24*
%TO.C,C12*%
X22090000Y32311000D03*
X22090000Y31351000D03*
%TD*%
D14*
%TO.C,R13*%
X18991200Y57336600D03*
X18991200Y56316600D03*
%TD*%
D31*
%TO.C,J1*%
X18288000Y6858000D03*
D32*
X18287999Y8857999D03*
X18287999Y10857999D03*
%TD*%
M02*
