M48
; DRILL file {KiCad (7.0.0)} date Sat Mar 11 20:41:09 2023
; FORMAT={-:-/ absolute / inch / decimal}
; #@! TF.CreationDate,2023-03-11T20:41:09+01:00
; #@! TF.GenerationSoftware,Kicad,Pcbnew,(7.0.0)
; #@! TF.FileFunction,Plated,1,2,PTH
FMAT,2
INCH
; #@! TA.AperFunction,Plated,PTH,ViaDrill
T1C0.0079
; #@! TA.AperFunction,Plated,PTH,ComponentDrill
T2C0.0079
; #@! TA.AperFunction,Plated,PTH,ViaDrill
T3C0.0157
; #@! TA.AperFunction,Plated,PTH,ComponentDrill
T4C0.0295
; #@! TA.AperFunction,Plated,PTH,ComponentDrill
T5C0.0512
%
G90
G05
T1
X0.03Y1.34
X0.03Y1.32
X0.05Y1.34
X0.05Y1.32
X0.0834Y1.9236
X0.0834Y1.8743
X0.118Y0.86
X0.158Y0.776
X0.158Y0.495
X0.16Y0.446
X0.16Y0.395
X0.16Y0.345
X0.241Y0.832
X0.241Y0.553
X0.301Y0.32
X0.347Y0.625
X0.3594Y1.925
X0.3742Y1.7872
X0.3797Y1.6771
X0.3798Y1.7187
X0.432Y1.925
X0.4447Y1.7082
X0.4567Y1.9488
X0.4606Y1.748
X0.5Y2.2677
X0.528Y1.9258
X0.5297Y1.743
X0.5347Y1.5682
X0.54Y0.71
X0.54Y0.69
X0.55Y2.2689
X0.557Y1.926
X0.56Y1.105
X0.56Y1.02
X0.5774Y0.71
X0.6Y2.1192
X0.6Y1.5993
X0.606Y1.111
X0.62Y0.89
X0.622Y1.7319
X0.6797Y1.8082
X0.68Y1.839
X0.73Y1.34
X0.73Y1.32
X0.75Y1.34
X0.75Y1.32
X0.7857Y1.0402
X0.8087Y1.4232
X0.828Y1.213
X0.87Y1.3695
X0.87Y1.21
X0.91Y2.04
X0.91Y2.02
X0.91Y2.0
X0.91Y1.9
X0.91Y1.84
X0.91Y1.82
X0.91Y1.8
X0.91Y1.7
X0.91Y1.64
X0.91Y1.62
X0.91Y1.6
X0.91Y1.5
X0.91Y1.43
X0.91Y1.41
X0.91Y1.39
X0.91Y1.29
X0.92Y1.23
X0.92Y1.21
X0.92Y1.19
X0.9247Y2.2729
X0.93Y2.04
X0.93Y2.02
X0.93Y2.0
X0.93Y1.84
X0.93Y1.82
X0.93Y1.8
X0.93Y1.64
X0.93Y1.62
X0.93Y1.6
X0.93Y1.43
X0.93Y1.41
X0.93Y1.39
X0.94Y1.23
X0.94Y1.21
X0.94Y1.19
X1.0137Y2.2739
X1.1023Y2.2729
T2
X0.4835Y1.8556
X0.4835Y1.8104
X0.5288Y1.8556
X0.5288Y1.8104
T3
X0.68Y0.66
X0.68Y0.62
X0.68Y0.58
X0.7158Y2.2893
T4
X0.4583Y0.425
X0.4583Y0.3462
X0.4583Y0.2675
X0.72Y0.4275
X0.72Y0.3487
X0.72Y0.27
T5
X0.9912Y0.9961
X0.9912Y0.7933
X0.9912Y0.3878
X0.9912Y0.185
X1.35Y1.9274
X1.35Y1.7306
X1.35Y1.5337
X1.35Y1.3369
X1.35Y1.14
X1.35Y0.9431
X1.35Y0.6369
X1.35Y0.44
T0
M30
