%TF.GenerationSoftware,KiCad,Pcbnew,(7.0.0)*%
%TF.CreationDate,2023-03-11T20:41:09+01:00*%
%TF.ProjectId,StripController,53747269-7043-46f6-9e74-726f6c6c6572,rev?*%
%TF.SameCoordinates,Original*%
%TF.FileFunction,Other,Comment*%
%FSLAX46Y46*%
G04 Gerber Fmt 4.6, Leading zero omitted, Abs format (unit mm)*
G04 Created by KiCad (PCBNEW (7.0.0)) date 2023-03-11 20:41:09*
%MOMM*%
%LPD*%
G01*
G04 APERTURE LIST*
%ADD10C,0.100000*%
%ADD11C,0.150000*%
G04 APERTURE END LIST*
D10*
%TO.C,J5*%
X12731904Y55733048D02*
X12731904Y56133048D01*
X12960475Y55733048D02*
X12789046Y55961620D01*
X12960475Y56133048D02*
X12731904Y55904477D01*
X13131904Y55942572D02*
X13265237Y55942572D01*
X13322380Y55733048D02*
X13131904Y55733048D01*
X13131904Y55733048D02*
X13131904Y56133048D01*
X13131904Y56133048D02*
X13322380Y56133048D01*
X13493809Y55942572D02*
X13627142Y55942572D01*
X13684285Y55733048D02*
X13493809Y55733048D01*
X13493809Y55733048D02*
X13493809Y56133048D01*
X13493809Y56133048D02*
X13684285Y56133048D01*
X13855714Y55733048D02*
X13855714Y56133048D01*
X13855714Y56133048D02*
X14008095Y56133048D01*
X14008095Y56133048D02*
X14046190Y56114000D01*
X14046190Y56114000D02*
X14065237Y56094953D01*
X14065237Y56094953D02*
X14084285Y56056858D01*
X14084285Y56056858D02*
X14084285Y55999715D01*
X14084285Y55999715D02*
X14065237Y55961620D01*
X14065237Y55961620D02*
X14046190Y55942572D01*
X14046190Y55942572D02*
X14008095Y55923524D01*
X14008095Y55923524D02*
X13855714Y55923524D01*
X14331904Y56133048D02*
X14408095Y56133048D01*
X14408095Y56133048D02*
X14446190Y56114000D01*
X14446190Y56114000D02*
X14484285Y56075905D01*
X14484285Y56075905D02*
X14503333Y55999715D01*
X14503333Y55999715D02*
X14503333Y55866381D01*
X14503333Y55866381D02*
X14484285Y55790191D01*
X14484285Y55790191D02*
X14446190Y55752096D01*
X14446190Y55752096D02*
X14408095Y55733048D01*
X14408095Y55733048D02*
X14331904Y55733048D01*
X14331904Y55733048D02*
X14293809Y55752096D01*
X14293809Y55752096D02*
X14255714Y55790191D01*
X14255714Y55790191D02*
X14236666Y55866381D01*
X14236666Y55866381D02*
X14236666Y55999715D01*
X14236666Y55999715D02*
X14255714Y56075905D01*
X14255714Y56075905D02*
X14293809Y56114000D01*
X14293809Y56114000D02*
X14331904Y56133048D01*
X14674762Y56133048D02*
X14674762Y55809239D01*
X14674762Y55809239D02*
X14693809Y55771143D01*
X14693809Y55771143D02*
X14712857Y55752096D01*
X14712857Y55752096D02*
X14750952Y55733048D01*
X14750952Y55733048D02*
X14827143Y55733048D01*
X14827143Y55733048D02*
X14865238Y55752096D01*
X14865238Y55752096D02*
X14884285Y55771143D01*
X14884285Y55771143D02*
X14903333Y55809239D01*
X14903333Y55809239D02*
X14903333Y56133048D01*
X15036667Y56133048D02*
X15265238Y56133048D01*
X15150952Y55733048D02*
X15150952Y56133048D01*
D11*
%TO.C,H3*%
X7200000Y4000000D02*
G75*
G03*
X7200000Y4000000I-3200000J0D01*
G01*
%TO.C,H2*%
X39200000Y4000000D02*
G75*
G03*
X39200000Y4000000I-3200000J0D01*
G01*
%TO.C,H1*%
X7200000Y56000000D02*
G75*
G03*
X7200000Y56000000I-3200000J0D01*
G01*
%TO.C,H4*%
X39200000Y56000000D02*
G75*
G03*
X39200000Y56000000I-3200000J0D01*
G01*
%TD*%
M02*
