%TF.GenerationSoftware,KiCad,Pcbnew,8.0.0*%
%TF.CreationDate,2024-03-21T22:32:16+01:00*%
%TF.ProjectId,WSxx5VController,57537878-3556-4436-9f6e-74726f6c6c65,rev?*%
%TF.SameCoordinates,Original*%
%TF.FileFunction,Soldermask,Top*%
%TF.FilePolarity,Negative*%
%FSLAX46Y46*%
G04 Gerber Fmt 4.6, Leading zero omitted, Abs format (unit mm)*
G04 Created by KiCad (PCBNEW 8.0.0) date 2024-03-21 22:32:16*
%MOMM*%
%LPD*%
G01*
G04 APERTURE LIST*
G04 Aperture macros list*
%AMRoundRect*
0 Rectangle with rounded corners*
0 $1 Rounding radius*
0 $2 $3 $4 $5 $6 $7 $8 $9 X,Y pos of 4 corners*
0 Add a 4 corners polygon primitive as box body*
4,1,4,$2,$3,$4,$5,$6,$7,$8,$9,$2,$3,0*
0 Add four circle primitives for the rounded corners*
1,1,$1+$1,$2,$3*
1,1,$1+$1,$4,$5*
1,1,$1+$1,$6,$7*
1,1,$1+$1,$8,$9*
0 Add four rect primitives between the rounded corners*
20,1,$1+$1,$2,$3,$4,$5,0*
20,1,$1+$1,$4,$5,$6,$7,0*
20,1,$1+$1,$6,$7,$8,$9,0*
20,1,$1+$1,$8,$9,$2,$3,0*%
G04 Aperture macros list end*
%ADD10RoundRect,0.150000X-0.150000X0.587500X-0.150000X-0.587500X0.150000X-0.587500X0.150000X0.587500X0*%
%ADD11RoundRect,0.250000X0.625000X-0.312500X0.625000X0.312500X-0.625000X0.312500X-0.625000X-0.312500X0*%
%ADD12RoundRect,0.050000X0.050000X-0.375000X0.050000X0.375000X-0.050000X0.375000X-0.050000X-0.375000X0*%
%ADD13RoundRect,0.050000X0.375000X-0.050000X0.375000X0.050000X-0.375000X0.050000X-0.375000X-0.050000X0*%
%ADD14R,1.650000X1.650000*%
%ADD15RoundRect,0.135000X0.185000X-0.135000X0.185000X0.135000X-0.185000X0.135000X-0.185000X-0.135000X0*%
%ADD16RoundRect,0.147500X0.147500X0.172500X-0.147500X0.172500X-0.147500X-0.172500X0.147500X-0.172500X0*%
%ADD17RoundRect,0.140000X-0.140000X-0.170000X0.140000X-0.170000X0.140000X0.170000X-0.140000X0.170000X0*%
%ADD18RoundRect,0.250000X-0.625000X0.312500X-0.625000X-0.312500X0.625000X-0.312500X0.625000X0.312500X0*%
%ADD19RoundRect,0.147500X-0.172500X0.147500X-0.172500X-0.147500X0.172500X-0.147500X0.172500X0.147500X0*%
%ADD20RoundRect,0.147500X0.172500X-0.147500X0.172500X0.147500X-0.172500X0.147500X-0.172500X-0.147500X0*%
%ADD21RoundRect,0.150000X0.825000X0.150000X-0.825000X0.150000X-0.825000X-0.150000X0.825000X-0.150000X0*%
%ADD22RoundRect,0.135000X-0.185000X0.135000X-0.185000X-0.135000X0.185000X-0.135000X0.185000X0.135000X0*%
%ADD23RoundRect,0.140000X0.170000X-0.140000X0.170000X0.140000X-0.170000X0.140000X-0.170000X-0.140000X0*%
%ADD24RoundRect,0.140000X-0.170000X0.140000X-0.170000X-0.140000X0.170000X-0.140000X0.170000X0.140000X0*%
%ADD25C,0.990600*%
G04 APERTURE END LIST*
D10*
%TO.C,Q1*%
X19085600Y4163300D03*
X17185600Y4163300D03*
X18135600Y2288300D03*
%TD*%
D11*
%TO.C,R10*%
X1524000Y5903500D03*
X1524000Y8828500D03*
%TD*%
D12*
%TO.C,IC1*%
X13350000Y5624000D03*
X13750000Y5624000D03*
X14150000Y5624000D03*
X14550000Y5624000D03*
X14950000Y5624000D03*
D13*
X15600000Y6274000D03*
X15600000Y6674000D03*
X15600000Y7074000D03*
X15600000Y7474000D03*
X15600000Y7874000D03*
D12*
X14950000Y8524000D03*
X14550000Y8524000D03*
X14150000Y8524000D03*
X13750000Y8524000D03*
X13350000Y8524000D03*
D13*
X12700000Y7874000D03*
X12700000Y7474000D03*
X12700000Y7074000D03*
X12700000Y6674000D03*
X12700000Y6274000D03*
D14*
X14150000Y7074000D03*
%TD*%
D15*
%TO.C,R5*%
X17975000Y5640000D03*
X17975000Y6660000D03*
%TD*%
D16*
%TO.C,D5*%
X4560000Y1275000D03*
X3590000Y1275000D03*
%TD*%
D17*
%TO.C,C5*%
X5334000Y3556000D03*
X6294000Y3556000D03*
%TD*%
D18*
%TO.C,R9*%
X1524000Y4195000D03*
X1524000Y1270000D03*
%TD*%
D19*
%TO.C,D4*%
X17984000Y8604000D03*
X17984000Y7634000D03*
%TD*%
D20*
%TO.C,D6*%
X3525000Y7815000D03*
X3525000Y8785000D03*
%TD*%
D21*
%TO.C,U1*%
X10349000Y4953000D03*
X10349000Y6223000D03*
X10349000Y7493000D03*
X10349000Y8763000D03*
X5399000Y8763000D03*
X5399000Y7493000D03*
X5399000Y6223000D03*
X5399000Y4953000D03*
%TD*%
D19*
%TO.C,D3*%
X19000000Y8604000D03*
X19000000Y7634000D03*
%TD*%
D22*
%TO.C,R8*%
X19126200Y1983200D03*
X19126200Y963200D03*
%TD*%
D23*
%TO.C,C4*%
X14732000Y2596000D03*
X14732000Y3556000D03*
%TD*%
D15*
%TO.C,R1*%
X15748000Y506000D03*
X15748000Y1526000D03*
%TD*%
%TO.C,R4*%
X18975000Y5640000D03*
X18975000Y6660000D03*
%TD*%
D19*
%TO.C,D2*%
X14725000Y1485000D03*
X14725000Y515000D03*
%TD*%
D24*
%TO.C,C3*%
X16002000Y5560000D03*
X16002000Y4600000D03*
%TD*%
D23*
%TO.C,R6*%
X3302000Y4346000D03*
X3302000Y5306000D03*
%TD*%
D15*
%TO.C,R2*%
X15748000Y2538000D03*
X15748000Y3558000D03*
%TD*%
D25*
%TO.C,J1*%
X12960000Y2490000D03*
X7880000Y3506000D03*
X7880000Y1474000D03*
%TD*%
M02*
