%TF.GenerationSoftware,KiCad,Pcbnew,8.0.0*%
%TF.CreationDate,2024-03-21T22:32:16+01:00*%
%TF.ProjectId,WSxx5VController,57537878-3556-4436-9f6e-74726f6c6c65,rev?*%
%TF.SameCoordinates,Original*%
%TF.FileFunction,Copper,L2,Bot*%
%TF.FilePolarity,Positive*%
%FSLAX46Y46*%
G04 Gerber Fmt 4.6, Leading zero omitted, Abs format (unit mm)*
G04 Created by KiCad (PCBNEW 8.0.0) date 2024-03-21 22:32:16*
%MOMM*%
%LPD*%
G01*
G04 APERTURE LIST*
G04 Aperture macros list*
%AMRoundRect*
0 Rectangle with rounded corners*
0 $1 Rounding radius*
0 $2 $3 $4 $5 $6 $7 $8 $9 X,Y pos of 4 corners*
0 Add a 4 corners polygon primitive as box body*
4,1,4,$2,$3,$4,$5,$6,$7,$8,$9,$2,$3,0*
0 Add four circle primitives for the rounded corners*
1,1,$1+$1,$2,$3*
1,1,$1+$1,$4,$5*
1,1,$1+$1,$6,$7*
1,1,$1+$1,$8,$9*
0 Add four rect primitives between the rounded corners*
20,1,$1+$1,$2,$3,$4,$5,0*
20,1,$1+$1,$4,$5,$6,$7,0*
20,1,$1+$1,$6,$7,$8,$9,0*
20,1,$1+$1,$8,$9,$2,$3,0*%
G04 Aperture macros list end*
%TA.AperFunction,HeatsinkPad*%
%ADD10C,0.500000*%
%TD*%
%TA.AperFunction,HeatsinkPad*%
%ADD11R,1.650000X1.650000*%
%TD*%
%TA.AperFunction,SMDPad,CuDef*%
%ADD12RoundRect,0.500000X1.500000X-0.500000X1.500000X0.500000X-1.500000X0.500000X-1.500000X-0.500000X0*%
%TD*%
%TA.AperFunction,SMDPad,CuDef*%
%ADD13RoundRect,0.500000X-1.500000X0.500000X-1.500000X-0.500000X1.500000X-0.500000X1.500000X0.500000X0*%
%TD*%
%TA.AperFunction,ConnectorPad*%
%ADD14C,0.787400*%
%TD*%
%TA.AperFunction,ViaPad*%
%ADD15C,0.500000*%
%TD*%
%TA.AperFunction,Conductor*%
%ADD16C,0.250000*%
%TD*%
%TA.AperFunction,Conductor*%
%ADD17C,0.152400*%
%TD*%
G04 APERTURE END LIST*
D10*
%TO.P,IC1,21,Vss_Pad*%
%TO.N,GND*%
X13575000Y6499000D03*
X14725000Y6499000D03*
D11*
X14150000Y7074000D03*
D10*
X13575000Y7649000D03*
X14725000Y7649000D03*
%TD*%
D12*
%TO.P,J5,1,Pin_1*%
%TO.N,Net-(D6-A2)*%
X2413000Y7112000D03*
%TD*%
D13*
%TO.P,J3,1,Pin_1*%
%TO.N,GND*%
X17653000Y7620000D03*
%TD*%
%TO.P,J6,1,Pin_1*%
%TO.N,WSxx*%
X17653000Y4826000D03*
%TD*%
%TO.P,J2,1,Pin_1*%
%TO.N,VCC*%
X17780000Y2032000D03*
%TD*%
D14*
%TO.P,J1,1,Pin_1*%
%TO.N,+5V*%
X11690000Y1855000D03*
%TO.P,J1,2,Pin_2*%
%TO.N,SWD*%
X11690000Y3125000D03*
%TO.P,J1,3,Pin_3*%
%TO.N,NRST*%
X10420000Y1855000D03*
%TO.P,J1,4,Pin_4*%
%TO.N,unconnected-(J1-Pin_4-Pad4)*%
X10420000Y3125000D03*
%TO.P,J1,5,Pin_5*%
%TO.N,GND*%
X9150000Y1855000D03*
%TO.P,J1,6,Pin_6*%
%TO.N,unconnected-(J1-Pin_6-Pad6)*%
X9150000Y3125000D03*
%TD*%
D12*
%TO.P,J4,1,Pin_1*%
%TO.N,Net-(D5-A2)*%
X2413000Y3542000D03*
%TD*%
D15*
%TO.N,VCC*%
X16383000Y482600D03*
%TO.N,+5V*%
X11700000Y550000D03*
%TO.N,GND*%
X5200000Y1275000D03*
X14725000Y4150000D03*
X6850000Y3575000D03*
X5350000Y9440000D03*
X13900000Y550000D03*
%TO.N,NRST*%
X10425000Y1175000D03*
%TO.N,SWD*%
X12675000Y8423500D03*
X12675000Y5650000D03*
X11700000Y3800000D03*
%TO.N,VCC*%
X18135600Y1498600D03*
%TO.N,Net-(D5-A2)*%
X2810000Y1270000D03*
%TO.N,Net-(D6-A2)*%
X2740000Y8810000D03*
%TO.N,WSxx*%
X16975000Y6170500D03*
%TD*%
D16*
%TO.N,GND*%
X14725000Y8795400D02*
X14630400Y8890000D01*
X14725000Y7649000D02*
X14725000Y8795400D01*
D17*
X13575000Y7649000D02*
X13575000Y9067800D01*
X13575000Y9180800D02*
X13589000Y9194800D01*
X14725000Y5250800D02*
X14681200Y5207000D01*
X14725000Y6499000D02*
X14725000Y5250800D01*
X13575000Y5271800D02*
X13614400Y5232400D01*
X13575000Y6499000D02*
X13575000Y5271800D01*
%TO.N,VCC*%
X16383000Y482600D02*
X16383000Y1524000D01*
X17780000Y1854200D02*
X17780000Y2032000D01*
X18135600Y1498600D02*
X17780000Y1854200D01*
%TO.N,+5V*%
X11690000Y560000D02*
X11700000Y550000D01*
X11690000Y1855000D02*
X11690000Y560000D01*
D16*
%TO.N,GND*%
X17107000Y7074000D02*
X17653000Y7620000D01*
X17653000Y7620000D02*
X16046000Y7620000D01*
X17624000Y7649000D02*
X17653000Y7620000D01*
X14725000Y7649000D02*
X15500000Y7649000D01*
X15500000Y7649000D02*
X17624000Y7649000D01*
D17*
X9150000Y1855000D02*
X9150000Y700000D01*
X9150000Y700000D02*
X9100000Y650000D01*
D16*
X14150000Y7074000D02*
X17107000Y7074000D01*
D17*
%TO.N,NRST*%
X10425000Y1175000D02*
X10425000Y1850000D01*
X10425000Y1850000D02*
X10420000Y1855000D01*
%TO.N,SWD*%
X11690000Y3125000D02*
X11690000Y3960000D01*
X12675000Y8423500D02*
X12675000Y5650000D01*
X11690000Y3960000D02*
X11675000Y3975000D01*
%TO.N,Net-(D5-A2)*%
X2810000Y1270000D02*
X2810000Y3145000D01*
X2810000Y3145000D02*
X2413000Y3542000D01*
%TO.N,Net-(D6-A2)*%
X2740000Y7439000D02*
X2413000Y7112000D01*
X2740000Y8810000D02*
X2740000Y7439000D01*
%TO.N,WSxx*%
X16975000Y5504000D02*
X17653000Y4826000D01*
X16975000Y6170500D02*
X16975000Y5504000D01*
%TD*%
%TA.AperFunction,Conductor*%
%TO.N,GND*%
G36*
X20443039Y9980315D02*
G01*
X20488794Y9927511D01*
X20500000Y9876000D01*
X20500000Y124000D01*
X20480315Y56961D01*
X20427511Y11206D01*
X20376000Y0D01*
X16898603Y0D01*
X16831564Y19685D01*
X16785809Y72489D01*
X16775865Y141647D01*
X16804890Y205203D01*
X16808377Y209227D01*
X16868165Y340143D01*
X16888647Y482600D01*
X16868165Y625057D01*
X16868165Y625058D01*
X16866903Y633835D01*
X16868897Y634122D01*
X16868892Y692424D01*
X16906661Y751206D01*
X16970214Y780237D01*
X16987873Y781501D01*
X19330002Y781501D01*
X19330008Y781501D01*
X19432797Y792001D01*
X19599334Y847186D01*
X19748656Y939288D01*
X19872712Y1063344D01*
X19964814Y1212666D01*
X20019999Y1379203D01*
X20030500Y1481991D01*
X20030499Y2582008D01*
X20019999Y2684797D01*
X19964814Y2851334D01*
X19872712Y3000656D01*
X19748656Y3124712D01*
X19599334Y3216814D01*
X19432797Y3271999D01*
X19432795Y3272000D01*
X19330010Y3282500D01*
X16229998Y3282500D01*
X16229981Y3282499D01*
X16127203Y3272000D01*
X16127200Y3271999D01*
X15960668Y3216815D01*
X15960663Y3216813D01*
X15811342Y3124711D01*
X15687289Y3000658D01*
X15595187Y2851337D01*
X15595185Y2851332D01*
X15585938Y2823426D01*
X15540001Y2684797D01*
X15540001Y2684796D01*
X15540000Y2684796D01*
X15529500Y2582017D01*
X15529500Y1481999D01*
X15529501Y1481981D01*
X15540000Y1379204D01*
X15540001Y1379201D01*
X15567896Y1295021D01*
X15595186Y1212666D01*
X15687288Y1063344D01*
X15811344Y939288D01*
X15894727Y887857D01*
X15897617Y886075D01*
X15944342Y834127D01*
X15955565Y765165D01*
X15945315Y729025D01*
X15897835Y625059D01*
X15897834Y625058D01*
X15877353Y482600D01*
X15897834Y340144D01*
X15926841Y276629D01*
X15957623Y209227D01*
X15961110Y205203D01*
X15990135Y141647D01*
X15980191Y72489D01*
X15934436Y19685D01*
X15867397Y0D01*
X12157201Y0D01*
X12090162Y19685D01*
X12044407Y72489D01*
X12034463Y141647D01*
X12063488Y205202D01*
X12125374Y276623D01*
X12125374Y276625D01*
X12125377Y276627D01*
X12185165Y407543D01*
X12205647Y550000D01*
X12185165Y692457D01*
X12125377Y823373D01*
X12125375Y823375D01*
X12125374Y823378D01*
X12046987Y913842D01*
X12017962Y977398D01*
X12016700Y995044D01*
X12016700Y1227982D01*
X12036385Y1295021D01*
X12058473Y1320798D01*
X12058630Y1320938D01*
X12058635Y1320940D01*
X12175732Y1424679D01*
X12264600Y1553427D01*
X12320074Y1699701D01*
X12331808Y1796341D01*
X12359430Y1860518D01*
X12417364Y1899575D01*
X12487216Y1901110D01*
X12523795Y1884496D01*
X12606724Y1829084D01*
X12606730Y1829081D01*
X12606731Y1829080D01*
X12742458Y1772860D01*
X12886540Y1744201D01*
X12886544Y1744200D01*
X12886545Y1744200D01*
X13033456Y1744200D01*
X13033457Y1744201D01*
X13177542Y1772860D01*
X13313269Y1829080D01*
X13435420Y1910699D01*
X13539301Y2014580D01*
X13620920Y2136731D01*
X13677140Y2272458D01*
X13705800Y2416545D01*
X13705800Y2563455D01*
X13677140Y2707542D01*
X13620920Y2843269D01*
X13620919Y2843270D01*
X13620916Y2843276D01*
X13539301Y2965420D01*
X13539298Y2965424D01*
X13435423Y3069299D01*
X13435419Y3069302D01*
X13313275Y3150917D01*
X13313266Y3150922D01*
X13177544Y3207139D01*
X13177545Y3207139D01*
X13177542Y3207140D01*
X13177538Y3207141D01*
X13177534Y3207142D01*
X13033459Y3235800D01*
X13033455Y3235800D01*
X12886545Y3235800D01*
X12886540Y3235800D01*
X12742465Y3207142D01*
X12742455Y3207139D01*
X12606733Y3150922D01*
X12606719Y3150914D01*
X12523794Y3095505D01*
X12457117Y3074627D01*
X12389737Y3093112D01*
X12343047Y3145091D01*
X12331808Y3183661D01*
X12327783Y3216813D01*
X12320074Y3280299D01*
X12320073Y3280301D01*
X12320073Y3280303D01*
X12294865Y3346769D01*
X12264600Y3426573D01*
X12193296Y3529875D01*
X12171414Y3596227D01*
X12182552Y3651824D01*
X12185165Y3657543D01*
X12205647Y3800000D01*
X12185165Y3942457D01*
X12125377Y4073373D01*
X12031128Y4182143D01*
X11910053Y4259953D01*
X11910051Y4259954D01*
X11910049Y4259955D01*
X11910050Y4259955D01*
X11771963Y4300500D01*
X11771961Y4300500D01*
X11735253Y4300500D01*
X11719066Y4301561D01*
X11718011Y4301700D01*
X11631989Y4301700D01*
X11548897Y4279436D01*
X11541394Y4276328D01*
X11541160Y4276892D01*
X11527023Y4270841D01*
X11489949Y4259954D01*
X11489947Y4259953D01*
X11368873Y4182144D01*
X11274623Y4073374D01*
X11274622Y4073372D01*
X11214834Y3942457D01*
X11194353Y3800000D01*
X11214834Y3657544D01*
X11216084Y3653289D01*
X11216083Y3648857D01*
X11216097Y3648765D01*
X11216083Y3648764D01*
X11216082Y3583419D01*
X11199157Y3547917D01*
X11157051Y3486915D01*
X11102768Y3442924D01*
X11033319Y3435264D01*
X10970754Y3466367D01*
X10952950Y3486914D01*
X10923297Y3529873D01*
X10905732Y3555321D01*
X10905729Y3555324D01*
X10905727Y3555326D01*
X10788636Y3659060D01*
X10650112Y3731762D01*
X10498220Y3769200D01*
X10341780Y3769200D01*
X10189887Y3731762D01*
X10051363Y3659060D01*
X9934272Y3555326D01*
X9934266Y3555319D01*
X9887050Y3486914D01*
X9832767Y3442924D01*
X9763318Y3435264D01*
X9700754Y3466367D01*
X9682950Y3486914D01*
X9653297Y3529873D01*
X9635732Y3555321D01*
X9635729Y3555324D01*
X9635727Y3555326D01*
X9518636Y3659060D01*
X9380112Y3731762D01*
X9228220Y3769200D01*
X9071780Y3769200D01*
X8919887Y3731762D01*
X8774723Y3655574D01*
X8773559Y3657791D01*
X8718608Y3639687D01*
X8650962Y3657173D01*
X8603508Y3708456D01*
X8599716Y3718016D01*
X8599471Y3717914D01*
X8593735Y3731761D01*
X8541718Y3857343D01*
X8540921Y3859267D01*
X8540916Y3859276D01*
X8459301Y3981420D01*
X8459298Y3981424D01*
X8355423Y4085299D01*
X8355419Y4085302D01*
X8233275Y4166917D01*
X8233266Y4166922D01*
X8097544Y4223139D01*
X8097545Y4223139D01*
X8097542Y4223140D01*
X8097538Y4223141D01*
X8097534Y4223142D01*
X7953459Y4251800D01*
X7953455Y4251800D01*
X7806545Y4251800D01*
X7806540Y4251800D01*
X7662465Y4223142D01*
X7662455Y4223139D01*
X7526733Y4166922D01*
X7526724Y4166917D01*
X7404580Y4085302D01*
X7404576Y4085299D01*
X7300701Y3981424D01*
X7300698Y3981420D01*
X7219083Y3859276D01*
X7219078Y3859267D01*
X7162861Y3723545D01*
X7162858Y3723535D01*
X7134200Y3579460D01*
X7134200Y3432541D01*
X7162858Y3288466D01*
X7162860Y3288458D01*
X7169677Y3272000D01*
X7219078Y3152734D01*
X7219083Y3152725D01*
X7300698Y3030581D01*
X7300701Y3030577D01*
X7404576Y2926702D01*
X7404580Y2926699D01*
X7526724Y2845084D01*
X7526730Y2845081D01*
X7526731Y2845080D01*
X7662458Y2788860D01*
X7806540Y2760201D01*
X7806544Y2760200D01*
X7806545Y2760200D01*
X7953456Y2760200D01*
X7953457Y2760201D01*
X8097542Y2788860D01*
X8233269Y2845080D01*
X8355420Y2926699D01*
X8359907Y2930381D01*
X8424217Y2957694D01*
X8493084Y2945903D01*
X8544645Y2898751D01*
X8554514Y2878499D01*
X8575400Y2823427D01*
X8664268Y2694679D01*
X8666292Y2692886D01*
X8667347Y2691204D01*
X8669242Y2689065D01*
X8668886Y2688751D01*
X8670625Y2685978D01*
X8671601Y2686953D01*
X9113681Y2244873D01*
X9147166Y2183550D01*
X9150000Y2157192D01*
X9150000Y1855000D01*
X9452191Y1855000D01*
X9519230Y1835315D01*
X9539872Y1818681D01*
X9910795Y1447759D01*
X9944280Y1386436D01*
X9942092Y1325147D01*
X9939835Y1317462D01*
X9919353Y1175000D01*
X9939834Y1032544D01*
X9998118Y904923D01*
X9999623Y901627D01*
X10093872Y792857D01*
X10214947Y715047D01*
X10214950Y715046D01*
X10214949Y715046D01*
X10353036Y674501D01*
X10353038Y674500D01*
X10353039Y674500D01*
X10496962Y674500D01*
X10496962Y674501D01*
X10635053Y715047D01*
X10756128Y792857D01*
X10850377Y901627D01*
X10910165Y1032543D01*
X10930647Y1175000D01*
X10910165Y1317457D01*
X10908169Y1321826D01*
X10898226Y1390983D01*
X10918914Y1443777D01*
X10921663Y1447759D01*
X10952951Y1493088D01*
X11007232Y1537077D01*
X11076681Y1544737D01*
X11139246Y1513634D01*
X11157047Y1493090D01*
X11177141Y1463979D01*
X11204266Y1424681D01*
X11204267Y1424680D01*
X11204268Y1424679D01*
X11321365Y1320940D01*
X11321369Y1320938D01*
X11321527Y1320798D01*
X11358654Y1261608D01*
X11363300Y1227982D01*
X11363300Y971962D01*
X11343615Y904923D01*
X11333013Y890760D01*
X11274625Y823378D01*
X11274622Y823372D01*
X11214834Y692457D01*
X11194353Y550000D01*
X11214834Y407544D01*
X11274622Y276629D01*
X11274625Y276623D01*
X11336512Y205202D01*
X11365537Y141647D01*
X11355593Y72488D01*
X11309838Y19684D01*
X11242799Y0D01*
X124000Y0D01*
X56961Y19685D01*
X11206Y72489D01*
X0Y124000D01*
X0Y2655377D01*
X19685Y2722416D01*
X72489Y2768171D01*
X141647Y2778115D01*
X205203Y2749090D01*
X229537Y2720475D01*
X247592Y2691204D01*
X314947Y2582002D01*
X320288Y2573344D01*
X444344Y2449288D01*
X593666Y2357186D01*
X760203Y2302001D01*
X862991Y2291500D01*
X2359300Y2291501D01*
X2426339Y2271816D01*
X2472094Y2219013D01*
X2483300Y2167501D01*
X2483300Y1703503D01*
X2463615Y1636464D01*
X2453013Y1622301D01*
X2384625Y1543378D01*
X2384622Y1543372D01*
X2324834Y1412457D01*
X2304353Y1270000D01*
X2324834Y1127544D01*
X2382918Y1000361D01*
X2384623Y996627D01*
X2478872Y887857D01*
X2599947Y810047D01*
X2599950Y810046D01*
X2599949Y810046D01*
X2738036Y769501D01*
X2738038Y769500D01*
X2738039Y769500D01*
X2881962Y769500D01*
X2881962Y769501D01*
X3020053Y810047D01*
X3141128Y887857D01*
X3235377Y996627D01*
X3295165Y1127543D01*
X3315647Y1270000D01*
X3296878Y1400541D01*
X7134200Y1400541D01*
X7162858Y1256466D01*
X7162861Y1256456D01*
X7219078Y1120734D01*
X7219083Y1120725D01*
X7300698Y998581D01*
X7300701Y998577D01*
X7404576Y894702D01*
X7404580Y894699D01*
X7526724Y813084D01*
X7526733Y813079D01*
X7551800Y802696D01*
X7662458Y756860D01*
X7802397Y729025D01*
X7806540Y728201D01*
X7806544Y728200D01*
X7806545Y728200D01*
X7953456Y728200D01*
X7953457Y728201D01*
X8097542Y756860D01*
X8233269Y813080D01*
X8355420Y894699D01*
X8459301Y998580D01*
X8501708Y1062048D01*
X8555319Y1106852D01*
X8624643Y1115561D01*
X8677696Y1093475D01*
X8700688Y1076770D01*
X8872305Y1000361D01*
X8872310Y1000359D01*
X9056068Y961300D01*
X9243932Y961300D01*
X9427689Y1000359D01*
X9427694Y1000361D01*
X9582264Y1069181D01*
X9582264Y1069182D01*
X9150000Y1501447D01*
X8366356Y2285091D01*
X8366355Y2285090D01*
X8325817Y2214875D01*
X8323553Y2216183D01*
X8285792Y2171815D01*
X8218930Y2151537D01*
X8170379Y2160970D01*
X8097540Y2191141D01*
X8097534Y2191142D01*
X7953459Y2219800D01*
X7953455Y2219800D01*
X7806545Y2219800D01*
X7806540Y2219800D01*
X7662465Y2191142D01*
X7662455Y2191139D01*
X7526733Y2134922D01*
X7526724Y2134917D01*
X7404580Y2053302D01*
X7404576Y2053299D01*
X7300701Y1949424D01*
X7300698Y1949420D01*
X7219083Y1827276D01*
X7219078Y1827267D01*
X7162861Y1691545D01*
X7162858Y1691535D01*
X7134200Y1547460D01*
X7134200Y1400541D01*
X3296878Y1400541D01*
X3295165Y1412457D01*
X3235377Y1543373D01*
X3235375Y1543375D01*
X3235374Y1543378D01*
X3166987Y1622301D01*
X3137962Y1685857D01*
X3136700Y1703503D01*
X3136700Y2167501D01*
X3156385Y2234540D01*
X3209189Y2280295D01*
X3260700Y2291501D01*
X3963002Y2291501D01*
X3963008Y2291501D01*
X4065797Y2302001D01*
X4232334Y2357186D01*
X4381656Y2449288D01*
X4505712Y2573344D01*
X4597814Y2722666D01*
X4652999Y2889203D01*
X4663500Y2991991D01*
X4663499Y4092008D01*
X4655846Y4166922D01*
X4652999Y4194797D01*
X4652998Y4194800D01*
X4631408Y4259954D01*
X4597814Y4361334D01*
X4505712Y4510656D01*
X4381656Y4634712D01*
X4232334Y4726814D01*
X4065797Y4781999D01*
X4065795Y4782000D01*
X3963010Y4792500D01*
X862998Y4792500D01*
X862981Y4792499D01*
X760203Y4782000D01*
X760200Y4781999D01*
X593668Y4726815D01*
X593663Y4726813D01*
X444342Y4634711D01*
X320289Y4510658D01*
X320288Y4510656D01*
X246788Y4391492D01*
X229539Y4363527D01*
X177591Y4316803D01*
X108628Y4305580D01*
X44546Y4333424D01*
X5690Y4391492D01*
X0Y4428624D01*
X0Y5650000D01*
X12169353Y5650000D01*
X12189834Y5507544D01*
X12202963Y5478797D01*
X12249623Y5376627D01*
X12343872Y5267857D01*
X12464947Y5190047D01*
X12464950Y5190046D01*
X12464949Y5190046D01*
X12603036Y5149501D01*
X12603038Y5149500D01*
X12603039Y5149500D01*
X12746962Y5149500D01*
X12746962Y5149501D01*
X12885053Y5190047D01*
X13006128Y5267857D01*
X13100377Y5376627D01*
X13160165Y5507543D01*
X13180647Y5650000D01*
X13180582Y5650452D01*
X13180647Y5650904D01*
X13180647Y5658869D01*
X13181792Y5658869D01*
X13190523Y5719610D01*
X13236276Y5772416D01*
X13303314Y5792103D01*
X13344275Y5785144D01*
X13407048Y5763178D01*
X13407058Y5763176D01*
X13574996Y5744254D01*
X13575004Y5744254D01*
X13742943Y5763176D01*
X13901713Y5818733D01*
X13901714Y5818734D01*
X14398285Y5818734D01*
X14557056Y5763176D01*
X14724996Y5744254D01*
X14725004Y5744254D01*
X14892943Y5763176D01*
X15051713Y5818733D01*
X15051714Y5818734D01*
X14725001Y6145447D01*
X14725000Y6145447D01*
X14398285Y5818734D01*
X13901714Y5818734D01*
X13309128Y6411320D01*
X13275643Y6472643D01*
X13276105Y6479109D01*
X13475000Y6479109D01*
X13490224Y6442355D01*
X13518355Y6414224D01*
X13555109Y6399000D01*
X13594891Y6399000D01*
X13631645Y6414224D01*
X13659776Y6442355D01*
X13675000Y6479109D01*
X13675000Y6518891D01*
X13659776Y6555645D01*
X13631645Y6583776D01*
X13594891Y6599000D01*
X13555109Y6599000D01*
X13518355Y6583776D01*
X13490224Y6555645D01*
X13475000Y6518891D01*
X13475000Y6479109D01*
X13276105Y6479109D01*
X13280627Y6542335D01*
X13309128Y6586682D01*
X13487319Y6764872D01*
X13548642Y6798357D01*
X13618334Y6793373D01*
X13662681Y6764872D01*
X14149999Y6277554D01*
X14351554Y6479109D01*
X14625000Y6479109D01*
X14640224Y6442355D01*
X14668355Y6414224D01*
X14705109Y6399000D01*
X14744891Y6399000D01*
X14781645Y6414224D01*
X14809776Y6442355D01*
X14825000Y6479109D01*
X14825000Y6518891D01*
X14809776Y6555645D01*
X14781645Y6583776D01*
X14744891Y6599000D01*
X14705109Y6599000D01*
X14668355Y6583776D01*
X14640224Y6555645D01*
X14625000Y6518891D01*
X14625000Y6479109D01*
X14351554Y6479109D01*
X14637318Y6764872D01*
X14698641Y6798357D01*
X14768332Y6793373D01*
X14812680Y6764872D01*
X15405265Y6172287D01*
X15420060Y6214566D01*
X15460782Y6271342D01*
X15525735Y6297089D01*
X15594296Y6283633D01*
X15594513Y6283520D01*
X15770105Y6191799D01*
X15820413Y6143312D01*
X15836520Y6075325D01*
X15813314Y6009421D01*
X15777791Y5976352D01*
X15684347Y5918715D01*
X15684343Y5918712D01*
X15560289Y5794658D01*
X15468187Y5645337D01*
X15468186Y5645334D01*
X15413001Y5478797D01*
X15413001Y5478796D01*
X15413000Y5478796D01*
X15402500Y5376017D01*
X15402500Y4275999D01*
X15402501Y4275981D01*
X15413000Y4173204D01*
X15413001Y4173201D01*
X15446081Y4073374D01*
X15468186Y4006666D01*
X15560288Y3857344D01*
X15684344Y3733288D01*
X15833666Y3641186D01*
X16000203Y3586001D01*
X16102991Y3575500D01*
X19203008Y3575501D01*
X19305797Y3586001D01*
X19472334Y3641186D01*
X19621656Y3733288D01*
X19745712Y3857344D01*
X19837814Y4006666D01*
X19892999Y4173203D01*
X19903500Y4275991D01*
X19903499Y5376008D01*
X19892999Y5478797D01*
X19837814Y5645334D01*
X19745712Y5794656D01*
X19621656Y5918712D01*
X19528208Y5976351D01*
X19481483Y6028299D01*
X19470262Y6097262D01*
X19498105Y6161344D01*
X19535894Y6191799D01*
X19706129Y6280722D01*
X19863753Y6409247D01*
X19992278Y6566871D01*
X20086442Y6747139D01*
X20142390Y6942672D01*
X20142391Y6942675D01*
X20152999Y7062000D01*
X20153000Y7062002D01*
X20153000Y7370000D01*
X17527000Y7370000D01*
X17459961Y7389685D01*
X17414206Y7442489D01*
X17403000Y7494000D01*
X17403000Y9120000D01*
X17903000Y9120000D01*
X17903000Y7870000D01*
X20153000Y7870000D01*
X20153000Y8177998D01*
X20152999Y8178001D01*
X20142391Y8297326D01*
X20142390Y8297329D01*
X20086442Y8492862D01*
X19992278Y8673130D01*
X19863753Y8830754D01*
X19706129Y8959279D01*
X19525861Y9053443D01*
X19330328Y9109391D01*
X19330325Y9109392D01*
X19211000Y9120000D01*
X17903000Y9120000D01*
X17403000Y9120000D01*
X16094999Y9120000D01*
X15975674Y9109392D01*
X15975671Y9109391D01*
X15780138Y9053443D01*
X15599870Y8959279D01*
X15442246Y8830754D01*
X15313721Y8673130D01*
X15219557Y8492863D01*
X15197879Y8417099D01*
X15160511Y8358061D01*
X15097157Y8328598D01*
X15037708Y8334169D01*
X14892946Y8384824D01*
X14892941Y8384825D01*
X14725004Y8403746D01*
X14724996Y8403746D01*
X14557058Y8384825D01*
X14557053Y8384824D01*
X14398285Y8329268D01*
X14990872Y7736681D01*
X15024357Y7675358D01*
X15019373Y7605666D01*
X14990872Y7561319D01*
X14812681Y7383128D01*
X14751358Y7349643D01*
X14681666Y7354627D01*
X14637319Y7383128D01*
X14391338Y7629109D01*
X14625000Y7629109D01*
X14640224Y7592355D01*
X14668355Y7564224D01*
X14705109Y7549000D01*
X14744891Y7549000D01*
X14781645Y7564224D01*
X14809776Y7592355D01*
X14825000Y7629109D01*
X14825000Y7668891D01*
X14809776Y7705645D01*
X14781645Y7733776D01*
X14744891Y7749000D01*
X14705109Y7749000D01*
X14668355Y7733776D01*
X14640224Y7705645D01*
X14625000Y7668891D01*
X14625000Y7629109D01*
X14391338Y7629109D01*
X14150000Y7870447D01*
X13662681Y7383128D01*
X13601358Y7349643D01*
X13531666Y7354627D01*
X13487319Y7383128D01*
X13309127Y7561320D01*
X13275642Y7622643D01*
X13276104Y7629109D01*
X13475000Y7629109D01*
X13490224Y7592355D01*
X13518355Y7564224D01*
X13555109Y7549000D01*
X13594891Y7549000D01*
X13631645Y7564224D01*
X13659776Y7592355D01*
X13675000Y7629109D01*
X13675000Y7668891D01*
X13659776Y7705645D01*
X13631645Y7733776D01*
X13594891Y7749000D01*
X13555109Y7749000D01*
X13518355Y7733776D01*
X13490224Y7705645D01*
X13475000Y7668891D01*
X13475000Y7629109D01*
X13276104Y7629109D01*
X13280626Y7692335D01*
X13309127Y7736682D01*
X13901713Y8329268D01*
X13742943Y8384824D01*
X13742938Y8384825D01*
X13575004Y8403746D01*
X13574996Y8403746D01*
X13407058Y8384825D01*
X13407050Y8384823D01*
X13339031Y8361022D01*
X13269252Y8357461D01*
X13208625Y8392190D01*
X13176398Y8454184D01*
X13175339Y8460417D01*
X13160165Y8565957D01*
X13100377Y8696873D01*
X13006128Y8805643D01*
X12885053Y8883453D01*
X12885051Y8883454D01*
X12885049Y8883455D01*
X12885050Y8883455D01*
X12746963Y8924000D01*
X12746961Y8924000D01*
X12603039Y8924000D01*
X12603036Y8924000D01*
X12464949Y8883455D01*
X12343873Y8805644D01*
X12249623Y8696874D01*
X12249622Y8696872D01*
X12189834Y8565957D01*
X12169353Y8423500D01*
X12189834Y8281044D01*
X12249622Y8150129D01*
X12249623Y8150127D01*
X12318013Y8071200D01*
X12347038Y8007645D01*
X12348300Y7989998D01*
X12348300Y6083503D01*
X12328615Y6016464D01*
X12318013Y6002301D01*
X12249625Y5923378D01*
X12249622Y5923372D01*
X12189834Y5792457D01*
X12169353Y5650000D01*
X0Y5650000D01*
X0Y6225377D01*
X19685Y6292416D01*
X72489Y6338171D01*
X141647Y6348115D01*
X205203Y6319090D01*
X229537Y6290475D01*
X235553Y6280722D01*
X318990Y6145447D01*
X320288Y6143344D01*
X444344Y6019288D01*
X593666Y5927186D01*
X760203Y5872001D01*
X862991Y5861500D01*
X3963008Y5861501D01*
X4065797Y5872001D01*
X4232334Y5927186D01*
X4381656Y6019288D01*
X4505712Y6143344D01*
X4597814Y6292666D01*
X4652999Y6459203D01*
X4663500Y6561991D01*
X4663499Y7662008D01*
X4659041Y7705645D01*
X4652999Y7764797D01*
X4652998Y7764800D01*
X4607062Y7903424D01*
X4597814Y7931334D01*
X4505712Y8080656D01*
X4381656Y8204712D01*
X4257903Y8281043D01*
X4232336Y8296813D01*
X4232331Y8296815D01*
X4230780Y8297329D01*
X4065797Y8351999D01*
X4065795Y8352000D01*
X3963016Y8362500D01*
X3963009Y8362500D01*
X3278804Y8362500D01*
X3211765Y8382185D01*
X3166010Y8434989D01*
X3156066Y8504147D01*
X3166010Y8538012D01*
X3225165Y8667544D01*
X3229382Y8696874D01*
X3245647Y8810000D01*
X3225165Y8952457D01*
X3165377Y9083373D01*
X3071128Y9192143D01*
X2950053Y9269953D01*
X2950051Y9269954D01*
X2950049Y9269955D01*
X2950050Y9269955D01*
X2811963Y9310500D01*
X2811961Y9310500D01*
X2668039Y9310500D01*
X2668036Y9310500D01*
X2529949Y9269955D01*
X2408873Y9192144D01*
X2314623Y9083374D01*
X2314622Y9083372D01*
X2254834Y8952457D01*
X2234353Y8810000D01*
X2254834Y8667544D01*
X2313990Y8538012D01*
X2323934Y8468853D01*
X2294909Y8405297D01*
X2236131Y8367523D01*
X2201196Y8362500D01*
X862998Y8362500D01*
X862981Y8362499D01*
X760203Y8352000D01*
X760200Y8351999D01*
X593668Y8296815D01*
X593663Y8296813D01*
X444342Y8204711D01*
X320289Y8080658D01*
X284260Y8022246D01*
X246788Y7961492D01*
X229539Y7933527D01*
X177591Y7886803D01*
X108628Y7875580D01*
X44546Y7903424D01*
X5690Y7961492D01*
X0Y7998624D01*
X0Y9876000D01*
X19685Y9943039D01*
X72489Y9988794D01*
X124000Y10000000D01*
X20376000Y10000000D01*
X20443039Y9980315D01*
G37*
%TD.AperFunction*%
%TD*%
M02*
