%TF.GenerationSoftware,KiCad,Pcbnew,8.0.0*%
%TF.CreationDate,2024-03-21T22:32:16+01:00*%
%TF.ProjectId,WSxx5VController,57537878-3556-4436-9f6e-74726f6c6c65,rev?*%
%TF.SameCoordinates,Original*%
%TF.FileFunction,Copper,L1,Top*%
%TF.FilePolarity,Positive*%
%FSLAX46Y46*%
G04 Gerber Fmt 4.6, Leading zero omitted, Abs format (unit mm)*
G04 Created by KiCad (PCBNEW 8.0.0) date 2024-03-21 22:32:16*
%MOMM*%
%LPD*%
G01*
G04 APERTURE LIST*
G04 Aperture macros list*
%AMRoundRect*
0 Rectangle with rounded corners*
0 $1 Rounding radius*
0 $2 $3 $4 $5 $6 $7 $8 $9 X,Y pos of 4 corners*
0 Add a 4 corners polygon primitive as box body*
4,1,4,$2,$3,$4,$5,$6,$7,$8,$9,$2,$3,0*
0 Add four circle primitives for the rounded corners*
1,1,$1+$1,$2,$3*
1,1,$1+$1,$4,$5*
1,1,$1+$1,$6,$7*
1,1,$1+$1,$8,$9*
0 Add four rect primitives between the rounded corners*
20,1,$1+$1,$2,$3,$4,$5,0*
20,1,$1+$1,$4,$5,$6,$7,0*
20,1,$1+$1,$6,$7,$8,$9,0*
20,1,$1+$1,$8,$9,$2,$3,0*%
G04 Aperture macros list end*
%TA.AperFunction,SMDPad,CuDef*%
%ADD10RoundRect,0.150000X-0.150000X0.587500X-0.150000X-0.587500X0.150000X-0.587500X0.150000X0.587500X0*%
%TD*%
%TA.AperFunction,SMDPad,CuDef*%
%ADD11RoundRect,0.250000X0.625000X-0.312500X0.625000X0.312500X-0.625000X0.312500X-0.625000X-0.312500X0*%
%TD*%
%TA.AperFunction,SMDPad,CuDef*%
%ADD12RoundRect,0.050000X0.050000X-0.375000X0.050000X0.375000X-0.050000X0.375000X-0.050000X-0.375000X0*%
%TD*%
%TA.AperFunction,SMDPad,CuDef*%
%ADD13RoundRect,0.050000X0.375000X-0.050000X0.375000X0.050000X-0.375000X0.050000X-0.375000X-0.050000X0*%
%TD*%
%TA.AperFunction,HeatsinkPad*%
%ADD14C,0.500000*%
%TD*%
%TA.AperFunction,HeatsinkPad*%
%ADD15R,1.650000X1.650000*%
%TD*%
%TA.AperFunction,SMDPad,CuDef*%
%ADD16RoundRect,0.135000X0.185000X-0.135000X0.185000X0.135000X-0.185000X0.135000X-0.185000X-0.135000X0*%
%TD*%
%TA.AperFunction,SMDPad,CuDef*%
%ADD17RoundRect,0.147500X0.147500X0.172500X-0.147500X0.172500X-0.147500X-0.172500X0.147500X-0.172500X0*%
%TD*%
%TA.AperFunction,SMDPad,CuDef*%
%ADD18RoundRect,0.140000X-0.140000X-0.170000X0.140000X-0.170000X0.140000X0.170000X-0.140000X0.170000X0*%
%TD*%
%TA.AperFunction,SMDPad,CuDef*%
%ADD19RoundRect,0.250000X-0.625000X0.312500X-0.625000X-0.312500X0.625000X-0.312500X0.625000X0.312500X0*%
%TD*%
%TA.AperFunction,SMDPad,CuDef*%
%ADD20RoundRect,0.147500X-0.172500X0.147500X-0.172500X-0.147500X0.172500X-0.147500X0.172500X0.147500X0*%
%TD*%
%TA.AperFunction,SMDPad,CuDef*%
%ADD21RoundRect,0.147500X0.172500X-0.147500X0.172500X0.147500X-0.172500X0.147500X-0.172500X-0.147500X0*%
%TD*%
%TA.AperFunction,SMDPad,CuDef*%
%ADD22RoundRect,0.150000X0.825000X0.150000X-0.825000X0.150000X-0.825000X-0.150000X0.825000X-0.150000X0*%
%TD*%
%TA.AperFunction,SMDPad,CuDef*%
%ADD23RoundRect,0.135000X-0.185000X0.135000X-0.185000X-0.135000X0.185000X-0.135000X0.185000X0.135000X0*%
%TD*%
%TA.AperFunction,SMDPad,CuDef*%
%ADD24RoundRect,0.140000X0.170000X-0.140000X0.170000X0.140000X-0.170000X0.140000X-0.170000X-0.140000X0*%
%TD*%
%TA.AperFunction,SMDPad,CuDef*%
%ADD25RoundRect,0.140000X-0.170000X0.140000X-0.170000X-0.140000X0.170000X-0.140000X0.170000X0.140000X0*%
%TD*%
%TA.AperFunction,ViaPad*%
%ADD26C,0.500000*%
%TD*%
%TA.AperFunction,Conductor*%
%ADD27C,0.152400*%
%TD*%
%TA.AperFunction,Conductor*%
%ADD28C,0.250000*%
%TD*%
G04 APERTURE END LIST*
D10*
%TO.P,Q1,1,G*%
%TO.N,Net-(Q1-G)*%
X19085600Y4163300D03*
%TO.P,Q1,2,S*%
%TO.N,+5V*%
X17185600Y4163300D03*
%TO.P,Q1,3,D*%
%TO.N,VCC*%
X18135600Y2288300D03*
%TD*%
D11*
%TO.P,R10,1*%
%TO.N,A*%
X1524000Y5903500D03*
%TO.P,R10,2*%
%TO.N,Net-(D6-A2)*%
X1524000Y8828500D03*
%TD*%
D12*
%TO.P,IC1,1,PD7/NRST*%
%TO.N,NRST*%
X13350000Y5624000D03*
%TO.P,IC1,2,PA1/OSCI*%
%TO.N,unconnected-(IC1-PA1{slash}OSCI-Pad2)*%
X13750000Y5624000D03*
%TO.P,IC1,3,PA2/OSCO*%
%TO.N,unconnected-(IC1-PA2{slash}OSCO-Pad3)*%
X14150000Y5624000D03*
%TO.P,IC1,4,Vss*%
%TO.N,GND*%
X14550000Y5624000D03*
%TO.P,IC1,5,PD0*%
%TO.N,unconnected-(IC1-PD0-Pad5)*%
X14950000Y5624000D03*
D13*
%TO.P,IC1,6,VDD*%
%TO.N,+5V*%
X15600000Y6274000D03*
%TO.P,IC1,7,PC0*%
%TO.N,WSxx*%
X15600000Y6674000D03*
%TO.P,IC1,8,PC1*%
%TO.N,StateLed0*%
X15600000Y7074000D03*
%TO.P,IC1,9,PC2*%
%TO.N,StateLed1*%
X15600000Y7474000D03*
%TO.P,IC1,10,PC3*%
%TO.N,Voltage*%
X15600000Y7874000D03*
D12*
%TO.P,IC1,11,PC4*%
%TO.N,U2_DE*%
X14950000Y8524000D03*
%TO.P,IC1,12,PC5*%
%TO.N,U2_RE*%
X14550000Y8524000D03*
%TO.P,IC1,13,PC6*%
%TO.N,unconnected-(IC1-PC6-Pad13)*%
X14150000Y8524000D03*
%TO.P,IC1,14,PC7*%
%TO.N,unconnected-(IC1-PC7-Pad14)*%
X13750000Y8524000D03*
%TO.P,IC1,15,PD1*%
%TO.N,SWD*%
X13350000Y8524000D03*
D13*
%TO.P,IC1,16,PD2*%
%TO.N,unconnected-(IC1-PD2-Pad16)*%
X12700000Y7874000D03*
%TO.P,IC1,17,PD3*%
%TO.N,unconnected-(IC1-PD3-Pad17)*%
X12700000Y7474000D03*
%TO.P,IC1,18,PD4*%
%TO.N,unconnected-(IC1-PD4-Pad18)*%
X12700000Y7074000D03*
%TO.P,IC1,19,PD5*%
%TO.N,U2_DI*%
X12700000Y6674000D03*
%TO.P,IC1,20,PD6*%
%TO.N,U2_RO*%
X12700000Y6274000D03*
D14*
%TO.P,IC1,21,Vss_Pad*%
%TO.N,GND*%
X13575000Y6499000D03*
X14725000Y6499000D03*
D15*
X14150000Y7074000D03*
D14*
X13575000Y7649000D03*
X14725000Y7649000D03*
%TD*%
D16*
%TO.P,R5,1*%
%TO.N,+5V*%
X17975000Y5640000D03*
%TO.P,R5,2*%
%TO.N,Net-(D4-A)*%
X17975000Y6660000D03*
%TD*%
D17*
%TO.P,D5,1,A1*%
%TO.N,GND*%
X4560000Y1275000D03*
%TO.P,D5,2,A2*%
%TO.N,Net-(D5-A2)*%
X3590000Y1275000D03*
%TD*%
D18*
%TO.P,C5,1*%
%TO.N,+5V*%
X5334000Y3556000D03*
%TO.P,C5,2*%
%TO.N,GND*%
X6294000Y3556000D03*
%TD*%
D19*
%TO.P,R9,1*%
%TO.N,B*%
X1524000Y4195000D03*
%TO.P,R9,2*%
%TO.N,Net-(D5-A2)*%
X1524000Y1270000D03*
%TD*%
D20*
%TO.P,D4,1,K*%
%TO.N,StateLed0*%
X17984000Y8604000D03*
%TO.P,D4,2,A*%
%TO.N,Net-(D4-A)*%
X17984000Y7634000D03*
%TD*%
D21*
%TO.P,D6,1,A1*%
%TO.N,GND*%
X3525000Y7815000D03*
%TO.P,D6,2,A2*%
%TO.N,Net-(D6-A2)*%
X3525000Y8785000D03*
%TD*%
D22*
%TO.P,U1,1,RO*%
%TO.N,U2_RO*%
X10349000Y4953000D03*
%TO.P,U1,2,~{RE}*%
%TO.N,U2_RE*%
X10349000Y6223000D03*
%TO.P,U1,3,DE*%
%TO.N,U2_DE*%
X10349000Y7493000D03*
%TO.P,U1,4,DI*%
%TO.N,U2_DI*%
X10349000Y8763000D03*
%TO.P,U1,5,GND*%
%TO.N,GND*%
X5399000Y8763000D03*
%TO.P,U1,6,A*%
%TO.N,A*%
X5399000Y7493000D03*
%TO.P,U1,7,B*%
%TO.N,B*%
X5399000Y6223000D03*
%TO.P,U1,8,VCC*%
%TO.N,+5V*%
X5399000Y4953000D03*
%TD*%
D20*
%TO.P,D3,1,K*%
%TO.N,StateLed1*%
X19000000Y8604000D03*
%TO.P,D3,2,A*%
%TO.N,Net-(D3-A)*%
X19000000Y7634000D03*
%TD*%
D23*
%TO.P,R8,1*%
%TO.N,Net-(Q1-G)*%
X19126200Y1983200D03*
%TO.P,R8,2*%
%TO.N,GND*%
X19126200Y963200D03*
%TD*%
D24*
%TO.P,C4,1*%
%TO.N,Voltage*%
X14732000Y2596000D03*
%TO.P,C4,2*%
%TO.N,GND*%
X14732000Y3556000D03*
%TD*%
D16*
%TO.P,R1,1*%
%TO.N,VCC*%
X15748000Y506000D03*
%TO.P,R1,2*%
%TO.N,Voltage*%
X15748000Y1526000D03*
%TD*%
%TO.P,R4,1*%
%TO.N,+5V*%
X18975000Y5640000D03*
%TO.P,R4,2*%
%TO.N,Net-(D3-A)*%
X18975000Y6660000D03*
%TD*%
D20*
%TO.P,D2,1,K*%
%TO.N,Voltage*%
X14725000Y1485000D03*
%TO.P,D2,2,A*%
%TO.N,GND*%
X14725000Y515000D03*
%TD*%
D25*
%TO.P,C3,1*%
%TO.N,+5V*%
X16002000Y5560000D03*
%TO.P,C3,2*%
%TO.N,GND*%
X16002000Y4600000D03*
%TD*%
D24*
%TO.P,R6,1*%
%TO.N,B*%
X3302000Y4346000D03*
%TO.P,R6,2*%
%TO.N,A*%
X3302000Y5306000D03*
%TD*%
D16*
%TO.P,R2,1*%
%TO.N,Voltage*%
X15748000Y2538000D03*
%TO.P,R2,2*%
%TO.N,GND*%
X15748000Y3558000D03*
%TD*%
D26*
%TO.N,VCC*%
X16383000Y482600D03*
%TO.N,+5V*%
X11700000Y550000D03*
%TO.N,GND*%
X5200000Y1275000D03*
X14725000Y4150000D03*
X6850000Y3575000D03*
X5350000Y9440000D03*
X13900000Y550000D03*
%TO.N,NRST*%
X10425000Y1175000D03*
%TO.N,SWD*%
X12675000Y8423500D03*
X12675000Y5650000D03*
X11700000Y3800000D03*
%TO.N,VCC*%
X18135600Y1498600D03*
%TO.N,Net-(D5-A2)*%
X2810000Y1270000D03*
%TO.N,Net-(D6-A2)*%
X2740000Y8810000D03*
%TO.N,WSxx*%
X16975000Y6170500D03*
%TD*%
D27*
%TO.N,Voltage*%
X16406400Y1526000D02*
X15748000Y1526000D01*
X19532600Y406400D02*
X17526000Y406400D01*
X17303400Y9577400D02*
X19277000Y9577400D01*
X16448700Y8722700D02*
X17303400Y9577400D01*
X19964400Y838200D02*
X19532600Y406400D01*
X19964400Y8890000D02*
X19964400Y838200D01*
X19277000Y9577400D02*
X19964400Y8890000D01*
X16448700Y8117500D02*
X16448700Y8722700D01*
X16205200Y7874000D02*
X16448700Y8117500D01*
X17526000Y406400D02*
X16406400Y1526000D01*
X15600000Y7874000D02*
X16205200Y7874000D01*
%TO.N,GND*%
X17322800Y2565400D02*
X16330200Y3558000D01*
X16330200Y3558000D02*
X15748000Y3558000D01*
X17858200Y963200D02*
X17322800Y1498600D01*
X19126200Y963200D02*
X17858200Y963200D01*
X17322800Y1498600D02*
X17322800Y2565400D01*
%TO.N,Net-(Q1-G)*%
X19126200Y4122700D02*
X19085600Y4163300D01*
X19126200Y1983200D02*
X19126200Y4122700D01*
%TO.N,+5V*%
X17185600Y5492600D02*
X17094200Y5584000D01*
X17185600Y4163300D02*
X17185600Y5492600D01*
D28*
X17094200Y5584000D02*
X16026000Y5584000D01*
X19050000Y5584000D02*
X17094200Y5584000D01*
D27*
%TO.N,VCC*%
X16359600Y506000D02*
X16383000Y482600D01*
X15748000Y506000D02*
X16359600Y506000D01*
D28*
%TO.N,+5V*%
X15050000Y4725000D02*
X14486827Y4725000D01*
X5334000Y2466000D02*
X5334000Y3556000D01*
X14486827Y4725000D02*
X13880913Y4119087D01*
X16002000Y5560000D02*
X15885000Y5560000D01*
X16002000Y5588000D02*
X15600000Y5990000D01*
X5334000Y4888000D02*
X5399000Y4953000D01*
X12375000Y575000D02*
X7225000Y575000D01*
X15600000Y5990000D02*
X15600000Y6249000D01*
X18116000Y5464000D02*
X17984000Y5596000D01*
X16002000Y5560000D02*
X16002000Y5588000D01*
X15885000Y5560000D02*
X15050000Y4725000D01*
X13880913Y4119087D02*
X13880913Y2080913D01*
X7225000Y575000D02*
X5334000Y2466000D01*
X5334000Y3556000D02*
X5334000Y4888000D01*
X16026000Y5584000D02*
X16002000Y5560000D01*
X13880913Y2080913D02*
X12375000Y575000D01*
%TO.N,GND*%
X6313000Y3575000D02*
X6294000Y3556000D01*
D27*
X13900000Y550000D02*
X14690000Y550000D01*
D28*
X14732000Y3556000D02*
X15746000Y3556000D01*
X16002000Y4600000D02*
X16002000Y3812000D01*
D27*
X4350000Y8400000D02*
X4350000Y8150000D01*
X4350000Y8150000D02*
X4015000Y7815000D01*
D28*
X14725000Y4150000D02*
X14725000Y3563000D01*
D27*
X14690000Y550000D02*
X14725000Y515000D01*
X5399000Y8763000D02*
X4713000Y8763000D01*
X14550000Y6324000D02*
X14725000Y6499000D01*
X5350000Y9440000D02*
X5350000Y8812000D01*
D28*
X14725000Y3563000D02*
X14732000Y3556000D01*
X15746000Y3556000D02*
X15748000Y3558000D01*
D27*
X14550000Y5624000D02*
X14550000Y6324000D01*
X5350000Y8812000D02*
X5399000Y8763000D01*
X4713000Y8763000D02*
X4350000Y8400000D01*
D28*
X16002000Y3812000D02*
X15748000Y3558000D01*
D27*
X5200000Y1275000D02*
X4560000Y1275000D01*
D28*
X6850000Y3575000D02*
X6313000Y3575000D01*
D27*
X4015000Y7815000D02*
X3525000Y7815000D01*
D28*
%TO.N,Voltage*%
X14732000Y2596000D02*
X15690000Y2596000D01*
X15748000Y1526000D02*
X15748000Y2538000D01*
X15690000Y2596000D02*
X15748000Y2538000D01*
D27*
X14725000Y1485000D02*
X15707000Y1485000D01*
D28*
X14683413Y1443413D02*
X14725000Y1485000D01*
D27*
X15707000Y1485000D02*
X15748000Y1526000D01*
D28*
X15700000Y1478000D02*
X15748000Y1526000D01*
D27*
%TO.N,StateLed1*%
X17525000Y9225000D02*
X18363000Y9225000D01*
X18363000Y9225000D02*
X18984000Y8604000D01*
X16725632Y7474000D02*
X16947600Y7695968D01*
X16947600Y7695968D02*
X16947600Y8647600D01*
X15600000Y7474000D02*
X16725632Y7474000D01*
X16947600Y8647600D02*
X17525000Y9225000D01*
X18984000Y8604000D02*
X19000000Y8604000D01*
D28*
%TO.N,Net-(D3-A)*%
X19000000Y7634000D02*
X19000000Y6685000D01*
X19000000Y6685000D02*
X18975000Y6660000D01*
D27*
%TO.N,StateLed0*%
X17300000Y7975000D02*
X17929000Y8604000D01*
X17929000Y8604000D02*
X17984000Y8604000D01*
X17300000Y7550000D02*
X17300000Y7975000D01*
X15600000Y7074000D02*
X16824000Y7074000D01*
X16824000Y7074000D02*
X17300000Y7550000D01*
D28*
%TO.N,Net-(D4-A)*%
X17984000Y7634000D02*
X17984000Y6669000D01*
X17984000Y6669000D02*
X17975000Y6660000D01*
D27*
%TO.N,NRST*%
X13350000Y4575000D02*
X10425000Y1650000D01*
X10425000Y1650000D02*
X10425000Y1175000D01*
X13350000Y5624000D02*
X13350000Y4575000D01*
%TO.N,U2_DE*%
X14950000Y8524000D02*
X14950000Y9170368D01*
X11203000Y7493000D02*
X10349000Y7493000D01*
X11646400Y7936400D02*
X11203000Y7493000D01*
X14369968Y9750400D02*
X12350400Y9750400D01*
X14950000Y9170368D02*
X14369968Y9750400D01*
X12350400Y9750400D02*
X11646400Y9046400D01*
X11646400Y9046400D02*
X11646400Y7936400D01*
%TO.N,U2_RE*%
X11998800Y7565062D02*
X10656738Y6223000D01*
X12496368Y9398000D02*
X11998800Y8900432D01*
X11998800Y8900432D02*
X11998800Y7565062D01*
X14550000Y9072000D02*
X14224000Y9398000D01*
X14224000Y9398000D02*
X12496368Y9398000D01*
X14550000Y8524000D02*
X14550000Y9072000D01*
X10656738Y6223000D02*
X10349000Y6223000D01*
%TO.N,SWD*%
X12675000Y5650000D02*
X12675000Y4775000D01*
X12775500Y8524000D02*
X13350000Y8524000D01*
X12675000Y4775000D02*
X11700000Y3800000D01*
X12675000Y8423500D02*
X12775500Y8524000D01*
%TO.N,U2_DI*%
X12047521Y6674000D02*
X11600200Y6226679D01*
X9406262Y5588000D02*
X8890000Y6104262D01*
X11291738Y5588000D02*
X9406262Y5588000D01*
X12700000Y6674000D02*
X12047521Y6674000D01*
X8890000Y7874000D02*
X9779000Y8763000D01*
X8890000Y6104262D02*
X8890000Y7874000D01*
X9779000Y8763000D02*
X10349000Y8763000D01*
X11600200Y5896462D02*
X11291738Y5588000D01*
X11600200Y6226679D02*
X11600200Y5896462D01*
%TO.N,U2_RO*%
X11952600Y5468300D02*
X11437300Y4953000D01*
X11952600Y6080711D02*
X11952600Y5468300D01*
X11437300Y4953000D02*
X10349000Y4953000D01*
X12145889Y6274000D02*
X11952600Y6080711D01*
X12700000Y6274000D02*
X12145889Y6274000D01*
%TO.N,A*%
X2494000Y5306000D02*
X3302000Y5306000D01*
X3302000Y5306000D02*
X3302000Y6092000D01*
X1896500Y5903500D02*
X2494000Y5306000D01*
X4703000Y7493000D02*
X5399000Y7493000D01*
X1524000Y5903500D02*
X1896500Y5903500D01*
X3302000Y6092000D02*
X4703000Y7493000D01*
%TO.N,B*%
X4070000Y5080000D02*
X4070000Y5530000D01*
X1659000Y4330000D02*
X3286000Y4330000D01*
X4070000Y5530000D02*
X4763000Y6223000D01*
X1524000Y4195000D02*
X1659000Y4330000D01*
X3302000Y4346000D02*
X3336000Y4346000D01*
X3286000Y4330000D02*
X3302000Y4346000D01*
X4763000Y6223000D02*
X5399000Y6223000D01*
X3336000Y4346000D02*
X4070000Y5080000D01*
%TO.N,Net-(D5-A2)*%
X2810000Y1270000D02*
X1524000Y1270000D01*
X3590000Y1275000D02*
X2815000Y1275000D01*
X2815000Y1275000D02*
X2810000Y1270000D01*
%TO.N,Net-(D6-A2)*%
X2740000Y8810000D02*
X3500000Y8810000D01*
X2740000Y8810000D02*
X1542500Y8810000D01*
X1542500Y8810000D02*
X1524000Y8828500D01*
X3500000Y8810000D02*
X3525000Y8785000D01*
%TO.N,WSxx*%
X15600000Y6674000D02*
X16471500Y6674000D01*
X16471500Y6674000D02*
X16975000Y6170500D01*
%TD*%
M02*
